<svg xmlns="http://www.w3.org/2000/svg" xmlns:xlink="http://www.w3.org/1999/xlink" width="176" height="176" viewBox="0 0 176 176"><defs><style>.a{fill:#fff;opacity:0;}.b{fill:#d1eeff;}.c{fill:#64caff;}.d{fill:#03cc9d;}.e{fill:#5d4223;}.f{fill:#1e1e5d;}.g{fill:#a0d3f2;}.h{fill:#6ecdff;}.i{fill:#84d3fc;}.j{fill:#dbf2ff;}.k{fill:#bfe7ff;}.l{fill:#161643;}.m{filter:url(#c);}.n{filter:url(#a);}</style><filter id="a" x="34.449" y="27.113" width="107.099" height="107.099" filterUnits="userSpaceOnUse"><feOffset dy="3" input="SourceAlpha"/><feGaussianBlur stdDeviation="3" result="b"/><feFlood flood-opacity="0.161"/><feComposite operator="in" in2="b"/><feComposite in="SourceGraphic"/></filter><filter id="c" x="36.201" y="5.692" width="103.602" height="119.148" filterUnits="userSpaceOnUse"><feOffset dy="-2" input="SourceAlpha"/><feGaussianBlur stdDeviation="1.5" result="d"/><feFlood flood-opacity="0.102"/><feComposite operator="in" in2="d"/><feComposite in="SourceGraphic"/></filter></defs><g transform="translate(-196 -1145.564)"><rect class="a" width="176" height="176" transform="translate(196 1145.564)"/><path class="b" d="M79.737,18.812C92.4,18.812,97.472,1.451,107.9.226,127.711-2.1,147.954,13.768,147.954,37.1c0,35.143-30.542,63.631-68.217,63.631S0,83.791,0,48.649,42.061,18.812,79.737,18.812Z" transform="translate(358.707 1263.163) rotate(-175)"/><g transform="translate(-228 87.564)"><g class="n" transform="matrix(1, 0, 0, 1, 424, 1058)"><path class="c" d="M44.55,0A44.55,44.55,0,1,1,0,44.55,44.55,44.55,0,0,1,44.55,0Z" transform="translate(43.45 33.11)"/></g><g transform="translate(463.002 1066.193)"><g class="m" transform="matrix(1, 0, 0, 1, -39, -8.19)"><path class="d" d="M18407.111-11707.189a65.139,65.139,0,0,1-8.66-2.085,36.831,36.831,0,0,1-6.367-2.882h-.066l-3.221-2.011v-17.67h0v17.484l-3.045-1.937-3.752-3.34v-12.208h-3.4v-10.2a31.748,31.748,0,0,1,10.2-8.487v-56.11l27.2-10.2v13.6l20.4,8.5v50.349a21.273,21.273,0,0,0,6.311-2.749l7.291,3.4v11.9h-3.4v10.238l-6.8,6.186v-.265a19.383,19.383,0,0,1-2.775,2.141,11.365,11.365,0,0,1-2.859,1.335h-6.359l6.648.032a41.247,41.247,0,0,1-6.117,2.8,50.8,50.8,0,0,1-6.578,1.756,32.449,32.449,0,0,1-6.588.913q-.445.013-.9.013A63.538,63.538,0,0,1,18407.111-11707.189Zm17.387-5.029v0Zm-10.2-.05v0Zm25.5-12.772v0Zm12.33-24a6.809,6.809,0,0,1-5.131-6.594c0-11.9,3.049-18.7,6.8-18.7s6.8,6.8,6.8,18.7a6.81,6.81,0,0,1-5.1,6.586v12.112s-.746,2.271-1.57,4.105a27.282,27.282,0,0,1-1.715,3.229Zm-79.463,16.21c-.82-1.835-1.566-4.105-1.566-4.105v-12.111a6.806,6.806,0,0,1-5.1-6.587c0-11.9,3.043-18.7,6.8-18.7s6.8,6.8,6.8,18.7a6.806,6.806,0,0,1-5.125,6.594l-.088,19.438A27.622,27.622,0,0,1,18372.664-11732.833Z" transform="translate(-18325.3 11829.03)"/></g></g><g transform="translate(463.002 1066.193)"><path class="d" d="M21.6,222.7a6.8,6.8,0,1,1-13.6,0c0-11.9,3.045-18.7,6.8-18.7S21.6,210.8,21.6,222.7Z" transform="translate(-6.3 -157.5)"/><path class="d" d="M8,222.7a6.8,6.8,0,1,0,13.6,0c0-11.9-3.045-18.7-6.8-18.7S8,210.8,8,222.7Z" transform="translate(74.699 -157.5)"/><path class="e" d="M32,292h3.4l-.115,26.036a27.23,27.23,0,0,1-1.719-3.23C32.745,312.972,32,310.7,32,310.7Z" transform="translate(-25.2 -226.801)"/><path class="e" d="M35.4,292H32l.115,26.036a27.23,27.23,0,0,0,1.719-3.23c.821-1.834,1.566-4.106,1.566-4.106Z" transform="translate(55.797 -226.801)"/><g transform="translate(0 65.199)"><path class="f" d="M27.41,459.938l42.74.207a40.859,40.859,0,0,1-6.115,2.8,50.834,50.834,0,0,1-6.578,1.759,32.343,32.343,0,0,1-6.59.909,59.909,59.909,0,0,1-8.057-.482,65.243,65.243,0,0,1-8.658-2.089A35.658,35.658,0,0,1,27.41,459.938Z" transform="translate(0 -416.678)"/></g><g transform="translate(-1)"><path class="g" d="M288,404h15.3v8.5H288Z" transform="translate(-226.801 -315.001)"/><path class="f" d="M88,396h6.8v19.188l-3.044-1.94L88,409.909Z" transform="translate(-69.301 -308.701)"/><path class="h" d="M192,396h10.2v22.038H192Z" transform="translate(-151.201 -308.701)"/><path class="i" d="M240,396h10.2v22.038H240Z" transform="translate(-189 -308.701)"/><path class="f" d="M360,396h6.8v11.938l-6.8,6.186Z" transform="translate(-283.5 -308.701)"/><path class="j" d="M120,75.4V14.2L147.2,4V75.4Z" transform="translate(-94.5)"/><path class="k" d="M248,129.2V68l20.4,8.5v52.7Z" transform="translate(-195.301 -50.4)"/><path class="l" d="M248,292h20.4v15.3H248Z" transform="translate(-195.301 -226.801)"/><path class="f" d="M120,268h27.2v15.3H120Z" transform="translate(-94.5 -207.9)"/><g transform="translate(30.6 17.6)"><path class="l" d="M208,228h3.4v3.4H208Z" transform="translate(-194.4 -194)"/><path class="l" d="M176,228h3.4v3.4H176Z" transform="translate(-169.2 -194)"/><path class="l" d="M304,252h3.4v3.4H304Z" transform="translate(-270 -212.9)"/><path class="l" d="M272,252h3.4v3.4H272Z" transform="translate(-244.8 -212.9)"/><path class="l" d="M304,220h3.4v3.4H304Z" transform="translate(-270 -187.7)"/><path class="l" d="M272,220h3.4v3.4H272Z" transform="translate(-244.8 -187.7)"/><path class="l" d="M304,188h3.4v3.4H304Z" transform="translate(-270 -162.5)"/><path class="l" d="M272,188h3.4v3.4H272Z" transform="translate(-244.8 -162.5)"/><path class="l" d="M304,156h3.4v3.4H304Z" transform="translate(-270 -137.3)"/><path class="l" d="M272,156h3.4v3.4H272Z" transform="translate(-244.8 -137.3)"/><path class="l" d="M304,124h3.4v3.4H304Z" transform="translate(-270 -112.1)"/><path class="l" d="M272,124h3.4v3.4H272Z" transform="translate(-244.8 -112.1)"/><path class="l" d="M144,228h3.4v3.4H144Z" transform="translate(-144 -194)"/><path class="l" d="M208,196h3.4v3.4H208Z" transform="translate(-194.4 -168.8)"/><path class="l" d="M176,196h3.4v3.4H176Z" transform="translate(-169.2 -168.8)"/><path class="l" d="M144,196h3.4v3.4H144Z" transform="translate(-144 -168.8)"/><path class="l" d="M208,164h3.4v3.4H208Z" transform="translate(-194.4 -143.6)"/><path class="l" d="M176,164h3.4v3.4H176Z" transform="translate(-169.2 -143.6)"/><path class="l" d="M144,164h3.4v3.4H144Z" transform="translate(-144 -143.6)"/><path class="l" d="M208,132h3.4v3.4H208Z" transform="translate(-194.4 -118.4)"/><path class="l" d="M176,132h3.4v3.4H176Z" transform="translate(-169.2 -118.4)"/><path class="l" d="M144,132h3.4v3.4H144Z" transform="translate(-144 -118.4)"/><path class="l" d="M208,100h3.4v3.4H208Z" transform="translate(-194.4 -93.2)"/><path class="l" d="M176,100h3.4v3.4H176Z" transform="translate(-169.2 -93.2)"/><path class="l" d="M144,100h3.4v3.4H144Z" transform="translate(-144 -93.2)"/><path class="l" d="M208,68h3.4v3.4H208Z" transform="translate(-194.4 -68)"/><path class="l" d="M176,68h3.4v3.4H176Z" transform="translate(-169.2 -68)"/><path class="l" d="M144,68h3.4v3.4H144Z" transform="translate(-144 -68)"/></g><path class="k" d="M136.108,306.8a21.266,21.266,0,0,1-11.409,3.4c-11.9,0-13.6-10.2-28.9-10.2S72,311.9,72,311.9v10.2h71.4V310.2Z" transform="translate(-56.699 -233.101)"/><g transform="translate(22.1 73.699)"><path class="f" d="M104,364h35.7v3.4H104Z" transform="translate(-104 -357.2)"/><path class="f" d="M368,364h3.4v3.4H368Z" transform="translate(-311.9 -357.2)"/><path class="f" d="M136,332h3.4v3.4H136Z" transform="translate(-129.2 -332)"/><path class="f" d="M168,332h13.6v3.4H168Z" transform="translate(-154.4 -332)"/></g><path class="k" d="M288,436h15.3v9.361a19.333,19.333,0,0,1-2.778,2.141,11.46,11.46,0,0,1-2.855,1.336H288Z" transform="translate(-226.801 -340.201)"/><path class="g" d="M120,404h15.3v8.5H120Z" transform="translate(-94.5 -315.001)"/><path class="k" d="M120,436h15.3v12.885H123.219L120,446.873Z" transform="translate(-94.5 -340.201)"/></g></g></g></g></svg>