<svg xmlns="http://www.w3.org/2000/svg" xmlns:xlink="http://www.w3.org/1999/xlink" width="176" height="176.087" viewBox="0 0 176 176.087"><defs><style>.a{fill:#fff;opacity:0;}.b{fill:#d1eeff;}.c{fill:#64caff;}.d{fill:#5d4223;}.e{fill:#01e2ad;}.f{fill:#00b78c;}.g{fill:#03a07b;}.h{fill:#03cc9d;}.i{fill:#009f79;}.j{fill:#bfe7ff;}.k{fill:#a5d7f5;}.l{fill:#dbf2ff;}.m{fill:#161643;}.n{fill:#383889;}.o{fill:#23235d;}.p{filter:url(#a);}</style><filter id="a" x="37.805" y="27.393" width="107.099" height="107.099" filterUnits="userSpaceOnUse"><feOffset dy="3" input="SourceAlpha"/><feGaussianBlur stdDeviation="3" result="b"/><feFlood flood-opacity="0.161"/><feComposite operator="in" in2="b"/><feComposite in="SourceGraphic"/></filter></defs><g transform="translate(-196 -1145.477)"><rect class="a" width="176" height="176" transform="translate(196 1145.564)"/><path class="b" d="M73.849,17.423C85.573,17.423,90.275,1.344,99.934.21c18.348-2.155,37.1,12.542,37.1,34.153,0,32.548-28.287,58.933-63.18,58.933S0,77.6,0,45.057,38.956,17.423,73.849,17.423Z" transform="translate(269.77 1307.478) rotate(-112)"/><g class="p" transform="matrix(1, 0, 0, 1, 196, 1145.48)"><circle class="c" cx="44.55" cy="44.55" r="44.55" transform="translate(46.8 33.39)"/></g><g transform="translate(240.025 1173.011)"><path class="d" d="M377.947,177.555l-5.4,2.032a.807.807,0,0,1-.807-.807V123.938H380.7l-.043,50.807A8.171,8.171,0,0,1,377.947,177.555Zm-.51.312" transform="translate(-296.832 -98.877)"/><path class="e" d="M358.266,26.113,348.982,6.486,346.648.876a1.092,1.092,0,0,0-2.081-.012l-2.374,5.57-9.308,19.68c-.261.553.065,1.244.587,1.244h24.206C358.2,27.357,358.527,26.666,358.266,26.113Zm0,0" transform="translate(-265.734)"/><path class="f" d="M336.335,218.32H312.426a.575.575,0,0,0-.5.437c-.79,2.236-4.177,12.246-5.606,16.474-.3.88.16,1.895.854,1.895h34.377c.7,0,1.161-1.041.845-1.923Zm0,0" transform="translate(-244.52 -174.24)"/><path class="g" d="M313.122,235.232c1.429-4.228,4.816-14.238,5.606-16.474a.575.575,0,0,1,.5-.437h-6.8a.575.575,0,0,0-.5.437c-.789,2.236-4.177,12.246-5.606,16.474-.3.88.16,1.895.854,1.895h6.8C313.282,237.126,312.825,236.112,313.122,235.232Zm0,0" transform="translate(-244.523 -174.24)"/><path class="h" d="M343.331,128.758H325.38a.608.608,0,0,0-.541.438c-.849,2.235-4.49,12.246-6.025,16.474-.32.88.172,1.895.919,1.895h29.2c.757,0,1.248-1.041.908-1.923Zm0,0" transform="translate(-254.492 -102.727)"/><path class="f" d="M325.612,145.67c1.536-4.228,5.177-14.239,6.025-16.474a.609.609,0,0,1,.541-.438h-6.8a.609.609,0,0,0-.541.438c-.849,2.235-4.49,12.246-6.025,16.474-.32.88.172,1.895.919,1.895h6.8C325.783,147.564,325.291,146.55,325.612,145.67Zm0,0" transform="translate(-254.49 -102.727)"/><path class="h" d="M339.686,26.113l9.29-19.642-2.328-5.6a1.092,1.092,0,0,0-2.081-.012l-2.374,5.57-9.308,19.68c-.261.553.065,1.244.587,1.244h6.8C339.75,27.357,339.424,26.666,339.686,26.113Zm0,0" transform="translate(-265.734)"/><path class="h" d="M392.449,94.463a3.627,3.627,0,1,1-3.627-3.627A3.627,3.627,0,0,1,392.449,94.463Zm0,0" transform="translate(-307.578 -72.445)"/><g transform="translate(-26 8.305)"><path class="d" d="M376.537,165.378l-4.175,1.571a.624.624,0,0,1-.624-.624V123.938h6.929l-.034,39.268A6.316,6.316,0,0,1,376.537,165.378Zm-.394.241" transform="translate(-299.83 -104.543)"/><path class="e" d="M352.481,20.208l-7.176-15.17L343.5.7a.844.844,0,0,0-1.608-.009L340.058,5l-7.194,15.21c-.2.427.05.961.454.961h18.709C352.43,21.169,352.683,20.635,352.481,20.208Zm0,0" transform="translate(-266.95 0)"/><g transform="translate(61.706 0.11)"><path class="f" d="M329.5,218.32h-18.48a.444.444,0,0,0-.388.338c-.61,1.728-3.229,9.465-4.333,12.733-.23.68.123,1.464.66,1.464h26.569c.544,0,.9-.8.653-1.486Zm0,0" transform="translate(-306.225 -184.336)"/><path class="i" d="M311.557,231.391c1.1-3.268,3.723-11,4.333-12.733a.445.445,0,0,1,.389-.338h-5.256a.444.444,0,0,0-.389.338c-.61,1.728-3.229,9.465-4.333,12.733-.23.68.124,1.464.66,1.464h5.256C311.68,232.855,311.327,232.071,311.557,231.391Zm0,0" transform="translate(-306.229 -184.336)"/><path class="h" d="M337.741,128.758H323.866a.47.47,0,0,0-.418.338c-.656,1.728-3.47,9.465-4.657,12.733-.247.68.133,1.464.71,1.464h22.571c.585,0,.965-.8.7-1.486Zm0,0" transform="translate(-316.769 -108.724)"/><path class="f" d="M324.045,141.829c1.187-3.268,4-11.005,4.657-12.733a.471.471,0,0,1,.418-.338h-5.257a.471.471,0,0,0-.418.338c-.656,1.728-3.47,9.465-4.657,12.733-.247.68.133,1.464.71,1.464h5.256C324.177,143.293,323.8,142.509,324.045,141.829Zm0,0" transform="translate(-316.767 -108.724)"/><path class="h" d="M338.12,20.208,345.3,5.027,343.5.7a.844.844,0,0,0-1.608-.009L340.058,5l-7.194,15.21c-.2.427.05.961.454.961h5.256C338.17,21.169,337.918,20.635,338.12,20.208Zm0,0" transform="translate(-328.656 -0.11)"/><path class="h" d="M390.8,93.639a2.8,2.8,0,1,1-2.8-2.8A2.8,2.8,0,0,1,390.8,93.639Zm0,0" transform="translate(-372.897 -76.707)"/></g></g><path class="j" d="M120,274.709V232.8h42.718l16.192,29.932a47.781,47.781,0,0,1-13.086,11.981c-7.71,4.458-17.754,5.852-17.754,5.852Zm0,0" transform="translate(-95.82 -185.8)"/><path class="k" d="M125.642,242.469H168.3l-5.58-9.672H120v41.912h5.642Zm0,0" transform="translate(-95.82 -185.8)"/><path class="l" d="M52.416,280.555a47.839,47.839,0,0,1-11.27,0,43.334,43.334,0,0,1-10.49-3.088L9.012,258.658,24.18,232.8Z" transform="translate(0 -185.8)"/><path class="l" d="M24.18,232.8,8.844,258.726a56.487,56.487,0,0,0,3.242,4.768c1.993,2.646,4.729,5.815,4.729,5.815l13.008-26.733Zm0,0" transform="translate(0 -185.8)"/><path class="m" d="M87.262,264.8,81.08,295.253a61.372,61.372,0,0,0,8.225,5.966,31.425,31.425,0,0,0,7.689,3.115Zm0,0" transform="translate(-63.081 -211.352)"/><path class="n" d="M69.219,264.8,56.443,292.071a.4.4,0,0,0,.215.545,6.872,6.872,0,0,1,4.3,7.645Zm0,0" transform="translate(-45.039 -211.352)"/><path class="o" d="M87.262,264.8,79,300.261l5.2-2.391,5.478-22.694Zm0,0" transform="translate(-63.081 -211.352)"/><path class="j" d="M177.344,403.736a3.627,3.627,0,1,1-3.627-3.627A3.627,3.627,0,0,1,177.344,403.736Zm0,0" transform="translate(-135.816 -319.398)"/></g></g></svg>