<svg xmlns="http://www.w3.org/2000/svg" xmlns:xlink="http://www.w3.org/1999/xlink" width="181.705" height="176" viewBox="0 0 181.705 176"><defs><style>.a{fill:#fff;opacity:0;}.b{fill:#d1eeff;}.c{fill:#002cfa;}.d{fill:#64caff;}.e{fill:#bfe7ff;}.f{fill:#dbf2ff;}.g{fill:#161643;}.h{fill:#84d3fc;}.i{filter:url(#c);}.j{filter:url(#a);}</style><filter id="a" x="38.947" y="21.265" width="98.102" height="104.411" filterUnits="userSpaceOnUse"><feOffset dy="-2" input="SourceAlpha"/><feGaussianBlur stdDeviation="1.5" result="b"/><feFlood flood-opacity="0.102"/><feComposite operator="in" in2="b"/><feComposite in="SourceGraphic"/></filter><filter id="c" x="34.45" y="28.078" width="107.099" height="107.099" filterUnits="userSpaceOnUse"><feOffset dy="3" input="SourceAlpha"/><feGaussianBlur stdDeviation="3" result="d"/><feFlood flood-opacity="0.102"/><feComposite operator="in" in2="d"/><feComposite in="SourceGraphic"/></filter></defs><g transform="translate(-196 -1145.564)"><rect class="a" width="176" height="176" transform="translate(196 1145.564)"/><path class="b" d="M68.217,40.063c12.659,0,17.735-17.361,28.164-18.586,19.81-2.327,40.053,13.541,40.053,36.876,0,35.143-30.542,63.631-68.217,63.631S-11.52,105.042-11.52,69.9,30.542,40.063,68.217,40.063Z" transform="matrix(0.788, -0.616, 0.616, 0.788, 195.092, 1213.559)"/><g transform="translate(239.45 1179.571)"><g class="j" transform="matrix(1, 0, 0, 1, -43.45, -34.01)"><path class="c" d="M18662.137-11747.24h-.039q-1.91,0-3.777-.158l-.105-.009-.115-.01-.326-.03-.08-.008a44.556,44.556,0,0,1-40.145-44.334,44.509,44.509,0,0,1,2.207-13.884v-4.017a2.425,2.425,0,0,1,2.428-2.428h.264a44.739,44.739,0,0,1,14.031-16.12v-11.222a3.1,3.1,0,0,1,2.98-3.192h45.352a3.1,3.1,0,0,1,2.986,3.192v11.275a44.73,44.73,0,0,1,13.955,16.066h.336a2.429,2.429,0,0,1,2.432,2.428v4.248a44.544,44.544,0,0,1,2.131,13.652,44.55,44.55,0,0,1-2.131,13.653v.2a44.677,44.677,0,0,1-2.719,6.488v.01q-1.034,2-2.254,3.878a44.789,44.789,0,0,1-16.533,15.144h0c-.521.277-1.043.54-1.574.8-.412.2-.83.39-1.248.577a45.034,45.034,0,0,1-5.08,1.887c-.725.221-1.461.425-2.2.605l-.275.067c-.494.123-.994.234-1.492.337v0q-1.515.311-3.066.518v0c-.521.07-1.047.132-1.572.183q-1.793.17-3.623.2h-.029l-.3,0h-.41Z" transform="translate(-18574.1 11870.42)"/></g></g><g transform="translate(239.45 1179.571)"><g class="i" transform="matrix(1, 0, 0, 1, -43.45, -34.01)"><path class="d" d="M44.55,0A44.55,44.55,0,1,1,0,44.55,44.576,44.576,0,0,1,44.55,0Z" transform="translate(43.45 34.08)"/></g><path class="e" d="M97.419,141.91v31.752a44.274,44.274,0,0,1-2.717,6.5,43.647,43.647,0,0,1-2.253,3.878,44.6,44.6,0,0,1-79.791-10.38V141.91a2.426,2.426,0,0,1,2.426-2.426H94.993A2.426,2.426,0,0,1,97.419,141.91Z" transform="translate(-10.453 -115.191)"/><path class="f" d="M159.989,3.191V86.724a44.022,44.022,0,0,1-4.784,3.147q-.778.441-1.572.851-.62.318-1.25.619a42.552,42.552,0,0,1-5.075,2.019c-.792.257-1.592.493-2.4.7q-.781.2-1.572.378-1.515.333-3.066.555-.783.111-1.572.193a42.253,42.253,0,0,1-8.726,0q-.792-.082-1.572-.195-1.55-.219-3.066-.553-.792-.172-1.572-.378-1.212-.315-2.4-.7a42.286,42.286,0,0,1-5.075-2.019c-.422-.2-.839-.407-1.254-.621-.53-.271-1.054-.555-1.572-.849a44.562,44.562,0,0,1-4.784-3.147V3.191A3.093,3.093,0,0,1,111.655,0h45.351A3.093,3.093,0,0,1,159.989,3.191Z" transform="translate(-89.746 -6.242)"/><g transform="translate(24.687 5.28)"><path class="g" d="M151.84,81.9h-2.73v3.717c0,.439-.535.658-1.07.658s-1.07-.219-1.07-.658V76.9c0-.453.535-.645,1.07-.645s1.07.192,1.07.645v3.361h2.73V76.9c0-.453.535-.645,1.07-.645s1.07.192,1.07.645v8.724c0,.439-.535.658-1.07.658s-1.07-.219-1.07-.658Z" transform="translate(-146.97 -76.253)"/><path class="g" d="M199.036,83.126V79.49c0-2.359,1.468-3.237,3.361-3.237s3.375.878,3.375,3.237v3.635c0,2.359-1.482,3.237-3.375,3.237S199.036,85.485,199.036,83.126Zm4.6-3.635c0-.947-.466-1.372-1.235-1.372s-1.221.425-1.221,1.372v3.635c0,.947.453,1.372,1.221,1.372s1.235-.425,1.235-1.372Z" transform="translate(-189.968 -76.253)"/><path class="g" d="M251.61,76.253c.453,0,.645.494.645.947,0,.521-.233.974-.645.974h-1.893v7.449c0,.439-.535.658-1.07.658s-1.07-.219-1.07-.658V78.173h-1.893c-.412,0-.645-.453-.645-.974,0-.453.192-.947.645-.947Z" transform="translate(-227.959 -76.253)"/><path class="g" d="M297.433,80.438h2.058c.411,0,.645.4.645.837,0,.37-.192.809-.645.809h-2.058v2.332h3.676c.411,0,.645.439.645.947,0,.439-.192.919-.645.919h-4.883c-.466,0-.933-.219-.933-.658V76.912c0-.439.466-.658.933-.658h4.883c.453,0,.645.48.645.919,0,.508-.233.947-.645.947h-3.676Z" transform="translate(-269.461 -76.254)"/><path class="g" d="M342.62,86.281c-.466,0-.933-.219-.933-.658V76.9c0-.453.535-.645,1.07-.645s1.07.192,1.07.645v7.517h3.128c.412,0,.617.466.617.933s-.206.933-.617.933H342.62Z" transform="translate(-307.775 -76.253)"/></g><path class="g" d="M136.145,176.905V162.365a1.5,1.5,0,0,1,1.5-1.5h8.88a1.5,1.5,0,0,1,1.5,1.5v14.541a1.5,1.5,0,0,1-1.5,1.5h-8.88A1.5,1.5,0,0,1,136.145,176.905Z" transform="translate(-112.434 -132.852)"/><g transform="translate(25.284 29.59)"><rect class="h" width="8.727" height="9.185"/><rect class="h" width="8.727" height="3.315" transform="translate(0 11.072)"/></g><path class="g" d="M221.916,176.905V162.365a1.5,1.5,0,0,1,1.5-1.5h8.88a1.5,1.5,0,0,1,1.5,1.5v14.541a1.5,1.5,0,0,1-1.5,1.5h-8.88A1.5,1.5,0,0,1,221.916,176.905Z" transform="translate(-183.267 -132.852)"/><g transform="translate(40.221 29.59)"><rect class="d" width="8.727" height="9.185"/><rect class="d" width="8.727" height="3.315" transform="translate(0 11.072)"/></g><path class="g" d="M307.688,176.905V162.365a1.5,1.5,0,0,1,1.5-1.5h8.88a1.5,1.5,0,0,1,1.5,1.5v14.541a1.5,1.5,0,0,1-1.5,1.5h-8.88A1.5,1.5,0,0,1,307.688,176.905Z" transform="translate(-254.101 -132.852)"/><g transform="translate(55.16 29.59)"><rect class="h" width="8.727" height="9.185"/><rect class="h" width="8.727" height="3.315" transform="translate(0 11.072)"/></g><path class="g" d="M415.571,176.905V162.365a1.5,1.5,0,0,1,1.5-1.5h8.88a1.5,1.5,0,0,1,1.5,1.5v14.541a1.5,1.5,0,0,1-1.5,1.5h-8.88A1.5,1.5,0,0,1,415.571,176.905Z" transform="translate(-343.195 -132.852)"/><g transform="translate(73.95 29.59)"><rect class="h" width="8.727" height="9.185"/><rect class="h" width="8.727" height="3.315" transform="translate(0 11.072)"/></g><path class="g" d="M427.442,296.126v12.158a43.629,43.629,0,0,1-2.253,3.878h-8.124a1.5,1.5,0,0,1-1.5-1.5v-14.54a1.5,1.5,0,0,1,1.5-1.5h8.881A1.5,1.5,0,0,1,427.442,296.126Z" transform="translate(-343.194 -243.317)"/><g transform="translate(73.95 52.885)"><rect class="h" width="8.727" height="9.185"/><rect class="h" width="8.727" height="3.315" transform="translate(0 11.072)"/></g><path class="g" d="M28.262,176.905V162.365a1.5,1.5,0,0,1,1.5-1.5h8.88a1.5,1.5,0,0,1,1.5,1.5v14.541a1.5,1.5,0,0,1-1.5,1.5h-8.88A1.5,1.5,0,0,1,28.262,176.905Z" transform="translate(-23.34 -132.852)"/><g transform="translate(6.495 29.59)"><rect class="h" width="8.727" height="9.185"/><rect class="h" width="8.727" height="3.315" transform="translate(0 11.072)"/></g><path class="g" d="M40.13,296.124v14.54a1.5,1.5,0,0,1-1.5,1.5H30.511a44.529,44.529,0,0,1-2.253-3.878V296.124a1.5,1.5,0,0,1,1.5-1.5h8.881A1.5,1.5,0,0,1,40.13,296.124Z" transform="translate(-23.337 -243.315)"/><g transform="translate(6.495 52.885)"><rect class="h" width="8.727" height="9.185"/><rect class="h" width="8.727" height="3.315" transform="translate(0 11.072)"/></g><path class="g" d="M136.145,310.663V296.123a1.5,1.5,0,0,1,1.5-1.5h8.88a1.5,1.5,0,0,1,1.5,1.5v14.541a1.5,1.5,0,0,1-1.5,1.5h-8.88A1.5,1.5,0,0,1,136.145,310.663Z" transform="translate(-112.434 -243.314)"/><g transform="translate(25.284 52.885)"><rect class="h" width="8.727" height="9.185"/><rect class="h" width="8.727" height="3.315" transform="translate(0 11.072)"/></g><path class="g" d="M221.916,310.663V296.123a1.5,1.5,0,0,1,1.5-1.5h8.88a1.5,1.5,0,0,1,1.5,1.5v14.541a1.5,1.5,0,0,1-1.5,1.5h-8.88A1.5,1.5,0,0,1,221.916,310.663Z" transform="translate(-183.267 -243.314)"/><g transform="translate(40.221 52.885)"><rect class="h" width="8.727" height="9.185"/><rect class="h" width="8.727" height="3.315" transform="translate(0 11.072)"/></g><path class="g" d="M307.688,310.663V296.123a1.5,1.5,0,0,1,1.5-1.5h8.88a1.5,1.5,0,0,1,1.5,1.5v14.541a1.5,1.5,0,0,1-1.5,1.5h-8.88A1.5,1.5,0,0,1,307.688,310.663Z" transform="translate(-254.101 -243.314)"/><g transform="translate(55.16 52.885)"><rect class="h" width="8.727" height="9.185"/><rect class="h" width="8.727" height="3.315" transform="translate(0 11.072)"/></g><path class="g" d="M148.016,429.881v12.156q-.792-.161-1.572-.353-1.212-.295-2.4-.655a44.076,44.076,0,0,1-5.075-1.887c-.422-.187-.839-.38-1.254-.58q-.794-.379-1.572-.793v-7.887a1.5,1.5,0,0,1,1.5-1.5h8.881A1.5,1.5,0,0,1,148.016,429.881Z" transform="translate(-112.433 -353.777)"/><g transform="translate(25.283 76.181)"><path class="h" d="M153.9,437.414V446.6h-7.474c-.422-.187-.839-.38-1.254-.581v-8.6Z" transform="translate(-145.172 -437.414)"/><path class="h" d="M183.912,500.986v.655q-1.212-.295-2.4-.655Z" transform="translate(-175.184 -489.914)"/></g><path class="g" d="M233.79,429.881v12.675q-.783.1-1.572.18-2.154.21-4.362.211t-4.364-.211q-.792-.077-1.572-.182V429.881a1.5,1.5,0,0,1,1.5-1.5h8.879A1.5,1.5,0,0,1,233.79,429.881Z" transform="translate(-183.269 -353.777)"/><g transform="translate(40.221 76.181)"><rect class="h" width="8.727" height="11.982"/><path class="h" d="M239.673,500.986v1.707q-2.154.21-4.362.211t-4.364-.211v-1.707Z" transform="translate(-230.946 -489.914)"/></g><path class="g" d="M319.556,429.883v7.887q-.778.412-1.572.8-.62.3-1.25.579a44.349,44.349,0,0,1-5.075,1.887c-.792.24-1.592.46-2.4.655q-.781.191-1.572.353V429.883a1.5,1.5,0,0,1,1.5-1.5h8.881A1.5,1.5,0,0,1,319.556,429.883Z" transform="translate(-254.097 -353.779)"/><g transform="translate(55.159 76.181)"><path class="h" d="M325.44,437.414v8.606q-.62.3-1.25.579h-7.478v-9.185Z" transform="translate(-316.712 -437.414)"/><path class="h" d="M319.114,500.986c-.792.24-1.592.461-2.4.655v-.655Z" transform="translate(-316.712 -489.914)"/></g></g></g></svg>