<svg xmlns="http://www.w3.org/2000/svg" xmlns:xlink="http://www.w3.org/1999/xlink" width="176" height="176" viewBox="0 0 176 176"><defs><style>.a{fill:#fff;opacity:0;}.b{fill:#d1eeff;}.c{fill:#64caff;}.d{fill:#1e1e5d;}.e{fill:#dbf2ff;}.f{fill:#bfe7ff;}.g{fill:#84d3fc;}.h{fill:#161643;}.i{fill:#a5d7f5;}.j{fill:#95ffff;}.k{filter:url(#c);}.l{filter:url(#a);}</style><filter id="a" x="34.449" y="27.113" width="107.099" height="107.099" filterUnits="userSpaceOnUse"><feOffset dy="3" input="SourceAlpha"/><feGaussianBlur stdDeviation="3" result="b"/><feFlood flood-opacity="0.161"/><feComposite operator="in" in2="b"/><feComposite in="SourceGraphic"/></filter><filter id="c" x="41.576" y="16.315" width="92.781" height="108.605" filterUnits="userSpaceOnUse"><feOffset dy="-2" input="SourceAlpha"/><feGaussianBlur stdDeviation="1.5" result="d"/><feFlood flood-opacity="0.102"/><feComposite operator="in" in2="d"/><feComposite in="SourceGraphic"/></filter></defs><g transform="translate(-196 -1145.564)"><rect class="a" width="176" height="176" transform="translate(196 1145.564)"/><path class="b" d="M79.737,81.922c12.659,0,17.735,17.361,28.164,18.586,19.81,2.327,40.053-13.542,40.053-36.876C147.954,28.489,117.412,0,79.737,0S0,16.943,0,52.086,42.061,81.922,79.737,81.922Z" transform="translate(345.996 1296.31) rotate(-166)"/><g class="l" transform="matrix(1, 0, 0, 1, 196, 1145.56)"><circle class="c" cx="44.55" cy="44.55" r="44.55" transform="translate(43.45 33.11)"/></g><g transform="translate(237.177 1168.378)"><g class="k" transform="matrix(1, 0, 0, 1, -41.18, -22.81)"><path class="d" d="M18142.734-11732.608v-.019l-2.7-.246-4.281-1.32v-.031a30.286,30.286,0,0,1-8.2-3.2,44.175,44.175,0,0,1-7.611-6.009l-.068,0a37.132,37.132,0,0,1-4.021-4.1,60.119,60.119,0,0,1-3.895-5.373l-2.215-3.849-.178-48.518h26.184v-14.93l13.961-7.761-13.961,7.757v14.934h-27.928l8.725-15.71H18134v1.748l.006,0v-3.49l15.705-8.725,15.709,8.725v1.744h17.455l8.729,15.71h-1.744l.041,48.011-2.523,4.355a38.6,38.6,0,0,1-3.17,4.606,57.044,57.044,0,0,1-4.273,4.625l-.453.036h.664a40.268,40.268,0,0,1-7.369,5.483,51.025,51.025,0,0,1-9.1,3.789v.278a13.7,13.7,0,0,1-3.469,1.019c-1.744.219-3.512.411-3.512.411v-10.456h0v10.51a33.878,33.878,0,0,1-6.758.758A41.848,41.848,0,0,1,18142.734-11732.608Zm0-10.962v0Zm27.926-30.287v-1.744h0Zm-54.109,0v-1.744h0Zm55.854,12.217h8.73v0h-8.73Zm-54.105,0h8.725v0h-8.725Zm54.105-8.725h8.73v0Zm-54.105,0h8.725v0Zm52.361-26.184v-1.743h0Zm-27.926,0v-1.743h0Zm-26.184,0v-1.743h0Zm55.854,12.218h8.73v0h-8.73Zm-20.941,0h0Zm-33.164,0h8.725v0h-8.725Zm54.105-8.725h8.73v0Zm-27.922,0h10.469v0Zm-26.184,0h8.725v0Zm31.551-13.968a5.233,5.233,0,0,0,5.1-5.234A5.236,5.236,0,0,1,18149.85-11807.023Zm-.27,0a5.239,5.239,0,0,1-5.1-5.234A5.236,5.236,0,0,0,18149.58-11807.023Zm5.371-5.234a5.236,5.236,0,0,0-5.236-5.237,5.239,5.239,0,0,0-5.236,5.237,5.239,5.239,0,0,1,5.236-5.237A5.236,5.236,0,0,1,18154.951-11812.258Zm-1.744,0c0-.03,0-.061,0-.091C18153.207-11812.318,18153.207-11812.288,18153.207-11812.258Zm0,0c0-.03,0-.061,0-.091C18153.207-11812.318,18153.207-11812.288,18153.207-11812.258Zm-6.98,0a3.473,3.473,0,0,1,1.025-2.467A3.473,3.473,0,0,0,18146.227-11812.258Zm1.457-2.832c.072-.051.145-.1.219-.146a3.454,3.454,0,0,1,1.813-.516,3.454,3.454,0,0,0-1.812.516C18147.828-11815.189,18147.756-11815.141,18147.684-11815.09Zm16-5.117v0l-13.965-7.757Z" transform="translate(-18061.75 11854.27)"/></g></g><g transform="translate(237.177 1168.378)"><path class="d" d="M32.825,59.551l-1.745.97V58.775H13.625L4.9,74.484H32.825Z" transform="translate(0 -48.302)"/><path class="d" d="M337.567,58.775H320.112V60.52l-1.745-.97V74.484h27.927Z" transform="translate(-257.615 -48.302)"/><path class="e" d="M40.876,146.939H14.694l.175,48.516,2.217,3.848a60.575,60.575,0,0,0,3.893,5.374,37.479,37.479,0,0,0,4.021,4.1l15.949.933Zm-6.982,31.418v13.964H21.676V176.612H33.894Zm0-22.691V169.63H21.676V153.921H33.894Z" transform="translate(-8.051 -120.757)"/><path class="e" d="M318.193,209.858l16.434-1.325a57.6,57.6,0,0,0,4.273-4.622,38.873,38.873,0,0,0,3.166-4.609l2.527-4.356-.045-48.007H318.367Zm7.156-41.974V153.921h12.218V169.63H325.349Zm0,22.691V176.612h12.218v15.709H325.349Z" transform="translate(-257.615 -120.757)"/><path class="f" d="M161.633,27.349V42.283L161.6,104.44l7.017-.452V96.255l13.964,7.733v.452l6.818-.452.164-61.705V27.349L175.6,19.592ZM182.578,51.01V64.974H168.615V49.265h13.964ZM180.833,35.3a5.236,5.236,0,1,1-5.236-5.236A5.236,5.236,0,0,1,180.833,35.3Z" transform="translate(-128.808 -16.101)"/><path class="g" d="M63.673,232.288h6.982l-6.982-6.982Z" transform="translate(-48.301 -185.16)"/><path class="g" d="M70.655,232.288H72.4v-6.982H63.673Z" transform="translate(-48.301 -185.16)"/><rect class="g" width="8.727" height="3.491" transform="translate(15.371 34.91)"/><path class="h" d="M55.622,186.122H53.877v15.709H66.1V186.122H55.622Zm8.727,13.964H55.622V193.1H64.35Zm0-8.727H55.622v-3.491H64.35Z" transform="translate(-40.252 -152.959)"/><path class="h" d="M202.561,186.122h-1.745v15.709H214.78V186.122H202.561Zm10.473,13.964H202.561V193.1h10.473Zm0-8.727H202.561v-3.491h10.473Z" transform="translate(-161.008 -152.958)"/><rect class="g" width="10.473" height="3.491" transform="translate(41.555 34.91)"/><path class="g" d="M210.612,232.288h6.982l-6.982-6.982Z" transform="translate(-169.059 -185.16)"/><path class="g" d="M210.612,225.306l6.982,6.982h3.491v-6.982H210.612Z" transform="translate(-169.059 -185.16)"/><g transform="translate(0 23)"><path class="h" d="M202.561,186.122h-1.745v15.709H214.78V186.122H202.561Zm10.473,13.964H202.561V193.1h10.473Zm0-8.727H202.561v-3.491h10.473Z" transform="translate(-161.008 -152.958)"/><rect class="g" width="10.473" height="3.491" transform="translate(41.555 34.91)"/><path class="g" d="M210.612,232.288h6.982l-6.982-6.982Z" transform="translate(-169.059 -185.16)"/><path class="g" d="M210.612,225.306l6.982,6.982h3.491v-6.982H210.612Z" transform="translate(-169.059 -185.16)"/></g><path class="h" d="M214.78,323.265H200.816v20.3a41.872,41.872,0,0,0,7.205.757,33.968,33.968,0,0,0,6.758-.757v-20.3Z" transform="translate(-161.009 -244.72)"/><path class="f" d="M10.24,0H26.182V9.346a30.363,30.363,0,0,1-8.194-3.2A44.574,44.574,0,0,1,10.24,0Z" transform="translate(6.643 87.89)"/><path class="f" d="M0,0H16.469A40.281,40.281,0,0,1,9.1,5.48,50.935,50.935,0,0,1,0,9.271Z" transform="translate(60.752 87.816)"/><path class="i" d="M0,0H6.982V9.55a13.68,13.68,0,0,1-3.47,1.018C1.766,10.789,0,10.978,0,10.978Z" transform="translate(53.772 87.816)"/><path class="i" d="M0,0H6.982V10.941l-2.7-.246L0,9.374Z" transform="translate(32.826 87.89)"/><path class="h" d="M153.582,11.248l13.964-7.757,13.964,7.757,1.745.97V8.727L167.546,0,151.837,8.727v3.491Z" transform="translate(-120.757)"/><path class="h" d="M210.612,83.6a5.236,5.236,0,1,0,5.236-5.236A5.236,5.236,0,0,0,210.612,83.6Zm8.727,0a3.485,3.485,0,1,1-3.491-3.491A3.491,3.491,0,0,1,219.339,83.6Z" transform="translate(-169.06 -64.403)"/><path class="j" d="M243.491,91.654A3.491,3.491,0,0,0,240,88.163,3.491,3.491,0,0,1,243.491,91.654Z" transform="translate(-193.211 -72.454)"/><path class="g" d="M221.431,91.555a3.5,3.5,0,0,1,.652-.509,3.489,3.489,0,1,0,5.307,2.977,3.478,3.478,0,0,1-1.023,2.468Z" transform="translate(-177.109 -74.822)"/><path class="g" d="M228.616,88.163a3.467,3.467,0,0,0-1.816.514,3.5,3.5,0,0,0-.652.509l4.936,4.936a3.491,3.491,0,0,0-2.468-5.959Z" transform="translate(-181.826 -72.453)"/><path class="g" d="M367.347,225.306v6.982h6.982Z" transform="translate(-297.867 -185.16)"/><path class="g" d="M376.074,232.288v-6.982h-8.727l6.982,6.982Z" transform="translate(-297.867 -185.16)"/><rect class="g" width="8.727" height="3.491" transform="translate(69.48 34.91)"/><path class="h" d="M368.024,201.831h1.746V186.122H357.551v15.709h10.473ZM359.3,187.868h8.727v3.491H359.3Zm0,5.236h8.727v6.982H359.3Z" transform="translate(-289.817 -152.959)"/><path class="g" d="M63.673,359.635h6.982l-6.982-6.982Z" transform="translate(-48.301 -289.816)"/><path class="g" d="M70.655,359.635H72.4v-6.982H63.673Z" transform="translate(-48.301 -289.816)"/><rect class="g" width="8.727" height="3.491" transform="translate(15.371 57.602)"/><path class="h" d="M55.622,313.469H53.877v15.709H66.1V313.469H55.622Zm8.727,13.964H55.622v-6.982H64.35Zm0-8.727H55.622v-3.491H64.35Z" transform="translate(-40.252 -257.615)"/><path class="g" d="M367.347,352.653v6.982h6.982Z" transform="translate(-297.867 -289.816)"/><path class="g" d="M376.074,359.635v-6.982h-8.727l6.982,6.982Z" transform="translate(-297.867 -289.816)"/><rect class="g" width="8.727" height="3.491" transform="translate(69.48 57.602)"/><path class="h" d="M368.024,329.178h1.746V313.469H357.551v15.709h10.473ZM359.3,315.214h8.727v3.491H359.3Zm0,5.236h8.727v6.982H359.3Z" transform="translate(-289.817 -257.615)"/></g></g></svg>