<svg xmlns="http://www.w3.org/2000/svg" width="83.484" height="26.052" viewBox="0 0 83.484 26.052"><defs><style>.a{fill:#9696b9;}</style></defs><g transform="translate(0)"><g transform="translate(0)"><path class="a" d="M43.979,6.547a1.69,1.69,0,1,1-.495-1.2A1.7,1.7,0,0,1,43.979,6.547ZM37.006,9.963v.4a3.259,3.259,0,0,0-2.527-1.042A4.994,4.994,0,0,0,29.4,14.486a4.994,4.994,0,0,0,5.062,5.175,3.163,3.163,0,0,0,2.543-1.066v.443a.354.354,0,0,0,.366.362h2.113V9.6H37.356a.374.374,0,0,0-.366.366Zm0,6.281A2.583,2.583,0,0,1,34.877,17.3a2.731,2.731,0,0,1-2.945-2.817,2.731,2.731,0,0,1,2.945-2.817,2.668,2.668,0,0,1,2.129,1.082ZM41.03,9.6h2.5V19.4h-2.5Zm37.394-.262a3.263,3.263,0,0,0-2.531,1.042v-5.5h-2.5V19.4H75.5a.374.374,0,0,0,.366-.366v-.443A3.219,3.219,0,0,0,78.4,19.661a5.006,5.006,0,0,0,5.062-5.175,5,5,0,0,0-5.03-5.163ZM78.009,17.3a2.547,2.547,0,0,1-2.113-1.07v-3.5a2.817,2.817,0,0,1,2.113-1.058,2.729,2.729,0,0,1,2.945,2.817A2.729,2.729,0,0,1,78.009,17.3ZM72.09,13.6v5.827H69.6V13.874c0-1.61-.523-2.269-1.931-2.269a2.817,2.817,0,0,0-2.012.966v6.841H63.121V9.6H65.1a.374.374,0,0,1,.366.366v.4a3.585,3.585,0,0,1,2.66-1.042,4.064,4.064,0,0,1,2.736.938c.889.732,1.227,1.67,1.227,3.316ZM57.045,9.335a3.263,3.263,0,0,0-2.531,1.042v-5.5h-2.5V19.4h2.113a.374.374,0,0,0,.366-.366v-.443a3.219,3.219,0,0,0,2.527,1.066,5.006,5.006,0,0,0,5.058-5.175,4.97,4.97,0,0,0-5.03-5.151Zm-.4,7.955a2.547,2.547,0,0,1-2.113-1.07V12.728a2.817,2.817,0,0,1,2.1-1.058,2.729,2.729,0,0,1,2.945,2.817A2.729,2.729,0,0,1,56.626,17.3Zm-6.8-7.955a3.915,3.915,0,0,1,1.147.133v2.318a3.34,3.34,0,0,0-3.388.785v6.841H45.1V9.6h2.113a.37.37,0,0,1,.362.366v.4a3.432,3.432,0,0,1,2.269-1.042Zm-26,9.174c-.129-.31-.262-.652-.4-.938-.209-.471-.4-.913-.6-1.332l-.028-.024c-1.787-3.907-3.714-7.871-5.75-11.79l-.076-.157c-.213-.4-.4-.8-.628-1.227a7.581,7.581,0,0,0-.938-1.433A4.217,4.217,0,0,0,12.114,0a4.386,4.386,0,0,0-3.34,1.565A9.082,9.082,0,0,0,7.837,3c-.2.4-.4.8-.624,1.227l-.08.157C5.12,8.293,3.169,12.257,1.37,16.168l-.024.052c-.185.4-.4.861-.6,1.328-.129.29-.258.6-.4.942a5.831,5.831,0,0,0-.31,2.817,5.533,5.533,0,0,0,3.4,4.326,5.32,5.32,0,0,0,2.113.4,5.4,5.4,0,0,0,.676-.052,6.917,6.917,0,0,0,2.62-.869A13.243,13.243,0,0,0,12.058,22.4a13.637,13.637,0,0,0,3.219,2.712A6.9,6.9,0,0,0,17.884,26a5.46,5.46,0,0,0,.676.052,5.231,5.231,0,0,0,2.113-.4,5.533,5.533,0,0,0,3.412-4.322A4.974,4.974,0,0,0,23.848,18.51ZM12.086,19.87a12.839,12.839,0,0,1-2.632-4.849,4.277,4.277,0,0,1-.08-1.589,2.539,2.539,0,0,1,.4-1.1,2.781,2.781,0,0,1,2.294-1.147,2.68,2.68,0,0,1,2.3,1.147,2.539,2.539,0,0,1,.4,1.1,4.257,4.257,0,0,1-.08,1.589A12.666,12.666,0,0,1,12.086,19.87Zm10.406,1.207a3.867,3.867,0,0,1-2.386,3.066,3.951,3.951,0,0,1-1.98.262,5.139,5.139,0,0,1-1.972-.664,12.116,12.116,0,0,1-2.97-2.527,14.667,14.667,0,0,0,3.155-5.762,6.519,6.519,0,0,0,.145-2.229,4.233,4.233,0,0,0-.7-1.775A4.39,4.39,0,0,0,12.1,9.6a4.463,4.463,0,0,0-3.674,1.851,4.233,4.233,0,0,0-.7,1.775,5.4,5.4,0,0,0,.129,2.217,15.313,15.313,0,0,0,3.155,5.786,11.742,11.742,0,0,1-2.974,2.515,5.09,5.09,0,0,1-2.012.692,4.165,4.165,0,0,1-1.984-.258,3.879,3.879,0,0,1-2.37-3.054A4.265,4.265,0,0,1,1.9,19.089a8.853,8.853,0,0,1,.338-.833c.185-.4.4-.861.6-1.308l.044-.048c1.8-3.887,3.726-7.851,5.734-11.71l.08-.157c.209-.4.4-.8.624-1.207a5.746,5.746,0,0,1,.724-1.139,2.736,2.736,0,0,1,4.173,0,5.734,5.734,0,0,1,.736,1.147c.209.4.4.8.628,1.207l.076.157q2.97,5.811,5.71,11.734v.028c.209.4.4.885.6,1.3.129.31.258.571.338.833a4.386,4.386,0,0,1,.181,2.012Z" transform="translate(0.024)"/></g></g></svg>