<svg xmlns="http://www.w3.org/2000/svg" width="96.691" height="16.084" viewBox="0 0 96.691 16.084"><defs><style>.a,.b{fill:#9696b9;}.a{fill-rule:evenodd;}</style></defs><g transform="translate(0 0)"><path class="a" d="M995.049,99.735c.017-.021.042-.017.065-.017.423.007.848-.024,1.27.022a1.027,1.027,0,0,1,.959.787c.013.06.034.119.048.179s.03.1.1.027a4.037,4.037,0,0,1,.782-.7,3.2,3.2,0,0,1,1.319-.494,3.365,3.365,0,0,1,.986.017,2.4,2.4,0,0,1,1.844,1.311c.094.181.1.185.223.025a3.424,3.424,0,0,1,1.275-1.038,3.637,3.637,0,0,1,1.072-.314,3.6,3.6,0,0,1,1.021.012,2.42,2.42,0,0,1,2.071,1.614,4.751,4.751,0,0,1,.254,1.175c0,.019,0,.039.019.052v6.163c-.424,0-.848.007-1.272-.005a1.149,1.149,0,0,1-.9-.366,1.078,1.078,0,0,1-.249-.708c-.006-1.338-.005-2.676-.006-4.014a4.372,4.372,0,0,0-.089-.983.811.811,0,0,0-.8-.7,1.74,1.74,0,0,0-1.623.895,3.309,3.309,0,0,0-.429,1.138,4.263,4.263,0,0,0-.087.925c0,1.229,0,2.458,0,3.687,0,.111-.033.132-.135.131q-1.085-.006-2.17,0c-.1,0-.133-.013-.132-.124q.007-2.538,0-5.076a2.492,2.492,0,0,0-.167-1,.962.962,0,0,0-1.042-.583,1.535,1.535,0,0,0-1.167.7,3.222,3.222,0,0,0-.523,1.2,5.307,5.307,0,0,0-.126,1.223c0,1.179,0,2.357,0,3.536,0,.1-.027.128-.129.127q-1.085-.007-2.17,0c-.1,0-.133-.016-.132-.125,0-1.089,0-2.178,0-3.267a.2.2,0,0,1,.013-.114.067.067,0,0,1,.015.054q0,1.673,0,3.347c0,.016.025,0,.01,0s-.005,0-.006-.005a.965.965,0,0,1,0-.1q0-4.239,0-8.478A.29.29,0,0,1,995.049,99.735Z" transform="translate(-911.664 -95.909)"/><path class="a" d="M484.02,58.816a2.538,2.538,0,0,1,.517.193,1.48,1.48,0,0,1-.439,2.727,1.478,1.478,0,1,1-.585-2.9c.022,0,.048,0,.063-.022Z" transform="translate(-444.404 -58.816)"/><path class="a" d="M392.839,75.329c-.8-.018-1.579.024-2.355-.023a1.209,1.209,0,0,1-.992-.607c-.25-.4-.452-.83-.676-1.247-.277-.515-.552-1.032-.82-1.552a.416.416,0,0,0-.347-.236,2.235,2.235,0,0,0-.337-.021c-.179,0-.156-.028-.157.152q0,1.57,0,3.139c0,.1,0,.195,0,.292,0,.072-.014.1-.1.1q-1.185,0-2.369,0c-.073,0-.095-.021-.092-.092,0-.113,0-.226,0-.338q0-5.847,0-11.693c0-.174-.018-.152.147-.15.463.005.925-.017,1.388.017a.952.952,0,0,1,.968.738,1.891,1.891,0,0,1,.05.474q0,2.5,0,4.995c0,.158,0,.16.164.158.132,0,.264,0,.4-.014a.6.6,0,0,0,.5-.293c.55-.864,1.11-1.721,1.664-2.583a.154.154,0,0,1,.147-.084q1.354,0,2.707,0l.074,0c-.072.108-.134.2-.2.3q-1.085,1.614-2.171,3.227a3.2,3.2,0,0,1-.389.478c-.029.029-.059.051-.016.093a4.078,4.078,0,0,1,.713,1.153c.562,1.117,1.228,2.174,1.873,3.243Z" transform="translate(-355.339 -62.676)"/><path class="a" d="M533.151,100.493c.147-.138.277-.282.427-.406a3.439,3.439,0,0,1,2.1-.789,3.942,3.942,0,0,1,1.581.216,2.55,2.55,0,0,1,1.58,1.717,4.593,4.593,0,0,1,.2,1.389c0,.825,0,1.649,0,2.474q0,1.558.009,3.115c0,.168.018.147-.152.145-.432-.005-.863.016-1.295-.015a1.083,1.083,0,0,1-1.1-1.124c-.028-.653-.009-1.307-.011-1.96,0-.735,0-1.47,0-2.206a2.688,2.688,0,0,0-.076-.658.894.894,0,0,0-.93-.734,2.108,2.108,0,0,0-2.175,1.713,3.569,3.569,0,0,0-.107.865q0,1.99,0,3.98c0,.109-.021.143-.138.142q-1.138-.009-2.276,0c-.1,0-.12-.028-.12-.123q0-3.869,0-7.737c0-.307,0-.615,0-.922,0-.047-.01-.091.067-.089.451.013.9-.026,1.352.021a1.078,1.078,0,0,1,1.039.9A.677.677,0,0,0,533.151,100.493Z" transform="translate(-488.463 -95.706)"/><path class="a" d="M789.84,102.077c0,.21,0,.42,0,.63,0,.073-.015.1-.1.1-.4,0-.809.009-1.214,0a.89.89,0,0,1-.892-.7.507.507,0,0,0-.372-.318,2.3,2.3,0,0,0-2.454.668,2.447,2.447,0,0,0-.5,1.019,2.906,2.906,0,0,0-.031,1.247,2.192,2.192,0,0,0,1.244,1.637,2.715,2.715,0,0,0,1.633.226,3.907,3.907,0,0,0,2.059-1.161c.042-.048.063-.057.1,0q.484.807.972,1.611c.038.063.021.108-.027.162a4.583,4.583,0,0,1-1.049.856,4.838,4.838,0,0,1-1.368.578,5.441,5.441,0,0,1-2.034.11,4.719,4.719,0,0,1-2.018-.722,4.28,4.28,0,0,1-1.718-2.144,4.793,4.793,0,0,1-.3-1.834,4.45,4.45,0,0,1,3.138-4.23,5.508,5.508,0,0,1,1.53-.257,4.87,4.87,0,0,1,2.053.366,2.2,2.2,0,0,1,1.165.972,1.469,1.469,0,0,1,.174.725c0,.152,0,.3,0,.455Z" transform="translate(-717.329 -95.946)"/><path class="a" d="M485.782,105.936q0-2.164,0-4.328c0-.051-.018-.109.075-.107.462.012.925-.021,1.387.018a1.077,1.077,0,0,1,1.051,1.047,3.367,3.367,0,0,1,.016.337q0,3.669,0,7.338c0,.1-.022.129-.127.129q-1.137-.008-2.275,0c-.108,0-.125-.031-.125-.13q0-2.152,0-4.3Z" transform="translate(-447.556 -97.718)"/><path class="a" d="M745.422,172.3a1.467,1.467,0,0,1-1.479-1.476,1.48,1.48,0,1,1,1.479,1.476Z" transform="translate(-682.845 -159.554)"/><path class="a" d="M719.464,109.69a.6.6,0,0,1-.013-.208q0-4.029,0-8.059c0-.161,0-.161-.165-.161h-1.108c.032-.032.074-.018.111-.018.361,0,.723,0,1.084,0,.078,0,.107.014.107.1q0,4.093-.005,8.186C719.475,109.582,719.468,109.636,719.464,109.69Z" transform="translate(-659.364 -97.483)"/><path class="a" d="M995.154,102v8.8a.237.237,0,0,1-.023-.146q0-1.592,0-3.184c0-.051,0-.1,0-.152q0-1.575,0-3.151,0-1,0-2.007C995.125,102.11,995.1,102.048,995.154,102Z" transform="translate(-911.768 -98.175)"/><g transform="translate(0 0.38)"><path class="b" d="M61.276,69.021c-.086-.046-.17-.1-.262-.151.063-.055.115-.1.169-.146a3.339,3.339,0,0,0,.541-.544,3.065,3.065,0,0,0,.607-2.088A2.842,2.842,0,0,0,60.8,63.63a4.438,4.438,0,0,0-2.172-.522c-1-.01-2.007-.006-3.011,0a1.254,1.254,0,0,0-1,.49,1.594,1.594,0,0,0-.273.6V75.328c.043,0,.085,0,.128,0q2.089,0,4.177,0a5.407,5.407,0,0,0,1.763-.279,3.409,3.409,0,0,0,1.972-1.559,3.484,3.484,0,0,0,.349-2.491A2.782,2.782,0,0,0,61.276,69.021ZM56.7,66.892h0c0-.334-.008-.669,0-1a.685.685,0,0,1,.724-.764,7.066,7.066,0,0,1,1.408.022,1.212,1.212,0,0,1,1.074,1.026,1.662,1.662,0,0,1-.293,1.4,1.258,1.258,0,0,1-1.035.468c-.595.007-1.189,0-1.784,0-.083,0-.1-.025-.1-.1C56.7,67.592,56.7,67.242,56.7,66.892ZM60.047,72.7a1.454,1.454,0,0,1-1.173.547c-.7.014-1.392,0-2.089.006-.076,0-.089-.025-.088-.093,0-.42,0-.84,0-1.26h0c0-.4-.008-.8,0-1.2a.694.694,0,0,1,.779-.755c.44,0,.879-.008,1.319,0a1.516,1.516,0,0,1,1.351.708A1.938,1.938,0,0,1,60.047,72.7Z" transform="translate(-54.343 -63.101)"/><path class="b" d="M643.426,99.2c-.28.006-.56,0-.84,0a1.894,1.894,0,0,0-.337.009,1.025,1.025,0,0,0-.976.652,3.092,3.092,0,0,0-.556-.412,3.842,3.842,0,0,0-2.459-.415,3.6,3.6,0,0,0-3.039,2.44,5.486,5.486,0,0,0-.122,3.5,3.981,3.981,0,0,0,1.276,2.028,3.842,3.842,0,0,0,2.76.88,2.983,2.983,0,0,0,1.827-.661c.013-.011.027-.03.055-.016a2.521,2.521,0,0,1-.012.471,1.55,1.55,0,0,1-.926,1.339,3.351,3.351,0,0,1-1.932.173,8.064,8.064,0,0,1-1.067-.278.7.7,0,0,0-.921.413c-.019.038-.038.077-.054.116-.151.378-.3.756-.452,1.133-.032.078-.016.11.057.15a6.7,6.7,0,0,0,2.073.7c.209.036.419.061.629.092h.957c.016-.024.041-.018.063-.02a5.284,5.284,0,0,0,.906-.147,4.408,4.408,0,0,0,2.09-1.11,3.787,3.787,0,0,0,1.109-2.6c0-.047,0-.093,0-.14q0-4.059,0-8.118a.477.477,0,0,1,0-.07C643.547,99.228,643.516,99.2,643.426,99.2Zm-2.546,5.433a1.521,1.521,0,0,1-1.477,1.042,1.7,1.7,0,0,1-1.765-1.252,3.13,3.13,0,0,1,.034-2.189,1.5,1.5,0,0,1,1.447-1,2.121,2.121,0,0,1,1.055.191,1.574,1.574,0,0,1,.8,1.116,3.917,3.917,0,0,1,.095.916A3.507,3.507,0,0,1,640.88,104.634Z" transform="translate(-583.434 -95.813)"/><path class="b" d="M889.732,102.852a4.372,4.372,0,0,0-2.095-2.8,4.782,4.782,0,0,0-1.853-.578,5.38,5.38,0,0,0-1.335.022,4.581,4.581,0,0,0-1.368.413,4.242,4.242,0,0,0-1.777,1.569,4.575,4.575,0,0,0-.707,2.565,6.3,6.3,0,0,0,.04.686,4.653,4.653,0,0,0,.432,1.445,4.213,4.213,0,0,0,1.432,1.657,4.658,4.658,0,0,0,2.235.782,5.057,5.057,0,0,0,2.34-.32,4.271,4.271,0,0,0,1.832-1.356,4.338,4.338,0,0,0,.752-1.456,5.423,5.423,0,0,0,.193-1.059A5.024,5.024,0,0,0,889.732,102.852Zm-2.359,1.119a2.721,2.721,0,0,1-.467,1.668,1.913,1.913,0,0,1-1.144.766,2.168,2.168,0,0,1-1.411-.113,2,2,0,0,1-1-1,2.81,2.81,0,0,1-.271-1.34,2.486,2.486,0,0,1,.728-1.8,1.984,1.984,0,0,1,1.644-.531,2.021,2.021,0,0,1,1.764,1.428A2.339,2.339,0,0,1,887.373,103.972Z" transform="translate(-807.39 -96.225)"/><path class="b" d="M276.612,99.841a4.9,4.9,0,0,0-3.761-.246,4.186,4.186,0,0,0-2.733,2.572,4.874,4.874,0,0,0-.224,2.772,4.27,4.27,0,0,0,1.64,2.664,4.682,4.682,0,0,0,2.884.925,4.906,4.906,0,0,0,1.19-.133,4.284,4.284,0,0,0,2.983-2.336,4.76,4.76,0,0,0,.36-3.189A4.2,4.2,0,0,0,276.612,99.841Zm-.034,4.111a2.588,2.588,0,0,1-.525,1.666,2,2,0,0,1-1.747.752,2.083,2.083,0,0,1-1.958-1.781,2.843,2.843,0,0,1,.324-2.123,1.986,1.986,0,0,1,2.046-.941,2.044,2.044,0,0,1,1.755,1.6A2.7,2.7,0,0,1,276.578,103.952Z" transform="translate(-250.701 -96.123)"/><path class="b" d="M164.787,99.891a4.892,4.892,0,0,0-3.415-.361,4.229,4.229,0,0,0-3.016,2.476,4.835,4.835,0,0,0-.344,2.745A4.315,4.315,0,0,0,159.4,107.4a4.613,4.613,0,0,0,3.18,1.169,4.859,4.859,0,0,0,1.371-.18,4.27,4.27,0,0,0,2.835-2.37,4.781,4.781,0,0,0,.336-3.038A4.219,4.219,0,0,0,164.787,99.891Zm-.386,5.474a1.928,1.928,0,0,1-1.622,1.04,2.08,2.08,0,0,1-2.263-1.712c-.019-.083-.033-.167-.047-.251a2.436,2.436,0,0,1-.03-.465,2.579,2.579,0,0,1,.553-1.7,2.091,2.091,0,0,1,3.565.678A2.867,2.867,0,0,1,164.4,105.365Z" transform="translate(-148.771 -96.163)"/></g></g></svg>