<svg xmlns="http://www.w3.org/2000/svg" width="111.341" height="18.243" viewBox="0 0 111.341 18.243"><defs><style>.a{fill:#9696b9;}</style></defs><g transform="translate(0 0)"><path class="a" d="M27.237,12.172a3.575,3.575,0,0,0,.166-1.109,4.591,4.591,0,0,0-4.6-4.6,5.152,5.152,0,0,0-1.608.277A6.54,6.54,0,0,0,15.426,3.3,6.437,6.437,0,0,0,8.994,9.732a9.067,9.067,0,0,0,.111,1.22,3.652,3.652,0,0,0-1.386,6.709,14.5,14.5,0,0,1,3.105-1.22s-1.331-4.547.222-4.88c1.885-.333,2,.166,5.822-.222a29.311,29.311,0,0,1,7.652.222c.721,0,.665,1.5.554,2.606a9.071,9.071,0,0,1-.5,2.107,15.726,15.726,0,0,1,3.771,1.5,3,3,0,0,0,1.442-2.551A2.845,2.845,0,0,0,27.237,12.172Z" transform="translate(-4.78 -3.3)"/><path class="a" d="M17,29.885c5.323,0,10.092.721,13.2,2.662C28.2,29.885,23.041,28,17,28S5.8,29.83,3.8,32.491C6.905,30.606,11.674,29.885,17,29.885Z" transform="translate(-3.8 -14.304)"/></g><path class="a" d="M156.834,20.7a3.26,3.26,0,0,1-1.331,1.109,2.163,2.163,0,0,1-2.828-.832l6.044-2.5c-.055-.222-.166-.444-.222-.665-1.054-2.44-3.271-4.159-6.155-2.939a4.691,4.691,0,0,0-2.384,6.321v.055a4.7,4.7,0,0,0,6.377,2.606,5.332,5.332,0,0,0,2.052-1.5Zm-3.715-3.881a2.012,2.012,0,0,1,2.606,1.109l-3.715,1.553A2.1,2.1,0,0,1,153.119,16.817Z" transform="translate(-68.725 -8.278)"/><path class="a" d="M51.8,15.766h0A6.085,6.085,0,0,1,57.9,9.5a6.191,6.191,0,0,1,4.713,1.941l-.943,1a5.339,5.339,0,0,0-3.826-1.663,4.717,4.717,0,0,0-4.658,4.935v.055a4.767,4.767,0,0,0,4.658,4.99,5.167,5.167,0,0,0,3.881-1.719l.887.887a6.337,6.337,0,0,1-4.824,2.107A6.1,6.1,0,0,1,51.8,15.766Z" transform="translate(-25.185 -6.062)"/><path class="a" d="M73.4,8.9h1.331V21.542H73.4Z" transform="translate(-34.808 -5.795)"/><path class="a" d="M77.6,19.813h0A4.662,4.662,0,0,1,82.258,15.1a4.615,4.615,0,0,1,4.658,4.658v.055a4.658,4.658,0,0,1-9.315,0Zm7.929,0h0A3.376,3.376,0,0,0,82.2,16.32a3.282,3.282,0,0,0-3.271,3.438v.055a3.3,3.3,0,1,0,6.6,0Z" transform="translate(-36.679 -8.557)"/><path class="a" d="M96.3,21.045V15.5h1.331v5.212a2.4,2.4,0,0,0,2.5,2.717,2.639,2.639,0,0,0,2.662-2.828V15.5h1.331v8.927h-1.331V22.875a3.406,3.406,0,0,1-3.05,1.719C97.52,24.649,96.3,23.152,96.3,21.045Z" transform="translate(-45.01 -8.735)"/><path class="a" d="M112,17.051h0a4.371,4.371,0,0,1,4.27-4.658,4.092,4.092,0,0,1,3.438,1.885V8.9h1.331V21.542h-1.331V19.768a4.055,4.055,0,0,1-3.438,2A4.456,4.456,0,0,1,112,17.051Zm7.707,0h0a3.323,3.323,0,0,0-3.216-3.493A3.167,3.167,0,0,0,113.331,17v.055a3.2,3.2,0,0,0,3.161,3.438A3.307,3.307,0,0,0,119.707,17.051Z" transform="translate(-52.004 -5.795)"/><path class="a" d="M133.506,20.267v1.22H130.9V8.9h2.606v4.658a3.276,3.276,0,0,1,2.883-1.5c2.163,0,4.214,1.719,4.214,4.769v.055c0,3.105-2,4.769-4.214,4.769A3.466,3.466,0,0,1,133.506,20.267ZM138,16.885h0a2.41,2.41,0,0,0-2.273-2.606,2.358,2.358,0,0,0-2.273,2.551v.055a2.326,2.326,0,0,0,2.273,2.551A2.358,2.358,0,0,0,138,16.885Z" transform="translate(-60.424 -5.795)"/><path class="a" d="M166.9,16.885h0c0-3.105,2-4.824,4.214-4.824A3.466,3.466,0,0,1,174,13.447V8.9H176.6V21.542H174V20.212a3.276,3.276,0,0,1-2.883,1.5C168.952,21.653,166.9,19.99,166.9,16.885Zm7.153,0h0a2.376,2.376,0,0,0-2.273-2.606,2.326,2.326,0,0,0-2.273,2.551v.055a2.288,2.288,0,1,0,4.547,0Z" transform="translate(-76.463 -5.795)"/><path class="a" d="M186,22.851l1.109-1.719a5.26,5.26,0,0,0,2.939,1.109c.776,0,1.109-.277,1.109-.665V21.52c0-.554-.887-.776-1.941-1.054-1.275-.388-2.772-1-2.772-2.772v-.055c0-1.885,1.5-2.939,3.382-2.939a6.42,6.42,0,0,1,3.438,1.054l-1,1.83a5.237,5.237,0,0,0-2.5-.887c-.61,0-.943.277-.943.61v.055c0,.5.887.776,1.885,1.109,1.275.444,2.828,1.054,2.828,2.772V21.3c0,2.052-1.553,2.994-3.549,2.994A7.185,7.185,0,0,1,186,22.851Z" transform="translate(-84.972 -8.379)"/><g transform="translate(109.456 14.084)"><path class="a" d="M201.2,29.643h0a.935.935,0,0,1,.943-.943.972.972,0,0,1,.943.943h0a.935.935,0,0,1-.943.943A.9.9,0,0,1,201.2,29.643Zm1.719,0h0a.817.817,0,0,0-.832-.832.853.853,0,0,0-.832.832h0a.817.817,0,0,0,.832.832A.786.786,0,0,0,202.919,29.643Zm-1.22-.5h.444a.424.424,0,0,1,.277.111.288.288,0,0,1,.111.222h0a.254.254,0,0,1-.222.277l.222.333h-.277l-.222-.333h-.166v.333h-.222l.055-.943Zm.444.5a.147.147,0,0,0,.166-.166h0a.147.147,0,0,0-.166-.166h-.222v.277C201.921,29.643,202.143,29.643,202.143,29.643Z" transform="translate(-201.2 -28.7)"/></g></svg>