<svg xmlns="http://www.w3.org/2000/svg" width="94.198" height="21.298" viewBox="0 0 94.198 21.298"><defs><style>.a,.b{fill:#9696b9;}.b{fill-rule:evenodd;}.c{fill:#fff;}.d{fill:#bdbdd5;}</style></defs><path class="a" d="M57.3,20.465,58.512,19A3.471,3.471,0,0,0,60.987,20.2c.606,0,1.122-.232,1.122-.729,0-.412-.374-.568-.909-.8l-.942-.393c-1.5-.606-2.4-1.3-2.4-2.693,0-1.694,1.373-2.641,3.242-2.641a4.093,4.093,0,0,1,3.171,1.32l-1.212,1.481a2.909,2.909,0,0,0-1.978-.838c-.573,0-.942.194-.942.625,0,.341.284.516.928.786l.857.355c1.586.644,2.475,1.32,2.475,2.693,0,1.817-1.515,2.816-3.441,2.816A4.53,4.53,0,0,1,57.3,20.465" transform="translate(-30.181 -6.579)"/><path class="a" d="M90.3,16.495v5.471H87.9V16.831a1.537,1.537,0,0,0-1.567-1.709,1.564,1.564,0,0,0-1.623,1.656v5.187H82.3V16.831a1.537,1.537,0,0,0-1.567-1.709,1.569,1.569,0,0,0-1.623,1.709v5.135H76.7V13.144h2.21v.786a3.391,3.391,0,0,1,2.494-.98,3.008,3.008,0,0,1,2.622,1.264,3.81,3.81,0,0,1,2.939-1.264c2.106,0,3.337,1.425,3.337,3.545" transform="translate(-40.399 -6.584)"/><path class="a" d="M109.81,17.54a4.735,4.735,0,0,1,9.466,0,4.734,4.734,0,0,1-9.466,0m7,.019a2.285,2.285,0,1,0-4.562,0,2.258,2.258,0,0,0,2.281,2.39,2.283,2.283,0,0,0,2.281-2.39" transform="translate(-57.839 -6.579)"/><path class="a" d="M133.27,17.54a4.735,4.735,0,0,1,9.466,0,4.734,4.734,0,0,1-9.466,0m7,.019a2.285,2.285,0,1,0-4.562,0,2.258,2.258,0,0,0,2.281,2.39,2.283,2.283,0,0,0,2.281-2.39" transform="translate(-70.195 -6.579)"/><path class="a" d="M167.114,12.724a4.311,4.311,0,0,1-4.278,4.615,3.433,3.433,0,0,1-2.835-1.3v1.089h-2.21V3.76h2.4v5.4a3.475,3.475,0,0,1,2.636-1.051,4.309,4.309,0,0,1,4.283,4.615m-2.442-.019a2.27,2.27,0,0,0-2.281-2.423,2.214,2.214,0,0,0-2.229,2.442,2.194,2.194,0,0,0,2.229,2.423,2.276,2.276,0,0,0,2.281-2.442" transform="translate(-83.11 -1.744)"/><path class="a" d="M181.86,18.3V13.36h2.4V18.5a1.659,1.659,0,1,0,3.318,0V13.36h2.4V18.3a4.063,4.063,0,1,1-8.126,0" transform="translate(-95.788 -6.8)"/><path class="b" d="M9.182,20.8,0,11.616v-8.9A3.192,3.192,0,0,1,3.218-.5H18.079A3.192,3.192,0,0,1,21.3,2.718V17.579A3.222,3.222,0,0,1,18.079,20.8" transform="translate(0 0.5)"/><path class="c" d="M21.157,16.885a6.221,6.221,0,0,0-2.224-1.325l-.994-.426a3.421,3.421,0,0,1-.852-.426.657.657,0,0,1-.237-.473c0-.473.379-.71,1.089-.71a3.311,3.311,0,0,1,2.319.994l1.42-1.7A4.721,4.721,0,0,0,17.986,11.3a4.5,4.5,0,0,0-2.745.8A2.653,2.653,0,0,0,14.2,14.329a2.631,2.631,0,0,0,.663,1.8,6.116,6.116,0,0,0,2.13,1.325l1.089.473a6.763,6.763,0,0,1,.852.426.583.583,0,0,1,.237.473.682.682,0,0,1-.379.615,1.864,1.864,0,0,1-.947.237A3.757,3.757,0,0,1,16,19.157a3.105,3.105,0,0,1,.663,1.94v.8A9.191,9.191,0,0,0,17.8,22a4.506,4.506,0,0,0,2.84-.852,2.839,2.839,0,0,0,1.136-2.414,2.312,2.312,0,0,0-.615-1.846" transform="translate(-7.479 -5.715)"/><path class="d" d="M8.519,26.378A3.227,3.227,0,0,0,5.963,25.1H0l9.182,9.182V28.318a3.01,3.01,0,0,0-.663-1.94" transform="translate(0 -12.984)"/></svg>