<svg xmlns="http://www.w3.org/2000/svg" width="81.575" height="32.873" viewBox="0 0 81.575 32.873"><defs><style>.a{fill:#9696b9;}.b{fill:#fff;}</style></defs><g transform="translate(0 0)"><path class="a" d="M38.168,27.829H54.137c-.514-.894-2.084-1.546-3.008-1.9a13.6,13.6,0,0,0-9.789-.065C40.355,26.249,38.715,26.875,38.168,27.829Z" transform="translate(-34.941 -24.981)"/><path class="a" d="M16.356,59.274H38.012a7.7,7.7,0,0,0-1.067-2.352c-.147-.219-.311-.575-.576-.678a4.733,4.733,0,0,0-1.42-.033h-15.7A3.97,3.97,0,0,0,18,56.244c-.28.109-.448.491-.6.733A7.8,7.8,0,0,0,16.356,59.274Z" transform="translate(-15.973 -52.104)"/><circle class="a" cx="7.958" cy="7.958" r="7.958" transform="matrix(0.197, -0.98, 0.98, 0.197, 62.83, 22.301)"/><path class="a" d="M293.969,95.152a7.958,7.958,0,1,1-7.958-7.958A7.958,7.958,0,0,1,293.969,95.152Z" transform="translate(-243.55 -79.083)"/><path class="a" d="M390.509,87.667l3.842,7.656,1.428,2.844.035,1.586v3.336h5.633l-.055-3.226.035-1.641,1.155-2.3,2.365-4.7,1.162-2.3.588-1.313H402.54c-.373,0-1.208-.155-1.51.088a3.71,3.71,0,0,0-.637,1.17q-.576,1.152-1.166,2.3a4.609,4.609,0,0,1-.679,1.2l-.608-1.313-1.1-2.187-.664-1.2-1.455-.056h-2.789Z" transform="translate(-341.345 -79.404)"/><path class="a" d="M13.475,89.616l-.055,3.062H35.842l-.055-3.062Z" transform="translate(-13.42 -81.189)"/><path class="a" d="M15.936,122.753a10.187,10.187,0,0,0,1.094,3.117,18.615,18.615,0,0,1,4.047-.055h13.07a11.1,11.1,0,0,1,2.461.055,8.867,8.867,0,0,0,1.094-3.117Z" transform="translate(-15.608 -110.006)"/><path class="b" d="M319.5,126.042a2.89,2.89,0,0,0-1.094.4,2.8,2.8,0,1,0,1.094-.4Zm29.75,0a2.74,2.74,0,0,0-1.039.414,2.812,2.812,0,0,0,1.914,5.117,3.018,3.018,0,0,0,1.148-.438C353.8,129.519,352.13,125.582,349.251,126.043Z" transform="translate(-277.555 -112.834)"/><path class="a" d="M28.52,155.89a9.892,9.892,0,0,0,1.082,2.352c.108.2.243.633.464.732a3.239,3.239,0,0,0,1.134.033H44.434a2.963,2.963,0,0,0,1.028-.033c.23-.1.354-.514.463-.732A9.705,9.705,0,0,0,47,155.89Zm2.187,4.32a9.075,9.075,0,0,0,1.178,2.242,2.33,2.33,0,0,0,.538.82,1.583,1.583,0,0,0,.745.055h9.242a1.447,1.447,0,0,0,.69-.055,2.272,2.272,0,0,0,.557-.784,16.468,16.468,0,0,0,1.159-2.278l-2.516.055H33.223Zm2.461,4.375,1.313,2.187.568.82.636.055h3.773l.973-.033.9-1.313,1.029-1.717Zm55.782.273v3.172h.492l.055-1.258c.875.066.762,1.32,1.8,1.2l-.82-1.258a.937.937,0,0,0,.319-1.673A3.752,3.752,0,0,0,88.95,164.859Zm3.664.028c-1.768.386-1.2,3.5.711,3.118C95.162,167.634,94.565,164.462,92.614,164.887Zm3.172.007c-1.75.5-1.08,3.629.82,3.094C98.4,167.492,97.713,164.346,95.786,164.894Zm2.351,3.137.547-.055v-2.024h.055l.82,1.367h.109l.82-1.367h.055v2.078h.547v-3.172c-.725,0-1.157.972-1.422,1.586-.283-.368-.766-1.641-1.312-1.577-.318.046-.219.528-.219.757Zm3.5-.82c0,.166-.055.423.055.566.381.531,1.708.289,1.966-.238.568-1.16-.916-1.109-1.38-1.661-.37-.441.452-.562.726-.483.21.066.383.182.6.23v-.547c-.7-.287-2.6-.25-1.914,1.039.308.557,1.057.414,1.4.878.184.255-.061.473-.308.53C102.349,167.624,102.011,167.365,101.638,167.21Z" transform="translate(-26.551 -138.822)"/><path class="b" d="M496.041,228.865c.217,0,.437.014.656,0,1.164-.091-.1-1.476-.6-.842C495.956,228.209,496.041,228.648,496.041,228.865Zm3.227-.894c-1.062.334-.663,2.542.547,2.1C500.854,229.7,500.469,227.593,499.268,227.971Zm3.227,0c-1.069.336-.682,2.526.547,2.105C504.079,229.721,503.7,227.594,502.494,227.971Z" transform="translate(-433.095 -201.406)"/><path class="a" d="M85.146,255.72c.6,1.031,1.23,1.945,1.8,2.789h.11c.575-.853,1.2-1.775,1.8-2.789Z" transform="translate(-75.794 -225.636)"/></g></svg>