<svg xmlns="http://www.w3.org/2000/svg" width="73.768" height="11.508" viewBox="0 0 73.768 11.508"><defs><style>.a{fill:#9696b9;}</style></defs><g transform="translate(0 0)"><path class="a" d="M26.082,279.033c-.959-.307-1.82-.713-1.869-1.561-.037-.922.529-1.451,1.623-1.451a1.5,1.5,0,0,1,1.6,1.475c0,.209.123.246.307.246h1.316a.236.236,0,0,0,.27-.27,2.76,2.76,0,0,0-1.168-2.4A3.936,3.936,0,0,0,25.8,274.3c-2.09,0-3.5,1.291-3.5,3.074,0,2.25,1.93,2.988,3.627,3.529,1.02.332,1.746.713,1.746,1.66,0,.9-.824,1.414-1.746,1.414a1.8,1.8,0,0,1-2.029-1.783c0-.184-.086-.307-.246-.307h-1.4c-.184,0-.246.148-.246.332a3.648,3.648,0,0,0,3.9,3.59,3.573,3.573,0,0,0,3.774-3.406C29.684,280.287,27.717,279.562,26.082,279.033Z" transform="translate(-22 -274.3)"/><path class="a" d="M123.093,284.127c-1.844,0-2.852-1.537-2.852-3.688,0-1.783.652-4.057,2.852-4.057,2.029,0,2.828,2.213,2.828,4.082C125.946,282.627,124.937,284.127,123.093,284.127Zm0,1.844c3.479,0,4.893-3.012,4.893-5.533,0-3.652-1.7-5.938-4.893-5.938-3.049,0-4.893,2.311-4.893,5.926C118.212,282.983,119.614,285.971,123.093,285.971Z" transform="translate(-106.373 -274.475)"/><path class="a" d="M246.245,276.5h-1.352a.331.331,0,0,0-.332.332v6.639c0,.307-.1.369-.246.16-.123-.184-4.512-6.983-4.512-6.983a.338.338,0,0,0-.27-.148h-1.5a.331.331,0,0,0-.332.332v10.352a.331.331,0,0,0,.332.332h1.352a.331.331,0,0,0,.332-.332v-6.492c0-.123.1-.246.221-.061.086.123,4.524,6.737,4.524,6.737a.338.338,0,0,0,.27.148h1.5a.331.331,0,0,0,.332-.332V276.832A.336.336,0,0,0,246.245,276.5Z" transform="translate(-211.181 -276.23)"/><path class="a" d="M362.009,281.983c0,2.373-1.2,3.652-3.5,3.652h-.529c-.16,0-.209-.086-.209-.283v-6.7c0-.1-.025-.307.16-.307h.578C360.9,278.356,362.009,279.512,362.009,281.983Zm-3.479-5.483h-2.4a.331.331,0,0,0-.332.332v10.352a.331.331,0,0,0,.332.332h2.4a5.49,5.49,0,0,0,4.119-1.537,5.585,5.585,0,0,0,1.414-3.959,5.525,5.525,0,0,0-1.414-4.119A5.609,5.609,0,0,0,358.529,276.5Z" transform="translate(-314.761 -276.23)"/><path class="a" d="M469.587,276.5h-6.455a.331.331,0,0,0-.332.332v10.352a.331.331,0,0,0,.332.332h6.455a.331.331,0,0,0,.332-.332v-1.2a.331.331,0,0,0-.332-.332H465c-.148,0-.184-.086-.184-.246v-2.3c0-.148,0-.27.148-.27h3.344a.331.331,0,0,0,.332-.332v-1.2a.331.331,0,0,0-.332-.332h-3.32c-.148,0-.184-.061-.184-.184v-2.065c0-.123-.025-.344.16-.344h4.623a.331.331,0,0,0,.332-.332v-1.2A.323.323,0,0,0,469.587,276.5Z" transform="translate(-408.605 -276.23)"/><path class="a" d="M567.473,279.856c0,1.045-.7,1.66-1.881,1.66h-1.254c-.246,0-.246-.209-.246-.406V278.8c0-.184,0-.43.246-.43h1.254C566.452,278.357,567.473,278.6,567.473,279.856Zm.061,3.049a3.368,3.368,0,0,0,1.93-3.049c0-2.053-1.512-3.356-3.873-3.356h-3.16a.331.331,0,0,0-.332.332v10.352a.331.331,0,0,0,.332.332h1.352a.331.331,0,0,0,.332-.332v-3.369c0-.16,0-.406.209-.406h.947a2.783,2.783,0,0,1,1.967,2.176,11.465,11.465,0,0,1,.123,1.377v.184a.329.329,0,0,0,.086.271.258.258,0,0,0,.221.086h1.3a.366.366,0,0,0,.246-.1.27.27,0,0,0,.086-.209v-.1C569.243,285.905,569.366,284.221,567.534,282.906Z" transform="translate(-495.697 -276.23)"/></g></svg>