<svg xmlns="http://www.w3.org/2000/svg" xmlns:xlink="http://www.w3.org/1999/xlink" width="569" height="427" viewBox="0 0 569 427"><defs><style>.a,.ab,.aj,.ak,.al,.am,.ap,.cs,.dd,.e,.j,.p,.q,.y{fill:none;}.ag,.ah,.ai,.as,.b,.ca,.x{isolation:isolate;}.c{clip-path:url(#a);}.d{fill:url(#b);}.aj,.ak,.e,.q,.r{stroke:#cbe9ff;}.aj,.ak,.am,.ap,.dd,.e,.j,.p,.y{stroke-linecap:round;}.aj,.ak,.am,.dd,.e,.j,.p,.y{stroke-linejoin:round;}.e{stroke-width:2.5px;}.f{fill:#ffe161;}.g{fill:#c69c6d;}.h{opacity:0.267;fill:url(#c);}.i{fill:#0dfff8;}.j{stroke:#0dfff8;stroke-width:5px;}.k{fill:url(#e);}.l{fill:#57a9ff;}.m{fill:#03cc9d;}.n{fill:#1a8cff;}.o{fill:#3d6df5;}.cs,.p{stroke:#2960f5;}.p{stroke-width:12px;}.ab,.al,.cs,.q,.r{stroke-miterlimit:10;}.q{stroke-width:4.04px;}.bl,.r{fill:#fff;}.r{stroke-width:2.04px;}.s{fill:#2960f5;}.t{fill:#5d4223;}.u{fill:#00b78c;}.v{fill:#03a07b;}.w{fill:#01e2ad;}.ag,.ah,.ai,.x{mix-blend-mode:multiply;}.x{fill:url(#f);}.y{stroke:#ff6870;stroke-width:6px;}.z{fill:#bfe7ff;}.aa{fill:#a5d7f5;}.ab,.al,.am,.dd{stroke:#a5d7f5;}.ab{stroke-width:1.55px;}.ac{fill:#dbf2ff;}.ad{fill:#161643;}.ae{fill:#23235d;}.af{fill:#383889;}.ag{fill:url(#h);}.ah{fill:url(#k);}.ai{fill:url(#l);}.aj{stroke-width:2px;}.ak{stroke-width:1.83px;}.al,.am,.dd{stroke-width:3px;}.an{fill:url(#m);}.ao{fill:#ff7b33;}.ap{stroke:#5d4223;stroke-width:18px;}.aq{fill:url(#r);}.ar{fill:#e79a7a;}.as{opacity:0.1;}.at{clip-path:url(#s);}.au{clip-path:url(#t);}.av{fill:url(#u);}.aw{fill:#c1e7ff;}.ax{clip-path:url(#v);}.ay{clip-path:url(#w);}.az{fill:url(#x);}.ba{fill:#ba6858;}.bb{fill:#e19271;}.bc{fill:#e89976;}.bd{fill:#1f2b36;}.be{clip-path:url(#y);}.bf{fill:url(#z);}.bg{fill:#80bfff;}.bh{fill:#f7f9ff;}.bi{fill:#00c0b7;}.bj{opacity:0.45;}.bk{clip-path:url(#aa);}.bm{clip-path:url(#ab);}.bn{fill:#ea9d7d;}.bo{fill:#cc7a5e;}.bp{clip-path:url(#ac);}.bq{clip-path:url(#ad);}.br{fill:url(#ae);}.bs{fill:#9ed3fd;}.bt{fill:#1c1c48;}.bu{fill:#cf7653;}.bv{fill:#c12f4f;}.bw{fill:#ad203a;}.bx{clip-path:url(#af);}.by{fill:url(#ag);}.bz{fill:#a9d9ff;}.ca{opacity:0.85;}.cb{clip-path:url(#ah);}.cc{clip-path:url(#ai);}.cd{fill:url(#aj);}.ce{clip-path:url(#ak);}.cf{fill:url(#al);}.cg{fill:url(#an);}.ch{clip-path:url(#ao);}.ci{fill:url(#ap);}.cj{fill:#db8a6b;}.ck{fill:#b76349;}.cl{fill:#7a3e2b;}.cm{fill:#b4603f;}.cn{fill:#4f2b23;}.co{fill:#1bdbae;}.cp{fill:rgba(255,255,255,0);}.cq{fill:#19194b;}.cr{fill:#385bf8;}.cs{stroke-width:2.54px;}.ct{fill:#71a1bf;}.cu{fill:#94cbed;}.cv{fill:#ec9d7a;}.cw{fill:url(#aq);}.cx{fill:#de8f6d;}.cy{fill:#1f3954;}.cz{clip-path:url(#ar);}.da{fill:url(#as);}.db{clip-path:url(#at);}.dc{fill:url(#au);}.dd{stroke-dasharray:20.1 20.1;}</style><clipPath id="a"><rect class="a" width="569" height="427" transform="translate(0 -0.326)"/></clipPath><linearGradient id="b" x1="0.5" y1="0.875" x2="0.5" y2="0.085" gradientUnits="objectBoundingBox"><stop offset="0" stop-color="#cbe9ff"/><stop offset="0.17" stop-color="#d4edff"/><stop offset="0.68" stop-color="#edf7ff"/><stop offset="1" stop-color="#f6fbff"/></linearGradient><linearGradient id="c" x1="0.5" y1="0.875" x2="0.5" y2="0.085" xlink:href="#b"/><linearGradient id="e" y1="0.5" x2="1" y2="0.5" gradientUnits="objectBoundingBox"><stop offset="0" stop-color="#cbe9ff"/><stop offset="1" stop-color="#cbe9ff"/></linearGradient><linearGradient id="f" y1="0.5" x2="1" y2="0.5" gradientUnits="objectBoundingBox"><stop offset="0.65" stop-color="#def1ff" stop-opacity="0.502"/><stop offset="1" stop-color="#cbe9ff"/></linearGradient><linearGradient id="h" y1="0.5" x2="1" y2="0.5" gradientUnits="objectBoundingBox"><stop offset="0" stop-color="#fff"/><stop offset="0.35" stop-color="#fcfeff"/><stop offset="0.59" stop-color="#f3faff"/><stop offset="0.79" stop-color="#e4f4ff"/><stop offset="0.97" stop-color="#cfebff"/><stop offset="1" stop-color="#cbe9ff"/></linearGradient><linearGradient id="k" y1="0.5" x2="1" y2="0.5" gradientUnits="objectBoundingBox"><stop offset="0" stop-color="#cbe9ff"/><stop offset="0.03" stop-color="#cfebff"/><stop offset="0.21" stop-color="#e4f4ff"/><stop offset="0.41" stop-color="#f3faff"/><stop offset="0.65" stop-color="#fcfeff"/><stop offset="1" stop-color="#fff"/></linearGradient><linearGradient id="l" x1="0" y1="0.5" x2="1" y2="0.5" xlink:href="#k"/><linearGradient id="m" x1="0.5" y1="1" x2="0.5" gradientUnits="objectBoundingBox"><stop offset="0" stop-color="#eef8ff"/><stop offset="0.48" stop-color="#dff2ff"/><stop offset="1" stop-color="#cbe9ff"/></linearGradient><linearGradient id="r" x1="0" y1="0.5" x2="1" y2="0.5" xlink:href="#h"/><clipPath id="s"><rect class="a" width="20.822" height="27.528"/></clipPath><clipPath id="t"><path class="a" d="M530.912,931.787c.868,2.251,1.565,4.316,2.436,6.564.889,2.311,1.874,4.754,3.911,6.162,2.844,1.963,7.14,1,9.3-1.707a9.049,9.049,0,0,0,1.664-7.079,64.131,64.131,0,0,0-1.461-7.591L544.8,921.38a4.857,4.857,0,0,0-1.664-2.909c-1.23-.8-2.845-.323-4.235.171-2.009.711-3.911,1.721-5.959,2.354-1.163.356-5.042.107-5.358,1.394-.149.59.224.747.444,1.312.932,2.489,1.909,5.614,2.869,8.1" transform="translate(-527.553 -918.041)"/></clipPath><linearGradient id="u" x1="-60.173" y1="-65.369" x2="-60.131" y2="-65.369" gradientUnits="objectBoundingBox"><stop offset="0" stop-color="#5b1219"/><stop offset="0.16" stop-color="#5b1219"/><stop offset="1" stop-color="#5b1219"/></linearGradient><clipPath id="v"><rect class="a" width="21.017" height="28.128"/></clipPath><clipPath id="w"><path class="a" d="M472.383,930.409c-.039.107-.078.2-.117.292l-2.578,6.553a65.515,65.515,0,0,1-3.481,6.894,9.11,9.11,0,0,1-5.657,4.573c-3.367.821-7.332-1.045-8.391-4.345a10.667,10.667,0,0,1,.334-6.126c1.756-5.045,3.307-9.177,3.556-10.539.1-.537.2-1.067.288-1.607.444-1.33.907-2.645,1.262-3.858.174-.576-.021-.932.459-1.3,1.045-.8,3.954,1.778,5.088,2.183,2,.754,4.121,1.134,6.162,1.778,1.394.455,2.962,1.067,3.452,2.464a4.54,4.54,0,0,1-.356,3.026" transform="translate(-451.86 -920.787)"/></clipPath><linearGradient id="x" x1="-58.702" y1="-64.053" x2="-58.66" y2="-64.053" xlink:href="#u"/><clipPath id="y"><path class="a" d="M633.916,650.187a4.936,4.936,0,0,0,.4,2.1c.327.473,3.36-.772,3.36-.772s.981-1.575.885-1.913c-.053-.238-.356-.331-.764-.331a16.492,16.492,0,0,0-3.879.917" transform="translate(-633.914 -649.27)"/></clipPath><linearGradient id="z" x1="-29.54" y1="-787.998" x2="-29.313" y2="-787.998" gradientUnits="objectBoundingBox"><stop offset="0" stop-color="#cc7a5e"/><stop offset="0.92" stop-color="#aa5f4b"/><stop offset="1" stop-color="#aa5f4b"/></linearGradient><clipPath id="aa"><rect class="a" width="2.578" height="3.179"/></clipPath><clipPath id="ab"><rect class="a" width="3.285" height="4.096"/></clipPath><clipPath id="ac"><rect class="a" width="23.961" height="22.287"/></clipPath><clipPath id="ad"><path class="a" d="M584.06,683.8l13.156-14.432a4.733,4.733,0,0,0,1.4-2.325,2.955,2.955,0,0,0-2.4-3.061c-1.4-.3-1.959.16-3.111,1a38.347,38.347,0,0,0-3.484,2.809c-2.4,2.2-6.045,4.267-8.768,6.009-1.344.864-2,2.023-3.381,2.844-1.255.736-2.336,1.18-2.731,2.734-.452,1.778,1.01,2.731,2.222,3.634a40.892,40.892,0,0,1,3.253,2.667c.932.85,1.607.58,2.489-.4Z" transform="translate(-574.664 -663.893)"/></clipPath><linearGradient id="ae" x1="-61.893" y1="-80.881" x2="-61.849" y2="-80.881" gradientUnits="objectBoundingBox"><stop offset="0" stop-color="#5b1219"/><stop offset="0.43" stop-color="#5b1219"/><stop offset="0.65" stop-color="#5b1219"/><stop offset="0.83" stop-color="#5b1219"/><stop offset="0.98" stop-color="#5b1219"/><stop offset="1" stop-color="#5b1219"/></linearGradient><clipPath id="af"><path class="a" d="M457.242,792.871s-1.173,8.612-3.975,14.247a46.834,46.834,0,0,1-3.467,6.429s11.417,5.245,17.636,3.278c16.925-5.465,35.727,2.194,35.727,2.194a123.577,123.577,0,0,1-6.421-12.679,140.19,140.19,0,0,1-4.078-13.54Z" transform="translate(-449.8 -792.8)"/></clipPath><linearGradient id="ag" x1="-29.709" y1="-73.966" x2="-29.69" y2="-73.966" gradientUnits="objectBoundingBox"><stop offset="0" stop-color="#7f0026"/><stop offset="1" stop-color="#7f0026"/></linearGradient><clipPath id="ah"><rect class="a" width="37.053" height="33.586"/></clipPath><clipPath id="ai"><path class="a" d="M464.845,644.635q-2.187,2.845-4.1,5.867c-.16.256-.309.512-.455.772a48.137,48.137,0,0,0-1.721,7.847c-.249,1.685-.434,3.378-.526,5.07a37.9,37.9,0,0,0,.775,5.1,87.3,87.3,0,0,0,4.875,14.386c.928,2.254,1.86,4.455,2.7,6.589.612,1.543,1.01,4.21,2.091,5.5,1.017,1.205,2.741,1.184,4.3,1.166h.981l23.773.587a207.6,207.6,0,0,0-.949-25.06c-.789-8.025-2.251-16.452-7.467-22.61a22.511,22.511,0,0,0-12.157-7.271,24.38,24.38,0,0,0-5.3-.679c-2.649,0-5.23.654-6.837,2.748" transform="translate(-458.04 -641.89)"/></clipPath><linearGradient id="aj" x1="-38.181" y1="-35.55" x2="-38.154" y2="-35.55" gradientUnits="objectBoundingBox"><stop offset="0" stop-color="#5b1219"/><stop offset="0.28" stop-color="#5b1219"/><stop offset="0.59" stop-color="#5b1219"/><stop offset="0.87" stop-color="#5b1219"/><stop offset="1" stop-color="#5b1219"/></linearGradient><clipPath id="ak"><path class="a" d="M450.135,558.5c-1.173,1.938-3.111,2.649-5.71,3.314a5.689,5.689,0,0,0-4.37,6.165c.27,3.723,0,5.71-1.988,7.392s-4.434,8.469,2.752,12.893c6.478,4.029,13.554.971,15.645-4.587,2.037-5.333-.548-8.153-2.3-11.822-1.529-3.2-.405-6.933.459-7.847,1.02-1.173,1.582-.917,1.582-.917l4.729-5.547a4.59,4.59,0,0,0-4.078-2.457c-.338-.025-.661-.039-.978-.039-2.357,0-4.132.757-5.749,3.452" transform="translate(-436.002 -555.05)"/></clipPath><linearGradient id="al" x1="-32.793" y1="-27.713" x2="-32.772" y2="-27.713" gradientUnits="objectBoundingBox"><stop offset="0" stop-color="#4f211e"/><stop offset="0.02" stop-color="#4f211e"/><stop offset="0.99" stop-color="#743529"/><stop offset="1" stop-color="#743529"/></linearGradient><linearGradient id="an" x1="-54.499" y1="-51.637" x2="-54.459" y2="-51.637" gradientUnits="objectBoundingBox"><stop offset="0" stop-color="#743529"/><stop offset="0.19" stop-color="#743529"/><stop offset="0.47" stop-color="#5e2b21"/><stop offset="1" stop-color="#5e2b21"/></linearGradient><clipPath id="ao"><path class="a" d="M493.2,564.206a13.259,13.259,0,0,0-3.876,7.037,9.792,9.792,0,0,0,.188,5.163c.469,1.365,1.479,2.869,3.022,3.072a2.645,2.645,0,0,0,2.866-1.664c.38-1.067.836-2.844,1.87-3.513,1.326.612,2.6.306,2.9-1.988.356-2.6.306-4.434.711-4.74.544-.412,1.422.1,4.736,1.067s5.508,1.124,5.863.512c.306-.206-.917-2.343-2.6-4.537a10.407,10.407,0,0,0-7.378-3.769c-.356-.029-.711-.046-1.067-.046-2.265,0-4.466.672-7.243,3.406" transform="translate(-489.062 -560.8)"/></clipPath><linearGradient id="ap" x1="-65.651" y1="-99.112" x2="-65.604" y2="-99.112" xlink:href="#an"/><linearGradient id="aq" x1="-0.064" y1="0.362" x2="1.017" y2="0.362" gradientUnits="objectBoundingBox"><stop offset="0" stop-color="#eb946e"/><stop offset="0.27" stop-color="#eb9773"/><stop offset="1" stop-color="#ea9d7d"/></linearGradient><clipPath id="ar"><path class="a" d="M461.158,722.786c5.28-2.816,22.066-10.926,22.066-10.926l-8.281-15.289s-12.039,5.6-22.777,10.34c-8.512,3.762-7.342,8.932-5.191,13.156a6.756,6.756,0,0,0,1.842,2.133c2.592,2.012,7.15,3.157,12.342.6" transform="translate(-445.421 -696.57)"/></clipPath><linearGradient id="as" x1="-28.683" y1="-29.399" x2="-28.664" y2="-29.399" gradientUnits="objectBoundingBox"><stop offset="0" stop-color="#a9d9ff"/><stop offset="1" stop-color="#bfe7ff"/></linearGradient><clipPath id="at"><path class="a" d="M450.53,651.577c-2.133,6.589-5.031,18.969-4.871,23.111.125,3.7,2.041,5.333,6.165,7.054,4.014,1.675,10.7-.651,11.958-5.931,1.152-4.853,1.966-7.73,4.285-15.894,2.585-8.786,5.369-13.622,4.5-17.348-1.042-4.452-3.975-7.385-8.32-7.467a9.667,9.667,0,0,0-3.7.633c-4.978,1.952-7.62,8.178-10.009,15.83" transform="translate(-445.652 -635.101)"/></clipPath><linearGradient id="au" x1="-22.219" y1="-25.715" x2="-22.203" y2="-25.715" gradientUnits="objectBoundingBox"><stop offset="0" stop-color="#dbf2ff"/><stop offset="1" stop-color="#bfe7ff"/></linearGradient></defs><g class="b" transform="translate(0 0.326)"><g transform="translate(0)"><g class="c"><path class="d" d="M1123.14,962.582H1015.38l14.169-38.422h79.422Z" transform="translate(-654.35 -595.564)"/><path class="e" d="M82.56,595.243a6.213,6.213,0,0,1,5.383-1.067,4.322,4.322,0,0,1,3.324,3.484,7.311,7.311,0,0,1,6.233-2.407,6.505,6.505,0,0,1,5.408,3.424" transform="translate(-53.205 -382.777)"/><path class="e" d="M72.67,552.766a4.452,4.452,0,0,1,7.925,1.778,5.088,5.088,0,0,1,9.17,2.158" transform="translate(-46.831 -355.074)"/><path class="e" d="M26,607.3a4.113,4.113,0,0,1,7.95.356,5.184,5.184,0,0,1,8.633,2.489" transform="translate(-16.755 -389.503)"/><circle class="f" cx="25.497" cy="25.497" r="25.497" transform="translate(512.567 134.971)"/><path class="g" d="M518.708,948.506H-81.857A10.055,10.055,0,0,1-91.88,938.482V859.9A10.055,10.055,0,0,1-81.857,849.88H513.286Z" transform="translate(59.211 -547.695)"/><path class="h" d="M456.92,967.368H349.16l14.169-43.208h79.422Z" transform="translate(-225.012 -595.564)"/><path class="h" d="M1115.36,967.368H1007.6l14.169-43.208h79.422Z" transform="translate(-649.336 -595.564)"/><path class="i" d="M1010.132,953.1a.057.057,0,1,0,.043.055A.057.057,0,0,0,1010.132,953.1Z" transform="translate(-650.941 -614.214)"/><line class="j" x2="32.53" transform="translate(204.284 401.877)"/><rect class="k" width="518.085" height="49.355" transform="translate(-16.359 260.986)"/><path class="l" d="M43.125,712.842c-.356-1.205-1.778-2.133-3.051-2.677a56.535,56.535,0,0,0-19.044-4.445c-5.063-.281-10.133.124-15.2-.05-4.654-.164-8.6-3.456-13.1-4.7-.164-.046-.327-.089-.494-.128a26.053,26.053,0,0,0-13.056.5,30.044,30.044,0,0,0-12.505,6.862,6.2,6.2,0,0,0-2.276,3.666,3.129,3.129,0,0,0,.057.964Z" transform="translate(22.949 -451.256)"/><rect class="m" width="429.938" height="9.127" rx="4.564" transform="translate(-32.669 301.015)"/><rect class="i" width="422.386" height="4.565" transform="translate(-17.106 297.619)"/><path class="n" d="M821.648,463.876c-8.534-1.76-16.928-2.667-24.758-1.778-17.778,1.991-38.93,25.5-54.621,32.495-22.4,9.977-57.829,30.084-81.47,37.06-11.282,3.328-23.023,5.163-33.985,9.547-10.055,4.021-16.335,7.04-24.754,13.661a86.054,86.054,0,0,1-13.76,9.245,50.447,50.447,0,0,1-17.366,4.978c-11.819,1.319-23.744-.1-35.592.839a129.908,129.908,0,0,0-62.54,21.856c-2.183,1.486-4.313,3.051-6.4,4.669a.242.242,0,0,0,.028.356,5.954,5.954,0,0,0-.16.672h-.683a.558.558,0,1,0,0,1.117l263.019-1.2q60.09-.27,120.18-1.031c6.35-.085,20.623,2.489,26.024-1.223,5.874-4.046,3.239-13.671,3.015-19.808q-1.131-30.859-2.258-61.725c-.284-7.762,4.868-13.511-.58-19.033-4.089-4.153,10.777-37.86,5.113-39.229C866.719,452.093,836.581,466.955,821.648,463.876Z" transform="translate(-299.683 -293.139)"/><path class="o" d="M191.192,815.6c-9.334-7.182-20.7-8.989-31.009-4.789-2.2.9-4.978,3.445-7.253,3.317a43.088,43.088,0,0,1-5.024-.917c-1.248-.231-2.844-.949-4.068-.679-.939.206-1.778,1.18-2.72,1.486a5.938,5.938,0,0,1-3.556-.032,8.855,8.855,0,0,1-5.65-6.094c-.448-1.458-1.82-1.87-2.514-.444l-2.692,5.547c-1.5-3.755-4.487-6.372-7.773-6.109-3.513.281-6.233,3.577-7.342,7.8a15.7,15.7,0,0,0-18.912,0c-5.877-8.974-16.957-9.12-23-.395-9.205-8.345-22.464-6.4-30.166,4.32-5.689-7.9-16.1-8.178-21.629.26-6.485-3.1-13.59-1.909-19.364,2.9C-1.8,816.083-4.659,810.75-9,809.434c-4.569-1.369-9.2,2.315-11.076,7.822-4.352-4.661-11.161-3.385-14.82,2.066-1.728-4.384-6.123-6.638-9.572-3.972a2.254,2.254,0,0,0-.274,2.844l-.672.3c.039-.956-.651-1.845-1.351-1.813-28.854,1.319-57.7,3-86.565,3.911-14.375.459-28.747.85-43.122,1.248-14.183.391-82.426-1.33-96.556-3.577-10.311-1.643-35.961-18.4-42.376-2.489-6.5-7.175-16.747-5.995-22.4,2.258-1.934-5.966-7.264-8.285-12.128-8-8.338.484-15.289,11.229-23.687,9.6-.068-11.431-10.759-15.25-18.895-14.809-6.756.356-13.718,6.141-14.638,14.578a27.018,27.018,0,0,0-25.846-2.6c-4.149,1.778-8.114,6.169-10.066,11.154-1.383,3.556-1.422,8.228.75,11.069,2.041,2.667,5.3,2.976,8.238,3.086q22.717.857,45.437-.544c15.008-.924,29.906-4.036,44.826-4.267q43.435-.711,86.867-1.778c44.8-1.067,89.7-3.445,134.52-3.445q100.044-2.7,200.067-7.179,56.417-2.592,112.82-5.789C191.825,818.988,192.422,816.545,191.192,815.6Z" transform="translate(286.139 -518.634)"/><path class="p" d="M-237.35,880.081c141.755-4.6,339.675-8.907,481.43-13.511" transform="translate(152.957 -558.451)"/><path class="q" d="M-87.79,884.306c141.755-4.594,287.948-7.467,429.7-12.046" transform="translate(56.575 -562.118)"/><path class="r" d="M473.879,372.117h-5.333a5.757,5.757,0,0,0-11.513,0h-3.616a3.837,3.837,0,1,0,0,7.673h20.463a3.837,3.837,0,0,0,0-7.673Z" transform="translate(-289.727 -236.096)"/><path class="s" d="M894.028,745.429a1.458,1.458,0,0,1,2.72,0l7.324,19.012L911.994,785a1.458,1.458,0,0,1-1.362,1.98H880.14a1.454,1.454,0,0,1-1.358-1.98l7.922-20.562Z" transform="translate(-566.257 -479.782)"/><path class="s" d="M898.037,714.379a1.458,1.458,0,0,1,2.72,0l6.226,16.157,6.823,17.7a1.461,1.461,0,0,1-1.362,1.984H886.36A1.458,1.458,0,0,1,885,748.239l6.82-17.7Z" transform="translate(-570.266 -459.772)"/><path class="s" d="M902.87,688.8a1.458,1.458,0,0,1,2.72,0l4.885,12.683,5.483,14.222a1.458,1.458,0,0,1-1.362,1.98H893.86a1.454,1.454,0,0,1-1.358-1.98l5.479-14.222Z" transform="translate(-575.099 -443.287)"/><path class="s" d="M974.3,723.979a1.678,1.678,0,0,1,3.129,0l8.413,21.835,9.1,23.62a1.675,1.675,0,0,1-1.565,2.276H958.352a1.675,1.675,0,0,1-1.564-2.276l9.1-23.62Z" transform="translate(-616.519 -465.87)"/><path class="s" d="M978.881,688.309a1.678,1.678,0,0,1,3.129,0l7.147,18.557,7.822,20.338a1.675,1.675,0,0,1-1.564,2.276H965.462A1.675,1.675,0,0,1,963.9,727.2l7.822-20.338Z" transform="translate(-621.101 -442.883)"/><path class="s" d="M984.447,658.929a1.678,1.678,0,0,1,3.129,0l5.611,14.578,6.3,16.356a1.675,1.675,0,0,1-1.561,2.279H974.1a1.675,1.675,0,0,1-1.565-2.279l6.3-16.356Z" transform="translate(-626.666 -423.949)"/><path class="s" d="M124.274,771.474a.967.967,0,0,0-1.806,0l-4.861,12.615-5.255,13.643a.967.967,0,0,0,.9,1.316h20.231a.967.967,0,0,0,.9-1.316l-5.255-13.643Z" transform="translate(-72.362 -496.767)"/><path class="s" d="M126.919,750.874a.967.967,0,0,0-1.806,0l-4.132,10.72-4.526,11.734a.971.971,0,0,0,.9,1.316h17.312a.967.967,0,0,0,.9-1.316l-4.526-11.734Z" transform="translate(-75.007 -483.492)"/><path class="s" d="M130.139,733.874a.967.967,0,0,0-1.806,0l-3.243,8.413-3.637,9.444a.967.967,0,0,0,.9,1.316h13.76a.971.971,0,0,0,.9-1.316l-3.641-9.444Z" transform="translate(-78.227 -472.536)"/><path class="s" d="M-15.754,739.229a1.316,1.316,0,0,0-1.228-.845,1.316,1.316,0,0,0-1.228.845l-6.617,17.17-7.154,18.571a1.316,1.316,0,0,0,.15,1.211,1.316,1.316,0,0,0,1.08.567H-3.214a1.319,1.319,0,0,0,1.078-.568,1.319,1.319,0,0,0,.152-1.209L-9.137,756.4Z" transform="translate(20.664 -475.843)"/><path class="s" d="M-12.149,711.179a1.316,1.316,0,0,0-1.228-.845,1.316,1.316,0,0,0-1.228.845l-5.621,14.578-6.162,16a1.319,1.319,0,0,0,.152,1.209,1.319,1.319,0,0,0,1.078.568H-1.6a1.319,1.319,0,0,0,1.078-.568,1.319,1.319,0,0,0,.152-1.209l-6.162-16Z" transform="translate(17.059 -457.767)"/><path class="s" d="M-7.767,688.079A1.316,1.316,0,0,0-9,687.234a1.316,1.316,0,0,0-1.228.845l-4.413,11.453L-19.589,712.4a1.319,1.319,0,0,0,.15,1.206,1.319,1.319,0,0,0,1.073.571H.368A1.319,1.319,0,0,0,1.6,712.4l-4.953-12.864Z" transform="translate(12.677 -442.88)"/><path class="s" d="M467.227,865.449a1.458,1.458,0,0,1,2.72,0l7.325,19.012,7.922,20.558A1.461,1.461,0,0,1,483.832,907H453.36A1.458,1.458,0,0,1,452,905.02l7.922-20.558Z" transform="translate(-291.224 -557.128)"/><path class="s" d="M471.2,834.4a1.458,1.458,0,0,1,2.72,0l6.222,16.153,6.823,17.707a1.458,1.458,0,0,1-1.362,1.98h-26.08a1.458,1.458,0,0,1-1.358-1.98l6.82-17.707Z" transform="translate(-295.196 -537.118)"/><path class="s" d="M476.049,808.819a1.458,1.458,0,0,1,2.72,0l4.885,12.679,5.483,14.222a1.461,1.461,0,0,1-1.362,1.984H467.05a1.458,1.458,0,0,1-1.358-1.984l5.483-14.222Z" transform="translate(-300.046 -520.633)"/><path class="s" d="M547.493,843.986a1.675,1.675,0,0,1,3.125,0l8.413,21.839,9.1,23.616a1.675,1.675,0,0,1-1.564,2.276H531.542a1.675,1.675,0,0,1-1.564-2.276l9.1-23.616Z" transform="translate(-341.466 -543.206)"/><path class="s" d="M552.075,808.326a1.675,1.675,0,0,1,3.125,0l7.147,18.557,7.822,20.335a1.675,1.675,0,0,1-1.565,2.276H538.652a1.675,1.675,0,0,1-1.564-2.276l7.822-20.335Z" transform="translate(-346.048 -520.225)"/><path class="s" d="M557.643,778.936a1.675,1.675,0,0,1,3.125,0l5.611,14.578,6.3,16.356a1.675,1.675,0,0,1-1.561,2.276H547.292a1.675,1.675,0,0,1-1.564-2.276l6.3-16.356Z" transform="translate(-351.616 -501.285)"/><path class="s" d="M1331.664,532.763a1.3,1.3,0,0,1,2.432,0l6.542,16.985,7.076,18.365a1.3,1.3,0,0,1-1.216,1.778h-27.236a1.3,1.3,0,0,1-1.216-1.778l7.076-18.365Z" transform="translate(-849.341 -342.797)"/><path class="s" d="M1335.234,505.021a1.3,1.3,0,0,1,2.432,0l5.565,14.429,6.091,15.815a1.3,1.3,0,0,1-1.216,1.778h-23.3a1.3,1.3,0,0,1-1.216-1.778l6.091-15.815Z" transform="translate(-852.912 -324.915)"/><path class="s" d="M1339.562,482.173a1.3,1.3,0,0,1,2.432,0l4.363,11.328,4.9,12.711a1.305,1.305,0,0,1-1.216,1.778h-18.525a1.3,1.3,0,0,1-1.216-1.778l4.9-12.711Z" transform="translate(-857.239 -310.195)"/><path class="s" d="M1158.4,632.838a1.5,1.5,0,0,1,2.791,0l7.517,19.506,8.128,21.1a1.5,1.5,0,0,1-1.4,2.034h-31.289a1.5,1.5,0,0,1-1.4-2.034l8.128-21.1Z" transform="translate(-736.367 -407.209)"/><path class="s" d="M1162.522,600.978a1.5,1.5,0,0,1,2.791,0l6.4,16.576,7,18.166a1.5,1.5,0,0,1-1.4,2.034h-26.77a1.5,1.5,0,0,1-1.4-2.034l6.994-18.166Z" transform="translate(-740.492 -386.678)"/><path class="s" d="M1167.471,574.728a1.5,1.5,0,0,1,2.791,0l5.013,13.014,5.625,14.6a1.5,1.5,0,0,1-1.4,2.034h-21.277a1.5,1.5,0,0,1-1.4-2.034l5.628-14.6Z" transform="translate(-745.441 -369.761)"/><path class="t" d="M830.488,783.29h0A5.614,5.614,0,0,1,836.1,788.9V806.27a1.355,1.355,0,0,1-1.355,1.355h-8.534a1.355,1.355,0,0,1-1.355-1.355V788.9a5.614,5.614,0,0,1,5.614-5.614Z" transform="translate(-531.571 -504.782)"/><path class="u" d="M793.35,626.458a3.527,3.527,0,0,1,6.581,0l9.668,25.1L820.714,680.4a3.527,3.527,0,0,1-3.293,4.793H775.857a3.524,3.524,0,0,1-3.285-4.793l11.111-28.843Z" transform="translate(-497.722 -402.259)"/><path class="v" d="M782.177,680.406a3.531,3.531,0,0,0,3.3,4.793h-9.6a3.531,3.531,0,0,1-3.3-4.793L783.7,651.559l9.664-25.1a3.527,3.527,0,0,1,6.578,0l1.508,3.911-8.157,21.184Z" transform="translate(-497.728 -402.261)"/><path class="m" d="M799.295,580.128a3.527,3.527,0,0,1,6.581,0l8.025,20.836,9.472,24.6a3.527,3.527,0,0,1-3.289,4.793h-35a3.527,3.527,0,0,1-3.292-4.793l9.472-24.583Z" transform="translate(-503.667 -372.402)"/><path class="u" d="M791.4,625.59a3.531,3.531,0,0,0,3.3,4.793h-9.6a3.527,3.527,0,0,1-3.289-4.793l9.469-24.583,8.029-20.839a3.527,3.527,0,0,1,6.578,0l1.508,3.911L800.869,601Z" transform="translate(-503.673 -372.43)"/><path class="w" d="M806.525,541.958a3.527,3.527,0,0,1,6.581,0l6.045,15.645,7.467,19.4a3.527,3.527,0,0,1-3.292,4.793H796.3A3.527,3.527,0,0,1,793.014,577l7.467-19.4Z" transform="translate(-510.897 -347.804)"/><path class="m" d="M802.648,577.041a3.527,3.527,0,0,0,3.292,4.793h-9.6a3.52,3.52,0,0,1-3.282-4.793l7.467-19.4L806.57,542a3.527,3.527,0,0,1,6.578,0l1.508,3.911-4.516,11.734Z" transform="translate(-510.924 -347.832)"/><path class="t" d="M715.768,793.608h0a4.768,4.768,0,0,1,4.768,4.75v14.756a1.148,1.148,0,0,1-1.148,1.148h-7.236A1.149,1.149,0,0,1,711,813.114V798.358a4.768,4.768,0,0,1,4.768-4.768Z" transform="translate(-458.196 -511.42)"/><path class="u" d="M684.222,660.525a2.99,2.99,0,0,1,5.582,0l8.21,21.305,9.433,24.48a3,3,0,0,1-2.8,4.068H669.374a3,3,0,0,1-2.795-4.071l9.433-24.48Z" transform="translate(-429.441 -424.432)"/><path class="v" d="M674.728,706.322a3,3,0,0,0,2.8,4.068h-8.157a3,3,0,0,1-2.788-4.068l9.437-24.484,8.206-21.3a2.994,2.994,0,0,1,5.582,0l1.28,3.324-6.923,17.984Z" transform="translate(-429.444 -424.443)"/><path class="m" d="M689.274,621.185a2.99,2.99,0,0,1,5.582,0l6.816,17.686,8.025,20.868a2.994,2.994,0,0,1-2.795,4.068H677.214a2.994,2.994,0,0,1-2.795-4.068l8.039-20.868Z" transform="translate(-434.493 -399.08)"/><path class="u" d="M682.568,659.739a2.994,2.994,0,0,0,2.8,4.068H677.22a3,3,0,0,1-2.8-4.068l8.039-20.864,6.816-17.689a2.99,2.99,0,0,1,5.582,0l1.28,3.324-5.533,14.365Z" transform="translate(-434.496 -399.08)"/><path class="w" d="M695.419,588.785a2.99,2.99,0,0,1,5.582,0l5.12,13.287,6.343,16.466a2.99,2.99,0,0,1-2.791,4.068H686.747a2.99,2.99,0,0,1-2.791-4.068l6.343-16.466Z" transform="translate(-440.638 -378.2)"/><path class="m" d="M692.1,618.592a3,3,0,0,0,2.8,4.068h-8.157a2.983,2.983,0,0,1-2.784-4.068l6.343-16.466,5.117-13.291a2.99,2.99,0,0,1,5.582,0l1.28,3.324-3.833,9.956Z" transform="translate(-440.639 -378.232)"/><rect class="m" width="568.898" height="28.736" transform="translate(0 315.696)"/><rect class="x" width="89.004" height="8.953" rx="4.477" transform="translate(24.345 338.413)"/><rect class="x" width="89.004" height="8.953" rx="4.477" transform="translate(118.494 338.413)"/><line class="y" x2="38.589" transform="translate(43.549 302.017)"/><line class="y" x2="38.589" transform="translate(43.549 310.608)"/><line class="y" x2="42.621" transform="translate(43.549 319.195)"/><line class="y" x2="49.565" transform="translate(43.549 327.785)"/><line class="y" y2="10.98" transform="translate(50.995 329.005)"/><line class="y" y2="10.98" transform="translate(86.17 329.005)"/><line class="y" x2="38.589" transform="translate(136.386 302.017)"/><line class="y" x2="38.589" transform="translate(136.386 310.608)"/><line class="y" x2="42.621" transform="translate(136.386 319.195)"/><line class="y" x2="49.569" transform="translate(136.386 327.785)"/><line class="y" y2="10.98" transform="translate(143.832 329.005)"/><line class="y" y2="10.98" transform="translate(179.007 329.005)"/><path class="z" d="M738.634,788.124,706.861,733.09H658.48l31.773,55.034Z" transform="translate(-424.35 -472.431)"/><path class="aa" d="M713.066,743.842H664.685l-6.2-10.752h48.381Z" transform="translate(-424.35 -472.431)"/><path class="ab" d="M760.637,799.349H748.544L739.89,784.28h12.093Z" transform="translate(-476.814 -505.42)"/><path class="ac" d="M600.893,733.43l15.886,27.517,15.887,27.517H569.12l15.886-27.517Z" transform="translate(-366.763 -472.651)"/><path class="ad" d="M620.645,754.78,639.5,802.223H599.77Z" transform="translate(-386.515 -486.409)"/><path class="ae" d="M620.645,754.78l-3.438,47.443H599.77Z" transform="translate(-386.515 -486.409)"/><path class="af" d="M620.645,754.78l-11.268,47.443H599.77Z" transform="translate(-386.515 -486.409)"/><rect class="ag" width="99.031" height="13.856" rx="6.928" transform="translate(21.497 349.695)"/><rect class="ag" width="101.061" height="15.492" rx="7.746" transform="translate(463.962 351.497)"/><rect class="ag" width="89.004" height="12.455" rx="6.228" transform="translate(275.443 342.285)"/><rect class="ah" width="17.287" height="12.455" rx="6.228" transform="translate(228.281 340.439)"/><path class="ai" d="M770.851,959.49h-4.836a6.233,6.233,0,0,0-5.333,3.022H756.12a6.219,6.219,0,0,0-4.882,2.4,6.222,6.222,0,0,0-4.917-2.4h-4.836a6.152,6.152,0,0,1-6.667,0h-4.836a6.195,6.195,0,0,1-5.621-.764h-4.836a6.244,6.244,0,0,0-6.226,6.229h0a6.244,6.244,0,0,0,6.226,6.226h4.836a6.213,6.213,0,0,1,5.625.761h4.836a6.153,6.153,0,0,1,6.667,0h4.836a6.211,6.211,0,0,0,4.914-2.407,6.208,6.208,0,0,0,4.9,2.4h4.832a6.24,6.24,0,0,0,5.333-3.019h4.573a6.244,6.244,0,0,0,6.2-6.229h0A6.244,6.244,0,0,0,770.851,959.49Z" transform="translate(-459.678 -618.332)"/><path class="aj" d="M958.09,425.545a4.341,4.341,0,0,1,3.755-.889c1.294.356,2.606,1.291,2.027,3.307,1.148-1.1,2.99-2.549,4.7-2.4a4.549,4.549,0,0,1,3.79,2.4" transform="translate(-617.43 -273.592)"/><path class="aj" d="M912.21,393.375a3.118,3.118,0,0,1,5.554,1.255,3.556,3.556,0,0,1,6.432,1.511" transform="translate(-587.863 -252.7)"/><path class="ak" d="M890.07,429.506a2.884,2.884,0,0,1,5.575.249,3.952,3.952,0,0,1,3.534-1.269c1.22.352,1.593,1.2,1.9,2.432" transform="translate(-573.595 -275.48)"/><path class="l" d="M424.52,724.4c0-2.891,23.705-6.468,31.883-6.4,12.306.078,19.378,3.7,19.378,6.4" transform="translate(-273.577 -462.705)"/><path class="e" d="M965.37,377.543a9.9,9.9,0,0,1,5.917-2.062c3.378-.075,5.252.647,5.956,2.489a11.748,11.748,0,0,0-3.769.981.825.825,0,0,0-.441.832.743.743,0,0,0,.793.487,2.229,2.229,0,0,0,.932-.356c.843-.5,1.106-.487,2.1-1.067,1.422-.8,1.778-1.422,3.453-1.276A6.5,6.5,0,0,1,985.719,381" transform="translate(-622.122 -241.971)"/><path class="e" d="M1015.6,344.925c1.127-1.5,3.25-1.778,5.184-1.678,2.489.132,4.925,1.86,5.629,1.422a4.9,4.9,0,0,0-3.381,1.2c-.38.3-.711.679-1.067.967-.192.153-.547.135-.58.441-.021.206.2.395.388.423a1.177,1.177,0,0,0,.711-.224l3.708-2.1a3.555,3.555,0,0,1,2.813-.555,5.085,5.085,0,0,1,3.673,4.053" transform="translate(-654.492 -221.19)"/><path class="e" d="M1027.83,404c.882-2.827,4.039-3.172,6.542-2.535.391.1,2.016.914,1.97,1.316-.067.558-.672.86-1.216,1.006a15.286,15.286,0,0,0-2.012.5.743.743,0,0,0-.377.736c.089.377.636.324,1,.178,1.3-.519,1.707-1.067,2.994-1.607a6.606,6.606,0,0,1,4.093-.487,5.28,5.28,0,0,1,3.595,3.744" transform="translate(-662.373 -258.547)"/><path class="r" d="M243.809,190.4h-5.333a5.76,5.76,0,0,0-11.517,0h-3.612a3.837,3.837,0,0,0,0,7.673h20.463a3.837,3.837,0,1,0,0-7.673Z" transform="translate(-141.461 -119.081)"/><path class="r" d="M1212.746,221.147h-5.333a5.757,5.757,0,0,0-11.513,0h-3.623a3.837,3.837,0,1,0,0,7.673h20.463a3.837,3.837,0,0,0,0-7.673Z" transform="translate(-765.876 -138.806)"/><path class="t" d="M1452.754,713h0a8.96,8.96,0,0,1,8.96,8.96v27.709a2.162,2.162,0,0,1-2.162,2.162h-13.6a2.162,2.162,0,0,1-2.162-2.162V721.974a8.96,8.96,0,0,1,8.964-8.974Z" transform="translate(-930.434 -459.485)"/><path class="u" d="M1393.468,462.78a5.626,5.626,0,0,1,10.5,0l15.431,40.068,17.732,46.027a5.625,5.625,0,0,1-5.248,7.648h-66.326a5.629,5.629,0,0,1-5.248-7.666l17.732-46.01Z" transform="translate(-876.389 -295.912)"/><path class="v" d="M1375.634,548.9a5.632,5.632,0,0,0,5.259,7.645h-15.332a5.628,5.628,0,0,1-5.238-7.645l17.739-46.013,15.421-40.054a5.627,5.627,0,0,1,10.5,0l2.411,6.251-13,33.8Z" transform="translate(-876.404 -295.947)"/><path class="m" d="M1402.973,388.845a5.625,5.625,0,0,1,10.5,0l12.8,33.249,15.115,39.226a5.629,5.629,0,0,1-5.252,7.648H1380.3a5.629,5.629,0,0,1-5.252-7.648l15.115-39.226Z" transform="translate(-885.894 -248.263)"/><path class="u" d="M1390.368,461.326a5.632,5.632,0,0,0,5.255,7.648h-15.31a5.632,5.632,0,0,1-5.259-7.648l15.111-39.229,12.8-33.252a5.625,5.625,0,0,1,10.5,0l2.411,6.251-10.407,27Z" transform="translate(-885.897 -248.267)"/><path class="w" d="M1414.525,327.93a5.626,5.626,0,0,1,10.5,0l9.625,24.978,11.926,30.955a5.628,5.628,0,0,1-5.252,7.648h-43.1a5.625,5.625,0,0,1-5.248-7.648l11.925-30.955Z" transform="translate(-897.446 -209.009)"/><path class="m" d="M1408.293,383.882a5.632,5.632,0,0,0,5.255,7.648h-15.332a5.614,5.614,0,0,1-5.237-7.648l11.929-30.955,9.6-24.982a5.625,5.625,0,0,1,10.5,0l2.411,6.247-7.207,18.735Z" transform="translate(-897.443 -209.02)"/><path class="t" d="M1269.7,729.55h0a7.606,7.606,0,0,1,7.605,7.605v23.52a1.835,1.835,0,0,1-1.835,1.835h-11.542a1.835,1.835,0,0,1-1.835-1.835v-23.52a7.605,7.605,0,0,1,7.605-7.605Z" transform="translate(-813.339 -470.15)"/><path class="u" d="M1219.341,517.122a4.775,4.775,0,0,1,8.914,0l13.1,34,15.055,39.066a4.775,4.775,0,0,1-4.455,6.493h-56.3a4.775,4.775,0,0,1-4.459-6.493l15.054-39.066Z" transform="translate(-767.443 -331.281)"/><path class="v" d="M1204.2,590.192a4.779,4.779,0,0,0,4.462,6.489h-13.013a4.775,4.775,0,0,1-4.445-6.489l15.054-39.073,13.092-34a4.775,4.775,0,0,1,8.91,0l2.045,5.3-11.047,28.694Z" transform="translate(-767.452 -331.282)"/><path class="m" d="M1227.4,454.362a4.775,4.775,0,0,1,8.914,0l10.873,28.224,12.829,33.295a4.775,4.775,0,0,1-4.455,6.493h-47.4a4.775,4.775,0,0,1-4.459-6.493l12.829-33.295Z" transform="translate(-775.505 -290.836)"/><path class="u" d="M1216.708,515.893a4.778,4.778,0,0,0,4.462,6.489h-13a4.782,4.782,0,0,1-4.462-6.489l12.829-33.3,10.873-28.224a4.775,4.775,0,0,1,8.91,0l2.044,5.3-8.832,22.919Z" transform="translate(-775.513 -290.844)"/><path class="w" d="M1237.191,402.662a4.775,4.775,0,0,1,8.914,0l8.178,21.2,10.123,26.272a4.775,4.775,0,0,1-4.466,6.5h-36.594a4.775,4.775,0,0,1-4.455-6.493l10.144-26.276Z" transform="translate(-785.294 -257.518)"/><path class="m" d="M1231.911,450.152a4.779,4.779,0,0,0,4.462,6.489h-13.021a4.765,4.765,0,0,1-4.448-6.489l10.126-26.276,8.178-21.206a4.775,4.775,0,0,1,8.911,0l2.044,5.3-6.116,15.9Z" transform="translate(-785.301 -257.526)"/><path class="z" d="M1281.044,741.459,1219.489,634.84H1125.76l61.555,106.619Z" transform="translate(-725.483 -409.115)"/><path class="aa" d="M1231.511,655.669h-93.73L1125.76,634.84h93.729Z" transform="translate(-725.483 -409.115)"/><path class="al" d="M1323.673,763.192h-23.428L1283.48,734H1306.9Z" transform="translate(-827.124 -473.018)"/><path class="ac" d="M1014.188,635.49l30.777,53.306,30.778,53.309H952.63L983.411,688.8Z" transform="translate(-613.911 -409.534)"/><path class="ad" d="M1052.462,676.85,1089,768.759H1012.02Z" transform="translate(-652.185 -436.188)"/><path class="ae" d="M1052.462,676.85l-6.663,91.909H1012.02Z" transform="translate(-652.185 -436.188)"/><path class="af" d="M1052.462,676.85l-21.828,91.909H1012.02Z" transform="translate(-652.185 -436.188)"/><line class="am" y1="91.909" x2="21.831" transform="translate(378.445 240.662)"/><line class="al" x2="127.6" transform="translate(334.231 332.571)"/><rect class="t" width="19.623" height="4.836" rx="2.418" transform="translate(286.991 340.554) rotate(153.87)"/><rect class="t" width="19.623" height="4.836" rx="2.418" transform="translate(284.977 336.228) rotate(26.13)"/><ellipse class="an" cx="8.999" cy="5.298" rx="8.999" ry="5.298" transform="translate(298.846 342.054)"/><ellipse class="an" cx="8.999" cy="5.298" rx="8.999" ry="5.298" transform="translate(252.829 341.545)"/><ellipse class="an" cx="8.999" cy="5.298" rx="8.999" ry="5.298" transform="translate(289.761 345.449)"/><ellipse class="an" cx="8.999" cy="5.298" rx="8.999" ry="5.298" transform="translate(262.18 344.6)"/><ellipse class="an" cx="8.999" cy="5.643" rx="8.999" ry="5.643" transform="translate(276.517 344.806)"/><rect class="t" width="11.186" height="4.836" rx="2.418" transform="translate(286.76 338.914) rotate(90)"/><rect class="ao" width="4.462" height="4.836" rx="2.231" transform="translate(286.76 345.641) rotate(90)"/><rect class="t" width="47.169" height="11.008" rx="5.504" transform="translate(318.306 337.218)"/><path class="ap" d="M7.111,5.65,0,0" transform="translate(234.397 341.702)"/><circle class="ao" cx="5.319" cy="5.319" r="5.319" transform="translate(236.466 342.032)"/><circle class="ao" cx="5.319" cy="5.319" r="5.319" transform="translate(318.043 337.403)"/><path class="l" d="M424.52,724.4c0-2.891,23.705-6.468,31.883-6.4,12.306.078,19.378,3.7,19.378,6.4" transform="translate(-273.577 -462.705)"/><path class="aq" d="M173.781,1122.78H353.816a3.89,3.89,0,1,1,0,7.758H173.781a3.889,3.889,0,1,1,0-7.758" transform="translate(-109.303 -723.563)"/><path class="ar" d="M521.744,855.61c-2.891-13.511-7.321-26.02-8.971-39.8-.636-5.333-2.411-11.186-7.111-13.8a12.384,12.384,0,0,0-9.067-.882,12.206,12.206,0,0,0-7.371,5.088c-2.795,4.5-1.5,10.425.846,15.165,3.484,7.037,7.364,13.6,10.105,20.978,2.251,6.08,4.37,12.221,6.756,18.251.48,1.117,3.911,12.989,7.079,21.163q3.4,8.672,6.667,17.394c.651,1.728,1.383,3.445,1.959,5.2.733,2.24,1.316,4.267,3.837,5.152l.3.092a5.511,5.511,0,0,0,5.625-1.856c2.368-2.994.238-6.83-.686-10-.967-3.324-1.813-6.685-2.645-10.045-1.9-7.68-3.645-15.4-5.358-23.112q-.974-4.491-1.945-8.982" transform="translate(-314.253 -515.967)"/><g class="as" transform="translate(187.591 326.402)"><g class="at"><g class="au" transform="translate(-0.013 0.018)"><g transform="translate(-2.007 -2.849)"><path class="av" d="M523.979,910.03l-2.069,31.058,22.987,2.677,2.069-31.058Z" transform="translate(-521.91 -910.03)"/></g></g></g></g><path class="ar" d="M459.865,840.031,453.127,857.1c-.039.107-.078.2-.117.3l-1.106,2.8c-2.052,6.51-17.568,42.269-19.051,48.246-3.175,7.573-10.692,5.629-10.873.58.356-1.358,3.538-13.778,6.247-27.186a137.13,137.13,0,0,1,4.978-16.907c1.76-5.045,3.31-9.177,3.556-10.539.1-.537.2-1.067.288-1.607.96-5.689,1.323-11.559,1.963-17.273.74-6.546,0-14.361,3.556-20.132a18.113,18.113,0,0,1,10.948-7.958,11.6,11.6,0,0,1,6.667.121c4.128,1.49,6.514,6.045,6.773,10.446.48,8.221-4.245,14.759-7.111,22.045" transform="translate(-271.94 -520.054)"/><path class="ar" d="M430.452,1091.558c.711-1.476,1.422-2.955,2.158-4.43a28.156,28.156,0,0,1-4.423-3.73,3.675,3.675,0,0,1-.633-.757c-.4-.85-.11-2.066-.252-2.994a5.926,5.926,0,0,0-1.536-2.716,4.17,4.17,0,0,0-6.567-.107,17.2,17.2,0,0,0-2.286,3.474c-.74,1.2-1.586,2.212-2.265,3.4s-2.254,4.071-.334,4.91l15.584,4.057C430.089,1092.294,430.27,1091.924,430.452,1091.558Z" transform="translate(-266.406 -692.955)"/><path class="aw" d="M426.541,1099.269l-9.881-5.81,1.707-2.7,9.437,5.948Z" transform="translate(-268.512 -702.928)"/><path class="ae" d="M446.083,1104.05l3.115-6.2a.508.508,0,0,0-.028-.473l-4.267-3.783c-.1-.028-.242-.068-.331.068l-4.622,8.7Z" transform="translate(-283.521 -704.733)"/><path class="ar" d="M467.329,1109.79c-1.145-.324-2.276-.729-3.4-1.124-.544-.192-1.092-.384-1.636-.587-.356,1.988-2.322,3.975-2.784,5.941l12.37-.082s.551.05.711-1.4S470.678,1110.74,467.329,1109.79Z" transform="translate(-296.126 -714.089)"/><path class="ad" d="M456.055,1132c-.263.935-.555,1.856-.875,2.77l14.66.025a1.22,1.22,0,0,0,1.248-1.3v-1.451Z" transform="translate(-293.335 -729.504)"/><path class="aw" d="M471.38,1124.521l-13.1-.021c-.217.932-.452,1.86-.711,2.777l15.165.046v-1.451a1.344,1.344,0,0,0-1.355-1.351Z" transform="translate(-294.876 -724.671)"/><path class="ae" d="M473.541,1113.031l.6-3.95c.05-.2-.1-.3-.249-.4l-5-2.052c-.3-.1-.452,0-.452.252l-1,6.1Z" transform="translate(-301.236 -713.131)"/><path class="ad" d="M426.627,1123.3,409.2,1118.09l-.356,1.511a1.22,1.22,0,0,0,.932,1.543l15.645,4.7C425.8,1124.991,426.211,1124.145,426.627,1123.3Z" transform="translate(-263.445 -720.54)"/><path class="aw" d="M429.709,1116.46,412.02,1111.8a1.22,1.22,0,0,0-1.543.932l-.377,1.4,16.875,4.935C427.395,1118.213,429.286,1117.3,429.709,1116.46Z" transform="translate(-264.284 -716.453)"/><g class="as" transform="translate(160.646 327.394)"><g class="ax"><g class="ay" transform="translate(0.018 0.002)"><g transform="translate(-2.148 -3.167)"><path class="az" d="M447.925,911.88l-2.1,31.691,23.1,2.749,2.1-31.691Z" transform="translate(-445.82 -911.88)"/></g></g></g></g><path class="ba" d="M451.05,959.377l-.48-.206c.078-.242,10.016-25.721,16.1-39.862,2.187-5.092,3.851-9.522,5.163-13.1l1.444-3.858,6.549-16.455.48.2c-.068.146-4.978,12.359-6.549,16.459l-1.422,3.808c-1.312,3.556-2.973,8.011-5.159,13.092-6.087,14.2-16.022,39.624-16.107,39.915" transform="translate(-290.365 -570.908)"/><path class="ar" d="M606.447,1088.864c-.22-1.625-.455-3.253-.679-4.878a27.942,27.942,0,0,1-5.746-.637,3.44,3.44,0,0,1-.946-.274c-.807-.484-1.248-1.653-1.881-2.343a6.142,6.142,0,0,0-2.791-1.4,4.624,4.624,0,0,0-3.118.164,4.682,4.682,0,0,0-2.389,3.41,18.051,18.051,0,0,0,.039,4.156c.039,1.408-.085,2.72,0,4.082s.4,4.622,2.46,4.267l15.2-5.333C606.557,1089.678,606.5,1089.273,606.447,1088.864Z" transform="translate(-379.428 -695.439)"/><path class="aw" d="M599.991,1105.514l-11.442.69-.089-3.2,11.147-.324Z" transform="translate(-379.226 -710.609)"/><path class="ae" d="M623.38,1095.939l-.875-6.887a.5.5,0,0,0-.288-.377l-5.643-.765c-.1.036-.235.082-.235.242l1.024,9.8Z" transform="translate(-397.193 -701.091)"/><path class="ar" d="M639.878,1086.13c-1.131.356-2.3.665-3.449.964-.555.146-1.924.555-2.489.711.8,1.856,1.1,4.327,1.806,6.215l10.222-7s.487-.263-.2-1.55S643.206,1085.05,639.878,1086.13Z" transform="translate(-408.535 -699.105)"/><path class="ad" d="M624.307,1095.412l-.807-1.2-11.254,7.467a.3.3,0,0,1,.018.061l-18.134,6.155.548,1.451a1.223,1.223,0,0,0,1.636.761l13.312-4.484a27.283,27.283,0,0,0,6.429-3.161l7.926-5.287a1.223,1.223,0,0,0,.327-1.76Z" transform="translate(-382.88 -705.151)"/><path class="aw" d="M622.82,1091.03l-.811-1.2a1.344,1.344,0,0,0-1.874-.356l-11.19,7.129h0l-15.2,5.17a1.223,1.223,0,0,0-.764,1.636l.469,1.372,16.758-5.333h0Z" transform="translate(-382.08 -701.946)"/><path class="ae" d="M645.8,1089.674l-1.707-3.613c-.068-.2-.249-.192-.43-.192l-5.294,1.085c-.3.085-.356.252-.231.458l2.571,5.622,5.092-3.36Z" transform="translate(-411.199 -699.776)"/><path class="bb" d="M638.628,645.08l1.092-1.451,1.828-3.1c.469-.779,2.034-9.44,2.034-9.44L639.154,631l-3.406,4.882-.548,4.427Z" transform="translate(-409.347 -406.641)"/><path class="bc" d="M634.312,640.551c-1.639-.932-2.133-.615-2.133-.615l.192-.949c.185-1,.327-3.278.327-3.278a5.994,5.994,0,0,0,1.756-2.844,1.678,1.678,0,0,0-.384-1.444,18.54,18.54,0,0,0-3.129,3,5.689,5.689,0,0,0-1.028,3.36,29.735,29.735,0,0,1,.192,3.463c0,1.337-.477,2.667,0,3.972A2.7,2.7,0,0,0,632.19,647a2.909,2.909,0,0,0,2.269-.864c.668-.629,1.639-1.724,1.49-2.7a3.954,3.954,0,0,0-1.643-2.912" transform="translate(-405.928 -406.911)"/><path class="bd" d="M639.33,615.38l2.059-.356a.711.711,0,0,1,.843.587.742.742,0,0,1-.025.356l-3.822,12.37a.775.775,0,0,1-.64.508l-3.634.231,4.644-13.156a.75.75,0,0,1,.583-.5Z" transform="translate(-408.645 -396.337)"/><g class="be" transform="translate(225.395 230.855)"><g transform="translate(-0.019)"><rect class="bf" width="4.757" height="3.488"/></g></g><path class="n" d="M642.344,612.778c-.946,2.873-2.219,6.069-3.2,8.925-.477,1.369-.8,3.42-1.913,4.373-1.18,1.01-3.2.452-4.644.985-.192.071.06.789.3.779,1.312-.064,3.239-.43,4.437-.587,1.067-.135,1.333-1.71,1.7-2.731,1.344-3.7,2.546-7.445,3.911-11.136.146-.356-.576-.764-.6-.608" transform="translate(-407.62 -394.875)"/><path class="bg" d="M636.965,626.9l-4.117.594c-.324.05-.452-.288-.274-.747l4.622-12.729a1.091,1.091,0,0,1,.679-.711l4.4-.626c.245-.036.356.213.217.569l-4.622,12.729a1.458,1.458,0,0,1-.9.921" transform="translate(-407.603 -394.835)"/><path class="bh" d="M637.815,626.956l-3.936.565c-.245.036-.356-.213-.213-.565l4.345-11.993a1.088,1.088,0,0,1,.676-.711l3.947-.558c.249-.036.356.217.217.572l-4.356,11.979a1.088,1.088,0,0,1-.679.711" transform="translate(-408.318 -395.486)"/><path class="bi" d="M643.984,626.538c.683-1.045,1.671-1.607,2.212-1.252s.423,1.483-.26,2.528-1.671,1.6-2.212,1.252-.423-1.483.26-2.528" transform="translate(-414.622 -402.89)"/><g class="bj" transform="translate(229.511 223.609)"><g class="bk"><path class="bl" d="M646.151,632.076a.6.6,0,0,1-.48-.217,1.322,1.322,0,0,1-.039-1.266,2.563,2.563,0,0,1,1.657-1.685.619.619,0,0,1,.6.21,1.323,1.323,0,0,1,.036,1.266,2.574,2.574,0,0,1-1.653,1.685h-.117m1.255-2.926h-.085a2.4,2.4,0,0,0-1.451,1.515,1.109,1.109,0,0,0,0,1.013.355.355,0,0,0,.356.117,2.379,2.379,0,0,0,1.447-1.511,1.116,1.116,0,0,0,0-1.017.355.355,0,0,0-.274-.117Z" transform="translate(-645.49 -628.894)"/></g></g><g class="bj" transform="translate(229.152 223.14)"><g class="bm"><path class="bl" d="M645.284,631.667a.711.711,0,0,1-.58-.274,1.732,1.732,0,0,1-.043-1.621,3.381,3.381,0,0,1,2.133-2.183.757.757,0,0,1,.74.253,1.778,1.778,0,0,1,.039,1.618,3.374,3.374,0,0,1-2.151,2.187,1.076,1.076,0,0,1-.153.021m1.682-3.886h-.125a3.2,3.2,0,0,0-1.98,2.059,1.561,1.561,0,0,0,0,1.422.544.544,0,0,0,.544.178,3.179,3.179,0,0,0,1.98-2.062,1.554,1.554,0,0,0,0-1.422.522.522,0,0,0-.419-.171Z" transform="translate(-644.481 -627.571)"/></g></g><path class="bl" d="M645.881,628.666h-.05a.3.3,0,0,1-.242-.2l-.309-.882a.309.309,0,0,1,.188-.391.3.3,0,0,1,.388.181l.124.356,1.422-1.81a.306.306,0,0,1,.427-.092.309.309,0,0,1,.092.427.141.141,0,0,1-.035.043l-1.778,2.254a.316.316,0,0,1-.238.117" transform="translate(-415.832 -403.276)"/><path class="s" d="M649.767,616.676h.1v.06a.445.445,0,0,1-.107.092.28.28,0,0,1-.107.043.078.078,0,0,1-.1-.036v-.021a.189.189,0,0,1,0-.089.71.71,0,0,1,.085-.238.8.8,0,0,1,.06-.107.86.86,0,0,1,.071-.089.412.412,0,0,1,.231-.142h.1a.11.11,0,0,1,.032.064l-.064.068h-.085a.117.117,0,0,0-.064.028.267.267,0,0,0-.068.06.518.518,0,0,0-.06.085c-.021.039-.036.078-.053.114a.625.625,0,0,0-.018.078.153.153,0,0,0,0,.057.057.057,0,0,0,.018.032.046.046,0,0,0,.028-.046" transform="translate(-418.592 -397.071)"/><path class="s" d="M650.872,616.1l.071-.06a.187.187,0,0,1,.06-.028h.036a.036.036,0,0,1,.021.032.151.151,0,0,1,0,.057.525.525,0,0,1-.028.082l-.142.324h-.107l.139-.324v-.057H650.9l-.032.028a.144.144,0,0,0-.036.043.424.424,0,0,0-.036.053l-.117.27h-.107l.324-.711H651Z" transform="translate(-419.252 -396.852)"/><path class="s" d="M652.072,616.671a.238.238,0,0,1-.053.05l-.05.036-.043.021a.116.116,0,0,1-.05,0,.06.06,0,0,1-.05,0,.078.078,0,0,1-.032-.036.17.17,0,0,1,0-.06.336.336,0,0,1,.021-.085.3.3,0,0,1,.05-.057c0-.025.028-.05.043-.075l.053-.064a.355.355,0,0,1,.171-.11.053.053,0,0,1,.046,0,.042.042,0,0,1,.025.025.06.06,0,0,1,0,.036.1.1,0,0,1,0,.046.218.218,0,0,1-.032.064.192.192,0,0,1-.053.053.239.239,0,0,1-.075.046.432.432,0,0,1-.107.039.132.132,0,0,0,0,.075.025.025,0,0,0,.036,0h.114Zm0-.3a.1.1,0,0,0-.057.036.423.423,0,0,0-.057.082l.057-.021.039-.021.021-.021V616.4a.021.021,0,0,0,0-.021Z" transform="translate(-420.04 -397.158)"/><path class="s" d="M652.853,615.836h.018a.072.072,0,0,0,.043-.028l.2-.245.032-.032h.125l-.274.306a.142.142,0,0,1-.046.046v.356h-.124v-.249h-.046l-.135.306h-.107l.313-.711h.107Z" transform="translate(-420.522 -396.671)"/><path class="s" d="M654.157,615.607l-.228.5h-.1l.22-.5Zm.068-.142a.111.111,0,0,1-.018.036.167.167,0,0,1-.05.05h-.05v-.039a.221.221,0,0,1,.025-.068l.025-.032.028-.021h.06a.028.028,0,0,1,0,.025v.029Z" transform="translate(-421.353 -396.581)"/><path class="s" d="M654.552,615.941a.352.352,0,0,1,.082-.078.142.142,0,0,1,.071-.032.032.032,0,0,1,.036,0,.072.072,0,0,1,0,.028.175.175,0,0,1,0,.06.45.45,0,0,1-.029.082l-.142.324h-.107l.142-.324v-.057h-.032l-.032.032s-.025.032-.039.046l-.036.06-.107.252h-.11l.217-.5h.078v.036Z" transform="translate(-421.624 -396.861)"/><path class="s" d="M636.516,644.25l-.274.772-.142.018.274-.764Z" transform="translate(-409.927 -415.179)"/><path class="s" d="M637.451,644.453a.626.626,0,0,1-.434.434l-.228.032.274-.772.235-.032c.174-.025.235.128.153.355m-.146.025c.046-.132.021-.213-.068-.2h-.089l-.16.441h.092c.085,0,.174-.11.224-.242" transform="translate(-410.372 -415.091)"/><path class="s" d="M639.164,643.79l-.057.16-.288.043-.05.142.27-.036-.057.16-.274.039-.05.146.3-.043-.06.16-.434.06.274-.768Z" transform="translate(-411.448 -414.883)"/><path class="s" d="M640.338,643.607l.078.427.167-.462.132-.021-.274.768-.121.021-.082-.427-.164.462-.135.018.274-.772Z" transform="translate(-412.402 -414.728)"/><path class="s" d="M642.54,643.34l-.06.164-.16.025-.217.6-.142.021.217-.6-.16.021.06-.164Z" transform="translate(-413.704 -414.593)"/><path class="s" d="M643.406,643.26l-.274.768-.142.021.274-.771Z" transform="translate(-414.367 -414.542)"/><path class="s" d="M644.333,643.05l-.057.16-.274.039-.06.171.242-.036-.057.16-.245.032-.1.274-.142.021.274-.772Z" transform="translate(-414.786 -414.406)"/><path class="s" d="M645.406,642.94l-.274.768-.142.021.274-.772Z" transform="translate(-415.656 -414.335)"/><path class="s" d="M646.463,642.75l-.057.16-.274.039-.05.146.27-.039-.057.16-.26.043-.053.142.292-.043-.057.16-.437.064.274-.772Z" transform="translate(-416.166 -414.213)"/><path class="s" d="M647.8,642.956a.615.615,0,0,1-.434.43l-.228.032.274-.772.231-.032c.178-.025.231.114.156.356m-.146.025c.046-.135.021-.217-.068-.2H647.5l-.16.441h.1c.082,0,.171-.11.22-.238" transform="translate(-417.042 -414.124)"/><path class="bn" d="M647.847,628.071c.107-.786,1.294-.711,1.778-.576s2.03.213,1.874,1.067-.686,1.113-1.728.981-2.005-.832-1.92-1.458" transform="translate(-417.496 -404.327)"/><path class="bo" d="M650.059,629.316a4.485,4.485,0,0,1-.818,0c-1.092-.128-2.212-.864-2.112-1.746a1.2,1.2,0,0,1,.43-.672,2.393,2.393,0,0,1,1.675-.153c.107.039.21.028.316.068.526.089,1.316.249,1.572.679a.914.914,0,0,1,.192.711,1.188,1.188,0,0,1-1.252,1.092Zm-2.407-1.657c-.053.416.69,1.045,1.675,1.131,1.092.124,1.365-.217,1.451-.743a.218.218,0,0,0-.021-.2c-.192-.27-.875-.405-1.291-.459a1.289,1.289,0,0,0-.356-.057c-.324-.071-1.365-.242-1.454.331Z" transform="translate(-417.031 -403.844)"/><path class="bn" d="M645.137,640.27c-.146-.757.988-1.148,1.444-1.205.459,0,2.247-.53,2.407.356s-.565,1.252-1.554,1.575c-1.067.181-2.187-.142-2.3-.743" transform="translate(-415.743 -411.737)"/><path class="bo" d="M646.808,640.913c-1.067.128-2.229-.192-2.375-.942a1.067,1.067,0,0,1,.217-.8,2.19,2.19,0,0,1,1.5-.711l.356-.043c.608-.078,1.511-.238,1.966.117a.836.836,0,0,1,.324.526c.185,1.109-.736,1.529-1.778,1.859a.271.271,0,0,0-.217-.025m-1.874-1.067c.1.4,1.013.711,1.966.53,1.092-.338,1.461-.636,1.383-1.294a.288.288,0,0,0-.128-.192,2.578,2.578,0,0,0-1.593,0l-.405.05a1.98,1.98,0,0,0-1.116.5.682.682,0,0,0-.11.423Z" transform="translate(-415.292 -411.356)"/><path class="bn" d="M644.838,646.286c-.132-.647.853-.978,1.252-1.067s1.739-.469,1.877.235c.142.757-.274,1.163-1.173,1.323-.885.313-1.845.021-1.956-.48" transform="translate(-415.551 -415.687)"/><path class="bo" d="M646.017,646.85a2.489,2.489,0,0,1-1.468-.231.946.946,0,0,1-.43-.562.814.814,0,0,1,.128-.633,2.158,2.158,0,0,1,1.348-.708l.252-.028a2.133,2.133,0,0,1,1.6.06.829.829,0,0,1,.313.473c.192,1.159-.693,1.476-1.34,1.639-.16-.068-.256,0-.405,0m.5-1.806c-.2.025-1.586.174-1.874.64a.38.38,0,0,0-.068.274c0,.1.124.189.178.231a1.959,1.959,0,0,0,1.458.135c.949-.217,1.092-.548,1-1.049-.068-.327-.444-.274-.711-.235Z" transform="translate(-415.083 -415.38)"/><path class="bn" d="M645.385,634.363c0-.772,1.3-1.092,1.867-1.092s2.489-.153,2.461.711-.786,1.124-1.952,1.266c-1.22.192-2.446-.224-2.375-.9" transform="translate(-415.909 -408.098)"/><path class="bo" d="M647.235,634.9a2.865,2.865,0,0,1-2.165-.5.878.878,0,0,1-.3-.729c.028-1.035,1.582-1.326,2.133-1.344l.252-.028c.871,0,1.845-.021,2.268.441a.672.672,0,0,1,.174.594c-.11,1.195-1.166,1.365-2.187,1.5a.355.355,0,0,1-.2.071m-.59-1.977c-.548.068-1.344.356-1.387.836a.3.3,0,0,0,.139.292,2.386,2.386,0,0,0,1.892.334c1.262-.156,1.692-.412,1.778-1.038a.213.213,0,0,0-.075-.2c-.3-.324-1.369-.3-1.884-.274l-.455.057Z" transform="translate(-415.516 -407.472)"/><path class="bc" d="M617.4,662.776A3.2,3.2,0,0,0,614.463,661a3.886,3.886,0,0,0-2.585,1.159l-.117.124c-.391.356-.764.743-1.163,1.109-2.51,2.3-5.131,4.487-7.758,6.656l4.729,5.995c-.021-.021.711-.789.754-.836l3.239-3.556,3.556-3.911a19.613,19.613,0,0,0,1.55-1.966c.626-.939,1.234-1.892.736-3" transform="translate(-388.493 -425.972)"/><g class="as" transform="translate(204.32 236.054)"><g class="bp"><g class="bq" transform="translate(0.009 0.001)"><g transform="translate(-0.375 -0.207)"><rect class="br" width="24.406" height="22.834"/></g></g></g></g><path class="bs" d="M555.654,687.563c4.459-2.539,9.284-4.48,13.6-7.293a.654.654,0,0,1,.914.156l6.852,9.369a.711.711,0,0,1-.025.857,69.336,69.336,0,0,1-14.806,12.157c-3.694,2.1-8.341,3.7-11.677.025a8.367,8.367,0,0,1-1.749-7.534c.893-3.595,3.833-6,6.894-7.741" transform="translate(-353.471 -438.315)"/><path class="bt" d="M602.484,680.141l7.293,10.109a.569.569,0,0,1-.153.789h0l-2.9,2.187-8.2-11.236,3.2-2.08a.572.572,0,0,1,.779.2h0Z" transform="translate(-385.709 -438.111)"/><path class="bs" d="M513.293,644.886c1.483.683,2.844,2.535,3.879,3.716,1.952,2.254,3.719,4.644,5.529,7.019a77.339,77.339,0,0,1,6.51,9.337,15.723,15.723,0,0,1,1.493,10.567,11.762,11.762,0,0,1-2,4.345,8.509,8.509,0,0,1-6.738,2.592,11.119,11.119,0,0,1-8.413-4.093c-1.205-1.383-2.6-2.574-3.758-4.014a49.242,49.242,0,0,1-3.132-4.412c-2.1-3.317-4.338-6.909-5.465-10.688a13.181,13.181,0,0,1,.274-9.042,10.052,10.052,0,0,1,5.333-5.124,8.974,8.974,0,0,1,6.18-.324c.107.039.217.078.32.124" transform="translate(-322.56 -415.254)"/><path class="ar" d="M499.349,605.727c-.018.032-.032.064-.046.1a13.728,13.728,0,0,0-.4,1.547l-2.535,8.281c-.377,1.223-.711,2.461-1.188,3.627a4.1,4.1,0,0,0,.188,3.453,5.906,5.906,0,0,0,3.339,2.7,12.241,12.241,0,0,0,4.331.548,7.3,7.3,0,0,0,2.315-.331,2.489,2.489,0,0,0,1.778-2.994l-.053-.181a9.551,9.551,0,0,1-.548-4.331l.786-4.267c.156-.864.324-1.717.473-2.581.217-1.287.562-2.347-.1-3.605a6.183,6.183,0,0,0-2.393-2.332,6.08,6.08,0,0,0-3.246-.964,3.367,3.367,0,0,0-2.716,1.348" transform="translate(-318.923 -389.492)"/><path class="bu" d="M494.156,625.641H494.1a.274.274,0,0,1-.153-.256l2.4-7.339c.459-1.532,1.835-6.677,1.835-6.677a.21.21,0,0,1,.409.1l-1.835,6.677c-.409,1.365-2.4,7.289-2.4,7.289a.185.185,0,0,1-.167.2Z" transform="translate(-318.32 -393.886)"/><path class="bv" d="M428.58,826.687s7.289,16.665,28.491,17.689a55.68,55.68,0,0,0,35.883-11.659,61.384,61.384,0,0,0-6.681-16.91c-5-8.534-7.186-23.407-7.186-23.407l-35.421.16s-.459,13.7-6.116,21.287-8.971,12.843-8.971,12.843Z" transform="translate(-276.193 -510.653)"/><path class="bw" d="M424.31,829.007a1.6,1.6,0,0,1,0-1.639c2.187-2.581,8.05-11.734,11.773-19.175,4.128-9.017,4.533-15.342,4.533-15.342h3.975a76.375,76.375,0,0,1-6.624,24.815c-3.556,7.591-7.285,14.557-8.615,16.75a.576.576,0,0,1-.779.238.53.53,0,0,1-.192-.164l-4.078-5.465Z" transform="translate(-273.296 -510.943)"/><path class="bw" d="M457.589,840.062a1.621,1.621,0,0,0,.356,1.8l2.951,1.956,2.912,1.557a.763.763,0,0,0,.974-.626,241.306,241.306,0,0,0,6.624-25.988A113.478,113.478,0,0,0,473.749,793h-3.061a103.505,103.505,0,0,1-5.81,27.734c-3.165,8.85-6.173,16.455-7.289,19.339" transform="translate(-294.802 -511.04)"/><path class="bw" d="M507.467,792.531s-.971,26.923-1.884,34.987l-2.354,18.628c-.05.548.206,1.173.562,1.252l4.373.235q1.067-.053,2.133,0c.356,0,.612-.391.711-.939.05-4.37-.053-20.352-.053-29.352,0-11.2-.612-24.736-.612-24.736l-2.9-.075Zm7.492,0,1.422,37.953c.462,8.061,1.173,13.227,1.422,15.421.1.626.459,1.092.914.939l6.116-1.333c.512-.078.864-.939.612-1.8-1.273-4.306-4.843-17.067-5.913-27.556-1.351-12.9-2.165-23.794-2.165-23.794l-2.382.146Zm5.3,0A201.3,201.3,0,0,0,525,823.056c2.752,11.271,4.644,17.142,5.465,19.41.256.626.818.942,1.273.626l5.1-3.364a1.874,1.874,0,0,0,.356-2.347A131.5,131.5,0,0,1,528.363,816a192.829,192.829,0,0,1-5.689-23.559l-2.4.078Zm6.933-.16s3.719,15.026,8.612,22.948c3.911,6.261,8.157,12.679,9.735,15.026a1.625,1.625,0,0,1-.085,1.71l-2.7,2.976a.587.587,0,0,1-.832.032.522.522,0,0,1-.135-.192A145.462,145.462,0,0,1,531.731,815.7c-4.267-10.265-6.372-23.336-6.372-23.336Z" transform="translate(-324.296 -510.627)"/><g class="bx" transform="translate(159.932 281.889)"><g transform="translate(-1.355 -0.665)"><path class="by" d="M500.672,818.479l1.39-26.866-54.685-.683L445.99,817.8Z" transform="translate(-445.99 -790.93)"/></g></g><path class="ae" d="M428.58,826.687s7.289,16.665,28.491,17.689a55.68,55.68,0,0,0,35.883-11.659,61.384,61.384,0,0,0-6.681-16.91c-5-8.534-7.186-23.407-7.186-23.407l-35.421.16s-.459,13.7-6.116,21.287-8.971,12.843-8.971,12.843Z" transform="translate(-276.193 -510.653)"/><path class="ad" d="M424.31,829.007a1.6,1.6,0,0,1,0-1.639c2.187-2.581,8.05-11.734,11.773-19.175,4.128-9.017,4.533-15.342,4.533-15.342h3.975a76.375,76.375,0,0,1-6.624,24.815c-3.556,7.591-7.285,14.557-8.615,16.75a.576.576,0,0,1-.779.238.53.53,0,0,1-.192-.164l-4.078-5.465Z" transform="translate(-273.296 -510.943)"/><path class="ad" d="M457.589,840.062a1.621,1.621,0,0,0,.356,1.8l2.951,1.956,2.912,1.557a.763.763,0,0,0,.974-.626,241.306,241.306,0,0,0,6.624-25.988A113.478,113.478,0,0,0,473.749,793h-3.061a103.505,103.505,0,0,1-5.81,27.734c-3.165,8.85-6.173,16.455-7.289,19.339" transform="translate(-294.802 -511.04)"/><path class="ad" d="M507.467,792.531s-.971,26.923-1.884,34.987l-2.354,18.628c-.05.548.206,1.173.562,1.252l4.373.235q1.067-.053,2.133,0c.356,0,.612-.391.711-.939.05-4.37-.053-20.352-.053-29.352,0-11.2-.612-24.736-.612-24.736l-2.9-.075Zm7.492,0,1.422,37.953c.462,8.061,1.173,13.227,1.422,15.421.1.626.459,1.092.914.939l6.116-1.333c.512-.078.864-.939.612-1.8-1.273-4.306-4.843-17.067-5.913-27.556-1.351-12.9-2.165-23.794-2.165-23.794l-2.382.146Zm5.3,0A201.3,201.3,0,0,0,525,823.056c2.752,11.271,4.644,17.142,5.465,19.41.256.626.818.942,1.273.626l5.1-3.364a1.874,1.874,0,0,0,.356-2.347A131.5,131.5,0,0,1,528.363,816a192.829,192.829,0,0,1-5.689-23.559l-2.4.078Zm6.933-.16s3.719,15.026,8.612,22.948c3.911,6.261,8.157,12.679,9.735,15.026a1.625,1.625,0,0,1-.085,1.71l-2.7,2.976a.587.587,0,0,1-.832.032.522.522,0,0,1-.135-.192A145.462,145.462,0,0,1,531.731,815.7c-4.267-10.265-6.372-23.336-6.372-23.336Z" transform="translate(-324.296 -510.627)"/><path class="bz" d="M504.434,693.407l-.459-7.9-.4-6.453-.42-6.83h.053l-.512-6.642h.05c-.2-2.489-.405-4.533-.558-5.689a12.846,12.846,0,0,0-.26-1.326,33.047,33.047,0,0,0-2.037-6.574c-3.2-7.186-10.393-13.607-16.3-13.607-1.778.05-6.8.356-8.647,2.368,0,0-1.881,11.307-1.9,11.378l-.025.107c-.38,1.664-.711,3.509-1.006,5.582-.06.253-.107.508-.153.764l-1.223,7.033h-.05l-1.173,6.628h-.053c-.356,2.187-.821,4.484-1.273,6.727-.356,2.29-.768,4.587-1.173,6.574l-1.422,7.9Z" transform="translate(-299.986 -411.397)"/><g class="ca" transform="translate(166.975 240.523)"><g class="cb"><path class="bt" d="M469.61,710.079h37.049l-.405-6.574H470.78c-.356,2.29-.764,4.587-1.17,6.574m2.489-13.3h33.778l-.508-6.628H473.262Zm3.669-20.267c-.405,1.724-.764,3.669-1.067,5.86-.064.252-.107.508-.153.764h30.07a33.972,33.972,0,0,0-2.037-6.571Z" transform="translate(-469.61 -676.492)"/></g></g><g class="cc" transform="translate(162.861 228.231)"><g transform="translate(0 -0.004)"><rect class="cd" width="39.684" height="55.617"/></g></g><g class="ce" transform="translate(155.026 197.354)"><path class="cf" d="M446.877,534.282,415.471,506.05,395.52,549.909l31.407,28.232Z" transform="translate(-409.914 -523.473)"/></g><g class="ce" transform="translate(155.026 197.354)"><rect class="cg" width="27.307" height="37.245" transform="translate(-2.369 0)"/></g><path class="bn" d="M522.665,576.14a57.468,57.468,0,0,1-.6,9.4c-.548,3.054-2.091,4.587-3.723,5.1s-4.373-.509-6.372-1.529c-1.678-.864-2.649-1.778-2.9-2.845s-.764-2.546-.764-2.546l.107-3.314,3.911-8.359Z" transform="translate(-327.568 -368.645)"/><g class="ch" transform="translate(173.892 199.399)"><rect class="ci" width="22.873" height="18.866" transform="translate(-0.143)"/></g><path class="bn" d="M500.229,594.986a2.912,2.912,0,1,1-2.7,2.9,2.805,2.805,0,0,1,2.7-2.9" transform="translate(-320.624 -383.427)"/><path class="cj" d="M503.343,599.618a1.273,1.273,0,1,1-1.223,1.273,1.252,1.252,0,0,1,1.223-1.273" transform="translate(-323.585 -386.416)"/><path class="ck" d="M501.621,599.385a2.347,2.347,0,0,1-1.728.821,2.709,2.709,0,0,1,0-5.4,2.517,2.517,0,0,1,2.244,1.476.277.277,0,0,0,.256-.05.306.306,0,0,0,.1-.306,2.972,2.972,0,0,0-2.546-1.579A3.019,3.019,0,0,0,497,597.426h0v.018a3.058,3.058,0,0,0,2.955,3.108,2.741,2.741,0,0,0,1.778-.612Z" transform="translate(-320.285 -383.022)"/><path class="ck" d="M517.573,614.887a8.143,8.143,0,0,1-2.041-.356,13.48,13.48,0,0,1-5.1-2.805,2.965,2.965,0,0,1-1.017-2.244c0-.1,0-.253.1-.253s.153.1.206.2a3.172,3.172,0,0,0,.971,1.988,13.113,13.113,0,0,0,4.9,2.706,7.665,7.665,0,0,0,3.054.356,3.626,3.626,0,0,0,1.685-.508c.2-.153.252-.153.153,0a3.332,3.332,0,0,1-1.778.864,9.187,9.187,0,0,1-1.127.06" transform="translate(-328.29 -392.611)"/><path class="cl" d="M524.772,589.744a.391.391,0,0,1-.1-.508,2.951,2.951,0,0,1,2.7-1.124.384.384,0,1,1-.05.764,2.158,2.158,0,0,0-1.988.821c-.153.2-.508.1-.562.046m7.595-.917a.356.356,0,0,1-.2-.05,1.284,1.284,0,0,0-.821-.206.39.39,0,0,1-.153-.764,1.685,1.685,0,0,1,1.422.356.38.38,0,0,1,.05.508.355.355,0,0,1-.306.156Z" transform="translate(-338.084 -378.782)"/><path class="ad" d="M490.447,567.72l-1.227-.818s-.661-1.067,1.884-4.078c2.347-2.752,3.826-2.752,4.128-2.446l1.173,1.067s-4.437,2.812-5.959,6.272" transform="translate(-315.222 -361.043)"/><path class="bu" d="M527.581,611.295h-.032a3.019,3.019,0,0,1-2.9-2.133l-.039-.1a.356.356,0,0,1,.6-.356.3.3,0,0,1,.032.078v.032a.778.778,0,0,0,.043.117A2.347,2.347,0,0,0,527.6,610.6a.356.356,0,0,1-.035.711Z" transform="translate(-338.067 -392.194)"/><path class="cm" d="M536.7,603.965a.356.356,0,0,1-.021-.711c.356-.025.476-.121.519-.356a1.479,1.479,0,0,0-.3-.843.347.347,0,0,1,.459-.516,2.019,2.019,0,0,1,.523,1.479,1.109,1.109,0,0,1-1.156.942Z" transform="translate(-345.631 -387.617)"/><path class="cn" d="M528.791,596.61a.711.711,0,1,1-.711.711.711.711,0,0,1,.711-.711" transform="translate(-340.315 -384.478)"/><path class="cn" d="M528.851,596.744c-.11,0-.459.05-.512-.053s.252-.356.405-.459a2.076,2.076,0,0,1,1.067-.2.256.256,0,1,1,0,.512,2.24,2.24,0,0,0-.864.153.167.167,0,0,1-.1.05" transform="translate(-340.478 -384.1)"/><path class="cn" d="M528.526,596.885a.27.27,0,0,1-.206-.434,1.778,1.778,0,0,1,1.461-.43.274.274,0,1,1-.021.544,1.422,1.422,0,0,0-1.035.249.277.277,0,0,1-.2.071" transform="translate(-340.434 -384.085)"/><path class="cn" d="M543.711,595.47a.711.711,0,1,1-.711.711.711.711,0,0,1,.711-.711" transform="translate(-349.93 -383.744)"/><path class="cn" d="M543.411,595.763a.27.27,0,0,1-.253-.288.231.231,0,0,1,.05-.142,1.753,1.753,0,0,1,1.461-.434.277.277,0,0,1,.263.284.274.274,0,0,1-.284.263,1.387,1.387,0,0,0-1.035.249.266.266,0,0,1-.2.068" transform="translate(-350.032 -383.361)"/><path class="cl" d="M525,590.417a.348.348,0,0,1-.238-.608c.036-.036.078-.078.121-.128a2.816,2.816,0,0,1,2.46-.939.356.356,0,1,1,0,.711c-1.323,0-1.689.412-1.956.711l-.181.188a.355.355,0,0,1-.217.085" transform="translate(-338.098 -379.394)"/><path class="cl" d="M543.574,588.879a.356.356,0,0,1-.2-.068,1.084,1.084,0,0,0-.942-.21.356.356,0,1,1-.064-.69,1.735,1.735,0,0,1,1.4.338.348.348,0,0,1-.2.629" transform="translate(-349.263 -378.852)"/><rect class="co" width="56.616" height="37.857" rx="18.928" transform="translate(220.27 150.939)"/><path class="co" d="M662.178,521.441a33.932,33.932,0,0,1-.828,15.712s8.235-8.178,8.857-16.683" transform="translate(-426.199 -335.411)"/><g transform="translate(220.27 158.15)"><rect class="cp" width="56.488" height="22.539"/><g transform="translate(4.309 3.386)"><path class="cq" d="M631.62,467.858a5.393,5.393,0,0,0,5.6,5.65,6.076,6.076,0,0,0,3.829-1.355.594.594,0,0,0,.092-.885l-.306-.412a.551.551,0,0,0-.885-.107,4.548,4.548,0,0,1-2.656.946,3.636,3.636,0,0,1-3.648-3.879,3.48,3.48,0,0,1,3.634-3.723,4.522,4.522,0,0,1,2.443.761c.356.231.654.2.868-.153l.274-.441a.59.59,0,0,0-.121-.885,6.044,6.044,0,0,0-3.556-1.067A5.391,5.391,0,0,0,631.62,467.858Zm11.093,4.825a.573.573,0,0,0,.64.64h.654a.565.565,0,0,0,.644-.64v-2.976a2.323,2.323,0,0,1,2.244-2.581c.974,0,1.22.64,1.22,1.589v3.968a.565.565,0,0,0,.64.64h.658a.573.573,0,0,0,.64-.64v-4.366c0-2.062-.992-2.962-2.716-2.962a3.068,3.068,0,0,0-2.7,1.572h-.028a4.5,4.5,0,0,0,.046-.658v-3.143a.576.576,0,0,0-.644-.644h-.654a.58.58,0,0,0-.64.644Zm8.665-3.253a3.99,3.99,0,0,0,4.181,4.078,4.943,4.943,0,0,0,2.642-.779.583.583,0,0,0,.213-.857l-.185-.3c-.2-.356-.473-.4-.853-.217a3.2,3.2,0,0,1-1.678.5,2.236,2.236,0,0,1-2.336-2.133h4.747a.676.676,0,0,0,.672-.658c0-2.133-1.237-3.708-3.449-3.708A3.834,3.834,0,0,0,651.378,469.43Zm2.03-.885a1.9,1.9,0,0,1,1.877-1.725,1.584,1.584,0,0,1,1.572,1.725Zm6.791,4.139a.572.572,0,0,0,.64.64h.654a.569.569,0,0,0,.644-.64V469.92h1.006l1.817,2.962a.768.768,0,0,0,.747.441h.825c.516,0,.686-.32.427-.761l-2.29-3.513v-.032l1.938-2.716c.292-.412.121-.764-.4-.764h-.747a.8.8,0,0,0-.761.43l-1.618,2.318h-.96v-5.159a.576.576,0,0,0-.644-.644h-.654a.58.58,0,0,0-.64.644Zm8.132,0a.562.562,0,0,0,.626.64h.672a.562.562,0,0,0,.626-.64v-6.5a.569.569,0,0,0-.626-.644h-.672a.569.569,0,0,0-.626.644Zm3.844,0a.562.562,0,0,0,.626.64h.672a.562.562,0,0,0,.626-.64v-3.019a2.329,2.329,0,0,1,2.244-2.549c.978,0,1.22.64,1.22,1.589v3.968a.572.572,0,0,0,.644.64h.654a.565.565,0,0,0,.64-.64v-4.356c0-2.062-.992-2.962-2.713-2.962a3.029,3.029,0,0,0-2.763,1.65h-.032a2.929,2.929,0,0,0,.032-.356v-.469a.569.569,0,0,0-.626-.644h-.612a.572.572,0,0,0-.626.644Z" transform="translate(-631.62 -459.464)"/><g transform="translate(35.051)"><path class="cr" d="M733.574,460.491a.58.58,0,0,1,0,.8l-.448.448a.576.576,0,0,1-.8,0l-1.963-1.977a.58.58,0,0,1,0-.8l.448-.448a.576.576,0,0,1,.8,0Z" transform="translate(-730.2 -456.915)"/><path class="cr" d="M738.086,454.475a.572.572,0,0,1,.8,0l.441.437a.576.576,0,0,1,0,.8l-3.4,3.381a.583.583,0,0,1-.8,0l-.423-.437a.576.576,0,0,1,0-.8Z" transform="translate(-732.997 -454.312)"/></g></g></g><rect class="s" width="16.711" height="16.711" transform="translate(139.249 263.279)"/><ellipse class="n" cx="11.2" cy="9.867" rx="11.2" ry="9.867" transform="matrix(0.147, -0.989, 0.989, 0.147, 127.617, 284.053)"/><path class="cs" d="M379.27,767.053a8.59,8.59,0,0,1-5.333-10.72,6.535,6.535,0,0,1,8.373-4.224,5.5,5.5,0,0,1,3.406,6.862,4.181,4.181,0,0,1-5.358,2.7,3.517,3.517,0,0,1-2.18-4.391,2.67,2.67,0,0,1,3.428-1.728" transform="translate(-240.715 -484.457)"/><rect class="s" width="24.992" height="69.302" rx="12.496" transform="translate(151.902 224.883) rotate(10.93)"/><rect class="n" width="12.59" height="21.44" rx="5.59" transform="translate(146.509 230.848) rotate(10.93)"/><rect class="n" width="12.59" height="16.907" rx="4.98" transform="translate(147.74 272.013) rotate(10.93)"/><path class="s" d="M457.82,694.05a12.665,12.665,0,0,1-5.01-1.067l1.458-3.4c7.044,3.026,18.617-.1,21.959-6.176,3.477-6.322,12.765-18.308,13.988-26.724,1.351-9.312-12.494-13.782-13.309-14.34-6.24-4.267-16.85-.686-16.957-.651l-1.209-3.5c.5-.174,12.253-3.093,20.747,1,6.638,3.2,15.229,9.483,14.386,18.013-.878,8.889-10.727,21.288-14.4,27.979C475,693.307,463.5,694.05,457.82,694.05Z" transform="translate(-291.808 -410.525)"/><path class="ct" d="M482.523,667.388l-3.132-.356,2.094-18.909c0-.043.615-4.37-1.579-6.908a6.254,6.254,0,0,0-5.038-1.892c-7.253,0-12.022,8.775-14.614,26.827l-3.115-.448c1.255-8.8,3-15.4,5.358-20.16,3.065-6.219,7.232-9.373,12.374-9.373a9.312,9.312,0,0,1,7.438,3.022c3.036,3.534,2.375,8.846,2.3,9.394Z" transform="translate(-294.599 -409.962)"/><path class="cu" d="M432.609,711.14l-4.288,27.88c-.665,6.215-.971,15.14,18.134,17.273,17.177,1.934,20.384-3.26,21.611-12.587s2.763-29.06,2.763-29.06Z" transform="translate(-275.889 -458.286)"/><path class="ct" d="M503.777,719.88l-2.7,29c-1.02,8.05-3.467,13.046-14.525,13.248,15.087,1.173,18.091-3.911,19.264-12.8,1.163-9.319,2.734-29.049,2.734-29.049Z" transform="translate(-313.552 -463.918)"/><path class="cv" d="M560.623,682.524c.4.889,1.909.146,2.631-.323s1.163-.939.668-1.707c-.569-.889-1.316-.4-2.133,0-.412.2-3.911,1.874-3.556,2.677Z" transform="translate(-359.731 -438.214)"/><path class="bo" d="M562.265,682.273a2.793,2.793,0,0,1-1.835.391.968.968,0,0,1-.48-.324l-2.425.64-.093-.217c-.4-.946,2.133-2.311,3.687-3.04l.231-.11c.711-.356,1.614-.782,2.261.228.711,1.127-.274,1.778-.75,2.087A6.508,6.508,0,0,1,562.265,682.273Zm-4.181,0,2.133-.569.1.213a.388.388,0,0,0,.256.228,3.146,3.146,0,0,0,1.973-.672c.775-.5.914-.814.587-1.323s-.711-.441-1.554-.029l-.235.114a12.074,12.074,0,0,0-3.257,2.027Z" transform="translate(-359.204 -437.711)"/><path class="cv" d="M567.148,687.861c.327.711,1.828.021,2.617-.437.807-.523,1.493-1.028,1-1.8-.53-.839-1.469-.22-2.233.277S566.817,687.168,567.148,687.861Z" transform="translate(-365.448 -441.574)"/><path class="bo" d="M569.018,687.365a3.35,3.35,0,0,1-2.133.512.782.782,0,0,1-.48-.405c-.4-.846.512-1.753,1.5-2.322a2.847,2.847,0,0,1,1.906-.711,1.066,1.066,0,0,1,.711.519c.661,1.045-.391,1.728-1.084,2.183Zm-.092-2.19a8,8,0,0,0-.711.434l-.032.018c-.772.444-1.5,1.138-1.276,1.607a.2.2,0,0,0,.142.114,3.754,3.754,0,0,0,2.091-.672c1-.651,1.195-.956.907-1.422a.555.555,0,0,0-.356-.274A1.259,1.259,0,0,0,568.925,685.175Z" transform="translate(-364.95 -441.064)"/><path class="cv" d="M569.459,692.67c.316.58,1.291.309,2.222-.3s1.444-.989,1.028-1.564c-.356-.494-1.486-.071-2.055.356s-1.486.967-1.195,1.5Z" transform="translate(-366.945 -445.039)"/><path class="bo" d="M570.811,692.439a2.371,2.371,0,0,1-1.529.324.85.85,0,0,1-.562-.427h0c-.356-.672.441-1.248,1.024-1.671l.249-.185a2.866,2.866,0,0,1,1.877-.622.818.818,0,0,1,.569.324.868.868,0,0,1,.185.686c-.085.459-.562.8-1.284,1.269A5.813,5.813,0,0,1,570.811,692.439Zm-1.607-.356a.316.316,0,0,0,.213.156,2.531,2.531,0,0,0,1.618-.555c.444-.292,1-.651,1.042-.907a.437.437,0,0,0-.089-.263.259.259,0,0,0-.2-.1,2.4,2.4,0,0,0-1.461.519l-.26.192c-.37.252-.988.7-.86.946Z" transform="translate(-366.448 -444.57)"/><path class="cv" d="M555.511,701.473a21.94,21.94,0,0,0,7.7-4.715c.711-.548.775-1.028.469-1.493-.22-.356-.981-.025-1.465.356C561.8,696.011,555.305,701.067,555.511,701.473Z" transform="translate(-357.99 -447.957)"/><path class="bo" d="M557.778,700.122a20.884,20.884,0,0,1-2.681,1.138l-.228.078-.11-.213c-.174-.356,0-.711,5.611-5.245.594-.477,1.067-.853,1.152-.939a2.147,2.147,0,0,1,1.472-.562.608.608,0,0,1,.416.26c.423.651.242,1.28-.54,1.867-.121.092-.288.242-.5.43A21.4,21.4,0,0,1,557.778,700.122Zm-1.924.267A20.571,20.571,0,0,0,562,696.52c.224-.2.4-.356.537-.455.668-.5.59-.839.405-1.124h-.039a1.756,1.756,0,0,0-1.024.434c-.082.078-.455.38-1.163.949C559.6,697.214,557.024,699.29,555.854,700.389Z" transform="translate(-357.483 -447.478)"/><path class="cv" d="M545.732,686.45c.327.85.558,2.517,1.387,2.891,1.163.523,2.311-.711,3.4-1.241a19.734,19.734,0,0,0,3.854-2.372c.356-.327.761-.654,1.1-1.017.224-.242.533-.6.811-.86s.53-.533-.028-.747c-.395.135-.43.188-.658.277-.146.057-.277.121-.405.035s-.082-.423.1-.5a4.136,4.136,0,0,0,.626-.484c.228-.217.114-1.091-.3-.821-.971.626-1.33.192-.711-.174,2.642-1.575.434-1.159.356-1.39-.224-.558-.882.555-1.259.089s1.1-.8.27-1.8c-.58-.711-3.47,1.422-4.2,1.778-.452.235-.64-.611-.939-1.444a5.407,5.407,0,0,0-1.547-2.457c-.644-.484-1.9-.292-1.714.747a2.034,2.034,0,0,0,.512.875,1.924,1.924,0,0,1,.466,1.23,5.544,5.544,0,0,1-.494,2.133,11.441,11.441,0,0,1-1.209,2.425c-.6.825-.327.064-.292,1.12C544.847,685.123,545.594,686.087,545.732,686.45Z" transform="translate(-351.066 -435.615)"/><path class="bo" d="M545.248,683.678a.277.277,0,0,1-.356-.412,11.519,11.519,0,0,0,1.564-3.776l.021-.085a2.554,2.554,0,0,0-.555-2.265,1.294,1.294,0,0,1-.277-1.18,1.067,1.067,0,0,1,.6-.619,1.564,1.564,0,0,1,1.262.036,4.057,4.057,0,0,1,1.881,2.133c.114.32.213.537.3.732a3.6,3.6,0,0,1,.384,1.458.277.277,0,1,1-.551.046,3.1,3.1,0,0,0-.334-1.276c-.089-.192-.2-.43-.324-.772a3.52,3.52,0,0,0-1.579-1.813,1.006,1.006,0,0,0-.825-.036.522.522,0,0,0-.3.292.857.857,0,0,0,.2.679,3.126,3.126,0,0,1,.64,2.724l-.021.089a12.111,12.111,0,0,1-1.65,3.961A.355.355,0,0,1,545.248,683.678Z" transform="translate(-351.111 -435.14)"/><path class="cw" d="M448.96,718.367a6.409,6.409,0,0,0,3.438,4.622c2.912,1.643,5.145.907,7.822-.356,2.9-1.387,5.426-2.944,8.149-4.565,3.275-1.938,6.457-4.025,9.636-6.112,1.1-.711,2.1-1.5,3.129-2.276,1.145-.857,2.525-1.287,3.591-2.29A4.242,4.242,0,0,0,486,703.573c-.9-4.029-4.331-3.044-7.175-2.133-3.086,1-6.194,1.906-9.294,2.845-5.213,1.6-11.1,2.745-15.748,5.643-2.368,1.472-4.185,2.941-4.843,5.65A9.423,9.423,0,0,0,448.96,718.367Z" transform="translate(-289.249 -451.511)"/><path class="cx" d="M533,702.356s.9,1.628.711,1.721c-.651.356-.423,2.162.686,3.74,1.252,1.757,1.778,1.92,1.778,1.92l1.422-.789L533.964,702l-.786.284Z" transform="translate(-343.486 -452.396)"/><path class="cx" d="M545.929,699.268c.732-.206,2.1.384,2.745,2.219,1.067,2.155.128,1.81.128,1.81l-1.6,1.682-3.328-6.354.608-.437h0a.6.6,0,0,1,.789.242C545.5,698.83,545.815,699.321,545.929,699.268Z" transform="translate(-350.491 -449.898)"/><path class="cy" d="M534.4,697.473l2.375-1.02a.928.928,0,0,1,1.067.395l3.652,7a.864.864,0,0,1-.373,1.166l-2.133,1.017a.907.907,0,0,1-1.166-.377l-3.847-7.257c-.292-.405-.057-.764.427-.917Z" transform="translate(-344.027 -448.793)"/><path class="bd" d="M535.712,704.492c-.149.757,1.422,3.324,1.835,4.018.444.633,1.113.853,2.489.092s2.542-1.209,2.845-1.778c.356-.8-.228-1.817-.885-2.976s-1.326-2.1-2.02-1.956a35,35,0,0,0-3.364,1.486c-.711.356-.768.526-.9,1.124Z" transform="translate(-345.227 -452.317)"/><g class="cz" transform="translate(158.374 247.673)"><path class="da" d="M464.567,645.63,419.45,665.25l10.045,45.16,45.117-19.62Z" transform="translate(-428.684 -663.742)"/></g><path class="bt" d="M531.76,692.04l8.181,14.717-3.385,2.187L528.18,693.7Z" transform="translate(-340.38 -445.977)"/><g class="db" transform="translate(158.457 225.817)"><path class="dc" d="M406.613,590.5l-18.7,53.626L438.2,670.352l18.7-53.626Z" transform="translate(-408.441 -606.358)"/></g><path class="ad" d="M10.411,0h0A10.411,10.411,0,0,1,20.832,10.411v.082H0v-.082A10.411,10.411,0,0,1,10.411,0Z" transform="translate(174.424 197.053) rotate(-3.66)"/><rect class="ad" width="16.391" height="4.366" rx="2.183" transform="translate(185.866 202.503) rotate(-3.66)"/></g><line class="am" x2="3.556" transform="translate(64.478 270.678)"/><line class="dd" x2="39.3" transform="translate(75.176 270.678)"/><line class="am" x2="3.556" transform="translate(118.05 270.678)"/><line class="am" x2="3.556" transform="translate(68.566 277.135)"/><line class="dd" x2="39.3" transform="translate(79.265 277.135)"/><line class="am" x2="3.556" transform="translate(122.139 277.135)"/><line class="am" x2="3.556" transform="translate(61.811 285.313)"/><line class="dd" x2="39.3" transform="translate(72.51 285.313)"/><line class="am" x2="3.556" transform="translate(115.383 285.313)"/></g></g></svg>