<svg xmlns="http://www.w3.org/2000/svg" width="78.192" height="20.856" viewBox="0 0 78.192 20.856"><defs><style>.a{fill:#fff;}</style></defs><g transform="translate(-24.144 -11.736)"><path class="a" d="M63.59,34.572A4.143,4.143,0,0,1,65.564,31.1a4.245,4.245,0,0,0-3.343-1.807c-1.406-.148-2.77.841-3.487.841s-1.834-.827-3.023-.8a4.451,4.451,0,0,0-3.746,2.284c-1.62,2.8-.412,6.925,1.14,9.191.776,1.111,1.684,2.349,2.871,2.306,1.162-.047,1.6-.74,3-.74s1.8.74,3.008.712c1.247-.019,2.032-1.115,2.781-2.235a9.161,9.161,0,0,0,1.272-2.59A4.009,4.009,0,0,1,63.59,34.572ZM61.3,27.8a4.078,4.078,0,0,0,.934-2.923,4.156,4.156,0,0,0-2.687,1.389,3.881,3.881,0,0,0-.958,2.815A3.433,3.433,0,0,0,61.3,27.8Z" transform="translate(-27.051 -13.139)"/><path class="a" d="M177.844,81.669H176.22l-.889-2.794H172.24l-.847,2.794h-1.581l3.064-9.512h1.892ZM175.063,77.7l-.8-2.484q-.128-.381-.48-1.792h-.029q-.142.607-.452,1.792l-.791,2.484Zm10.644.452a3.883,3.883,0,0,1-.951,2.765,2.788,2.788,0,0,1-2.115.9,2.117,2.117,0,0,1-1.959-.973v3.6h-1.524V77.064q0-1.1-.056-2.254h1.341l.085,1.087h.029a2.712,2.712,0,0,1,4.34-.269A3.792,3.792,0,0,1,185.707,78.155Zm-1.553.056a2.827,2.827,0,0,0-.452-1.652,1.562,1.562,0,0,0-1.327-.677,1.585,1.585,0,0,0-1.023.374,1.734,1.734,0,0,0-.6.981,1.99,1.99,0,0,0-.071.464v1.144a1.835,1.835,0,0,0,.459,1.264,1.524,1.524,0,0,0,1.193.515,1.562,1.562,0,0,0,1.341-.663A2.919,2.919,0,0,0,184.154,78.211Zm9.444-.056a3.884,3.884,0,0,1-.951,2.765,2.79,2.79,0,0,1-2.116.9,2.117,2.117,0,0,1-1.959-.973v3.6h-1.524V77.064q0-1.1-.057-2.254h1.341l.085,1.087h.029a2.713,2.713,0,0,1,4.341-.269A3.8,3.8,0,0,1,193.6,78.155Zm-1.554.056a2.827,2.827,0,0,0-.453-1.652,1.559,1.559,0,0,0-1.326-.677,1.592,1.592,0,0,0-1.025.374,1.733,1.733,0,0,0-.6.981,2.035,2.035,0,0,0-.071.464v1.144a1.841,1.841,0,0,0,.458,1.264,1.527,1.527,0,0,0,1.194.515,1.561,1.561,0,0,0,1.341-.663A2.919,2.919,0,0,0,192.045,78.211Zm10.376.79a2.541,2.541,0,0,1-.846,1.976,3.749,3.749,0,0,1-2.592.833,4.525,4.525,0,0,1-2.464-.593l.352-1.27a4.242,4.242,0,0,0,2.2.593,2.078,2.078,0,0,0,1.341-.388,1.268,1.268,0,0,0,.481-1.036,1.328,1.328,0,0,0-.4-.974,3.673,3.673,0,0,0-1.313-.733q-2.5-.932-2.5-2.725a2.4,2.4,0,0,1,.882-1.919,3.489,3.489,0,0,1,2.336-.748,4.618,4.618,0,0,1,2.16.452l-.383,1.242a3.777,3.777,0,0,0-1.828-.437,1.859,1.859,0,0,0-1.261.4,1.131,1.131,0,0,0-.382.862,1.165,1.165,0,0,0,.438.931,4.937,4.937,0,0,0,1.383.733,4.688,4.688,0,0,1,1.807,1.156A2.41,2.41,0,0,1,202.421,79Zm5.053-3.047h-1.68v3.33q0,1.271.889,1.269a2.678,2.678,0,0,0,.677-.071l.042,1.157a3.455,3.455,0,0,1-1.185.169,1.827,1.827,0,0,1-1.412-.551,2.7,2.7,0,0,1-.508-1.849V75.951h-1V74.807h1V73.551l1.5-.452v1.708h1.68Zm7.566,2.229a3.762,3.762,0,0,1-.9,2.6,3.222,3.222,0,0,1-2.512,1.044,3.071,3.071,0,0,1-2.407-1,3.648,3.648,0,0,1-.9-2.526,3.731,3.731,0,0,1,.924-2.61,3.2,3.2,0,0,1,2.492-1.016,3.136,3.136,0,0,1,2.427,1A3.6,3.6,0,0,1,215.039,78.183Zm-1.58.035a3.07,3.07,0,0,0-.408-1.618,1.509,1.509,0,0,0-1.37-.817,1.531,1.531,0,0,0-1.4.817,3.122,3.122,0,0,0-.409,1.647,3.062,3.062,0,0,0,.409,1.619,1.563,1.563,0,0,0,2.755-.014A3.083,3.083,0,0,0,213.459,78.218ZM220,76.15a2.653,2.653,0,0,0-.48-.042,1.439,1.439,0,0,0-1.243.608,2.288,2.288,0,0,0-.38,1.354v3.6h-1.524v-4.7q0-1.08-.044-2.159h1.328l.056,1.312h.042a2.353,2.353,0,0,1,.762-1.087,1.843,1.843,0,0,1,1.1-.367,2.447,2.447,0,0,1,.381.028Zm6.817,1.765a3.574,3.574,0,0,1-.056.691h-4.573a1.989,1.989,0,0,0,.663,1.554,2.269,2.269,0,0,0,1.5.479,5.059,5.059,0,0,0,1.85-.324l.239,1.057a5.722,5.722,0,0,1-2.3.424,3.335,3.335,0,0,1-2.507-.938,3.467,3.467,0,0,1-.91-2.519,3.928,3.928,0,0,1,.848-2.582,2.922,2.922,0,0,1,2.4-1.1,2.557,2.557,0,0,1,2.246,1.1,3.7,3.7,0,0,1,.6,2.157Zm-1.453-.4a2.063,2.063,0,0,0-.3-1.172,1.331,1.331,0,0,0-1.214-.636,1.445,1.445,0,0,0-1.213.621,2.276,2.276,0,0,0-.451,1.185Z" transform="translate(-124.477 -51.857)"/><g transform="translate(46.227 11.977)"><path class="a" d="M175.9,31.178a9.736,9.736,0,0,1-1.1-.056v-4.6a8.3,8.3,0,0,1,1.29-.1c1.748,0,2.553.86,2.553,2.262C178.65,30.3,177.7,31.178,175.9,31.178Zm.256-4.162a3.059,3.059,0,0,0-.6.049v3.5a3.957,3.957,0,0,0,.506.021,1.656,1.656,0,0,0,1.8-1.873A1.525,1.525,0,0,0,176.158,27.016Zm5,4.2a1.6,1.6,0,0,1-1.624-1.734,1.642,1.642,0,0,1,1.679-1.783,1.592,1.592,0,0,1,1.624,1.728A1.652,1.652,0,0,1,181.159,31.213Zm.029-2.969c-.541,0-.888.506-.888,1.214s.354,1.2.881,1.2.881-.541.881-1.214-.347-1.2-.874-1.2Zm7.269-.478L187.4,31.137h-.687l-.437-1.464a11.1,11.1,0,0,1-.271-1.089h-.014a7.3,7.3,0,0,1-.27,1.089l-.465,1.464h-.694l-.992-3.371h.77l.382,1.6q.135.573.229,1.082h.014a11.1,11.1,0,0,1,.277-1.075l.479-1.609h.611l.458,1.575c.111.382.2.756.271,1.11h.02a9.71,9.71,0,0,1,.229-1.11l.41-1.575Zm3.882,3.371h-.749V29.2c0-.6-.229-.895-.68-.895a.778.778,0,0,0-.749.826v2h-.749V28.729c0-.3-.007-.618-.028-.964h.659l.035.52h.021a1.211,1.211,0,0,1,1.069-.589c.708,0,1.173.541,1.173,1.422Zm2.066,0h-.75V26.219h.75Zm2.732.076a1.6,1.6,0,0,1-1.624-1.734,1.642,1.642,0,0,1,1.679-1.783,1.591,1.591,0,0,1,1.624,1.728A1.651,1.651,0,0,1,197.136,31.213Zm.028-2.969c-.541,0-.888.506-.888,1.214s.355,1.2.88,1.2.881-.541.881-1.214-.345-1.2-.873-1.2Zm4.6,2.893-.054-.388h-.02a1.151,1.151,0,0,1-.986.465.98.98,0,0,1-1.033-.992c0-.832.721-1.262,1.97-1.262V28.9c0-.444-.235-.666-.7-.666a1.578,1.578,0,0,0-.881.25l-.152-.492a2.156,2.156,0,0,1,1.158-.292c.881,0,1.326.465,1.326,1.394v1.242a5.087,5.087,0,0,0,.049.8Zm-.1-1.679c-.832,0-1.25.2-1.25.68a.478.478,0,0,0,.514.527.717.717,0,0,0,.736-.686Zm4.368,1.679L206,30.6h-.021a1.13,1.13,0,0,1-1.082.618,1.536,1.536,0,0,1-1.415-1.72,1.6,1.6,0,0,1,1.476-1.8,1.013,1.013,0,0,1,.951.458h.015V26.219h.75v4.009c0,.326.008.631.028.908Zm-.111-1.983a.815.815,0,0,0-.789-.874c-.556,0-.9.492-.9,1.186s.352,1.145.88,1.145a.841.841,0,0,0,.8-.895v-.562Zm5.505,2.06a1.6,1.6,0,0,1-1.623-1.734,1.642,1.642,0,0,1,1.679-1.783,1.591,1.591,0,0,1,1.624,1.728A1.651,1.651,0,0,1,211.429,31.213Zm.028-2.969c-.54,0-.887.506-.887,1.214s.354,1.2.88,1.2.881-.541.881-1.214-.345-1.2-.874-1.2Zm5.681,2.893h-.75V29.2c0-.6-.229-.895-.68-.895a.778.778,0,0,0-.749.826v2h-.75V28.729c0-.3-.007-.618-.028-.964h.659l.035.52h.021a1.211,1.211,0,0,1,1.068-.59c.708,0,1.173.541,1.173,1.422Zm5.041-2.809h-.824v1.637c0,.417.144.625.436.625a1.476,1.476,0,0,0,.332-.035l.021.569a1.66,1.66,0,0,1-.581.084c-.591,0-.944-.326-.944-1.179v-1.7h-.492v-.562h.492v-.618l.736-.222v.839h.824Zm3.967,2.809H225.4V29.215c0-.6-.228-.908-.68-.908a.735.735,0,0,0-.75.8v2.032h-.749V26.219h.749v2.025h.015A1.137,1.137,0,0,1,225,27.7c.714,0,1.15.555,1.15,1.436Zm4.064-1.505h-2.249a.967.967,0,0,0,1.062,1,2.533,2.533,0,0,0,.909-.159l.117.52a2.815,2.815,0,0,1-1.131.208,1.565,1.565,0,0,1-1.679-1.7,1.646,1.646,0,0,1,1.594-1.81,1.416,1.416,0,0,1,1.4,1.6,1.446,1.446,0,0,1-.026.34Zm-.687-.534c0-.52-.262-.888-.741-.888a.889.889,0,0,0-.819.888Z" transform="translate(-174.806 -26.219)"/></g></g></svg>