<svg xmlns="http://www.w3.org/2000/svg" xmlns:xlink="http://www.w3.org/1999/xlink" width="83.574" height="19.684" viewBox="0 0 83.574 19.684"><defs><style>.a,.b,.i{fill:#fff;}.a{stroke:#fff;stroke-miterlimit:10;stroke-width:0.2px;}.c{fill:url(#a);}.d{fill:url(#b);}.e{fill:url(#c);}.f{fill:url(#d);}.g{opacity:0.2;}.h{opacity:0.12;}.i{opacity:0.25;}</style><linearGradient id="a" x1="0.915" y1="6.617" x2="-0.384" y2="5.947" gradientUnits="objectBoundingBox"><stop offset="0" stop-color="#00a0ff"/><stop offset="0.01" stop-color="#00a1ff"/><stop offset="0.26" stop-color="#00beff"/><stop offset="0.51" stop-color="#00d2ff"/><stop offset="0.76" stop-color="#00dfff"/><stop offset="1" stop-color="#00e3ff"/></linearGradient><linearGradient id="b" x1="1.077" y1="17.089" x2="-1.306" y2="17.089" gradientUnits="objectBoundingBox"><stop offset="0" stop-color="#ffe000"/><stop offset="0.41" stop-color="#ffbd00"/><stop offset="0.78" stop-color="orange"/><stop offset="1" stop-color="#ff9c00"/></linearGradient><linearGradient id="c" x1="0.862" y1="10.858" x2="-0.501" y2="9.09" gradientUnits="objectBoundingBox"><stop offset="0" stop-color="#ff3a44"/><stop offset="1" stop-color="#c31162"/></linearGradient><linearGradient id="d" x1="-0.188" y1="13.578" x2="0.421" y2="12.788" gradientUnits="objectBoundingBox"><stop offset="0" stop-color="#32a071"/><stop offset="0.07" stop-color="#2da771"/><stop offset="0.48" stop-color="#15cf74"/><stop offset="0.8" stop-color="#06e775"/><stop offset="1" stop-color="#00f076"/></linearGradient></defs><g transform="translate(-14.406 -12.057)"><path class="a" d="M55.727,19.3a1.955,1.955,0,0,1-.541,1.443,2.1,2.1,0,0,1-1.587.642A2.272,2.272,0,0,1,52,17.509,2.164,2.164,0,0,1,53.6,16.86a2.236,2.236,0,0,1,.887.18,1.782,1.782,0,0,1,.678.483l-.382.382a1.443,1.443,0,0,0-1.183-.512,1.674,1.674,0,0,0-1.681,1.731A1.7,1.7,0,0,0,54.8,20.373a1.363,1.363,0,0,0,.361-.88H53.6v-.519h2.1A1.832,1.832,0,0,1,55.727,19.3Z" transform="translate(-14.305 -4.697)"/><path class="a" d="M61.025,17.534H59.077V18.9h1.775v.519H59.077v1.371h1.948v.534H58.5V17h2.525Z" transform="translate(-16.298 -4.738)"/><path class="a" d="M64.6,21.328h-.555V17.534H62.83V17h3.008v.534H64.6Z" transform="translate(-17.505 -4.738)"/><path class="a" d="M69.94,21.328V17H70.5v4.328Z" transform="translate(-19.486 -4.738)"/><path class="a" d="M73.447,21.328h-.555V17.534H71.68V17h2.972v.534h-1.2Z" transform="translate(-19.971 -4.738)"/><path class="a" d="M82.138,20.725a2.251,2.251,0,0,1-3.174,0,2.337,2.337,0,0,1,0-3.21,2.236,2.236,0,0,1,3.174,0,2.33,2.33,0,0,1,0,3.21Zm-2.763-.361a1.666,1.666,0,0,0,2.352,0,1.847,1.847,0,0,0,0-2.482,1.666,1.666,0,0,0-2.352,0A1.847,1.847,0,0,0,79.375,20.364Z" transform="translate(-21.822 -4.697)"/><path class="a" d="M85.58,21.328V17h.678l2.106,3.369h0V17h.555v4.328h-.577l-2.2-3.528h0v3.528Z" transform="translate(-23.843 -4.738)"/><path class="b" d="M70.543,30.425a3.066,3.066,0,1,0,3.08,3.066,3.023,3.023,0,0,0-3.08-3.066Zm0,4.927a1.861,1.861,0,1,1,1.731-1.861,1.775,1.775,0,0,1-1.731,1.861Zm-6.716-4.927A3.066,3.066,0,1,0,66.9,33.491a3.023,3.023,0,0,0-3.08-3.066Zm0,4.927a1.861,1.861,0,1,1,1.724-1.861,1.775,1.775,0,0,1-1.731,1.861Zm-8-3.982v1.3h3.116a2.72,2.72,0,0,1-.721,1.638,3.189,3.189,0,0,1-2.4.952,3.463,3.463,0,1,1,0-6.925,3.318,3.318,0,0,1,2.359.931l.916-.916A4.538,4.538,0,0,0,55.827,27a4.768,4.768,0,1,0,0,9.53,4.211,4.211,0,0,0,4.451-4.379,4.234,4.234,0,0,0-.072-.815Zm32.686,1.01A2.835,2.835,0,0,0,83,33.491a3,3,0,0,0,3.044,3.066A3.051,3.051,0,0,0,88.6,35.2l-1.046-.721a1.753,1.753,0,0,1-1.508.851A1.558,1.558,0,0,1,84.56,34.4l4.1-1.7ZM84.329,33.4a1.681,1.681,0,0,1,1.6-1.789,1.19,1.19,0,0,1,1.14.649ZM81,36.377h1.349V27.359H81Zm-2.207-5.266h-.05a2.164,2.164,0,0,0-1.616-.721,3.073,3.073,0,0,0,0,6.139,2.092,2.092,0,0,0,1.616-.721h.043v.44c0,1.176-.628,1.8-1.638,1.8A1.7,1.7,0,0,1,75.6,36.961l-1.176.491a2.922,2.922,0,0,0,2.72,1.811c1.58,0,2.886-.931,2.886-3.2V30.606H78.789Zm-1.544,4.242a1.868,1.868,0,0,1,0-3.722,1.866,1.866,0,0,1-.007,3.722Zm17.588-7.993H91.608v9.017h1.349V32.957H94.84a2.806,2.806,0,1,0,0-5.6Zm0,4.328H92.95V28.615h1.912a1.547,1.547,0,1,1,0,3.095Zm8.318-1.3a2.525,2.525,0,0,0-2.4,1.378l1.2.5a1.277,1.277,0,0,1,1.226-.664,1.3,1.3,0,0,1,1.443,1.161v.094a2.979,2.979,0,0,0-1.407-.346c-1.291,0-2.6.721-2.6,2.027a2.085,2.085,0,0,0,2.236,1.984,1.9,1.9,0,0,0,1.731-.866h.043v.721h1.3v-3.47a2.487,2.487,0,0,0-2.734-2.5Zm-.166,4.942c-.44,0-1.053-.224-1.053-.765,0-.721.765-.959,1.443-.959a2.4,2.4,0,0,1,1.226.3,1.63,1.63,0,0,1-1.58,1.443Zm7.668-4.725-1.544,3.91h-.043l-1.6-3.91h-1.443l2.4,5.468-1.371,3.037h1.407l3.694-8.505ZM98.526,36.377h1.349V27.359H98.526Z" transform="translate(-14.173 -7.521)"/><path class="c" d="M20.311,17.521a1.443,1.443,0,0,0-.332,1.01V34.488a1.443,1.443,0,0,0,.332,1.01l.05.05L29.3,26.617v-.209L20.361,17.47Z" transform="translate(-5.565 -4.867)"/><path class="d" d="M35.858,31.9,32.9,28.916v-.209l2.958-2.987.065.036,3.542,2.013a1.1,1.1,0,0,1,0,2.085l-3.528,2.005Z" transform="translate(-9.167 -7.166)"/><path class="e" d="M32.473,33.044,29.429,30,20.44,38.989a1.176,1.176,0,0,0,1.5.043l10.54-5.988" transform="translate(-5.695 -8.359)"/><path class="f" d="M32.47,23.371,21.93,17.384a1.176,1.176,0,0,0-1.5.043l9,8.989Z" transform="translate(-5.692 -4.775)"/><path class="g" d="M32.386,34.13,21.933,40.081a1.2,1.2,0,0,1-1.443,0h0l-.05.05h0l.05.051h0a1.2,1.2,0,0,0,1.443,0l10.54-5.988Z" transform="translate(-5.695 -9.51)"/><path class="h" d="M20.311,41.93a1.443,1.443,0,0,1-.332-1.01v.108a1.443,1.443,0,0,0,.332,1.01l.05-.05Z" transform="translate(-5.565 -11.402)"/><path class="h" d="M40.607,30.938,37,32.979l.065.065,3.542-2.005A1.262,1.262,0,0,0,41.328,30h0a1.342,1.342,0,0,1-.721.938Z" transform="translate(-10.309 -8.359)"/><path class="i" d="M21.8,17.488l14.06,7.993a1.342,1.342,0,0,1,.721.938h0a1.262,1.262,0,0,0-.721-1.039L21.8,17.387c-1.01-.57-1.832-.094-1.832,1.06v.108C19.992,17.394,20.8,16.918,21.8,17.488Z" transform="translate(-5.564 -4.777)"/></g></svg>