<svg xmlns="http://www.w3.org/2000/svg" xmlns:xlink="http://www.w3.org/1999/xlink" width="381.991" height="254.897" viewBox="0 0 381.991 254.897"><defs><style>.a,.ai,.al,.ap{fill:none;}.b{fill:url(#a);}.c{fill:url(#b);}.d{fill:#00c0b7;}.e{fill:url(#c);}.f{fill:url(#d);}.aq,.g{fill:#161643;}.h{fill:url(#e);}.i{fill:#cbe9ff;}.j{fill:#b0deff;}.k{fill:#a8e4ef;}.l{fill:#99dbe8;}.aj,.m{fill:#fff;}.n{fill:#ff6870;}.al,.o{opacity:0.6;}.p{fill:#f77731;}.q{fill:#c26419;}.r{fill:#e09374;}.s{fill:#cf7653;}.t{fill:#743529;}.u{fill:#ea9d7d;}.v{fill:#b76349;}.w{fill:#db8a6b;}.x{fill:#b4603f;}.y{fill:#4f2b23;}.z{fill:#7a3e2b;}.aa{opacity:0.34;fill:url(#f);}.aa,.al{isolation:isolate;}.ab{opacity:0.45;}.ac{fill:url(#g);}.ad{fill:#2960f5;}.ae{fill:#008dff;}.af{fill:url(#h);}.ag{fill:url(#i);}.ah{fill:#a6d7ff;}.ai{stroke:#b0deff;stroke-width:12px;}.ai,.al,.ap{stroke-linecap:round;stroke-linejoin:round;}.aj{stroke:#cbe9ff;stroke-miterlimit:10;stroke-width:6px;}.ak{fill:url(#j);}.al{stroke:#fff;stroke-width:9px;}.am{fill:url(#k);}.an{fill:#d9edff;}.ao{fill:#e3f1ff;}.ap{stroke:#b4603f;stroke-width:7.5px;}.aq{stroke:#121236;stroke-width:0.5px;}.ar{clip-path:url(#l);}.as{fill:#ff8440;}.at{fill:#b1dcff;}.au{fill:url(#m);}.av{fill:#e89976;}.aw{fill:#cc7a5e;}.ax{fill:url(#n);}.ay{fill:#f7f9ff;}.az{clip-path:url(#o);}.ba{fill:#80bfff;}.bb{fill:url(#p);}.bc{fill:url(#q);}.bd{fill:#23235d;}.be{fill:#bfe7ff;}.bf{fill:#662e22;}.bg{fill:url(#r);}.bh{fill:url(#s);}.bi{fill:#274bf0;}</style><linearGradient id="a" x1="0.5" y1="0.274" x2="0.5" y2="1.274" gradientUnits="objectBoundingBox"><stop offset="0" stop-color="#2960f5"/><stop offset="0.08" stop-color="#2076e7"/><stop offset="0.22" stop-color="#1491d6"/><stop offset="0.36" stop-color="#0ba6c8"/><stop offset="0.52" stop-color="#05b5be"/><stop offset="0.71" stop-color="#01bdb9"/><stop offset="1" stop-color="#00c0b7"/></linearGradient><linearGradient id="b" y1="-0.341" x2="1" y2="-0.341" gradientUnits="objectBoundingBox"><stop offset="0" stop-color="#00c0b7"/><stop offset="0.29" stop-color="#01bdb9"/><stop offset="0.48" stop-color="#05b5be"/><stop offset="0.64" stop-color="#0ba6c8"/><stop offset="0.78" stop-color="#1491d6"/><stop offset="0.92" stop-color="#2076e7"/><stop offset="1" stop-color="#2960f5"/></linearGradient><linearGradient id="c" y1="-2.984" x2="1" y2="-2.984" gradientUnits="objectBoundingBox"><stop offset="0" stop-color="#2960f5"/><stop offset="0.01" stop-color="#2764f3"/><stop offset="0.1" stop-color="#1b80e0"/><stop offset="0.19" stop-color="#1198d1"/><stop offset="0.31" stop-color="#0aaac5"/><stop offset="0.44" stop-color="#04b6bd"/><stop offset="0.61" stop-color="#01beb8"/><stop offset="1" stop-color="#00c0b7"/></linearGradient><linearGradient id="d" x1="0.5" y1="-0.261" x2="0.5" y2="0.74" xlink:href="#a"/><linearGradient id="e" x1="0" y1="-6.872" x2="1" y2="-6.872" xlink:href="#c"/><linearGradient id="f" x1="-0.249" y1="-1.321" x2="0.751" y2="-1.321" gradientUnits="objectBoundingBox"><stop offset="0" stop-color="#fff"/><stop offset="1" stop-color="#cbe9ff"/></linearGradient><linearGradient id="g" x1="0.146" y1="-5.255" x2="0.905" y2="-6.227" gradientUnits="objectBoundingBox"><stop offset="0" stop-color="#1a8cff"/><stop offset="0.72" stop-color="#2960f5"/></linearGradient><linearGradient id="h" x1="-0.126" y1="-10.057" x2="0.866" y2="-10.874" gradientUnits="objectBoundingBox"><stop offset="0.28" stop-color="#2960f5"/><stop offset="1" stop-color="#1a8cff"/></linearGradient><linearGradient id="i" x1="0.5" y1="2.315" x2="0.5" y2="3.315" gradientUnits="objectBoundingBox"><stop offset="0" stop-color="#cbe9ff" stop-opacity="0"/><stop offset="0.96" stop-color="#cbe9ff"/></linearGradient><linearGradient id="j" x1="0.5" y1="6.313" x2="0.5" y2="7.313" xlink:href="#a"/><linearGradient id="k" x1="0.5" y1="7.805" x2="0.5" y2="8.805" gradientUnits="objectBoundingBox"><stop offset="0" stop-color="#cbe9ff" stop-opacity="0"/><stop offset="0.12" stop-color="#c6e6fd" stop-opacity="0.188"/><stop offset="0.29" stop-color="#bfe2fb" stop-opacity="0.431"/><stop offset="0.45" stop-color="#badff9" stop-opacity="0.631"/><stop offset="0.61" stop-color="#b6dcf7" stop-opacity="0.788"/><stop offset="0.75" stop-color="#b3daf6" stop-opacity="0.91"/><stop offset="0.87" stop-color="#b1d9f5" stop-opacity="0.98"/><stop offset="0.96" stop-color="#b0d9f5"/></linearGradient><clipPath id="l"><rect class="a" width="303.146" height="212.073" transform="translate(0)"/></clipPath><linearGradient id="m" y1="-1.008" x2="1" y2="-1.008" gradientUnits="objectBoundingBox"><stop offset="0" stop-color="#5b1219" stop-opacity="0.502"/><stop offset="0.21" stop-color="#5b1219" stop-opacity="0.302"/><stop offset="0.51" stop-color="#5b1219" stop-opacity="0.078"/><stop offset="0.71" stop-color="#5b1219" stop-opacity="0"/></linearGradient><linearGradient id="n" x1="0.405" y1="5.007" x2="0.405" y2="5.514" gradientUnits="objectBoundingBox"><stop offset="0" stop-color="#cc7a5e" stop-opacity="0"/><stop offset="0.92" stop-color="#aa5f4b"/></linearGradient><clipPath id="o"><rect class="a" width="49.716" height="25.665" rx="9.97" transform="matrix(0.125, -0.992, 0.992, 0.125, 0, 49.326)"/></clipPath><linearGradient id="p" x1="4.571" y1="-9.295" x2="5.07" y2="-9.206" gradientUnits="objectBoundingBox"><stop offset="0.29" stop-color="#5b1219" stop-opacity="0"/><stop offset="0.49" stop-color="#5b1219" stop-opacity="0.078"/><stop offset="0.79" stop-color="#5b1219" stop-opacity="0.302"/><stop offset="1" stop-color="#5b1219" stop-opacity="0.502"/></linearGradient><linearGradient id="q" x1="0.5" x2="0.804" y2="1" gradientUnits="objectBoundingBox"><stop offset="0" stop-color="#a9d9ff"/><stop offset="1" stop-color="#bfe7ff"/></linearGradient><linearGradient id="r" x1="-0.033" y1="-2.978" x2="1.004" y2="-3.717" gradientUnits="objectBoundingBox"><stop offset="0" stop-color="#161643"/><stop offset="0.11" stop-color="#161848"/><stop offset="0.23" stop-color="#181e55"/><stop offset="0.36" stop-color="#1a276c"/><stop offset="0.49" stop-color="#1e348c"/><stop offset="0.63" stop-color="#2245b4"/><stop offset="0.77" stop-color="#275ae6"/><stop offset="0.81" stop-color="#2960f5"/></linearGradient><linearGradient id="s" x1="-0.061" y1="-1.293" x2="0.946" y2="-1.821" gradientUnits="objectBoundingBox"><stop offset="0" stop-color="#161643"/><stop offset="0.11" stop-color="#161848"/><stop offset="0.23" stop-color="#181e55"/><stop offset="1" stop-color="#0e1529"/></linearGradient></defs><g transform="translate(1.07 -85.275)"><path class="b" d="M1171.853,415.521a39.146,39.146,0,0,1,7.537,29.585,1.782,1.782,0,0,0,2.147,2.147,52.835,52.835,0,0,1,10.441-.883l-10,4.848a1.774,1.774,0,0,0-.625,2.386c6.408,13.528,18.765,22.32,32.021,28.466,1.766.818,4,1.517,5.516.3a5.392,5.392,0,0,0,1.527-3.438c2.572-14.809,3.1-29.668-5.8-42.521-9.338-13.47-24.987-20.862-40.8-23.429C1172.506,412.756,1170.839,414.161,1171.853,415.521Z" transform="translate(-892.843 -260.563)"/><path class="c" d="M1187,582.294a80.444,80.444,0,0,0,9.209,37.825,1.754,1.754,0,0,0,2.386.625l4.662-3.087c-.58,8.613-3,10.381,4.492,14.449a81.978,81.978,0,0,0,10.5,5.046c1.863.659,5.325,2.014,7.157,1.7l.954-.162c1.432-28.022-33.493-31.994-35.881-56.4C1190.25,580.106,1187,580.016,1187,582.294Z" transform="translate(-904.611 -388.222)"/><path class="d" d="M1131.086,797.517c10.851,8.966,24.4,24.617,47,19.07,1.109,0,3.483-1.4,2.892-2.794-4.793-11.309-15.367-21.675-27.468-23.279a1.746,1.746,0,0,0-1.739,1.739v5.311l-4.177-7.079a1.77,1.77,0,0,0-1.964-.8l-14.554,4.478C1129.315,794.708,1129.819,796.469,1131.086,797.517Z" transform="translate(-861.166 -547.365)"/><path class="e" d="M1406.025,785.524c2.787,5.6,9.417,6.163,14.714,4.111,6.342-2.455,9.651-7.833,11.56-14.115,1.78-5.855,6.788-10.259,12.318-12.626-.668.286-5.964-2.278-7.124-2.491a25.138,25.138,0,0,0-7.966-.172c-5.032.716-10.359,3.519-14.523,6.37C1409.444,770.4,1402.4,778.231,1406.025,785.524Z" transform="translate(-1070.626 -524.801)"/><path class="f" d="M1390.4,552.917c.215,6.516,3.443,13.821,10.259,15.575,6.723,1.727,13.058-2.319,17.152-7.365,2.529-3.118,9.174-13.716,5.125-17.569a7.823,7.823,0,0,0-3.235-1.546l-10.085-2.994a89.352,89.352,0,0,0,10.314-1.7c1.291-.32,3.1-.491,3.8-1.6.563-.916.451-3.34.608-4.44a69.909,69.909,0,0,1,4.607-16.839c.649-1.575-1.369-2.491-2.555-1.964C1409.873,519.8,1389.713,532.12,1390.4,552.917Z" transform="translate(-1059.477 -336.22)"/><rect class="g" width="64.921" height="12.402" transform="translate(293.138 298.069)"/><path class="g" d="M1323.027,639.357a1.258,1.258,0,0,1-.191-.014,1.193,1.193,0,0,1-.988-1.367c4.908-30.539-.076-62.6-14.814-95.327a1.193,1.193,0,1,1,2.164-1c0,.009,0,.017,0,.026a192.682,192.682,0,0,1,14.64,47.354,152.585,152.585,0,0,1,.353,49.327A1.193,1.193,0,0,1,1323.027,639.357Z" transform="translate(-995.926 -358.02)"/><path class="g" d="M1300.311,778.084h-.024a1.222,1.222,0,0,1-1.193-1.245,82.085,82.085,0,0,0-20.478-55.447,1.224,1.224,0,0,1,1.83-1.625,84.6,84.6,0,0,1,21.093,57.117A1.222,1.222,0,0,1,1300.311,778.084Z" transform="translate(-974.152 -493.875)"/><path class="g" d="M1284.755,871.243a1.226,1.226,0,0,1-1.11-.716c-5.187-11.051-13.442-18.929-25.237-24.083a1.224,1.224,0,0,1,.981-2.243c12.192,5.328,21.1,13.838,26.483,25.29a1.226,1.226,0,0,1-1.107,1.744Z" transform="translate(-958.427 -588.839)"/><path class="g" d="M1373.612,843.785a1.159,1.159,0,0,1-.372-.06,1.224,1.224,0,0,1-.794-1.536h0a95.494,95.494,0,0,1,20.518-35.311,1.224,1.224,0,1,1,1.851,1.6c-.015.019-.034.036-.05.055a93.064,93.064,0,0,0-19.982,34.411,1.224,1.224,0,0,1-1.172.84Z" transform="translate(-1045.772 -560.177)"/><path class="h" d="M1401.875,905.371c-2,5.934,2.3,11.018,7.489,13.315,6.218,2.751,12.361,1.291,18.154-1.8,5.4-2.88,12.061-2.455,17.639-.208-.675-.272-2.6-5.831-3.271-6.8a25.1,25.1,0,0,0-5.511-5.757c-4.056-3.063-9.811-4.843-14.771-5.774C1414.983,897.108,1404.469,897.657,1401.875,905.371Z" transform="translate(-1067.843 -629.757)"/><path class="g" d="M1373.6,935.995a1.326,1.326,0,0,1-.239-.024,1.224,1.224,0,0,1-.969-1.431c2.192-11.249,8.086-10.345,17.006-8.976a82.972,82.972,0,0,0,19.533,1.193,1.224,1.224,0,0,1,.169,2.443,85.045,85.045,0,0,1-20.072-1.219c-9.09-1.393-12.492-1.909-14.234,7.026A1.224,1.224,0,0,1,1373.6,935.995Z" transform="translate(-1045.756 -650.265)"/><path class="g" d="M1371.979,712.362a1.319,1.319,0,0,1-.239-.026,1.221,1.221,0,0,1-.954-1.432h0c4.111-19.674,10.087-44.6,19.9-62.855a1.224,1.224,0,0,1,2.147,1.157c-9.663,17.984-15.582,42.688-19.659,62.2a1.226,1.226,0,0,1-1.2.957Z" transform="translate(-1044.535 -439.142)"/><rect class="i" width="64.921" height="2.858" transform="translate(293.136 304.27)"/><rect class="j" width="183.675" height="23.789" transform="translate(197.247 316.383)"/><rect class="k" width="240.195" height="23.279" transform="translate(139.416 295.332)"/><path class="i" d="M822.468,1009.174v20.659H584.9v-20.659H822.468m2.624-2.624H582.28v25.9H825.093Z" transform="translate(-444.172 -712.532)"/><path class="l" d="M569.33,1035.2H708.053l77.423-11.295a1.088,1.088,0,0,0-.165-2.164l-22.317.15-130.382-.258Z" transform="translate(-434.311 -724.014)"/><path class="i" d="M986.041,791.982h84.282a9.12,9.12,0,0,0,8.589-7.258L1089.3,727.6a5.893,5.893,0,0,0-5.938-7.258H999.075a9.12,9.12,0,0,0-8.589,7.258L980.1,784.724A5.886,5.886,0,0,0,986.041,791.982Z" transform="translate(-746.99 -494.608)"/><path class="g" d="M1067.394,789.982H983.111a6.893,6.893,0,0,1-5.414-2.414,7.18,7.18,0,0,1-1.431-5.924l10.393-57.124a10.061,10.061,0,0,1,9.479-8.009h84.283a6.89,6.89,0,0,1,5.413,2.412,7.18,7.18,0,0,1,1.432,5.924l-10.393,57.127A10.059,10.059,0,0,1,1067.394,789.982ZM996.145,718.34a8.164,8.164,0,0,0-7.678,6.506l-10.393,57.127a5.291,5.291,0,0,0,1.028,4.421,5.034,5.034,0,0,0,4.008,1.756h84.282a8.159,8.159,0,0,0,7.678-6.506l10.393-57.124a5.286,5.286,0,0,0-1.028-4.423,5.039,5.039,0,0,0-4.008-1.756Z" transform="translate(-744.06 -491.691)"/><path class="m" d="M1237.385,772.815h30.272a3.281,3.281,0,0,0,3.085-2.608h0a2.126,2.126,0,0,0-2.147-2.608h-30.26a3.276,3.276,0,0,0-3.082,2.608h0A2.12,2.12,0,0,0,1237.385,772.815Z" transform="translate(-941.322 -530.592)"/><path class="m" d="M1306.42,815.675h13.122a2.362,2.362,0,0,0,2.217-1.875l.267-1.467a1.524,1.524,0,0,0-1.138-1.835,1.474,1.474,0,0,0-.4-.041H1307.37a2.358,2.358,0,0,0-2.214,1.875l-.267,1.467a1.525,1.525,0,0,0,1.532,1.875Z" transform="translate(-994.346 -563.224)"/><path class="m" d="M1272.527,857.648H1291.4a2.768,2.768,0,0,0,2.6-2.2l.148-.816a1.789,1.789,0,0,0-1.8-2.2h-18.874a2.768,2.768,0,0,0-2.6,2.2l-.148.816A1.789,1.789,0,0,0,1272.527,857.648Z" transform="translate(-968.337 -595.183)"/><path class="m" d="M1213.707,902.958h30.274a3.281,3.281,0,0,0,3.083-2.61h0a2.122,2.122,0,0,0-2.133-2.608h-30.274a3.28,3.28,0,0,0-3.083,2.608h0A2.122,2.122,0,0,0,1213.707,902.958Z" transform="translate(-923.293 -629.683)"/><path class="m" d="M1228.431,815.675h13.122a2.362,2.362,0,0,0,2.216-1.875l.267-1.467a1.524,1.524,0,0,0-1.138-1.835,1.475,1.475,0,0,0-.4-.041H1229.38a2.357,2.357,0,0,0-2.214,1.875l-.267,1.467a1.525,1.525,0,0,0,1.532,1.875Z" transform="translate(-934.963 -563.224)"/><path class="m" d="M1283.46,941.885h13.122a2.362,2.362,0,0,0,2.216-1.875l.267-1.467a1.525,1.525,0,0,0-1.138-1.835,1.472,1.472,0,0,0-.4-.041H1284.41a2.357,2.357,0,0,0-2.214,1.875l-.267,1.467a1.525,1.525,0,0,0,1.532,1.875Z" transform="translate(-976.863 -659.322)"/><path class="m" d="M1205.47,941.885h13.122a2.362,2.362,0,0,0,2.216-1.875l.267-1.467a1.525,1.525,0,0,0-1.138-1.835,1.472,1.472,0,0,0-.4-.041H1206.42a2.357,2.357,0,0,0-2.214,1.875l-.267,1.467a1.525,1.525,0,0,0,1.532,1.875Z" transform="translate(-917.481 -659.322)"/><path class="m" d="M1220.273,857.683h8.174a1.909,1.909,0,0,0,1.806-1.529l.394-2.147a1.243,1.243,0,0,0-.923-1.5,1.162,1.162,0,0,0-.327-.033h-8.174a1.923,1.923,0,0,0-1.806,1.529l-.394,2.147a1.243,1.243,0,0,0,.923,1.5A1.163,1.163,0,0,0,1220.273,857.683Z" transform="translate(-928.971 -595.218)"/><path class="n" d="M1218.576,971.137h-13.122a2.36,2.36,0,0,0-2.216,1.873l-.267,1.47a1.522,1.522,0,0,0,1.136,1.832,1.486,1.486,0,0,0,.4.041h13.122a2.355,2.355,0,0,0,2.214-1.873l.267-1.47a1.522,1.522,0,0,0-1.532-1.873Z" transform="translate(-916.743 -685.568)"/><path class="d" d="M1108.375,971.138h-13.122a2.357,2.357,0,0,0-2.236,1.875l-.267,1.47a1.522,1.522,0,0,0,1.136,1.832,1.493,1.493,0,0,0,.4.041h13.122a2.355,2.355,0,0,0,2.214-1.873l.267-1.47a1.522,1.522,0,0,0-1.126-1.835,1.5,1.5,0,0,0-.387-.041Z" transform="translate(-832.82 -685.569)"/><path class="g" d="M1246.94,911l3.135,7.661.112-4.915,4.729-1.007Z" transform="translate(-950.254 -639.779)"/><path class="g" d="M1260.263,920.162l-1.217,1.489-5.087-4.3,1.217-1.489Z" transform="translate(-955.599 -643.48)"/><path class="g" d="M1265.568,776.522H1244.6a.916.916,0,0,1,0-1.832h20.972a.916.916,0,1,1,0,1.832Z" transform="translate(-947.772 -535.991)"/><path class="g" d="M1318.908,819.386h-9.24a.916.916,0,1,1-.093-1.83h9.333a.916.916,0,1,1,.093,1.83Z" transform="translate(-997.283 -568.629)"/><path class="g" d="M1242.37,819.386h-10.233a.916.916,0,1,1-.093-1.83h10.326a.916.916,0,1,1,.093,1.83Z" transform="translate(-938.25 -568.629)"/><path class="g" d="M1231.617,861.356h-7.909a.916.916,0,0,1-.093-1.83h8a.916.916,0,1,1,.093,1.83Z" transform="translate(-931.831 -600.585)"/><path class="g" d="M1221.07,903.846a.758.758,0,0,1-.148,0,.911.911,0,0,1-.759-1.045h0l.422-2.605a.916.916,0,1,1,1.816.239v.045l-.429,2.617A.914.914,0,0,1,1221.07,903.846Z" transform="translate(-929.857 -630.922)"/><path class="i" d="M732.31,1019.531h97.736l58.141-6.921H790.451Z" transform="translate(-558.407 -717.146)"/><path class="g" d="M829.758,1017.544H731.967l-.107-1.825,58.193-6.919h97.791l.11,1.825Zm-82.357-1.83h82.24l42.75-5.089H790.163Z" transform="translate(-558.064 -714.245)"/><path class="g" d="M891.11,1022.994h66.231l21.024-2.324H912.134Z" transform="translate(-679.319 -723.284)"/><path class="i" d="M1205.432,1012.61v1.923l-57.282,7.387v-2.161" transform="translate(-875.034 -717.146)"/><path class="g" d="M1145.226,1019.889a.919.919,0,0,1-.916-.916v-2.162a.916.916,0,1,1,1.832,0v1.121l55.45-7.158v-1.119a.916.916,0,1,1,1.832,0v1.925a.916.916,0,0,1-.8.907l-57.282,7.4A.952.952,0,0,1,1145.226,1019.889Z" transform="translate(-872.11 -714.2)"/><path class="i" d="M831.523,1042.033v1.923l-99.213-.46v-1.875" transform="translate(-558.407 -739.235)"/><path class="g" d="M828.607,1041.938h0l-99.216-.458a.916.916,0,0,1-.911-.916v-1.878a.916.916,0,0,1,1.832,0v.966l97.381.451v-1a.916.916,0,1,1,1.832,0v1.925a.911.911,0,0,1-.909.914h0Z" transform="translate(-555.49 -736.304)"/><g class="o" transform="translate(306.801 275.02)"><path class="m" d="M1290.375,943.15a1.04,1.04,0,0,1-.735-1.775l14.112-14.112a1.04,1.04,0,1,1,1.534,1.405l-.064.064-14.115,14.112A1.03,1.03,0,0,1,1290.375,943.15Z" transform="translate(-1289.336 -926.925)"/></g><g class="o" transform="translate(315.092 275.02)"><path class="m" d="M1325.125,943.15a1.04,1.04,0,0,1-.735-1.775l14.112-14.112a1.04,1.04,0,0,1,1.534,1.405l-.064.064-14.112,14.112A1.036,1.036,0,0,1,1325.125,943.15Z" transform="translate(-1324.086 -926.925)"/></g><g class="o" transform="translate(243.521 228.943)"><path class="m" d="M1025.142,749.956a1.04,1.04,0,0,1-.735-1.773l14.112-14.115a1.04,1.04,0,0,1,1.47,1.47l-14.112,14.112A1.035,1.035,0,0,1,1025.142,749.956Z" transform="translate(-1024.106 -733.795)"/></g><g class="o" transform="translate(251.812 228.878)"><path class="m" d="M1059.892,749.75a1.04,1.04,0,0,1-.735-1.773l14.115-14.115a1.04,1.04,0,1,1,1.534,1.405l-.064.064-14.115,14.112A1.035,1.035,0,0,1,1059.892,749.75Z" transform="translate(-1058.856 -733.525)"/></g><path class="m" d="M1070.543,819.607H1044a2.565,2.565,0,0,1-2.56-3.118l2.863-17.8a3.771,3.771,0,0,1,3.562-3.118h26.545a2.566,2.566,0,0,1,2.56,3.118l-2.863,17.8A3.772,3.772,0,0,1,1070.543,819.607Z" transform="translate(-793.75 -551.889)"/><path class="p" d="M1063.891,856.1c-.014.112-.033.239-.057.341a2.51,2.51,0,0,1-.21.639.955.955,0,0,1-.628.582,4.133,4.133,0,0,1-.876,0h-11.8l.176-1.231.081-.58a6.73,6.73,0,0,1,.551-1.842,4.21,4.21,0,0,1,1.262-1.644,8.626,8.626,0,0,1,2.028-1.25,10.16,10.16,0,0,1,3.617-.816,7.222,7.222,0,0,1,3.564.611,3.336,3.336,0,0,1,1.532,1.355,6.862,6.862,0,0,1,.8,1.751.523.523,0,0,1,.012.06A6.612,6.612,0,0,1,1063.891,856.1Z" transform="translate(-800.544 -593.551)"/><path class="q" d="M1064.454,868.01c-.014.112-.034.239-.057.341H1051.06l.081-.58a6.727,6.727,0,0,1,.551-1.842h12.793a.521.521,0,0,1,.012.06A6.678,6.678,0,0,1,1064.454,868.01Z" transform="translate(-801.108 -605.462)"/><path class="g" d="M1092.026,866.8h-.019a.188.188,0,0,1-.169-.205h0l.4-3.894a.188.188,0,0,1,.205-.169h0a.184.184,0,0,1,.169.2h0l-.4,3.894A.191.191,0,0,1,1092.026,866.8Z" transform="translate(-832.156 -602.871)"/><path class="g" d="M1063.235,867.608h-.021a.189.189,0,0,1-.167-.208l.4-3.894a.189.189,0,0,1,.377.038h0l-.4,3.894A.189.189,0,0,1,1063.235,867.608Z" transform="translate(-810.234 -603.487)"/><path class="g" d="M1131.136,819.911h-10.6a.88.88,0,0,1,0-1.761h10.6a.88.88,0,0,1,0,1.761Z" transform="translate(-853.341 -569.082)"/><path class="g" d="M1126.739,839.091h-9.278a.88.88,0,1,1,0-1.761h9.278a.88.88,0,0,1,0,1.761Z" transform="translate(-850.996 -583.686)"/><path class="g" d="M1123.417,861.373h-6.638a.883.883,0,0,1,0-1.763h6.638a.883.883,0,0,1,0,1.763Z" transform="translate(-850.51 -600.65)"/><path class="r" d="M1076.645,834.733v.031a3.3,3.3,0,0,1,0,.513q.083,1.377.162,2.756c.024.406.033.816.1,1.207a1.494,1.494,0,0,1-.325,1.119,2.347,2.347,0,0,1-1.257.792,4.056,4.056,0,0,1-1.407.069,2.1,2.1,0,0,1-.7-.167.716.716,0,0,1-.382-.938.774.774,0,0,1,.076-.136,3.613,3.613,0,0,0,.51-1.393l.081-1.41c.014-.284.029-.568.048-.852a1.8,1.8,0,0,1,.308-1.167,2.52,2.52,0,0,1,.933-.7,2.1,2.1,0,0,1,1.1-.239A.937.937,0,0,1,1076.645,834.733Z" transform="translate(-817.641 -581.315)"/><path class="s" d="M1089.018,842.7h.017a.107.107,0,0,0,.067-.079l-.191-2.443c-.026-.511-.065-2.216-.065-2.216a.071.071,0,0,0-.069-.057.116.116,0,0,0-.067.079l.064,2.216c.024.458.2,2.429.2,2.429C1088.96,842.674,1088.989,842.7,1089.018,842.7Z" transform="translate(-829.775 -584.12)"/><path class="t" d="M1090.779,811.914a1.763,1.763,0,0,1,1.463-.716,1.736,1.736,0,0,1,1.77.954c.119.267.126.582.265.837a12.027,12.027,0,0,1,.716,1.043,1.751,1.751,0,0,1-.153,1.67c-.348.494-.969.771-1.276,1.291a3.041,3.041,0,0,0-.22,1.649,5.869,5.869,0,0,1-2.426,4.533c-.329.239-.8.439-1.043.184a.773.773,0,0,1-.146-.477,6.711,6.711,0,0,1,.377-3.693,6.248,6.248,0,0,1,1-1.386,10.283,10.283,0,0,0,.8-1.093,2.8,2.8,0,0,0,.408-2.562c-.239-.4-.434-.329-.434-.329Z" transform="translate(-830.486 -563.788)"/><path class="u" d="M1070.539,819.77a19.813,19.813,0,0,0-.477,3.063c-.038,1,.339,1.532.818,1.727a3.522,3.522,0,0,0,2.123-.379,1.97,1.97,0,0,0,1.119-.873c.165-.344.422-.816.422-.816l.2-1.081-.651-2.792Z" transform="translate(-815.574 -569.439)"/><path class="t" d="M1076.487,814.407a3.708,3.708,0,0,1,.73,2.36,3.525,3.525,0,0,1-.425,1.67,1.721,1.721,0,0,1-1.174.954.7.7,0,0,1-.787-.587h0c-.045-.355-.064-.954-.346-1.179-.46.174-.842.053-.778-.7a5.617,5.617,0,0,0,.11-1.556c-.15-.143-.46,0-1.575.26s-1.82.26-1.89.055c-.083-.072.456-.744,1.14-1.432a3.894,3.894,0,0,1,2.6-1.09A2.542,2.542,0,0,1,1076.487,814.407Z" transform="translate(-815.791 -565.284)"/><ellipse class="u" cx="1" cy="0.818" rx="1" ry="0.818" transform="translate(258.079 253.25) rotate(-56.22)"/><path class="v" d="M1087.492,831.44a.618.618,0,0,0,.492.3,1.03,1.03,0,0,0,.98-.833.71.71,0,0,0-.6-.926.955.955,0,0,0-.814.439.081.081,0,0,1-.079-.021c-.041-.036,0-.1,0-.1a1.142,1.142,0,0,1,.916-.477.817.817,0,0,1,.716,1.066,1.193,1.193,0,0,1-1.152.954.716.716,0,0,1-.522-.239Z" transform="translate(-828.8 -577.967)"/><path class="v" d="M1072.707,838.644a2.755,2.755,0,0,0,.67-.076,5.153,5.153,0,0,0,1.808-.818,1.171,1.171,0,0,0,.477-.716c0-.033.019-.084-.014-.084s-.055.029-.079.062a1.259,1.259,0,0,1-.446.628,4.968,4.968,0,0,1-1.737.79,2.488,2.488,0,0,1-.993.057.823.823,0,0,1-.477-.2c-.055-.052-.069-.055-.048,0a.771.771,0,0,0,.477.32A2.592,2.592,0,0,0,1072.707,838.644Z" transform="translate(-816.945 -583.396)"/><ellipse class="w" cx="0.441" cy="0.367" rx="0.441" ry="0.367" transform="translate(258.763 252.996) rotate(-52.25)"/><path class="g" d="M1094.053,815.875l.446-.239s.284-.334-.31-1.36c-.546-.94-1.014-.969-1.133-.873l-.446.324A4.618,4.618,0,0,1,1094.053,815.875Z" transform="translate(-832.744 -565.44)"/><path class="s" d="M1075.833,837.067a.114.114,0,0,1-.1-.126.112.112,0,0,1,.1-.1.935.935,0,0,0,.866-.513l.022-.038a.112.112,0,0,1,.153-.036.11.11,0,0,1,.038.15h0l-.019.033a1.159,1.159,0,0,1-1.047.623Z" transform="translate(-819.897 -582.857)"/><path class="x" d="M1073.844,833.243h-.017a.317.317,0,0,1-.317-.313V832.9a.773.773,0,0,1,.258-.453.112.112,0,0,1,.126.181.618.618,0,0,0-.162.281c0,.069.014.1.124.115a.11.11,0,1,1-.014.219Z" transform="translate(-818.202 -579.959)"/><ellipse class="y" cx="0.251" cy="0.212" rx="0.251" ry="0.212" transform="matrix(0.694, -0.72, 0.72, 0.694, 256.357, 252.238)"/><path class="y" d="M1078.329,830.222c.033,0,.141.024.165,0s-.055-.122-.1-.157a.577.577,0,0,0-.324-.086.1.1,0,0,0-.1.079.069.069,0,0,0,.05.083h.014a.715.715,0,0,1,.262.067.048.048,0,0,0,.029.019Z" transform="translate(-821.598 -578.088)"/><path class="y" d="M1078.406,830.268a.086.086,0,0,1-.074-.041.4.4,0,0,0-.3-.093.081.081,0,0,1-.083-.079h0a.086.086,0,0,1,.086-.086h0c.334,0,.434.16.444.177a.086.086,0,0,1-.031.117A.087.087,0,0,1,1078.406,830.268Z" transform="translate(-821.582 -578.082)"/><ellipse class="y" cx="0.251" cy="0.212" rx="0.251" ry="0.212" transform="matrix(0.694, -0.72, 0.72, 0.694, 254.711, 252.004)"/><path class="y" d="M1071.538,829.285a.081.081,0,0,1-.072-.041.4.4,0,0,0-.3-.093.086.086,0,0,1,0-.172h0c.336,0,.434.16.444.177a.086.086,0,0,1-.031.117A.082.082,0,0,1,1071.538,829.285Z" transform="translate(-816.351 -577.328)"/><path class="z" d="M1079.472,827.022a.107.107,0,0,1-.086-.038.755.755,0,0,1-.045-.067c-.062-.1-.146-.239-.556-.258a.11.11,0,0,1-.1-.115h0a.112.112,0,0,1,.117-.1.8.8,0,0,1,.732.36.4.4,0,0,0,.026.043.107.107,0,0,1,0,.155h0A.1.1,0,0,1,1079.472,827.022Z" transform="translate(-822.138 -575.393)"/><path class="z" d="M1072.125,825.959a.112.112,0,0,1-.055-.208.594.594,0,0,1,.477-.081.11.11,0,0,1,.072.044.111.111,0,0,1,.019.082h0a.11.11,0,0,1-.124.093h0a.358.358,0,0,0-.317.053A.1.1,0,0,1,1072.125,825.959Z" transform="translate(-817.064 -574.794)"/><ellipse class="m" cx="0.365" cy="0.31" rx="0.365" ry="0.31" transform="matrix(0.694, -0.72, 0.72, 0.694, 258.561, 256.772)"/><ellipse class="m" cx="0.365" cy="0.31" rx="0.365" ry="0.31" transform="matrix(0.694, -0.72, 0.72, 0.694, 257.716, 257.111)"/><ellipse class="m" cx="0.365" cy="0.31" rx="0.365" ry="0.31" transform="matrix(0.694, -0.72, 0.72, 0.694, 256.919, 257.293)"/><ellipse class="m" cx="0.365" cy="0.31" rx="0.365" ry="0.31" transform="matrix(0.694, -0.72, 0.72, 0.694, 256.052, 257.451)"/><ellipse class="m" cx="0.365" cy="0.31" rx="0.365" ry="0.31" transform="matrix(0.694, -0.72, 0.72, 0.694, 255.282, 257.448)"/><path class="aa" d="M981.971,789.477h5.38l86.461-69.667h-65.568c-12.239,0-14.415,0-17.052,5.891l-10.479,56.392-.4,3.691C980.668,787.807,980.4,788.16,981.971,789.477Z" transform="translate(-747.237 -494.204)"/><circle class="d" cx="6.909" cy="6.909" r="6.909" transform="translate(266.188 259.735)"/><g class="ab" transform="translate(267.571 261.335)"><path class="m" d="M1130.437,880.4h-.222a5.421,5.421,0,1,1,.222,0Zm0-10.111a4.679,4.679,0,1,0,4.676,4.867h0a4.683,4.683,0,0,0-4.488-4.862Z" transform="translate(-1124.905 -869.565)"/></g><g class="ab" transform="translate(266.069 259.715)"><path class="m" d="M1125.646,876.825h-.286a7.029,7.029,0,1,1,7.306-6.742h0a7.036,7.036,0,0,1-7.019,6.742Zm0-13.44a6.4,6.4,0,1,0,.26,0ZM1132.364,870.066Z" transform="translate(-1118.613 -862.773)"/></g><path class="m" d="M1134.783,878.9a.9.9,0,0,1-.673-.3l-3.133-3.534a.9.9,0,0,1,1.346-1.193l2.386,2.7,4.6-6.229a.9.9,0,0,1,1.448,1.069h0l-5.268,7.122a.89.89,0,0,1-.682.365Z" transform="translate(-861.798 -608.544)"/><path class="m" d="M1199.121,1047.51H1164.35l40.741-7.1h34.771Z" transform="translate(-887.369 -738.314)"/><path class="ac" d="M1489.4,929.82h21.11a.406.406,0,0,1,.406.406v20.49a8.739,8.739,0,0,1-8.737,8.737h-4.449a8.737,8.737,0,0,1-8.732-8.737V930.228A.405.405,0,0,1,1489.4,929.82Z" transform="translate(-1134.562 -654.109)"/><ellipse class="ad" cx="10.963" cy="2.064" rx="10.963" ry="2.064" transform="translate(354.433 273.623)"/><path class="ae" d="M1530.665,850.08l-7.143,18.042c-.363.914-1.77,1.071-2.4,1.088-.174,0-.759-.031-.759-.031a1.575,1.575,0,0,1-.666-1.348l7.561-19.1a1.8,1.8,0,0,1,2.326-1.007l.077.031A1.8,1.8,0,0,1,1530.665,850.08Z" transform="translate(-1157.916 -591.504)"/><path class="i" d="M1544.115,847.166l-7.635,19.309c-.155.394-.8.477-1.052.489-.907.067-3.118.067-3.118.067l8.41-21.215a1.811,1.811,0,0,1,2.341-1.014l.052.021A1.811,1.811,0,0,1,1544.115,847.166Z" transform="translate(-1167.539 -589.28)"/><rect class="d" width="3.665" height="22.713" rx="1.832" transform="translate(360.341 254.813)"/><path class="ae" d="M1482.771,850.285l8.868,19.087a.084.084,0,0,1-.041.107,6.618,6.618,0,0,1-1.255.883,2.7,2.7,0,0,1-2.749-1l-8.138-17.536a1.794,1.794,0,0,1,.861-2.386h0l.079-.038a1.8,1.8,0,0,1,2.374.88Z" transform="translate(-1127.166 -592.756)"/><path class="af" d="M1556.461,973.251a1.551,1.551,0,1,1,0-3.1c3.228,0,3.44-.923,3.44-7.349a3.7,3.7,0,0,0-.954-2.911,3.137,3.137,0,0,0-2.209-.551,1.547,1.547,0,1,1-.527-3.049h0a6.156,6.156,0,0,1,4.731,1.231,6.542,6.542,0,0,1,2.066,5.28c0,3.049,0,5.459-.742,7.236C1561.352,972.2,1559.465,973.251,1556.461,973.251Z" transform="translate(-1184.747 -674.211)"/><path class="d" d="M1347.531,1053.823l-31.81-1.193-4.576-1.715a.305.305,0,0,1,0-.575l4.717-1.639,31.811,1.193a1.971,1.971,0,0,1,1.89,2.038h0A1.971,1.971,0,0,1,1347.531,1053.823Z" transform="translate(-998.986 -744.626)"/><rect class="ag" width="48.478" height="21.146" transform="translate(19.059 161.968)"/><rect class="ah" width="73.281" height="49.373" rx="16" transform="translate(141.282 91.633)"/><path class="ah" d="M792.308,323.462l-.014-.067c0-.019,0,0-.014,0l-.014.021-.06.086a2.435,2.435,0,0,0-.119.253c-.083.167-.153.394-.239.6s-.138.439-.21.661l-.1.341-.088.355-.177.716-.146.74c-.11.5-.172,1.007-.253,1.52a41.882,41.882,0,0,0-.351,6.423l.067,1.67.019.42.036.415.074.835.076.842c.024.281.053.563.1.842l.239,1.687c.043.282.074.57.129.849l.16.842.327,1.7c.239,1.126.537,2.25.814,3.4l-.153.081c-.752-.89-1.529-1.785-2.276-2.708l-1.066-1.431-.544-.716c-.186-.239-.346-.489-.52-.735l-1.026-1.491c-.177-.239-.339-.506-.5-.763l-.477-.775-.477-.783-.239-.394-.224-.4-.923-1.625a50.653,50.653,0,0,1-3.044-6.983c-.2-.62-.422-1.238-.6-1.882l-.26-.954-.239-.993-.117-.5-.1-.515c-.062-.348-.141-.682-.188-1.05s-.115-.716-.15-1.112c-.017-.2-.041-.377-.053-.6l-.017-.339v-.47Z" transform="translate(-594.239 -190.902)"/><rect class="ai" width="45.918" height="63.919" transform="translate(20.453 99.705)"/><rect class="aj" width="29.031" height="40.412" transform="translate(28.896 111.457)"/><path class="ak" d="M141.315,335.41c-7.907,0-10.386.582-13.8.761v16.5h27.6V336.1C154.57,336.054,147.246,335.417,141.315,335.41Z" transform="translate(-97.903 -201.516)"/><g class="o" transform="translate(85.982 288.036)"><line class="al" x1="11.101" y2="11.101" transform="translate(6.521 8.761)"/><line class="al" x1="19.86" y2="19.862"/></g><path class="am" d="M1273.756,311.12v15.656H1171.53l8.954-15.656Z" transform="translate(-892.835 -183.021)"/><path class="ad" d="M1302.827,300.18v5.22H1212.32a2.61,2.61,0,0,1,0-5.22Z" transform="translate(-921.906 -174.691)"/><path class="ae" d="M1460.159,293.47H1474.3a.8.8,0,0,1,.8.8h0a.8.8,0,0,1-.8.8h-14.148a.8.8,0,0,1-.8-.8h0a.8.8,0,0,1,.809-.8Z" transform="translate(-1111.986 -169.582)"/><path class="j" d="M1450.346,211.085h9.042c4.023-3.118,6.836-9.794,6.836-14.458a11.357,11.357,0,1,0-22.713,0C1443.51,201.291,1446.323,207.967,1450.346,211.085Z" transform="translate(-1099.925 -87.197)"/><path class="j" d="M1476.948,153.26h0a4.438,4.438,0,0,1,4.438,4.438v10.569a4.438,4.438,0,0,1-4.438,4.438h0a4.438,4.438,0,0,1-4.438-4.438V157.7A4.438,4.438,0,0,1,1476.948,153.26Z" transform="translate(-1122.006 -62.824)"/><path class="j" d="M1464.449,150h9.343a2.219,2.219,0,0,1,2.219,2.219h0a2.219,2.219,0,0,1-2.219,2.219h-9.343a2.219,2.219,0,0,1-2.219-2.219h0A2.219,2.219,0,0,1,1464.449,150Z" transform="translate(-1114.179 -60.342)"/><path class="ae" d="M1246.683,211.61c0,.305-4.39,12.96-6.328,18.536a1.952,1.952,0,0,0,1.847,2.591h7.931Z" transform="translate(-945.159 -107.253)"/><path class="ad" d="M1285.551,172.177h-26.1a2.109,2.109,0,0,1-2.09-1.811l-5.249-36.329a2.114,2.114,0,0,1,1.792-2.386,2.26,2.26,0,0,1,.312-.021h26.1a2.114,2.114,0,0,1,2.09,1.811l5.249,36.332a2.112,2.112,0,0,1-2.09,2.412Zm-24.271-4.223h21.833l-4.633-32.106h-21.833Z" transform="translate(-954.177 -46.355)"/><path class="m" d="M1304.934,191.429h-16.5l-3.314-22.969h16.5Z" transform="translate(-979.324 -74.398)"/><path class="d" d="M1304.246,221.91h-.919a6.4,6.4,0,0,0-6.272,7.327l.415,2.887h16.5l-.673-4.657a6.406,6.406,0,0,0-6.077-5.487C1306.212,221.931,1305.181,221.91,1304.246,221.91Z" transform="translate(-988.361 -115.096)"/><rect class="an" width="3.774" height="5.872" rx="1.887" transform="translate(314.098 103.472)"/><ellipse class="ao" cx="3.958" cy="5.075" rx="3.958" ry="5.075" transform="translate(311.743 97.09)"/><path class="ap" d="M591.97,625.99c.313-5.965-2.193-7.923-5.048-8.553-4.426-.973-9.066,1.789-10.114,7.368-.809,4.354,1.047,11.283,6.11,11.874" transform="translate(-439.867 -416.109)"/><ellipse class="w" cx="4.49" cy="4.058" rx="4.49" ry="4.058" transform="matrix(0.125, -0.992, 0.992, 0.125, 140.624, 214.68)"/><g transform="translate(270.284 228.415)"><path class="aq" d="M1151.1,738.51l-.174.439a.6.6,0,0,1-.354.345l-.439.135a1.691,1.691,0,0,1-.048.3,1.732,1.732,0,0,1-.2.493c-.087.135-.18.261-.273.381s-.186.246-.271.372a1.336,1.336,0,0,0-.192.445.881.881,0,0,0-.024.342,1.757,1.757,0,0,0,.054.318,2.635,2.635,0,0,1,.048.342,1.287,1.287,0,0,1-.042.415,1.948,1.948,0,0,1-.336.685,2.4,2.4,0,0,1-.6.565,3.227,3.227,0,0,1-.841.385,3.676,3.676,0,0,1-1.039.141,3.055,3.055,0,0,1-.808-.093,1.65,1.65,0,0,1-.556-.258.847.847,0,0,1-.3-.385.83.83,0,0,1,0-.484,1.418,1.418,0,0,1,.3-.583,1.8,1.8,0,0,1,.5-.4,2.76,2.76,0,0,1,.628-.249,4.676,4.676,0,0,1,.676-.12,3.906,3.906,0,0,1,.649-.018,3.612,3.612,0,0,1,.541.06,1.936,1.936,0,0,1,.042-.225,1.831,1.831,0,0,1,.261-.547,1.864,1.864,0,0,1-.454.183,2.136,2.136,0,0,1-.6.069,1.405,1.405,0,0,1-.5-.087.9.9,0,0,1-.369-.27.968.968,0,0,1-.192-.454,1.635,1.635,0,0,1,.048-.649,2.332,2.332,0,0,1,.3-.679,2.518,2.518,0,0,1,.556-.6,2.761,2.761,0,0,1,1.733-.574,1.924,1.924,0,0,1,.508.06,1.384,1.384,0,0,1,.414.183Zm-4.391,5.188a1.534,1.534,0,0,0,.405-.054,1.333,1.333,0,0,0,.343-.15,1.112,1.112,0,0,0,.255-.234.827.827,0,0,0,.147-.3v-.105a4.2,4.2,0,0,0-.778-.072,2.11,2.11,0,0,0-.547.066.805.805,0,0,0-.333.162.429.429,0,0,0-.147.222.3.3,0,0,0,.084.348A.9.9,0,0,0,1146.705,743.7Zm1.135-2.938a.629.629,0,0,0,.318-.087,1,1,0,0,0,.264-.225,1.361,1.361,0,0,0,.2-.3,2.026,2.026,0,0,0,.135-.348.631.631,0,0,0,0-.457.345.345,0,0,0-.339-.162.673.673,0,0,0-.3.078.985.985,0,0,0-.261.21,1.349,1.349,0,0,0-.2.3,1.672,1.672,0,0,0-.129.355.7.7,0,0,0,0,.469A.328.328,0,0,0,1147.841,740.76Z" transform="translate(-1144.66 -736.247)"/><path class="aq" d="M1169.2,738.543l-1.757,4.683h-.727c-.336,0-.466-.156-.387-.463l.075-.3a3.349,3.349,0,0,1-.9.628,2.138,2.138,0,0,1-.871.2,1.059,1.059,0,0,1-.513-.117.74.74,0,0,1-.319-.345,1.166,1.166,0,0,1-.09-.562,2.469,2.469,0,0,1,.177-.76l1.105-2.971h1.424l-1.105,2.971a2.083,2.083,0,0,0-.1.322.492.492,0,0,0,0,.21.173.173,0,0,0,.084.111.362.362,0,0,0,.168.033.824.824,0,0,0,.324-.081,1.777,1.777,0,0,0,.361-.237,2.652,2.652,0,0,0,.366-.366,3.139,3.139,0,0,0,.33-.484l.931-2.478Z" transform="translate(-1157.984 -736.451)"/><path class="aq" d="M1184.454,742.216a6.947,6.947,0,0,1-.6.421,3.407,3.407,0,0,1-.567.3,2.915,2.915,0,0,1-.6.171,3.806,3.806,0,0,1-.64.054,1.746,1.746,0,0,1-.739-.144,1.2,1.2,0,0,1-.508-.4,1.3,1.3,0,0,1-.237-.625,2.175,2.175,0,0,1,.066-.811,3.76,3.76,0,0,1,.267-.733,4.519,4.519,0,0,1,.411-.67,4.1,4.1,0,0,1,.535-.58,3.919,3.919,0,0,1,.631-.453,3.294,3.294,0,0,1,.7-.3,2.671,2.671,0,0,1,.754-.105,1.714,1.714,0,0,1,.652.108,1.133,1.133,0,0,1,.427.282.851.851,0,0,1,.207.391.883.883,0,0,1,0,.433,1.661,1.661,0,0,1-.277.6,1.785,1.785,0,0,1-.565.472,3.964,3.964,0,0,1-.949.351,9.783,9.783,0,0,1-1.412.225.9.9,0,0,0,.036.7.619.619,0,0,0,.55.222,1.563,1.563,0,0,0,.333-.033,1.312,1.312,0,0,0,.261-.081,1.907,1.907,0,0,0,.21-.1l.186-.105a1.033,1.033,0,0,1,.177-.081.63.63,0,0,1,.2-.03.2.2,0,0,1,.123.033.3.3,0,0,1,.093.087Zm-.829-2.935a1.087,1.087,0,0,0-.691.276,2.322,2.322,0,0,0-.6.763,7.071,7.071,0,0,0,.751-.147,2.525,2.525,0,0,0,.469-.162.746.746,0,0,0,.252-.189.6.6,0,0,0,.108-.216.254.254,0,0,0-.289-.324Z" transform="translate(-1169.769 -736.309)"/><path class="aq" d="M1198.248,739.369a.8.8,0,0,1-.15.117.318.318,0,0,1-.156.039.381.381,0,0,1-.171-.042l-.168-.093a1.322,1.322,0,0,0-.213-.093.913.913,0,0,0-.3-.039.8.8,0,0,0-.484.12.528.528,0,0,0-.213.3.265.265,0,0,0,.024.207.5.5,0,0,0,.162.153,1.281,1.281,0,0,0,.249.123l.3.126a2.919,2.919,0,0,1,.3.162.822.822,0,0,1,.225.219.726.726,0,0,1,.12.3,1.09,1.09,0,0,1-.03.43,2.092,2.092,0,0,1-.3.667,2.362,2.362,0,0,1-.546.547,2.8,2.8,0,0,1-1.622.508,2.119,2.119,0,0,1-.436-.045,1.9,1.9,0,0,1-.384-.123,1.348,1.348,0,0,1-.3-.183.874.874,0,0,1-.2-.228l.48-.514a.655.655,0,0,1,.183-.141.479.479,0,0,1,.222-.054.3.3,0,0,1,.183.054l.15.117a1.018,1.018,0,0,0,.2.117,1,1,0,0,0,.82-.078.55.55,0,0,0,.225-.3.3.3,0,0,0-.018-.231.465.465,0,0,0-.159-.156,1.944,1.944,0,0,0-.252-.117l-.3-.114a1.939,1.939,0,0,1-.282-.147.8.8,0,0,1-.228-.21.689.689,0,0,1-.12-.3,1.131,1.131,0,0,1,.036-.448,2.115,2.115,0,0,1,.28-.631,2.275,2.275,0,0,1,.5-.544,2.556,2.556,0,0,1,.694-.381,2.521,2.521,0,0,1,.871-.144,1.839,1.839,0,0,1,.811.162,1.4,1.4,0,0,1,.517.4Z" transform="translate(-1179.145 -736.297)"/><path class="aq" d="M1208.993,739.051a.135.135,0,0,1,.018-.078l.039-.129c.018-.054.045-.129.078-.219s.081-.213.135-.364l.727-1.917h-.381a.146.146,0,0,1-.141-.069.206.206,0,0,1,0-.2l.2-.547.757-.144.688-1.145a.406.406,0,0,1,.366-.216h.79l-.52,1.37h1.066l-.36.955h-1.087l-.691,1.838-.111.3-.063.162a.216.216,0,0,1-.024.078v.024a.344.344,0,0,0,0,.219.163.163,0,0,0,.171.087.455.455,0,0,0,.126,0,.512.512,0,0,0,.093-.036l.078-.036a.228.228,0,0,1,.078,0,.1.1,0,0,1,.087.03.244.244,0,0,1,.039.09l.144.664a2.921,2.921,0,0,1-.688.3,2.51,2.51,0,0,1-.682.1,1.436,1.436,0,0,1-.478-.075.812.812,0,0,1-.322-.216.7.7,0,0,1-.162-.342A1.123,1.123,0,0,1,1208.993,739.051Z" transform="translate(-1189.64 -733.29)"/><path class="aq" d="M1222.25,739.369a.807.807,0,0,1-.15.117.3.3,0,0,1-.156.039.357.357,0,0,1-.168-.042c-.054-.027-.111-.057-.171-.093a1.314,1.314,0,0,0-.21-.093.918.918,0,0,0-.3-.039.8.8,0,0,0-.481.12.519.519,0,0,0-.213.3.252.252,0,0,0,.021.207.521.521,0,0,0,.162.153,1.609,1.609,0,0,0,.252.123l.3.126a2.663,2.663,0,0,1,.282.162.825.825,0,0,1,.225.219.731.731,0,0,1,.123.3,1.038,1.038,0,0,1-.033.43,2.1,2.1,0,0,1-.3.667,2.357,2.357,0,0,1-.547.547,2.8,2.8,0,0,1-1.625.508,2.107,2.107,0,0,1-.432-.045,1.912,1.912,0,0,1-.385-.123,1.271,1.271,0,0,1-.3-.183.71.71,0,0,1-.2-.228l.478-.514a.708.708,0,0,1,.186-.141.466.466,0,0,1,.219-.054.3.3,0,0,1,.186.054l.147.117a.917.917,0,0,0,.2.117.988.988,0,0,0,.817-.078.56.56,0,0,0,.228-.3.323.323,0,0,0-.018-.231.5.5,0,0,0-.162-.156,1.9,1.9,0,0,0-.249-.117c-.1-.033-.192-.072-.3-.114a2.3,2.3,0,0,1-.3-.147.843.843,0,0,1-.228-.21.771.771,0,0,1-.12-.3,1.244,1.244,0,0,1,.036-.448,2.21,2.21,0,0,1,.282-.631,2.268,2.268,0,0,1,.5-.544,2.468,2.468,0,0,1,.7-.382,2.526,2.526,0,0,1,.871-.144,1.84,1.84,0,0,1,.811.162,1.455,1.455,0,0,1,.517.4Z" transform="translate(-1195.928 -736.297)"/><path class="aq" d="M1240.4,733.68l-1.748,4.683h-1.406L1239,733.68Zm.6-1.283a.957.957,0,0,1-.153.3,1.325,1.325,0,0,1-.258.258,1.437,1.437,0,0,1-.318.177.9.9,0,0,1-.33.063.642.642,0,0,1-.3-.063.6.6,0,0,1-.213-.177.631.631,0,0,1-.117-.258.72.72,0,0,1,0-.3,1,1,0,0,1,.15-.3,1.059,1.059,0,0,1,.252-.264,1.262,1.262,0,0,1,.3-.177.859.859,0,0,1,.324-.066.736.736,0,0,1,.3.063.615.615,0,0,1,.225.177.653.653,0,0,1,.123.261.7.7,0,0,1,0,.3Z" transform="translate(-1209.438 -731.59)"/><path class="aq" d="M1247.8,739.19a3.3,3.3,0,0,1,.919-.667,2.084,2.084,0,0,1,.9-.213,1.083,1.083,0,0,1,.51.117.727.727,0,0,1,.322.342,1.145,1.145,0,0,1,.09.559,2.466,2.466,0,0,1-.177.76l-1.108,2.977h-1.421l1.108-2.977a2.46,2.46,0,0,0,.1-.321.4.4,0,0,0,0-.207.172.172,0,0,0-.088-.111.345.345,0,0,0-.165-.033.786.786,0,0,0-.349.093,1.954,1.954,0,0,0-.393.27,2.853,2.853,0,0,0-.387.421,3.157,3.157,0,0,0-.34.544l-.847,2.322h-1.421l1.748-4.683h.736a.427.427,0,0,1,.319.1.343.343,0,0,1,.039.33Z" transform="translate(-1214.894 -736.289)"/><path class="aq" d="M1264.445,734.826l-1.307,3.49-.445.787a1.459,1.459,0,0,1-.36.406.868.868,0,0,1-.514.144h-.58l1.8-4.83-.264-.063a.353.353,0,0,1-.186-.114.2.2,0,0,1,0-.225l.21-.55h.6l.1-.267a2.676,2.676,0,0,1,1.709-1.628,2.583,2.583,0,0,1,.8-.126,1.684,1.684,0,0,1,.3.021,1.3,1.3,0,0,1,.258.066l-.3.7a.274.274,0,0,1-.168.153.681.681,0,0,1-.219.036,1.015,1.015,0,0,0-.6.186,1.345,1.345,0,0,0-.427.646l-.084.222h.964l-.37.955Z" transform="translate(-1226.221 -731.77)"/><path class="aq" d="M1274.561,743.129a1.884,1.884,0,0,1-.715-.132,1.2,1.2,0,0,1-.5-.382,1.336,1.336,0,0,1-.243-.619,2.239,2.239,0,0,1,.069-.847,3.733,3.733,0,0,1,.493-1.138,4.091,4.091,0,0,1,.787-.9,3.6,3.6,0,0,1,.97-.6,2.7,2.7,0,0,1,1.033-.21,1.806,1.806,0,0,1,.709.129,1.24,1.24,0,0,1,.5.382,1.374,1.374,0,0,1,.246.619,2.179,2.179,0,0,1-.069.847,3.744,3.744,0,0,1-.493,1.135,4.278,4.278,0,0,1-.79.9,3.688,3.688,0,0,1-.97.6A2.676,2.676,0,0,1,1274.561,743.129Zm.391-1.039a.871.871,0,0,0,.463-.141,1.649,1.649,0,0,0,.415-.391,2.861,2.861,0,0,0,.348-.574,3.83,3.83,0,0,0,.246-.7,1.372,1.372,0,0,0,.045-.73.385.385,0,0,0-.4-.219.851.851,0,0,0-.463.144,1.7,1.7,0,0,0-.418.385,3.017,3.017,0,0,0-.345.574,3.893,3.893,0,0,0-.246.7,1.363,1.363,0,0,0-.045.727.379.379,0,0,0,.406.222Z" transform="translate(-1234.508 -736.281)"/></g><g class="ar" transform="translate(-1.07 128.099)"><g class="o" transform="translate(18.093 122.115)"><g class="o"><path class="m" d="M75.837,838.363a1.074,1.074,0,0,1-.759-1.832l13.239-13.239a1.074,1.074,0,1,1,1.57,1.465l-.053.052L76.6,838.048A1.066,1.066,0,0,1,75.837,838.363Z" transform="translate(-74.764 -822.95)"/></g><g class="o" transform="translate(7.778 0.026)"><path class="m" d="M108.437,838.446a1.074,1.074,0,0,1-.759-1.832l13.239-13.239a1.074,1.074,0,1,1,1.52,1.517l-13.251,13.239a1.064,1.064,0,0,1-.749.315Z" transform="translate(-107.364 -823.059)"/></g></g><path class="as" d="M245.642,851.078c-6.549-12.624-25.447-20.735-37.05-9.379-11.8,11.552-10.176,35.578-5.922,49.972,1.794,6.07,5.177,11.784,11.347,14.127,5.373,2.042,11.629,1.193,16.646-1.432,5.685-2.98,9.854-8.322,12.717-13.948a54.4,54.4,0,0,0,5.75-19.822A35.769,35.769,0,0,0,245.642,851.078Z" transform="translate(-151.647 -710.983)"/><path class="at" d="M314.06,891.068a57.961,57.961,0,0,0-9.3-29.377c-9.066-13.969-23.725-23.859-39.667-28.695s-33.106-4.829-49.459-1.682c-5.549,1.067-11.12,2.527-15.966,5.435-7.68,4.612-11.273,12.814-13.1,21.265-.084.384-.162.771-.239,1.155-1.7,8.453-2.131,17.219-3.977,25.586a55.141,55.141,0,0,1-2.8,9.164c-1.634,3.972-3.846,7.718-5.7,11.593a40.032,40.032,0,0,0-2.729,7.179c-2.147,8.319.449,14.387,7.53,18.089,5.807,3.037,10.522,7.7,15.837,11.574a44.764,44.764,0,0,0,5.487,3.471,85.345,85.345,0,0,0,57.585,7.58,79.522,79.522,0,0,0,12.464-3.858c0-.432,12.626-6.442,13.938-7.322,3.483-2.321,7.3-4.516,10.655-6.971,7.494-5.487,13.63-17.178,16.67-25.767a50.205,50.205,0,0,0,2.77-18.419Z" transform="translate(-129.483 -705.539)"/><path class="g" d="M350.127,1116.546c-20.573,6.831-40.841,10.29-60.3,10.29h-.1a152.08,152.08,0,0,1-48.247-7.663,136.635,136.635,0,0,1-21.012-9.007c1.847-8.367,2.281-17.133,3.977-25.586a109.5,109.5,0,0,0,25.867,12.13c28.547,9.193,60.185,7.959,94.069-3.653a62.549,62.549,0,0,1,5.714,22.859Q350.117,1116.238,350.127,1116.546Z" transform="translate(-167.614 -900.044)"/><path class="u" d="M533.221,511.2c-.928-4.772-3.3-9.446-7.351-12.118s-9.3-3.009-14.015-1.83c-10.672,2.674-24.875,13.177-25.917,25.14a13.235,13.235,0,0,0,2.455,9.481,27,27,0,0,0,30.718,30.424,21.106,21.106,0,0,0,3.86-.823,9.358,9.358,0,0,0,4.337-3.846c1.405-2.772,1.835-5.9,2.863-8.8a52.118,52.118,0,0,0,3.555-17.126c.05-1.3-.112-4.118-.072-5.487C533.82,521.327,534.118,515.816,533.221,511.2Z" transform="translate(-369.693 -452.35)"/><path class="u" d="M455.29,726.138a21.749,21.749,0,0,0-1.3-4.815c-3.567-11.8-5.025-28.37-3.481-40.59.3-2.355.768-4.862.329-7.232-.477-2.605-2.066-2.2-4.44-2.338l-3.817-.22-12.55-.716c-5.01-.289-11.292,2.667-14.971,7.029a18.954,18.954,0,0,0-3.34,7.456c-2.011,7.434-2.51,15-4.085,22.468-.265,1.245-.534,2.431-.854,3.579a26.447,26.447,0,0,1-1.713,4.6c-.239.491-.477.983-.689,1.47-1.7,3.817-2.5,7.532.477,11.3a18.74,18.74,0,0,0,12.922,7.382,65.9,65.9,0,0,0,9.066.666,66.563,66.563,0,0,0,21.919-3.579,11.953,11.953,0,0,0,5.337-3.059A4.559,4.559,0,0,0,455.29,726.138Z" transform="translate(-306.491 -584.536)"/><path class="au" d="M449.935,715.4c-.761-3.471-.606-7.346-.716-10.894-.239-7.7-.181-15.508-2-23.052a29.525,29.525,0,0,0-4.648-10.51l-12.55-.716c-5.01-.289-11.292,2.667-14.971,7.029a18.955,18.955,0,0,0-3.34,7.456c-2.011,7.434-2.51,15-4.085,22.468-.265,1.245-.534,2.431-.854,3.579q-.239,1.508-.575,3a6.784,6.784,0,0,1-1.828,3.075c-1.7,3.817-2.5,7.532.477,11.3a18.74,18.74,0,0,0,12.922,7.382,65.894,65.894,0,0,0,9.066.666,66.613,66.613,0,0,0,14.632-1.856,14.542,14.542,0,0,0,5.664-2.35,11.042,11.042,0,0,0,3.791-7.372C451.357,721.273,450.623,718.544,449.935,715.4Z" transform="translate(-306.484 -584.536)"/><path class="t" d="M437.567,436.591c.63-12.676-13.361-20.914-24.071-24.6-16.3-5.6-43.093-.029-51.7,15.489-6.494,11.707-.83,21.628.456,34.941.737,7.651,2.338,20.669,7.623,27.258,5.139,6.408,15.856,5.595,23.381,5.01,9.675-.759,19.511-6.423,22.6-15.622.9-2.7,1.233-5.633,2.729-8.052,3.173-5.13,7.382-1.047,11.526-3.323,3.1-1.708,3.626-5.965,3.128-9.484s-1.412-9.858.019-11.886c1.866-2.643,3.223-4.042,4-7.472a13.157,13.157,0,0,0,.313-2.262Z" transform="translate(-272.891 -386.309)"/><path class="g" d="M422.887,417.54c-3.593-3.083-9.345-5.072-13.938-3.817a1.327,1.327,0,0,0-.816.637,6.9,6.9,0,0,0-.766.055.514.514,0,0,0-.053.983c.239.06.477.119.716.184a1.193,1.193,0,0,0,1.47.828l.041-.012c.22-.06.441-.11.661-.158a15.093,15.093,0,0,1,5.85,3.548,13.93,13.93,0,0,1,4.166,8.828c.5,7.635-6.337,15.632-14.289,12.242-2.1-.9-4.407-2.524-6.418-1.432-1.431.768-3.207,3.655-2.686,5.192a7.611,7.611,0,0,0,3.171,3.865c7.661,4.559,16.362,2.2,21.318-.659C431.672,441.826,432.643,425.917,422.887,417.54Z" transform="translate(-301.822 -388.953)"/><ellipse class="u" cx="9.648" cy="7.401" rx="9.648" ry="7.401" transform="matrix(0.294, -0.956, 0.956, 0.294, 135.641, 89.675)"/><circle class="m" cx="3.796" cy="3.796" r="3.796" transform="translate(141.817 136.397)"/><circle class="m" cx="3.796" cy="3.796" r="3.796" transform="translate(132.727 140.006)"/><circle class="m" cx="3.796" cy="3.796" r="3.796" transform="translate(123.947 141.86)"/><circle class="m" cx="3.796" cy="3.796" r="3.796" transform="translate(114.37 142.161)"/><circle class="m" cx="3.796" cy="3.796" r="3.796" transform="translate(104.87 140.703)"/><circle class="m" cx="3.796" cy="3.796" r="3.796" transform="translate(95.851 137.487)"/><rect class="av" width="8.086" height="6.401" rx="3.201" transform="translate(182.129 77.228)"/><rect class="av" width="8.086" height="6.401" rx="3.201" transform="translate(182.129 69.774)"/><rect class="av" width="8.086" height="6.401" rx="3.201" transform="translate(182.427 61.536)"/><path class="aw" d="M786.776,620.253l-1.3-6.16-1.193-12.428c-.344-3.135,7.473-32.665,7.473-32.665l14.019,6.26,3.543,20.356L804.5,610.33Z" transform="translate(-596.903 -507.474)"/><path class="ax" d="M805.366,717.185s-14.725,1.369-17.278-1.023c-3.068-2.882-1.591-9.2-1.591-9.2s18.094-1.107,20.91,3.376C808.355,711.852,805.366,717.185,805.366,717.185Z" transform="translate(-598.324 -612.429)"/><path class="ad" d="M782.956,552.784l-21.694-2.737a3.126,3.126,0,0,1-2.713-3.5h0l5.965-47.882a2.386,2.386,0,0,1,2.658-2.064l23.2,2.93a2.386,2.386,0,0,1,2.061,2.66l-5.965,47.882a3.13,3.13,0,0,1-3.493,2.713Z" transform="translate(-577.295 -452.335)"/><circle class="g" cx="0.468" cy="0.468" r="0.468" transform="translate(200.915 46.264)"/><rect class="ay" width="49.716" height="25.665" rx="1" transform="matrix(0.125, -0.992, 0.992, 0.125, 182.369, 95.156)"/><g class="ab" transform="translate(197.222 67.701)"><path class="m" d="M831.43,606.6a5.86,5.86,0,1,1,5.8-5.127h0A5.864,5.864,0,0,1,831.43,606.6Zm0-10.9a5.058,5.058,0,1,0,.635.041,4.814,4.814,0,0,0-.642-.05ZM836.839,601.424Z" transform="translate(-825.562 -594.88)"/></g><g class="ab" transform="translate(195.508 65.976)"><path class="m" d="M825.961,602.8a7.577,7.577,0,1,1,7.513-6.628h0A7.587,7.587,0,0,1,825.961,602.8Zm0-14.492a6.919,6.919,0,1,0,6.855,7.771h0a6.919,6.919,0,0,0-5.993-7.725,7.074,7.074,0,0,0-.871-.045Z" transform="translate(-818.379 -587.65)"/></g><path class="m" d="M817.629,582.145h-.038a.971.971,0,0,1-.74-.389l-3.04-4.085a.972.972,0,0,1,1.505-1.229l.05.069,2.326,3.125,5.521-6.268a.969.969,0,1,1,1.455,1.281l-6.313,7.158a.954.954,0,0,1-.728.336Z" transform="translate(-619.226 -510.551)"/><g class="az" transform="translate(182.382 45.83)"><path class="r" d="M819.813,586.193l.021.076a11.064,11.064,0,0,1,.064,1.193l.639,6.5a28.161,28.161,0,0,0,.339,2.863,3.1,3.1,0,0,1-.656,2.517,4.473,4.473,0,0,1-2.863,1.494,9.3,9.3,0,0,1-3.285-.239,5.55,5.55,0,0,1-1.67-.589,1.861,1.861,0,0,1-.816-2.608,7.277,7.277,0,0,0,1.062-3.118l.057-3.278c0-.659.017-1.319.036-1.978a3.818,3.818,0,0,1,.611-2.648,5.272,5.272,0,0,1,4.672-1.589A2.549,2.549,0,0,1,819.813,586.193Z" transform="translate(-799.883 -565.274)"/><path class="s" d="M847.7,605.807h.038a.212.212,0,0,0,.15-.165l-.675-5.783c-.112-1.193-.36-5.208-.36-5.208a.16.16,0,0,0-.317.014l.36,5.215c.1,1.078.682,5.745.682,5.745a.14.14,0,0,0,.093.177Z" transform="translate(-826.695 -572.732)"/><path class="t" d="M851.92,536.352a3.443,3.443,0,0,1,3.354-1.267,4.848,4.848,0,0,1,4.233,2.741c.305.656.351,1.4.7,2.035.515.94,1.329,1.641,1.768,2.651a3.975,3.975,0,0,1-.2,3.86c-.794,1.09-2.2,1.529-2.863,2.653s-.41,2.507-.36,3.8a11.354,11.354,0,0,1-5.249,9.9c-.749.463-1.84.792-2.422.131a2.076,2.076,0,0,1-.387-1.138c-.377-2.863-.728-5.931.537-8.536a11.708,11.708,0,0,1,2.219-2.961,18.124,18.124,0,0,0,1.782-2.329,6.291,6.291,0,0,0,.716-5.886c-.6-1.007-1.05-.892-1.05-.892Z" transform="translate(-829.441 -527.456)"/><path class="u" d="M803.617,550.4a43.252,43.252,0,0,0-.809,7.041c0,2.343.935,3.684,2.076,4.28s3.321.212,4.932-.277a3.684,3.684,0,0,0,2.541-1.727c.334-.773.909-1.787.909-1.787l.37-2.472-1.787-6.731Z" transform="translate(-793.398 -537.87)"/><path class="t" d="M816.384,539.034a10.022,10.022,0,0,1,1.923,5.74,7.4,7.4,0,0,1-.835,3.805,3.162,3.162,0,0,1-2.658,1.87,1.987,1.987,0,0,1-1.909-1.62c-.141-.845-.239-2.236-.916-2.863-1.066.274-1.971-.124-1.887-1.866.083-1.978.367-3.34.107-3.612-.36-.379-1.074-.117-3.66.155s-4.235.091-4.419-.41c-.2-.193,1-1.615,2.539-3.016a7.841,7.841,0,0,1,5.991-1.8C812.667,535.627,814.426,536.259,816.384,539.034Z" transform="translate(-792.866 -527.685)"/><ellipse class="u" cx="2.19" cy="2.038" rx="2.19" ry="2.038" transform="matrix(0.178, -0.984, 0.984, 0.178, 18.263, 21.576)"/><path class="v" d="M843.382,579.765a1.76,1.76,0,0,0,1.176.84,2.044,2.044,0,0,0,.728-4.01,1.909,1.909,0,0,0-1.863.794.2.2,0,0,1-.181-.072.239.239,0,0,1-.036-.239,2.25,2.25,0,0,1,2.1-.83,2.285,2.285,0,0,1,1.775,2.7h0a2.319,2.319,0,0,1-2.624,1.909,2.023,2.023,0,0,1-1.241-.694Z" transform="translate(-824.143 -558.803)"/><path class="v" d="M809.493,595.02a6.326,6.326,0,0,0,1.56,0,10.142,10.142,0,0,0,4.159-1.4,2.255,2.255,0,0,0,1.059-1.527c.007-.038.033-.189-.041-.2s-.129.057-.179.124a2.42,2.42,0,0,1-.988,1.346,9.932,9.932,0,0,1-3.992,1.346,5.845,5.845,0,0,1-2.317-.146,2.371,2.371,0,0,1-1.143-.608c-.131-.141-.167-.148-.112-.021a2.292,2.292,0,0,0,1.169.888A6.864,6.864,0,0,0,809.493,595.02Z" transform="translate(-796.952 -570.734)"/><ellipse class="w" cx="0.961" cy="0.923" rx="0.961" ry="0.923" transform="matrix(0.178, -0.984, 0.984, 0.178, 19.593, 20.566)"/><path class="g" d="M857.041,544.81l1.016-.441s.637-.7-.849-3.278c-1.37-2.357-2.467-2.555-2.734-2.369l-1.014.635s2.913,2.677,3.579,5.454Z" transform="translate(-831.964 -530.209)"/><path class="s" d="M816.7,589.729q-.157,0-.329-.014a.262.262,0,0,1,.045-.522,1.766,1.766,0,0,0,1.94-.926c.017-.031.033-.057.048-.081a.261.261,0,1,1,.444.274h0l-.041.072A2.225,2.225,0,0,1,816.7,589.729Z" transform="translate(-803.548 -567.818)"/><path class="x" d="M811.457,579.486h-.064a.84.84,0,0,1-.732-.854,1.541,1.541,0,0,1,.592-1.028.26.26,0,0,1,.341.138h0a.265.265,0,0,1-.076.308,1.131,1.131,0,0,0-.334.582c0,.193.088.284.339.346a.262.262,0,0,1-.064.515Z" transform="translate(-799.376 -559.839)"/><circle class="y" cx="0.539" cy="0.539" r="0.539" transform="translate(13.885 16.863)"/><path class="y" d="M821.471,573.412c.074.014.334.1.384.031.06-.107-.141-.3-.239-.4a1.546,1.546,0,0,0-.766-.3.193.193,0,0,0-.1.375h.026a1.767,1.767,0,0,1,.623.239.117.117,0,0,0,.069.053Z" transform="translate(-806.952 -556.155)"/><path class="y" d="M821.658,573.54a.208.208,0,0,1-.174-.1,1.14,1.14,0,0,0-.735-.325.2.2,0,0,1-.174-.224v-.014a.2.2,0,0,1,.224-.174h.014a1.338,1.338,0,0,1,1.026.518.2.2,0,0,1-.074.274.2.2,0,0,1-.107.043Z" transform="translate(-806.924 -556.124)"/><circle class="y" cx="0.539" cy="0.539" r="0.539" transform="translate(10.008 15.849)"/><path class="y" d="M805.47,569.338a.2.2,0,0,1-.172-.1c0-.012-.179-.239-.735-.322a.2.2,0,0,1-.174-.239h0a.2.2,0,0,1,.224-.174h.014a1.337,1.337,0,0,1,1.026.518.2.2,0,0,1-.069.272h0A.2.2,0,0,1,805.47,569.338Z" transform="translate(-794.599 -552.926)"/><path class="z" d="M823.833,566.327a.263.263,0,0,1-.205-.1c-.038-.053-.074-.107-.107-.162-.16-.258-.377-.608-1.358-.787a.263.263,0,0,1,.057-.523h.036a2.1,2.1,0,0,1,1.708,1.028c.024.038.048.076.074.112a.262.262,0,0,1-.043.367.256.256,0,0,1-.162.057Z" transform="translate(-807.956 -550.07)"/><path class="z" d="M806.653,562.005a.262.262,0,0,1-.239-.291.258.258,0,0,1,.138-.2,1.307,1.307,0,0,1,1.093-.06.262.262,0,0,1-.1.515H807.5a.813.813,0,0,0-.716.031A.274.274,0,0,1,806.653,562.005Z" transform="translate(-796.142 -547.49)"/><circle class="m" cx="0.785" cy="0.785" r="0.785" transform="translate(19.563 27.888)"/><circle class="m" cx="0.785" cy="0.785" r="0.785" transform="translate(17.616 28.439)"/><circle class="m" cx="0.785" cy="0.785" r="0.785" transform="translate(15.769 28.637)"/><circle class="m" cx="0.785" cy="0.785" r="0.785" transform="translate(13.758 28.756)"/><circle class="m" cx="0.785" cy="0.785" r="0.785" transform="translate(11.957 28.537)"/><rect class="m" width="18.247" height="25.276" rx="5.74" transform="translate(0.973 43.89) rotate(-83)"/><path class="g" d="M835.51,637.354h-.086l-8.136-1a.682.682,0,0,1,.1-1.36.314.314,0,0,1,.067,0l8.131,1a.682.682,0,0,1-.081,1.358Z" transform="translate(-811.576 -603.552)"/><path class="g" d="M832.858,651.7h-.083l-7.124-.876a.682.682,0,0,1,.165-1.353l7.124.871a.682.682,0,0,1-.081,1.358Z" transform="translate(-810.361 -614.578)"/><path class="g" d="M830.748,668.489h-.083l-5.1-.625a.682.682,0,0,1,.1-1.36.317.317,0,0,1,.067,0l5.1.625a.682.682,0,0,1-.084,1.358Z" transform="translate(-810.267 -627.544)"/><path class="p" d="M785.668,660.841a2.233,2.233,0,0,1-.036.253,1.744,1.744,0,0,1-.141.477.573.573,0,0,1-.465.384,3.162,3.162,0,0,1-.67-.072l-1.064-.131-2.939-.358-4.893-.608s-.169-.017-.169-.021l.1-.93.048-.434a4.5,4.5,0,0,1,.367-1.365,2.522,2.522,0,0,1,.911-1.148,5.246,5.246,0,0,1,1.515-.773,7.23,7.23,0,0,1,2.756-.286,6.16,6.16,0,0,1,2.756.807,3.191,3.191,0,0,1,1.217,1.193,6.213,6.213,0,0,1,.668,1.432v.041A5.06,5.06,0,0,1,785.668,660.841Z" transform="translate(-772.445 -619.394)"/><path class="r" d="M794.712,644.205v.024a3.669,3.669,0,0,1,.021.4q.107,1.066.21,2.133c.021.315.06.627.112.938a1.026,1.026,0,0,1-.215.828,1.455,1.455,0,0,1-.942.477,3.041,3.041,0,0,1-1.078-.079,1.765,1.765,0,0,1-.544-.193.608.608,0,0,1-.291-.809c0-.017.017-.031.024-.045a2.444,2.444,0,0,0,.348-1.023l.019-1.076v-.649a1.194,1.194,0,0,1,.2-.868,1.725,1.725,0,0,1,1.527-.525A.835.835,0,0,1,794.712,644.205Z" transform="translate(-785.113 -610.191)"/><circle class="m" cx="0.258" cy="0.258" r="0.258" transform="translate(9.478 37.097)"/><circle class="m" cx="0.258" cy="0.258" r="0.258" transform="translate(8.943 37.417)"/><circle class="m" cx="0.258" cy="0.258" r="0.258" transform="translate(8.261 37.644)"/><circle class="m" cx="0.258" cy="0.258" r="0.258" transform="translate(7.574 37.605)"/><circle class="m" cx="0.258" cy="0.258" r="0.258" transform="translate(6.982 37.31)"/><path class="s" d="M803.824,650.652h0a.069.069,0,0,0,.05-.055l-.222-1.9c-.036-.394-.119-1.711-.119-1.711a.074.074,0,0,0-.052-.05.069.069,0,0,0-.05.055l.117,1.711c.031.353.224,1.885.224,1.885a.048.048,0,0,0,.031.06Z" transform="translate(-793.871 -612.648)"/><path class="t" d="M805.242,627.852a1.128,1.128,0,0,1,1.1-.415,1.6,1.6,0,0,1,1.391.9,6.4,6.4,0,0,0,.239.668c.169.308.437.539.582.868a1.3,1.3,0,0,1-.067,1.267c-.253.348-.716.5-.94.871a2.18,2.18,0,0,0-.119,1.248,3.722,3.722,0,0,1-1.732,3.247c-.238.153-.6.26-.794.043a.677.677,0,0,1-.126-.372,4.924,4.924,0,0,1,.177-2.8,3.774,3.774,0,0,1,.716-.973,6.049,6.049,0,0,0,.585-.763,2.076,2.076,0,0,0,.239-1.93c-.2-.332-.344-.293-.344-.293Z" transform="translate(-794.807 -597.784)"/><path class="u" d="M789.395,632.489a14.168,14.168,0,0,0-.265,2.309,1.458,1.458,0,0,0,.68,1.405,2.583,2.583,0,0,0,1.62-.091,1.241,1.241,0,0,0,.833-.565c.117-.248.3-.587.3-.587l.122-.811-.587-2.209Z" transform="translate(-782.983 -601.227)"/><path class="t" d="M793.615,628.757a3.281,3.281,0,0,1,.632,1.882,2.44,2.44,0,0,1-.274,1.248,1.028,1.028,0,0,1-.871.616.651.651,0,0,1-.625-.532,1.716,1.716,0,0,0-.3-.938c-.348.091-.647-.041-.618-.613a4.344,4.344,0,0,0,.033-1.193c-.086-.1-.351-.038-1.193.052s-1.391.031-1.451-.134c-.064-.064.327-.532.835-.99a2.574,2.574,0,0,1,1.964-.592A2.4,2.4,0,0,1,793.615,628.757Z" transform="translate(-782.839 -597.882)"/><ellipse class="u" cx="0.718" cy="0.668" rx="0.718" ry="0.668" transform="matrix(0.178, -0.984, 0.984, 0.178, 9.058, 34.236)"/><path class="v" d="M802.437,642.129a.573.573,0,0,0,.386.274.67.67,0,0,0,.239-1.315.62.62,0,0,0-.611.26.072.072,0,0,1-.06-.024.074.074,0,0,1-.012-.079.742.742,0,0,1,.689-.272.771.771,0,0,1-.274,1.513.666.666,0,0,1-.408-.239Z" transform="translate(-793.066 -608.1)"/><path class="v" d="M791.359,647.134a2.049,2.049,0,0,0,.513,0,3.309,3.309,0,0,0,1.365-.458.735.735,0,0,0,.346-.5v-.067a.154.154,0,0,0-.06.041.792.792,0,0,1-.322.441,3.3,3.3,0,0,1-1.312.441,1.894,1.894,0,0,1-.759-.048.786.786,0,0,1-.374-.2c-.043-.048-.055-.048-.038,0a.763.763,0,0,0,.384.291A2.513,2.513,0,0,0,791.359,647.134Z" transform="translate(-784.185 -612.017)"/><ellipse class="w" cx="0.315" cy="0.303" rx="0.315" ry="0.303" transform="matrix(0.178, -0.984, 0.984, 0.178, 9.492, 33.905)"/><path class="g" d="M806.924,630.656l.334-.146s.21-.239-.279-1.076c-.449-.773-.809-.837-.9-.778l-.332.21A4.435,4.435,0,0,1,806.924,630.656Z" transform="translate(-795.637 -598.714)"/><path class="s" d="M793.675,645.411h-.107a.086.086,0,0,1,.014-.172h0a.573.573,0,0,0,.635-.3l.017-.026a.088.088,0,0,1,.119-.029.086.086,0,0,1,.026.119h0l-.012.021A.716.716,0,0,1,793.675,645.411Z" transform="translate(-786.301 -611.072)"/><path class="x" d="M791.95,642h-.021a.274.274,0,0,1-.239-.281.5.5,0,0,1,.193-.336.083.083,0,0,1,.11.041h0a.081.081,0,0,1-.026.1.4.4,0,0,0-.107.191c0,.064.029.093.11.115a.088.088,0,0,1,.064.1.086.086,0,0,1-.086.067Z" transform="translate(-784.931 -608.414)"/><circle class="y" cx="0.177" cy="0.177" r="0.177" transform="translate(7.612 32.681)"/><path class="y" d="M795.262,640.014c.026,0,.11.033.126,0s-.045-.1-.079-.129a.507.507,0,0,0-.25-.1.064.064,0,0,0-.074.052.06.06,0,0,0,.045.072h0a.575.575,0,0,1,.205.076.038.038,0,0,0,.022.017Z" transform="translate(-787.44 -607.202)"/><path class="y" d="M795.289,640.132a.067.067,0,0,1-.057-.031.346.346,0,0,0-.239-.107.067.067,0,1,1,.017-.131h0a.451.451,0,0,1,.336.169.067.067,0,0,1-.057.1Z" transform="translate(-787.396 -607.258)"/><circle class="y" cx="0.177" cy="0.177" r="0.177" transform="translate(6.341 32.347)"/><path class="y" d="M789.982,638.7a.067.067,0,0,1-.057-.031.346.346,0,0,0-.239-.107.067.067,0,0,1-.067-.067.064.064,0,0,1,.064-.067h.026a.461.461,0,0,1,.339.169.071.071,0,0,1-.067.1Z" transform="translate(-783.356 -606.169)"/><path class="z" d="M796.023,637.719a.081.081,0,0,1-.067-.031l-.036-.055c-.052-.084-.124-.2-.446-.258a.086.086,0,0,1-.069-.1h0a.088.088,0,0,1,.1-.069.694.694,0,0,1,.561.339l.024.036a.086.086,0,0,1-.014.122h0A.081.081,0,0,1,796.023,637.719Z" transform="translate(-787.76 -605.237)"/><path class="z" d="M790.366,636.32a.1.1,0,0,1-.079-.05.086.086,0,0,1,.043-.112.427.427,0,0,1,.358-.021.086.086,0,0,1,.06.1.081.081,0,0,1-.1.06h0a.272.272,0,0,0-.239.012Z" transform="translate(-783.859 -604.4)"/><path class="q" d="M785.988,667.976a2.206,2.206,0,0,1-.036.253l-10.242-1.26.048-.434a4.5,4.5,0,0,1,.367-1.365l9.823,1.21v.041A5.077,5.077,0,0,1,785.988,667.976Z" transform="translate(-772.764 -626.529)"/><path class="g" d="M807.315,669.667h0a.146.146,0,0,1-.136-.155h0l.2-2.946a.146.146,0,0,1,.155-.136h0a.148.148,0,0,1,.138.155l-.191,2.954a.146.146,0,0,1-.153.138Z" transform="translate(-796.725 -627.488)"/><path class="g" d="M785.228,667.581h0a.15.15,0,0,1-.138-.157l.188-2.954a.148.148,0,0,1,.294.019l-.189,2.954a.145.145,0,0,1-.153.138Z" transform="translate(-779.906 -625.903)"/><path class="d" d="M785.54,627.39h-.029a.215.215,0,0,1-.186-.239l.2-1.6a1.093,1.093,0,0,1,1.212-.954l1.341.165a.215.215,0,1,1-.053.427l-1.341-.165a.658.658,0,0,0-.732.573l-.2,1.6A.217.217,0,0,1,785.54,627.39Z" transform="translate(-780.084 -595.63)"/><path class="d" d="M785.358,644.233h-.019l-.5-.06a1.088,1.088,0,0,1-.954-1.207h0l.126-1.026a.212.212,0,0,1,.239-.186h0a.217.217,0,0,1,.188.239l-.126,1.026a.658.658,0,0,0,.57.732l.5.06a.215.215,0,0,1,.189.239h0A.217.217,0,0,1,785.358,644.233Z" transform="translate(-778.984 -608.699)"/><path class="d" d="M802.925,646.607h-.134l-.954-.117a.215.215,0,1,1,.052-.427l.954.119a.67.67,0,0,0,.477-.136.654.654,0,0,0,.239-.437l.148-1.193a.215.215,0,0,1,.427.052l-.148,1.193a1.091,1.091,0,0,1-1.078.954Z" transform="translate(-792.514 -610.584)"/><path class="d" d="M806.261,629.277h-.026a.215.215,0,0,1-.188-.239h0l.167-1.362a.658.658,0,0,0-.57-.732l-1.021-.124a.215.215,0,1,1,.05-.425l1.021.124a1.088,1.088,0,0,1,.954,1.207h0l-.167,1.362A.212.212,0,0,1,806.261,629.277Z" transform="translate(-794.619 -597.002)"/><circle class="d" cx="5.354" cy="5.354" r="5.354" transform="translate(14.507 31.674)"/><path class="m" d="M836.261,649.547h-.029a.716.716,0,0,1-.532-.281l-2.176-2.935a.7.7,0,1,1,1.1-.861l.021.029,1.67,2.245,3.963-4.495a.7.7,0,0,1,1.045.923l-4.533,5.149A.694.694,0,0,1,836.261,649.547Z" transform="translate(-816.672 -609.658)"/><path class="m" d="M798.943,614.762h-.083L773.849,611.6a.644.644,0,1,1,.16-1.279h0l25.013,3.154a.644.644,0,0,1-.079,1.284Z" transform="translate(-770.917 -584.765)"/><path class="ad" d="M781.362,685.9l-2.128,3.235-.7-.088-.413-3.555.62.079a.238.238,0,0,1,.153.067.188.188,0,0,1,.057.129l.122,1.947c0,.079.019.165.024.26s0,.191,0,.294c.048-.1.1-.186.143-.274a2.188,2.188,0,0,1,.15-.239l1.043-1.8a.275.275,0,0,1,.05-.055.328.328,0,0,1,.069-.048.34.34,0,0,1,.083-.026.305.305,0,0,1,.093,0Z" transform="translate(-774.6 -642.001)"/><path class="ad" d="M790.718,688.025l-.207.821.976.124-.148.563-.978-.126-.215.842,1.286.162-.15.584-2.061-.26.861-3.4,2.057.26-.153.585Z" transform="translate(-783.051 -643.41)"/><path class="ad" d="M801.837,688.867a1.857,1.857,0,0,1,.532.136,1,1,0,0,1,.341.239.669.669,0,0,1,.172.308.919.919,0,0,1,.021.36,1.214,1.214,0,0,1-.1.353,1.123,1.123,0,0,1-.456.52,1.373,1.373,0,0,1-.341.141.768.768,0,0,1,.117.115.525.525,0,0,1,.081.153l.348,1.279-.685-.081a.311.311,0,0,1-.157-.06.24.24,0,0,1-.081-.119l-.239-1.066a.226.226,0,0,0-.06-.1.239.239,0,0,0-.124-.045l-.172-.021-.322,1.269-.766-.1.857-3.4Zm-.4,1.613a.736.736,0,0,0,.289-.014.5.5,0,0,0,.334-.3.841.841,0,0,0,.062-.239.58.58,0,0,0,0-.181.372.372,0,0,0-.215-.239.638.638,0,0,0-.21-.057l-.274-.036-.262,1.035Z" transform="translate(-791.221 -644.484)"/><path class="ad" d="M814.723,692.266l-.332,1.3-.773-.1.329-1.293-.618-2.247.687.088a.238.238,0,0,1,.148.064.254.254,0,0,1,.067.134l.2,1.086a2.759,2.759,0,0,1,.057.4c.038-.055.079-.112.124-.172l.141-.184.716-.971a.447.447,0,0,1,.122-.1.238.238,0,0,1,.169-.033l.64.081Z" transform="translate(-801.409 -645.382)"/><path class="ad" d="M825.241,692.382l-.224.9,1.064.134-.155.585-1.059-.134-.341,1.329-.775-.1.861-3.4,2.054.26-.15.585Z" transform="translate(-809.343 -646.73)"/><path class="ad" d="M835.075,696.5l-.776-.1.857-3.4.775.1Z" transform="translate(-817.376 -647.719)"/><path class="ad" d="M841.669,694.455l-.208.821.976.122-.153.575-.971-.122-.222.837,1.284.162-.15.585-2.045-.27.861-3.4,2.054.258-.15.585Z" transform="translate(-821.853 -648.306)"/><path class="ad" d="M854.249,696.964a2.222,2.222,0,0,1-.131.525,2.006,2.006,0,0,1-.239.446,1.811,1.811,0,0,1-1.231.735,1.968,1.968,0,0,1-.53,0l-1.238-.155.861-3.4,1.238.155a1.555,1.555,0,0,1,.6.193,1.343,1.343,0,0,1,.42.375,1.373,1.373,0,0,1,.239.511A1.748,1.748,0,0,1,854.249,696.964Zm-.792-.081a1.525,1.525,0,0,0,0-.389.888.888,0,0,0-.107-.31.661.661,0,0,0-.212-.217.771.771,0,0,0-.313-.1l-.477-.055-.561,2.226.477.057a.969.969,0,0,0,.437-.038.936.936,0,0,0,.355-.227,1.266,1.266,0,0,0,.258-.394,1.993,1.993,0,0,0,.15-.549Z" transform="translate(-830 -649.334)"/><circle class="g" cx="0.627" cy="0.627" r="0.627" transform="translate(18.42 0.181)"/><path class="ba" d="M795.674,534.754H795.6a.642.642,0,0,1-.561-.716h0l.365-2.978a3.264,3.264,0,0,1,3.629-2.837l2.911.358a.645.645,0,0,1-.155,1.281h0l-2.913-.358a1.969,1.969,0,0,0-2.193,1.713l-.365,2.978A.646.646,0,0,1,795.674,534.754Z" transform="translate(-787.475 -522.239)"/><path class="ba" d="M794.406,590.546h-.079l-1.67-.205a3.259,3.259,0,0,1-2.834-3.629l.239-1.992a.647.647,0,0,1,1.281.157l-.239,1.992a1.973,1.973,0,0,0,1.713,2.193l1.67.205a.644.644,0,0,1-.076,1.284Z" transform="translate(-783.491 -564.87)"/><path class="ba" d="M847.189,596.009a3.236,3.236,0,0,1-.4-.024L844,595.644a.647.647,0,0,1,.157-1.281l2.78.341a1.93,1.93,0,0,0,1.448-.4,1.964,1.964,0,0,0,.744-1.31l.363-2.956a.644.644,0,1,1,1.279.157l-.363,2.956a3.262,3.262,0,0,1-3.228,2.863Z" transform="translate(-824.358 -568.89)"/><path class="ba" d="M859.28,540.934H859.2a.644.644,0,0,1-.563-.716l.322-2.624a1.973,1.973,0,0,0-1.713-2.193l-2.412-.3a.644.644,0,1,1,.158-1.279l2.412.3a3.261,3.261,0,0,1,2.834,3.629l-.32,2.625A.647.647,0,0,1,859.28,540.934Z" transform="translate(-832.581 -526.517)"/></g><path class="av" d="M802.631,636.5c6.561-.477,8.181.606,8.181.606l.787-3.262c.88-3.409,3.8-10.758,3.8-10.758s-2.625-5.81-1.367-11.49a5.841,5.841,0,0,1,3.319-3.972s5.208,10.345,5.416,14.019a49.922,49.922,0,0,1-4.462,23.8c-2.913,6.215-9.591,16.644-17.98,13.907a10.033,10.033,0,0,1-5.843-6.034c-1.179-2.966-2.6-7.838-.716-10.677C795.889,639.442,798.6,636.794,802.631,636.5Z" transform="translate(-603.436 -536.88)"/><path class="av" d="M800.713,742.207a11.066,11.066,0,0,1,11.877-.546c3.278,1.854,4.831,4.683,5.965,7.809h.033c.048.174.11.379.162.57.6,1.73,1.1,3.533,1.718,5.306,3.865,11.163,8.269,22.157,12.693,33.108l-24.3,10.5c.093-.041-.885-3.6-.938-3.817l-3.989-16.224-4.4-17.872a70.182,70.182,0,0,1-1.5-8.553C797.628,748.661,797.373,744.765,800.713,742.207Z" transform="translate(-607.204 -637.827)"/><path class="bb" d="M833.536,874.31c-1.331-2.333-1.976-5.824-2.7-7.537a103.863,103.863,0,0,1-5.046-15.62c-1.021-4.013-1.813-9.083-1.253-13.187a12.013,12.013,0,0,1,4.45-8.043c2.352-1.73,5.189-3.817,8.26-3.6,4.018.272,6.874,4.085,8.276,7.873,3.972,10.708,7.749,21.432,11.385,32.319a3.393,3.393,0,0,1-2.135,4.278l-16.94,5.654C835.841,877.1,834.507,876.013,833.536,874.31Z" transform="translate(-627.418 -703.39)"/><path class="bc" d="M851.057,972.8a31.564,31.564,0,0,1-.992,7.821c-2.319,9.021-8.988,17.013-17.772,20.108-10.367,3.65-18.82-.143-25.615-6.621a65.929,65.929,0,0,1-9.99-12.712c-14.2-22.589-23.479-54.1-25.123-61.533a2.434,2.434,0,0,1,1.331-2.648l36.36-17.314a2.29,2.29,0,0,1,3.054,1.04q1.482,2.722,3.075,5.378,1.109,1.861,2.266,3.691c7.635,12.132,16.553,23.477,24.126,35.609C846.891,953.809,851.093,963.121,851.057,972.8Z" transform="translate(-587.201 -759.243)"/><path class="bd" d="M808.754,878.333l-36.37,23.439a1.994,1.994,0,0,0-.508,2.772l.029.038,6.633,10.717,40.726-25.91-7.69-10.76a1.984,1.984,0,0,0-2.82-.293Z" transform="translate(-587.194 -742.664)"/><path class="be" d="M633.71,1005.214c-7.873,2.887-15.191,2.357-22.544.353-2.9-.79-5.8-1.809-8.744-2.935L566.2,988.763c-15.491-5.929-31.1-5.23-42.49-19.7-7.745-9.844-10.658-23.5-6.919-35.458,3.252-10.407,10.519-16.5,19.564-21.711,4.45-2.565,7.713-5.153,11.213-6.2,3.34-1,6.886-.62,11.886,2.481l.53.32c10.338,6.442,23.243,15.076,36.124,23.62l3.312,2.193c11.392,7.527,22.592,14.811,31.8,20.242,7.728,4.555,14.449,7.962,18.829,16.646a27.171,27.171,0,0,1,2.562,7.484C654.767,990.758,646.493,1000.528,633.71,1005.214Z" transform="translate(-392.006 -763.456)"/><g class="o" transform="translate(189.795 49.663)"><path class="m" d="M794.853,524.647a.418.418,0,0,1-.293-.716l4.533-4.533a.418.418,0,1,1,.592.589h0l-4.545,4.533a.412.412,0,0,1-.286.126Z" transform="translate(-794.435 -519.275)"/></g><g class="o" transform="translate(200.824 87.449)"><path class="m" d="M841.075,683.569a.42.42,0,0,1-.415-.425.415.415,0,0,1,.136-.305l5.671-5.079a.418.418,0,1,1,.558.623h0l-5.671,5.08A.417.417,0,0,1,841.075,683.569Z" transform="translate(-840.66 -677.652)"/></g><g class="o" transform="translate(200.148 89.257)"><path class="m" d="M838.236,692.99a.417.417,0,0,1-.286-.716l7.422-6.933a.418.418,0,1,1,.57.611h0l-7.42,6.933a.42.42,0,0,1-.286.105Z" transform="translate(-837.825 -685.229)"/></g><path class="bf" d="M215.568,421.709A18.733,18.733,0,0,0,200.7,412.79c-10.436-.692-17.293,3.8-23.944,15.007-4.249,7.1-9.269,10.149-18.75,12.609-7.814,2.088-16.909,9.026-15.909,22.623,1.193,13.6.1,20.864-7.131,27.048s-16.054,31.028,10.295,47.085c23.734,14.6,49.573,3.292,57.11-17.054,7.356-19.6-2.2-29.8-8.589-43.184-5.657-11.691-1.627-25.3,1.525-28.683a16.59,16.59,0,0,1,3.92-3.817,6.939,6.939,0,0,1,4.113-1.291,15.3,15.3,0,0,0,11.252-6.11C218.407,431.72,218.154,426.165,215.568,421.709Z" transform="translate(-96.836 -388.481)"/><path class="bg" d="M-.815,1007.133v-56.7l-.255-.072c.084-.045.169-.086.255-.129A34.71,34.71,0,0,1,14.557,946.7H70.739a34.9,34.9,0,0,1,32.8,22.981l13.6,37.452Z" transform="translate(1.07 -795.06)"/><path class="bh" d="M82.361,752.986a29.107,29.107,0,0,1-13.032,24.147A28.7,28.7,0,0,1,53.387,781.9H6.837a28.89,28.89,0,0,1-7.651-1.038l-.255-.072c.084-.045.169-.086.255-.129V725.009A29.18,29.18,0,0,1,6.837,724H53.389A29.031,29.031,0,0,1,82.361,752.986Z" transform="translate(1.07 -625.493)"/><g transform="translate(194.821 47.303) rotate(7)"><g transform="translate(0 0)"><g transform="translate(0 0)"><path class="bi" d="M0,1.49A1.448,1.448,0,0,0,1.5,3.005a1.63,1.63,0,0,0,1.028-.36.159.159,0,0,0,.025-.237L2.473,2.3a.148.148,0,0,0-.237-.029,1.218,1.218,0,0,1-.712.254.975.975,0,0,1-.979-1.04.938.938,0,0,1,.975-1,1.21,1.21,0,0,1,.655.2c.1.061.176.053.233-.041L2.481.528A.159.159,0,0,0,2.449.291,1.622,1.622,0,0,0,1.5,0,1.45,1.45,0,0,0,0,1.49ZM2.977,2.784a.154.154,0,0,0,.172.172h.176A.152.152,0,0,0,3.5,2.784v-.8a.623.623,0,0,1,.6-.692c.262,0,.328.172.328.426V2.784a.152.152,0,0,0,.172.172h.176a.154.154,0,0,0,.172-.172V1.613c0-.553-.266-.794-.729-.794a.822.822,0,0,0-.725.422H3.485A1.187,1.187,0,0,0,3.5,1.065V.221A.154.154,0,0,0,3.325.049H3.149a.155.155,0,0,0-.172.172ZM5.3,1.912A1.07,1.07,0,0,0,6.424,3.005,1.32,1.32,0,0,0,7.133,2.8a.156.156,0,0,0,.057-.229l-.049-.082c-.053-.094-.127-.106-.229-.057a.863.863,0,0,1-.45.135.6.6,0,0,1-.626-.573H7.108a.181.181,0,0,0,.18-.176A.9.9,0,0,0,6.363.819,1.03,1.03,0,0,0,5.3,1.912Zm.545-.237a.509.509,0,0,1,.5-.463.425.425,0,0,1,.422.463Zm1.818,1.11a.154.154,0,0,0,.172.172h.176a.152.152,0,0,0,.172-.172V2.043h.27l.487.794a.208.208,0,0,0,.2.119h.221c.139,0,.184-.086.115-.2L8.865,1.81V1.8l.52-.729c.078-.111.033-.2-.106-.2h-.2a.214.214,0,0,0-.2.115l-.434.622H8.185V.221A.154.154,0,0,0,8.013.049H7.837a.155.155,0,0,0-.172.172Zm2.182,0a.151.151,0,0,0,.168.172h.18a.151.151,0,0,0,.168-.172V1.04A.152.152,0,0,0,10.2.868h-.18a.152.152,0,0,0-.168.172Zm1.032,0a.151.151,0,0,0,.168.172h.18a.151.151,0,0,0,.168-.172V1.978a.625.625,0,0,1,.6-.684c.262,0,.328.172.328.426V2.784a.154.154,0,0,0,.172.172h.176a.152.152,0,0,0,.172-.172V1.613c0-.553-.266-.794-.729-.794a.814.814,0,0,0-.741.442h-.008a.667.667,0,0,0,.008-.094V1.04a.152.152,0,0,0-.168-.172h-.16a.152.152,0,0,0-.168.172Z" transform="translate(0 0.763)"/><g transform="translate(9.397 0)"><g transform="translate(0 0)"><path class="bi" d="M.908.575a.155.155,0,0,1,0,.216l-.12.12a.156.156,0,0,1-.216,0L.044.38a.155.155,0,0,1,0-.216l.12-.12a.156.156,0,0,1,.216,0Z" transform="translate(0 0.386)"/><path class="bi" d="M.957.044a.156.156,0,0,1,.216,0l.12.12a.156.156,0,0,1,0,.216L.38,1.29a.155.155,0,0,1-.216,0l-.12-.12a.156.156,0,0,1,0-.216Z" transform="translate(0.411)"/></g></g></g></g></g><g class="o" transform="translate(190.134 49.994)"><path class="m" d="M796.276,528.23a.418.418,0,0,1-.3-.716l6.731-6.728a.415.415,0,0,1,.584,0h0a.417.417,0,0,1,0,.589l-6.728,6.728A.41.41,0,0,1,796.276,528.23Z" transform="translate(-795.855 -520.666)"/></g></g><g transform="translate(145.688 105.309)"><g transform="translate(0 0)"><g transform="translate(0 0)"><path class="bd" d="M-234.9-100.426a6.948,6.948,0,0,0,7.211,7.27,7.821,7.821,0,0,0,4.932-1.729.763.763,0,0,0,.118-1.14l-.393-.531a.712.712,0,0,0-1.14-.138,5.844,5.844,0,0,1-3.419,1.218,4.678,4.678,0,0,1-4.7-4.991,4.5,4.5,0,0,1,4.677-4.794,5.807,5.807,0,0,1,3.144.982c.472.295.845.255,1.12-.2l.354-.57a.763.763,0,0,0-.157-1.14,7.784,7.784,0,0,0-4.559-1.4A6.959,6.959,0,0,0-234.9-100.426Zm14.285,6.209a.737.737,0,0,0,.825.825h.845a.729.729,0,0,0,.825-.825v-3.832c0-1.906,1.14-3.321,2.888-3.321,1.258,0,1.572.825,1.572,2.044v5.109a.729.729,0,0,0,.825.825h.845a.737.737,0,0,0,.825-.825v-5.62c0-2.653-1.277-3.812-3.5-3.812a3.945,3.945,0,0,0-3.478,2.024h-.039a5.685,5.685,0,0,0,.059-.845v-4.048a.737.737,0,0,0-.825-.825h-.845a.746.746,0,0,0-.825.825Zm11.161-4.185a5.135,5.135,0,0,0,5.384,5.246,6.334,6.334,0,0,0,3.4-1,.747.747,0,0,0,.275-1.1l-.236-.393c-.255-.452-.609-.511-1.1-.275a4.142,4.142,0,0,1-2.161.648,2.88,2.88,0,0,1-3.006-2.751h6.111a.868.868,0,0,0,.865-.845c0-2.751-1.592-4.775-4.441-4.775A4.943,4.943,0,0,0-209.453-98.4Zm2.613-1.14a2.441,2.441,0,0,1,2.417-2.22,2.039,2.039,0,0,1,2.024,2.22Zm8.724,5.325a.737.737,0,0,0,.825.825h.845a.729.729,0,0,0,.825-.825v-3.557h1.3l2.338,3.812a1,1,0,0,0,.963.57h1.061c.668,0,.884-.413.55-.982l-2.947-4.519v-.039l2.5-3.5c.373-.531.157-.982-.511-.982h-.943a1.026,1.026,0,0,0-.982.55l-2.083,2.987h-1.238v-6.641a.737.737,0,0,0-.825-.825h-.845a.746.746,0,0,0-.825.825Zm10.473,0a.724.724,0,0,0,.806.825h.865a.724.724,0,0,0,.806-.825v-8.371a.732.732,0,0,0-.806-.825h-.865a.732.732,0,0,0-.806.825Zm4.952,0a.724.724,0,0,0,.806.825h.865a.724.724,0,0,0,.806-.825v-3.871a3,3,0,0,1,2.888-3.281c1.258,0,1.572.825,1.572,2.044v5.109a.737.737,0,0,0,.825.825h.845a.729.729,0,0,0,.825-.825v-5.62c0-2.653-1.277-3.812-3.5-3.812a3.909,3.909,0,0,0-3.557,2.122h-.039a3.2,3.2,0,0,0,.039-.452v-.609a.732.732,0,0,0-.806-.825h-.766a.732.732,0,0,0-.806.825Z" transform="translate(234.898 111.239)"/><g transform="translate(45.094)"><g transform="translate(0)"><path class="bd" d="M89.555,202.361a.746.746,0,0,1,0,1.036l-.578.578a.746.746,0,0,1-1.036,0l-2.531-2.551a.746.746,0,0,1,0-1.036l.578-.578a.746.746,0,0,1,1.036,0Z" transform="translate(-85.2 -197.746)"/><path class="bd" d="M168.994,125.409a.746.746,0,0,1,1.036,0l.578.578a.746.746,0,0,1,0,1.036l-4.385,4.365a.746.746,0,0,1-1.036,0l-.578-.578a.746.746,0,0,1,0-1.036Z" transform="translate(-162.427 -125.2)"/></g></g></g></g></g></g></svg>