<svg xmlns="http://www.w3.org/2000/svg" width="16.315" height="16.315" viewBox="0 0 16.315 16.315"><defs><style>.a{fill:#9696b9;fill-rule:evenodd;}</style></defs><path class="a" d="M8.158,1.45a25.013,25.013,0,0,1,3.263.091,4.2,4.2,0,0,1,1.541.272A3.183,3.183,0,0,1,14.5,3.354a4.2,4.2,0,0,1,.272,1.541c0,.816.091,1.088.091,3.263a25.013,25.013,0,0,1-.091,3.263,4.2,4.2,0,0,1-.272,1.541A3.183,3.183,0,0,1,12.962,14.5a4.2,4.2,0,0,1-1.541.272c-.816,0-1.088.091-3.263.091a25.013,25.013,0,0,1-3.263-.091A4.2,4.2,0,0,1,3.354,14.5a3.183,3.183,0,0,1-1.541-1.541,4.2,4.2,0,0,1-.272-1.541c0-.816-.091-1.088-.091-3.263a25.013,25.013,0,0,1,.091-3.263,4.2,4.2,0,0,1,.272-1.541,3.255,3.255,0,0,1,.634-.906,1.532,1.532,0,0,1,.906-.634,4.2,4.2,0,0,1,1.541-.272A25.013,25.013,0,0,1,8.158,1.45m0-1.45A26.782,26.782,0,0,0,4.8.091,5.6,5.6,0,0,0,2.81.453a3.548,3.548,0,0,0-1.45.906A3.548,3.548,0,0,0,.453,2.81,4.13,4.13,0,0,0,.091,4.8,26.782,26.782,0,0,0,0,8.158a26.782,26.782,0,0,0,.091,3.354,5.6,5.6,0,0,0,.363,1.994,3.548,3.548,0,0,0,.906,1.45,3.548,3.548,0,0,0,1.45.906,5.6,5.6,0,0,0,1.994.363,26.781,26.781,0,0,0,3.354.091,26.781,26.781,0,0,0,3.354-.091,5.6,5.6,0,0,0,1.994-.363,3.8,3.8,0,0,0,2.357-2.357,5.6,5.6,0,0,0,.363-1.994c0-.906.091-1.178.091-3.354A26.781,26.781,0,0,0,16.225,4.8a5.6,5.6,0,0,0-.363-1.994,3.548,3.548,0,0,0-.906-1.45,3.548,3.548,0,0,0-1.45-.906A5.6,5.6,0,0,0,11.511.091,26.782,26.782,0,0,0,8.158,0m0,3.988A4.1,4.1,0,0,0,3.988,8.158,4.169,4.169,0,1,0,8.158,3.988m0,6.889A2.671,2.671,0,0,1,5.438,8.158,2.671,2.671,0,0,1,8.158,5.438a2.671,2.671,0,0,1,2.719,2.719,2.671,2.671,0,0,1-2.719,2.719M12.508,2.81a1,1,0,1,0,1,1,1.006,1.006,0,0,0-1-1"/></svg>