<svg xmlns="http://www.w3.org/2000/svg" xmlns:xlink="http://www.w3.org/1999/xlink" width="411" height="276.547" viewBox="0 0 411 276.547"><defs><style>.a,.be{fill:none;}.b{clip-path:url(#a);}.c{fill:#fff;}.d{fill:#a9d9ff;}.e{fill:url(#d);}.aa,.f{fill:#161643;}.g{fill:#ff7b33;}.h{fill:#b0deff;}.i{fill:url(#i);}.j{fill:#cbe9ff;}.k{fill:#a8e4ef;}.l{fill:#99dbe8;}.m{fill:#ff6870;}.n{fill:#00c0b7;}.o{fill:#f77731;}.p{fill:#c26419;}.q{fill:#e09374;}.r{fill:#cf7653;}.s{fill:#743529;}.t{fill:#ea9d7d;}.u{fill:#b76349;}.v{fill:#db8a6b;}.w{fill:#b4603f;}.x{fill:#4f2b23;}.y{fill:#7a3e2b;}.z{opacity:0.34;fill:url(#j);}.be,.z{isolation:isolate;}.aa{stroke:#161643;stroke-width:0.5px;}.ab{fill:#de8f6d;}.ac{fill:#e79a7a;}.ad{fill:url(#k);}.ae{fill:url(#l);}.af{opacity:0.203;fill:url(#m);}.ag{fill:#cc7a5e;}.ah{fill:url(#n);}.ai{fill:#2960f5;}.aj{fill:#f7f9ff;}.ak{opacity:0.45;}.al{fill:#e89976;}.am{opacity:0.168;fill:url(#o);}.an{fill:#9ed3fd;}.ao{fill:url(#p);}.ap{fill:#1e1e52;}.aq{fill:url(#q);}.ar{fill:url(#r);}.as{fill:url(#s);}.at{fill:url(#t);}.au{fill:url(#u);}.av{fill:#23235d;}.aw{fill:url(#v);}.ax{fill:url(#w);}.ay{fill:url(#x);}.az{fill:#d9edff;}.ba{fill:#008dff;}.bb{fill:#e3f1ff;}.bc{fill:#274bf0;}.bd,.be{opacity:0.6;}.be{stroke:#fff;stroke-linecap:round;stroke-linejoin:round;stroke-width:9px;}.bf{filter:url(#as);}.bg{filter:url(#aq);}.bh{filter:url(#ao);}.bi{filter:url(#am);}.bj{filter:url(#ak);}.bk{filter:url(#ai);}.bl{filter:url(#ag);}.bm{filter:url(#ae);}.bn{filter:url(#ac);}.bo{filter:url(#aa);}.bp{filter:url(#y);}.bq{filter:url(#g);}.br{filter:url(#e);}.bs{filter:url(#b);}</style><clipPath id="a"><rect class="a" width="411" height="247" transform="translate(-33.847 0.384)"/></clipPath><filter id="b" x="226.761" y="42.146" width="54.195" height="44.131" filterUnits="userSpaceOnUse"><feOffset dy="3" input="SourceAlpha"/><feGaussianBlur stdDeviation="3" result="c"/><feFlood flood-color="#1a8cff" flood-opacity="0.659"/><feComposite operator="in" in2="c"/><feComposite in="SourceGraphic"/></filter><linearGradient id="d" y1="25.728" x2="1" y2="25.728" gradientUnits="objectBoundingBox"><stop offset="0.01" stop-color="#ff7a00"/><stop offset="0.98" stop-color="#ffb600"/></linearGradient><filter id="e" x="39.249" y="75.45" width="54.195" height="44.131" filterUnits="userSpaceOnUse"><feOffset dy="3" input="SourceAlpha"/><feGaussianBlur stdDeviation="3" result="f"/><feFlood flood-color="#1a8cff" flood-opacity="0.161"/><feComposite operator="in" in2="f"/><feComposite in="SourceGraphic"/></filter><filter id="g" x="85.806" y="28.246" width="44.133" height="54.199" filterUnits="userSpaceOnUse"><feOffset dy="3" input="SourceAlpha"/><feGaussianBlur stdDeviation="3" result="h"/><feFlood flood-color="#1a8cff" flood-opacity="0.161"/><feComposite operator="in" in2="h"/><feComposite in="SourceGraphic"/></filter><linearGradient id="i" y1="6.148" x2="1" y2="6.148" gradientUnits="objectBoundingBox"><stop offset="0" stop-color="#1a8cff"/><stop offset="0.72" stop-color="#2960f5"/></linearGradient><linearGradient id="j" y1="0.214" x2="1" y2="0.214" gradientUnits="objectBoundingBox"><stop offset="0" stop-color="#fff"/><stop offset="1" stop-color="#cbe9ff"/></linearGradient><linearGradient id="k" x1="0.678" x2="0.887" y2="-0.645" gradientUnits="objectBoundingBox"><stop offset="0" stop-color="#161643"/><stop offset="0.11" stop-color="#161848"/><stop offset="0.23" stop-color="#181e55"/><stop offset="0.36" stop-color="#1a276c"/><stop offset="0.49" stop-color="#1e348c"/><stop offset="0.63" stop-color="#2245b4"/><stop offset="0.77" stop-color="#275ae6"/><stop offset="0.81" stop-color="#2960f5"/><stop offset="1" stop-color="#2960f5"/></linearGradient><linearGradient id="l" x1="0.229" y1="1.562" x2="1" y2="1.197" gradientUnits="objectBoundingBox"><stop offset="0" stop-color="#23235d"/><stop offset="0.97" stop-color="#181f5a"/><stop offset="1" stop-color="#161643"/></linearGradient><linearGradient id="m" x1="0.275" y1="-5.878" x2="0.738" y2="-5.179" gradientUnits="objectBoundingBox"><stop offset="0" stop-color="#5b1219" stop-opacity="0"/><stop offset="0.16" stop-color="#5b1219" stop-opacity="0.078"/><stop offset="1" stop-color="#5b1219" stop-opacity="0.502"/></linearGradient><linearGradient id="n" x1="8.149" y1="0.141" x2="8.149" y2="0.598" gradientUnits="objectBoundingBox"><stop offset="0" stop-color="#cc7a5e" stop-opacity="0"/><stop offset="0.92" stop-color="#aa5f4b"/></linearGradient><linearGradient id="o" x1="-30.471" y1="-3.916" x2="-29.924" y2="-3.916" gradientUnits="objectBoundingBox"><stop offset="0" stop-color="#5b1219" stop-opacity="0"/><stop offset="0.3" stop-color="#5b1219" stop-opacity="0.039"/><stop offset="0.59" stop-color="#5b1219" stop-opacity="0.169"/><stop offset="0.87" stop-color="#5b1219" stop-opacity="0.38"/><stop offset="1" stop-color="#5b1219" stop-opacity="0.502"/></linearGradient><linearGradient id="p" x1="0.506" y1="2.002" x2="0.435" y2="2.869" xlink:href="#m"/><linearGradient id="q" x1="0.372" y1="-3.037" x2="0.798" y2="-1.869" gradientUnits="objectBoundingBox"><stop offset="0" stop-color="#7f0026" stop-opacity="0"/><stop offset="0.4" stop-color="#7f0026" stop-opacity="0.451"/><stop offset="1" stop-color="#23235d"/></linearGradient><linearGradient id="r" x1="-23.046" y1="-1.006" x2="-23.641" y2="-1.36" gradientUnits="objectBoundingBox"><stop offset="0.02" stop-color="#4f211e"/><stop offset="0.99" stop-color="#743529"/></linearGradient><linearGradient id="s" y1="1.484" x2="1" y2="1.484" gradientUnits="objectBoundingBox"><stop offset="0.19" stop-color="#743529"/><stop offset="0.47" stop-color="#5e2b21"/></linearGradient><linearGradient id="t" y1="-4.638" x2="0.499" y2="-4.638" gradientUnits="objectBoundingBox"><stop offset="0" stop-color="#5b1219" stop-opacity="0"/><stop offset="0.34" stop-color="#5b1219" stop-opacity="0.039"/><stop offset="0.66" stop-color="#5b1219" stop-opacity="0.169"/><stop offset="0.97" stop-color="#5b1219" stop-opacity="0.38"/><stop offset="1" stop-color="#5b1219" stop-opacity="0.4"/></linearGradient><linearGradient id="u" x1="0.706" y1="0.443" x2="-0.08" y2="0.868" gradientUnits="objectBoundingBox"><stop offset="0" stop-color="#bfe7ff"/><stop offset="1" stop-color="#a9d9ff"/></linearGradient><linearGradient id="v" x1="0.098" y1="0.863" x2="1.468" y2="-0.226" gradientUnits="objectBoundingBox"><stop offset="0" stop-color="#b7e2ff"/><stop offset="1" stop-color="#bfe7ff"/></linearGradient><linearGradient id="w" x1="0" y1="3.038" x2="1" y2="3.038" xlink:href="#s"/><linearGradient id="x" x1="-2.842" y1="11.007" x2="-2.842" y2="12.007" gradientUnits="objectBoundingBox"><stop offset="0" stop-color="#fff"/><stop offset="0.6" stop-color="#ddf1ff"/><stop offset="1" stop-color="#cbe9ff"/></linearGradient><filter id="y" x="35.518" y="120.499" width="51.2" height="66.359" filterUnits="userSpaceOnUse"><feOffset dy="3" input="SourceAlpha"/><feGaussianBlur stdDeviation="2" result="z"/><feFlood flood-opacity="0.161"/><feComposite operator="in" in2="z"/><feComposite in="SourceGraphic"/></filter><filter id="aa" x="42.758" y="190.232" width="51.658" height="33.798" filterUnits="userSpaceOnUse"><feOffset dy="3" input="SourceAlpha"/><feGaussianBlur stdDeviation="2" result="ab"/><feFlood flood-opacity="0.161"/><feComposite operator="in" in2="ab"/><feComposite in="SourceGraphic"/></filter><filter id="ac" x="0.768" y="184.741" width="42.717" height="35.856" filterUnits="userSpaceOnUse"><feOffset dy="3" input="SourceAlpha"/><feGaussianBlur stdDeviation="2" result="ad"/><feFlood flood-opacity="0.161"/><feComposite operator="in" in2="ad"/><feComposite in="SourceGraphic"/></filter><filter id="ae" x="4.188" y="138.902" width="42.019" height="55.891" filterUnits="userSpaceOnUse"><feOffset dy="3" input="SourceAlpha"/><feGaussianBlur stdDeviation="2" result="af"/><feFlood flood-opacity="0.161"/><feComposite operator="in" in2="af"/><feComposite in="SourceGraphic"/></filter><filter id="ag" x="13.143" y="220.476" width="62.368" height="21.621" filterUnits="userSpaceOnUse"><feOffset dy="3" input="SourceAlpha"/><feGaussianBlur stdDeviation="2" result="ah"/><feFlood flood-opacity="0.161"/><feComposite operator="in" in2="ah"/><feComposite in="SourceGraphic"/></filter><filter id="ai" x="13.143" y="229.542" width="62.368" height="47.005" filterUnits="userSpaceOnUse"><feOffset dy="3" input="SourceAlpha"/><feGaussianBlur stdDeviation="2" result="aj"/><feFlood flood-opacity="0.161"/><feComposite operator="in" in2="aj"/><feComposite in="SourceGraphic"/></filter><filter id="ak" x="34.78" y="144.237" width="26.871" height="88.33" filterUnits="userSpaceOnUse"><feOffset dy="3" input="SourceAlpha"/><feGaussianBlur stdDeviation="2" result="al"/><feFlood flood-opacity="0.161"/><feComposite operator="in" in2="al"/><feComposite in="SourceGraphic"/></filter><filter id="am" x="36.813" y="200.184" width="31.557" height="33.186" filterUnits="userSpaceOnUse"><feOffset dy="3" input="SourceAlpha"/><feGaussianBlur stdDeviation="2" result="an"/><feFlood flood-opacity="0.161"/><feComposite operator="in" in2="an"/><feComposite in="SourceGraphic"/></filter><filter id="ao" x="19.934" y="193.352" width="29.608" height="40.953" filterUnits="userSpaceOnUse"><feOffset dy="3" input="SourceAlpha"/><feGaussianBlur stdDeviation="2" result="ap"/><feFlood flood-opacity="0.161"/><feComposite operator="in" in2="ap"/><feComposite in="SourceGraphic"/></filter><filter id="aq" x="20.599" y="163.841" width="29.241" height="62.406" filterUnits="userSpaceOnUse"><feOffset dy="3" input="SourceAlpha"/><feGaussianBlur stdDeviation="2" result="ar"/><feFlood flood-opacity="0.161"/><feComposite operator="in" in2="ar"/><feComposite in="SourceGraphic"/></filter><filter id="as" x="13.143" y="225.286" width="62.368" height="14.215" filterUnits="userSpaceOnUse"><feOffset dy="3" input="SourceAlpha"/><feGaussianBlur stdDeviation="2" result="at"/><feFlood flood-opacity="0.161"/><feComposite operator="in" in2="at"/><feComposite in="SourceGraphic"/></filter></defs><g transform="translate(-675.999 -2458.001)"><g transform="translate(710.18 2457.617)"><g class="b" transform="translate(-0.333)"><rect class="c" width="354.047" height="264.865" transform="translate(0.107)"/><circle class="d" cx="19.28" cy="19.28" r="19.28" transform="translate(190.672 60.982) rotate(-45)"/><g class="bs" transform="matrix(1, 0, 0, 1, -33.85, 0.38)"><rect class="c" width="36.195" height="26.131" rx="6" transform="translate(235.76 48.15)"/></g><rect class="e" width="7.125" height="5.926" rx="2.963" transform="translate(205.732 52.055)"/><path class="f" d="M941.643,305.782H930.466a.976.976,0,1,1,0-1.952h11.177a.976.976,0,1,1,0,1.952Z" transform="translate(-723.705 -236.6)"/><path class="f" d="M1004.526,305.782H999.5a.976.976,0,0,1,0-1.952h5.03a.976.976,0,1,1,0,1.952Z" transform="translate(-777.461 -236.6)"/><path class="g" d="M1040.155,321.8h-2.049a.976.976,0,0,1,0-1.952h2.049a.976.976,0,0,1,0,1.952Z" transform="translate(-807.527 -249.074)"/><path class="f" d="M957.944,284.522H930.466a.976.976,0,1,1,0-1.952h27.478a.976.976,0,0,1,0,1.952Z" transform="translate(-723.705 -220.045)"/><path class="f" d="M990.508,234.12h13.7a.708.708,0,0,1,.708.708h0a.708.708,0,0,1-.708.708h-13.7a.708.708,0,0,1-.708-.708h0A.708.708,0,0,1,990.508,234.12Z" transform="translate(-770.67 -179.314)"/><circle class="d" cx="2.839" cy="2.839" r="2.839" transform="translate(175.495 89.751)"/><circle class="d" cx="4.481" cy="4.481" r="4.481" transform="translate(189.009 77.319)"/><circle class="d" cx="19.28" cy="19.28" r="19.28" transform="translate(17.103 74.779)"/><g class="br" transform="matrix(1, 0, 0, 1, -33.85, 0.38)"><rect class="c" width="36.195" height="26.131" rx="6" transform="translate(48.25 81.45)"/></g><path class="f" d="M111.479,451.108H84.669a.719.719,0,1,1,0-1.438h26.81a.719.719,0,1,1,0,1.438Z" transform="translate(-65.267 -350.167)"/><circle class="d" cx="2.839" cy="2.839" r="2.839" transform="translate(69.354 120.352)"/><circle class="d" cx="4.481" cy="4.481" r="4.481" transform="translate(55.978 111.854)"/><path class="f" d="M118.868,401.54a1.887,1.887,0,0,1-1.381-.558,1.86,1.86,0,0,1-.3-.4l-.066.062a2.922,2.922,0,0,1-3.111.631,2.574,2.574,0,0,1-1.29-1.372c-.027.038-.055.075-.084.111a3.082,3.082,0,0,1-2.483,1.423,2.133,2.133,0,0,1-1.66-1.08c-.126.164-.254.323-.387.48A.722.722,0,1,1,107,399.9a14.214,14.214,0,0,0,.925-1.226c-.018-.146-.031-.29-.038-.443a11.686,11.686,0,0,1,.763-4.647,2.2,2.2,0,0,1,1.089-1.237,1.215,1.215,0,0,1,.982.027c.637.3.885,1.042.664,1.991a15.9,15.9,0,0,1-1.932,4.614c.15.549.431.994.814,1.027.345.024.759-.268,1.233-.874a12.9,12.9,0,0,0,.9-1.314,4.031,4.031,0,0,1,.046-.507,13.221,13.221,0,0,1,1.9-5.339.717.717,0,0,1,1.328.443,14.885,14.885,0,0,1-1.841,5.791,1.86,1.86,0,0,0,.774,1.753,1.565,1.565,0,0,0,1.549-.394,5.954,5.954,0,0,0,1.219-1.876.719.719,0,0,1,1.308.593c-.361.872-.418,1.441-.173,1.693s.768.137,1.091-.17a3.99,3.99,0,0,0,.834-1.753.719.719,0,0,1,1.4.117,1.9,1.9,0,0,0,1.77,1.6.719.719,0,1,1,.058,1.436.444.444,0,0,1-.077,0,3.293,3.293,0,0,1-2.4-1.144,3.423,3.423,0,0,1-.6.788A2.578,2.578,0,0,1,118.868,401.54Zm-8.986-7.123a7.188,7.188,0,0,0-.221.766c.082-.254.15-.509.221-.766Z" transform="translate(-83.082 -304.969)"/><path class="f" d="M159.93,402.979a1.14,1.14,0,1,1,1.14-1.14h0A1.144,1.144,0,0,1,159.93,402.979Zm0-1.438a.3.3,0,1,0,.3.3A.3.3,0,0,0,159.93,401.541Z" transform="translate(-123.546 -312.033)"/><circle class="d" cx="19.28" cy="19.28" r="19.28" transform="translate(54.23 36.593)"/><circle class="d" cx="2.839" cy="2.839" r="2.839" transform="translate(99.26 87.744)"/><circle class="d" cx="4.481" cy="4.481" r="4.481" transform="translate(88.32 75.593)"/><g class="bq" transform="matrix(1, 0, 0, 1, -33.85, 0.38)"><path class="c" d="M294.811,156.5H278.383A3.39,3.39,0,0,0,275,159.892V189.3a3.392,3.392,0,0,0,3.388,3.394h19.353a3.392,3.392,0,0,0,3.392-3.392h0V162.818Z" transform="translate(-180.19 -122.25)"/></g><path class="f" d="M303.268,195.932h-8.982a.976.976,0,0,1,0-1.952h8.982a.976.976,0,0,1,0,1.952Z" transform="translate(-228.3 -151.056)"/><path class="f" d="M310.1,221.432H294.286a.976.976,0,0,1,0-1.952H310.1a.976.976,0,0,1,0,1.952Z" transform="translate(-228.3 -170.914)"/><path class="f" d="M310.1,246.932H294.286a.976.976,0,0,1,0-1.952H310.1a.976.976,0,1,1,0,1.952Z" transform="translate(-228.3 -190.771)"/><path class="f" d="M303.268,272.432h-8.982a.976.976,0,0,1,0-1.952h8.982a.976.976,0,0,1,0,1.952Z" transform="translate(-228.3 -210.628)"/><path class="h" d="M371.042,163.012l-6.262-6.262v5.49a.772.772,0,0,0,.772.772Z" transform="translate(-283.955 -122.064)"/><circle class="d" cx="2.839" cy="2.839" r="2.839" transform="translate(144.027 85.159)"/><circle class="d" cx="4.481" cy="4.481" r="4.481" transform="translate(142.688 66.55)"/><circle class="i" cx="15.961" cy="15.961" r="15.961" transform="translate(130.668 26.662)"/><path class="f" d="M659.467,160.745a1.073,1.073,0,0,1-1.069-1.106l.2-6.156a1.074,1.074,0,0,1,2.146.077l-.117,3.589,7.028-6.548a1.069,1.069,0,1,1,1.456,1.565L660.2,160.46A1.069,1.069,0,0,1,659.467,160.745Z" transform="translate(-512.601 -117.053)"/><path class="c" d="M659.24,127.545a.83.83,0,0,1-.83-.83V123.33a.83.83,0,1,1,1.66,0v3.386a.83.83,0,0,1-.83.83Z" transform="translate(-512.611 -95.393)"/><path class="c" d="M659.24,244.645a.83.83,0,0,1-.83-.83V240.43a.83.83,0,1,1,1.66,0v3.386A.83.83,0,0,1,659.24,244.645Z" transform="translate(-512.611 -186.581)"/><path class="c" d="M596.373,193.362h-3.386a.83.83,0,0,1-.086-1.657.562.562,0,0,1,.086,0h3.386a.83.83,0,1,1,.086,1.657A.563.563,0,0,1,596.373,193.362Z" transform="translate(-460.985 -149.283)"/><path class="c" d="M713.243,193.362h-3.386a.83.83,0,1,1-.086-1.657.561.561,0,0,1,.086,0h3.386a.83.83,0,0,1,.086,1.657A.562.562,0,0,1,713.243,193.362Z" transform="translate(-551.994 -149.283)"/><rect class="j" width="71.168" height="23.223" transform="translate(58.81 194.024)"/><path class="c" d="M334.922,898.507H262.53V874.06h72.392Zm-71.17-1.226H333.7v-22H263.751Z" transform="translate(-204.331 -680.649)"/><rect class="j" width="71.168" height="23.223" transform="translate(130.042 194.024)"/><path class="c" d="M656.832,898.507H584.44V874.06h72.392Zm-71.161-1.226h69.946v-22H585.67Z" transform="translate(-455.009 -680.649)"/><rect class="j" width="71.168" height="23.223" transform="translate(201.343 194.024)"/><path class="c" d="M979.042,898.507H906.65V874.06h72.391Zm-71.168-1.226H977.82v-22H907.874Z" transform="translate(-705.92 -680.649)"/><path class="k" d="M203.023,876.83V1066H186.27V876.83" transform="translate(-144.945 -682.806)"/><path class="j" d="M200.849,1066.865H182.37V876.83H184.1v188.309h15.027V876.83h1.726Z" transform="translate(-141.908 -682.806)"/><path class="k" d="M342.115,808.1H147.661a4.171,4.171,0,0,1-4.171-4.171v-8.869a8.791,8.791,0,0,1,8.791-8.791H337.7a8.791,8.791,0,0,1,8.791,8.791h0v8.672a4.377,4.377,0,0,1-4.377,4.368Z" transform="translate(-111.632 -612.285)"/><path class="j" d="M339.078,805.927H144.624a5.041,5.041,0,0,1-5.034-5.034v-8.869a9.668,9.668,0,0,1,9.654-9.654H334.663a9.668,9.668,0,0,1,9.654,9.654V800.7A5.242,5.242,0,0,1,339.078,805.927Zm-189.833-21.84a7.937,7.937,0,0,0-7.928,7.937V800.9a3.319,3.319,0,0,0,3.319,3.319H339.089a3.516,3.516,0,0,0,3.505-3.534v-8.663a7.937,7.937,0,0,0-7.928-7.928Z" transform="translate(-108.595 -609.248)"/><path class="l" d="M538.464,801.728H418.531l-66.937-9.765a.941.941,0,0,1,.142-1.872l19.293.131L483.753,790Z" transform="translate(-273.059 -615.189)"/><path class="h" d="M147.443,849H342.492a3.983,3.983,0,0,1,3.983,3.983h0a3.983,3.983,0,0,1-3.983,3.983H147.443a3.983,3.983,0,0,1-3.983-3.983h0A3.983,3.983,0,0,1,147.443,849Z" transform="translate(-111.608 -661.134)"/><path class="j" d="M340.335,855.637H145.286a4.5,4.5,0,0,1-.2-8.991H340.335a4.5,4.5,0,0,1,.2,8.991Zm-195.049-7.951a3.456,3.456,0,1,0-.175,6.911H340.335a3.456,3.456,0,0,0,.175-6.911Z" transform="translate(-109.451 -659.3)"/><path class="j" d="M501.845,563.306H423.734a8.432,8.432,0,0,1-7.951-6.727l-9.635-52.952a5.463,5.463,0,0,1,5.505-6.727h78.112a8.436,8.436,0,0,1,7.953,6.727l9.632,52.952A5.459,5.459,0,0,1,501.845,563.306Z" transform="translate(-316.085 -386.946)"/><path class="f" d="M498.807,561.108H420.7a9.315,9.315,0,0,1-8.787-7.424l-9.643-52.939a6.551,6.551,0,0,1,1.328-5.492A6.34,6.34,0,0,1,408.6,493h78.112a9.325,9.325,0,0,1,8.787,7.424l9.632,52.952a6.539,6.539,0,0,1-1.328,5.492A6.31,6.31,0,0,1,498.807,561.108ZM408.6,494.7a4.721,4.721,0,0,0-3.715,1.629,4.961,4.961,0,0,0-.954,4.1l9.632,52.952a7.57,7.57,0,0,0,7.116,6.03h78.123a4.722,4.722,0,0,0,3.715-1.626,4.964,4.964,0,0,0,.954-4.1l-9.632-52.939a7.57,7.57,0,0,0-7.116-6.032Z" transform="translate(-313.047 -383.909)"/><path class="c" d="M489.6,548.909H461.54a3.043,3.043,0,0,1-2.859-2.421h0a1.968,1.968,0,0,1,1.978-2.419h28.06a3.045,3.045,0,0,1,2.859,2.419h0A1.97,1.97,0,0,1,489.6,548.909Z" transform="translate(-357.047 -423.679)"/><path class="c" d="M480.407,591.755h-12.17a2.186,2.186,0,0,1-2.053-1.737l-.248-1.363a1.412,1.412,0,0,1,1.421-1.737h12.17a2.188,2.188,0,0,1,2.053,1.737l.248,1.363a1.412,1.412,0,0,1-1.053,1.7A1.366,1.366,0,0,1,480.407,591.755Z" transform="translate(-362.697 -457.044)"/><path class="c" d="M493.864,633.7H476.37a2.562,2.562,0,0,1-2.41-2.038l-.137-.757a1.659,1.659,0,0,1,1.668-2.04h17.494a2.562,2.562,0,0,1,2.41,2.04l.137.757a1.657,1.657,0,0,1-1.23,1.992A1.629,1.629,0,0,1,493.864,633.7Z" transform="translate(-368.843 -489.714)"/><path class="c" d="M513.266,678.985h-28.06a3.038,3.038,0,0,1-2.857-2.416h0a1.967,1.967,0,0,1,1.978-2.419h28.06a3.041,3.041,0,0,1,2.857,2.419h0A1.965,1.965,0,0,1,513.266,678.985Z" transform="translate(-375.477 -524.975)"/><path class="c" d="M558.343,591.755h-12.17a2.188,2.188,0,0,1-2.053-1.737l-.252-1.363a1.412,1.412,0,0,1,1.053-1.7,1.379,1.379,0,0,1,.37-.038h12.17a2.188,2.188,0,0,1,2.054,1.737l.248,1.363a1.412,1.412,0,0,1-1.418,1.737Z" transform="translate(-423.384 -457.044)"/><path class="c" d="M503.342,717.894h-12.17a2.186,2.186,0,0,1-2.051-1.737l-.254-1.363a1.412,1.412,0,0,1,1.421-1.737h12.17a2.189,2.189,0,0,1,2.053,1.737l.246,1.363a1.412,1.412,0,0,1-1.047,1.7A1.373,1.373,0,0,1,503.342,717.894Z" transform="translate(-380.553 -555.272)"/><path class="c" d="M581.332,717.894h-12.17a2.188,2.188,0,0,1-2.053-1.737l-.241-1.363a1.412,1.412,0,0,1,1.053-1.7,1.363,1.363,0,0,1,.367-.038h12.17a2.188,2.188,0,0,1,2.053,1.737l.248,1.363a1.418,1.418,0,0,1-1.427,1.737Z" transform="translate(-441.295 -555.272)"/><path class="c" d="M698.082,662.595H670.03a3.04,3.04,0,0,1-2.859-2.416h0a1.968,1.968,0,0,1,1.978-2.419h28.06a3.045,3.045,0,0,1,2.863,2.419h0A1.972,1.972,0,0,1,698.082,662.595Z" transform="translate(-519.402 -512.211)"/><path class="c" d="M688.189,701.5h-12.17a2.188,2.188,0,0,1-2.054-1.737l-.248-1.363a1.412,1.412,0,0,1,1.053-1.7,1.361,1.361,0,0,1,.367-.038h12.17a2.188,2.188,0,0,1,2.053,1.737l.248,1.363a1.412,1.412,0,0,1-1.053,1.7,1.363,1.363,0,0,1-.367.038Z" transform="translate(-524.501 -542.509)"/><path class="c" d="M766.135,701.5h-12.17a2.188,2.188,0,0,1-2.053-1.737l-.246-1.363a1.412,1.412,0,0,1,1.421-1.737h12.17a2.186,2.186,0,0,1,2.051,1.737l.248,1.363a1.412,1.412,0,0,1-1.421,1.737Z" transform="translate(-585.201 -542.509)"/><path class="c" d="M584.52,633.7h-7.577a1.77,1.77,0,0,1-1.675-1.416l-.374-2a1.155,1.155,0,0,1,1.16-1.416h7.577a1.784,1.784,0,0,1,1.675,1.416l.365,2a1.151,1.151,0,0,1-.859,1.385A1.182,1.182,0,0,1,584.52,633.7Z" transform="translate(-447.552 -489.712)"/><path class="m" d="M570.883,747.507h12.17a2.184,2.184,0,0,1,2.053,1.737l.248,1.361a1.412,1.412,0,0,1-1.421,1.737H571.768a2.184,2.184,0,0,1-2.054-1.737l-.248-1.361a1.412,1.412,0,0,1,1.053-1.7,1.34,1.34,0,0,1,.363-.038Z" transform="translate(-443.319 -582.099)"/><path class="n" d="M680.966,747.507h12.17a2.184,2.184,0,0,1,2.053,1.737l.248,1.361a1.412,1.412,0,0,1-1.053,1.7,1.363,1.363,0,0,1-.367.038h-12.17a2.184,2.184,0,0,1-2.054-1.737l-.248-1.361a1.412,1.412,0,0,1,1.421-1.737Z" transform="translate(-529.04 -582.099)"/><path class="f" d="M515.69,689.12l2.905,7.1.1-4.554,4.384-.934Z" transform="translate(-401.472 -536.632)"/><path class="f" d="M528.55,697.967l-1.129,1.379-4.711-3.987,1.126-1.379Z" transform="translate(-406.938 -540.417)"/><path class="f" d="M485.077,552.869H465.64a.85.85,0,0,1,0-1.7h19.439a.85.85,0,1,1,0,1.7Z" transform="translate(-361.835 -429.207)"/><path class="f" d="M481.865,595.709H473.3a.85.85,0,0,1,0-1.7h8.566a.85.85,0,0,1,0,1.7Z" transform="translate(-367.8 -462.568)"/><path class="f" d="M557.556,595.709H548.07a.85.85,0,0,1,0-1.7h9.488a.85.85,0,0,1,0,1.7Z" transform="translate(-426.025 -462.568)"/><path class="f" d="M490.9,637.657H478.872a.85.85,0,0,1,0-1.7H490.9a.85.85,0,0,1,0,1.7Z" transform="translate(-372.173 -495.235)"/><path class="f" d="M494.347,679.713a.85.85,0,0,1-.834-.7l-.432-2.368a.85.85,0,0,1,1.671-.3l.431,2.368a.85.85,0,0,1-.682.987h0A.89.89,0,0,1,494.347,679.713Z" transform="translate(-383.859 -526.167)"/><path class="j" d="M603.429,795.373H512.835L458.94,788.96h90.6Z" transform="translate(-357.279 -614.38)"/><path class="f" d="M603.047,793.24h-90.7l-53.893-6.417.1-1.693h90.707l53.892,6.417Zm-90.545-1.7h76.231L549.1,786.825H472.875Z" transform="translate(-356.898 -611.397)"/><path class="f" d="M668.58,799.171H607.188L587.7,797.02h61.39Z" transform="translate(-457.547 -620.656)"/><path class="j" d="M456.36,788.96v1.784l53.1,6.844v-2" transform="translate(-355.27 -614.38)"/><path class="f" d="M506.431,795.365h-.108l-53.107-6.846a.85.85,0,0,1-.739-.841v-1.77a.85.85,0,0,1,1.7-.086.567.567,0,0,1,0,.086v1.036l51.4,6.638v-1.069a.85.85,0,1,1,1.7,0v2.014a.852.852,0,0,1-.85.85Z" transform="translate(-352.245 -611.307)"/><path class="j" d="M696.31,818.323v1.784l91.964-.425V817.94" transform="translate(-542.124 -636.947)"/><path class="f" d="M693.32,818.165a.85.85,0,0,1-.85-.85h0v-1.784a.85.85,0,0,1,1.7,0v.932l90.266-.416v-.885a.85.85,0,0,1,1.7,0V816.9a.848.848,0,0,1-.845.848l-91.964.427Z" transform="translate(-539.134 -634.155)"/><path class="c" d="M678.334,562.163H651.458a3.657,3.657,0,0,1-3.556-2.917l-2.611-16.64a2.51,2.51,0,0,1,2.642-2.916h26.874a3.653,3.653,0,0,1,3.556,2.916l2.611,16.64A2.508,2.508,0,0,1,678.334,562.163Z" transform="translate(-502.368 -420.268)"/><path class="o" d="M678.091,600.542a1.949,1.949,0,0,1-.018.6c-.073.352-.221.489-.443.544a4.543,4.543,0,0,1-.885,0H664.8l-.2-1.155-.1-.538a5.193,5.193,0,0,1-.015-1.726,2.575,2.575,0,0,1,.761-1.549,5.592,5.592,0,0,1,1.666-1.171,9.977,9.977,0,0,1,7.207-.193,5.237,5.237,0,0,1,1.972,1.27,9.477,9.477,0,0,1,1.348,1.633l.033.053a6.719,6.719,0,0,1,.582,1.9Q678.076,600.387,678.091,600.542Z" transform="translate(-517.289 -463.163)"/><path class="p" d="M678.091,612.874h-13.5l-.1-.538a5.193,5.193,0,0,1-.015-1.726h12.954l.033.053a6.723,6.723,0,0,1,.582,1.9Q678.076,612.719,678.091,612.874Z" transform="translate(-517.289 -475.495)"/><path class="f" d="M708.281,611.135a.186.186,0,0,1-.182-.148l-.8-3.64a.186.186,0,0,1,.363-.084h0l.8,3.64a.19.19,0,0,1-.144.221Z" transform="translate(-550.681 -472.776)"/><path class="f" d="M677.125,611.986a.188.188,0,0,1-.184-.148l-.8-3.636a.187.187,0,1,1,.365-.08l.8,3.64a.188.188,0,0,1-.142.221Z" transform="translate(-526.418 -473.443)"/><path class="f" d="M733.669,563.979H722.94a.87.87,0,1,1,0-1.739h10.73a.87.87,0,0,1,0,1.739Z" transform="translate(-562.184 -437.828)"/><path class="f" d="M735.383,583.309H725.99a.87.87,0,0,1,0-1.739h9.393a.87.87,0,0,1,0,1.739Z" transform="translate(-564.559 -452.881)"/><path class="f" d="M739.251,605.779H732.52a.87.87,0,0,1,0-1.739h6.731a.87.87,0,1,1,0,1.739Z" transform="translate(-569.644 -470.379)"/><path class="q" d="M683.527,579.05l.018.031c.073.137.106.33.166.48l1.016,2.576c.15.378.285.761.471,1.129a1.157,1.157,0,0,1,.015,1.044,1.559,1.559,0,0,1-1.027.741,4.151,4.151,0,0,1-1.4.066,2.8,2.8,0,0,1-.763-.155.866.866,0,0,1-.64-1.007,2.684,2.684,0,0,0,.084-1.3l-.354-1.328c-.071-.266-.146-.531-.221-.8a1.442,1.442,0,0,1-.049-1.091,1.568,1.568,0,0,1,.728-.664,1.9,1.9,0,0,1,1.038-.221A1.464,1.464,0,0,1,683.527,579.05Z" transform="translate(-530.005 -450.527)"/><path class="r" d="M695.447,586.874h.016a.068.068,0,0,0,.044-.075l-.949-2.275c-.184-.476-.75-2.071-.75-2.071a.109.109,0,0,0-.086-.053.069.069,0,0,0-.044.075l.75,2.071c.166.427.949,2.27.949,2.27A.066.066,0,0,0,695.447,586.874Z" transform="translate(-540.073 -453.527)"/><path class="s" d="M691.86,556.124a1.229,1.229,0,0,1,1.259-.664,2.541,2.541,0,0,1,2.087.885c.2.248.308.542.527.781.323.352.746.593,1.044.976a1.613,1.613,0,0,1,.363,1.549c-.206.467-.744.721-.9,1.206a2.7,2.7,0,0,0,.29,1.549,3.928,3.928,0,0,1-1.058,4.229.828.828,0,0,1-1,.173,1.008,1.008,0,0,1-.292-.443,6.109,6.109,0,0,1-.761-3.45,3.845,3.845,0,0,1,.589-1.3,6.04,6.04,0,0,0,.476-1.022,2.52,2.52,0,0,0-.378-2.4c-.367-.374-.542-.308-.542-.308Z" transform="translate(-538.659 -432.548)"/><path class="t" d="M670.58,564a16.921,16.921,0,0,0,.474,2.863,2.221,2.221,0,0,0,1.361,1.615,3.3,3.3,0,0,0,2.031-.354c.524-.235.812-.5.863-.816a6.938,6.938,0,0,1,.175-.763l-.128-1.009-1.525-2.611Z" transform="translate(-522.088 -438.357)"/><path class="s" d="M674.559,558.591a4.826,4.826,0,0,1,1.467,2.213,2.788,2.788,0,0,1,.091,1.569,1.091,1.091,0,0,1-.9.885,1.02,1.02,0,0,1-.98-.555,2.588,2.588,0,0,0-.715-1.106c-.414.164-.836.049-1-.664-.193-.8-.221-1.354-.37-1.454-.195-.135-.462,0-1.516.243s-1.77.246-1.894.053c-.106-.069.221-.7.715-1.328a3.053,3.053,0,0,1,2.3-1.018A3.843,3.843,0,0,1,674.559,558.591Z" transform="translate(-520.639 -434.081)"/><ellipse class="t" cx="0.817" cy="0.949" rx="0.817" ry="0.949" transform="translate(152.44 127.921) rotate(-44.89)"/><path class="u" d="M690.681,575.735a.919.919,0,0,0,.589.279.686.686,0,0,0,.739-.779.987.987,0,0,0-.885-.865.684.684,0,0,0-.688.409.1.1,0,0,1-.086-.02.1.1,0,0,1-.042-.093.823.823,0,0,1,.786-.443,1.14,1.14,0,0,1,1.053,1,.8.8,0,0,1-.712.885.764.764,0,0,1-.159,0,1.037,1.037,0,0,1-.6-.221Z" transform="translate(-537.449 -447.158)"/><path class="u" d="M677.648,583a2.51,2.51,0,0,0,.653-.073,3.742,3.742,0,0,0,1.58-.763.772.772,0,0,0,.268-.664c0-.031,0-.08-.042-.08s-.047.029-.06.058a.814.814,0,0,1-.259.589,3.647,3.647,0,0,1-1.516.737,2.634,2.634,0,0,1-.985.055,1.223,1.223,0,0,1-.549-.188c-.071-.051-.086-.051-.049,0a1.22,1.22,0,0,0,.591.3A3.382,3.382,0,0,0,677.648,583Z" transform="translate(-526.83 -452.764)"/><ellipse class="v" cx="0.363" cy="0.423" rx="0.363" ry="0.423" transform="matrix(0.63, -0.776, 0.776, 0.63, 153.137, 128.039)"/><path class="f" d="M692.267,559.978l.374-.221s.186-.314-.732-1.272c-.845-.885-1.328-.905-1.418-.817l-.35.305a7.022,7.022,0,0,1,2.126,2.011Z" transform="translate(-537.32 -434.241)"/><path class="r" d="M679.891,581.467a.111.111,0,0,1,0-.221c.562-.02.651-.312.693-.454l.011-.035a.111.111,0,0,1,.21.064v.033a.816.816,0,0,1-.885.611Z" transform="translate(-529.252 -452.196)"/><path class="w" d="M676.21,577.589H676.2a.409.409,0,0,1-.385-.294.533.533,0,0,1,.139-.46.113.113,0,0,1,.15.044.115.115,0,0,1,0,.122.356.356,0,0,0-.069.235c.029.1.1.124.2.135a.111.111,0,0,1-.013.221Z" transform="translate(-526.156 -449.183)"/><ellipse class="x" cx="0.206" cy="0.244" rx="0.206" ry="0.244" transform="matrix(0.529, -0.849, 0.849, 0.529, 150.773, 127.205)"/><path class="x" d="M679.714,574.586c.033,0,.15.024.164,0s-.093-.113-.146-.146a.757.757,0,0,0-.354-.082.068.068,0,0,0-.077.06v.013a.1.1,0,0,0,.091.082.849.849,0,0,1,.288.062.055.055,0,0,0,.035.018Z" transform="translate(-528.878 -447.264)"/><path class="x" d="M679.79,574.615a.08.08,0,0,1-.06-.027.556.556,0,0,0-.358-.1.084.084,0,0,1-.082-.082h0a.084.084,0,0,1,.08-.084h0a.664.664,0,0,1,.476.151.082.082,0,0,1,0,.115h0A.086.086,0,0,1,679.79,574.615Z" transform="translate(-528.87 -447.235)"/><ellipse class="x" cx="0.206" cy="0.244" rx="0.206" ry="0.244" transform="matrix(0.529, -0.849, 0.849, 0.529, 149.03, 126.994)"/><path class="x" d="M671.96,573.642a.079.079,0,0,1-.06-.027.556.556,0,0,0-.358-.1.084.084,0,0,1-.082-.082h0a.088.088,0,0,1,.086-.084.664.664,0,0,1,.476.142.089.089,0,0,1,0,.12A.093.093,0,0,1,671.96,573.642Z" transform="translate(-522.773 -446.477)"/><path class="y" d="M679.879,571.324a.112.112,0,0,1-.069-.024c-.02-.015-.04-.035-.064-.057a.885.885,0,0,0-.675-.257.108.108,0,0,1-.1-.115h0a.113.113,0,0,1,.115-.1,1.084,1.084,0,0,1,.816.321l.047.044a.108.108,0,0,1-.069.193Z" transform="translate(-528.62 -444.467)"/><path class="y" d="M671.617,570.286a.106.106,0,0,1-.091-.049.108.108,0,0,1,.031-.15h0A.549.549,0,0,1,672,570a.111.111,0,0,1,.093.124.108.108,0,0,1-.122.093h0a.347.347,0,0,0-.3.046.089.089,0,0,1-.053.018Z" transform="translate(-522.811 -443.862)"/><ellipse class="c" cx="0.301" cy="0.356" rx="0.301" ry="0.356" transform="translate(154.129 131.68) rotate(-58.02)"/><ellipse class="c" cx="0.301" cy="0.356" rx="0.301" ry="0.356" transform="translate(153.373 131.998) rotate(-58.02)"/><ellipse class="c" cx="0.301" cy="0.356" rx="0.301" ry="0.356" transform="matrix(0.529, -0.849, 0.849, 0.529, 152.914, 131.931)"/><ellipse class="c" cx="0.301" cy="0.356" rx="0.301" ry="0.356" transform="translate(151.798 132.317) rotate(-58.02)"/><ellipse class="c" cx="0.301" cy="0.356" rx="0.301" ry="0.356" transform="translate(151.02 132.318) rotate(-58.02)"/><path class="z" d="M419.456,560.911h2.877l65.016-63.781H412.528a5.4,5.4,0,0,0-5.446,6.656l9.161,50.354.372,2.036a8.187,8.187,0,0,0,2.841,4.735Z" transform="translate(-316.81 -387.125)"/><g transform="translate(117.832 111.283)"><path class="aa" d="M546.118,519.505a2.853,2.853,0,0,0,1.173.252c.663,0,1.109-.313,1.143-1.3l.017-.48h-.017a1.256,1.256,0,0,1-1.2.751,1.724,1.724,0,0,1-1.611-1.5A2.243,2.243,0,0,1,547.9,514.4a4.16,4.16,0,0,1,1.528.3V518.2a2.638,2.638,0,0,1-.53,1.894,2.144,2.144,0,0,1-1.495.471,3.067,3.067,0,0,1-1.386-.277Zm2.307-4.207a1.519,1.519,0,0,0-.577-.105c-.89,0-1.345.959-1.179,1.877.072.444.333.865.832.865s.9-.6.912-1.373Z" transform="translate(-545.577 -512.467)"/><path class="aa" d="M567.062,514.726l-.025,2.934c0,.508.014.951.031,1.317h-.9l-.047-.74H566.1a1.508,1.508,0,0,1-1.323.832,1.291,1.291,0,0,1-1.328-1.206,3.464,3.464,0,0,1-.05-.757l.019-2.385h1.012v2.324a2.933,2.933,0,0,0,.036.582.63.63,0,0,0,.652.6c.471,0,.921-.555.926-1.442l.017-2.069Z" transform="translate(-558.456 -512.699)"/><path class="aa" d="M583.3,518.5a3.016,3.016,0,0,1-1.439.333,1.977,1.977,0,0,1-2.066-1.755,2.1,2.1,0,0,1,1.922-2.679,1.518,1.518,0,0,1,1.589,1.2c.2,1.09-.882,1.439-2.529,1.406a1.346,1.346,0,0,0,.222.6,1.148,1.148,0,0,0,.954.435,2.183,2.183,0,0,0,1.109-.277Zm-1.575-3.344a1.034,1.034,0,0,0-.982,1.084c1.051.017,1.694-.13,1.6-.638A.574.574,0,0,0,581.724,515.157Z" transform="translate(-570.273 -512.467)"/><path class="aa" d="M595.166,517.785a2.678,2.678,0,0,0,1.073.277c.41,0,.613-.244.555-.524s-.219-.435-.677-.654a1.668,1.668,0,0,1-1.04-1.109c-.15-.832.46-1.387,1.464-1.387a2.383,2.383,0,0,1,1.045.216l-.13.735a1.879,1.879,0,0,0-.832-.194c-.383,0-.607.211-.555.5.042.236.277.4.657.585a1.773,1.773,0,0,1,1.09,1.143c.169.934-.524,1.45-1.544,1.45a2.551,2.551,0,0,1-1.242-.305Z" transform="translate(-581.317 -512.457)"/><path class="aa" d="M608.467,510.52v1.17h.957v.785h-.951l-.028,1.722a3.962,3.962,0,0,0,.039.6.413.413,0,0,0,.444.374h0a2.408,2.408,0,0,0,.347-.017l.05.793a2.148,2.148,0,0,1-.649.089,1.075,1.075,0,0,1-1.17-.874,3.443,3.443,0,0,1-.05-.793l.022-1.9H606.9v-.785h.582v-.915Z" transform="translate(-589.895 -509.663)"/><path class="aa" d="M618.16,517.785a2.69,2.69,0,0,0,1.076.277c.408,0,.61-.244.555-.524s-.219-.435-.677-.654a1.668,1.668,0,0,1-1.04-1.109c-.15-.832.463-1.387,1.467-1.387a2.372,2.372,0,0,1,1.043.216l-.128.735a1.92,1.92,0,0,0-.832-.194c-.383,0-.607.211-.555.5.044.236.277.4.657.585a1.773,1.773,0,0,1,1.09,1.143c.169.935-.521,1.45-1.545,1.45a2.551,2.551,0,0,1-1.242-.305Z" transform="translate(-597.939 -512.457)"/><path class="aa" d="M636.953,508.969a.491.491,0,0,1,.341-.6.511.511,0,0,1,.158-.017.654.654,0,0,1,.641.555.494.494,0,0,1-.358.6.455.455,0,0,1-.161,0A.632.632,0,0,1,636.953,508.969Zm0,5.4.03-4.251H638l-.039,4.251Z" transform="translate(-611.6 -508.093)"/><path class="aa" d="M644.836,518.744l.017-2.931c0-.507,0-.954-.022-1.32h.9l.053.768h.019a1.461,1.461,0,0,1,1.37-.862,1.289,1.289,0,0,1,1.295,1.167,4.3,4.3,0,0,1,.05.707l-.022,2.471h-1.012l.017-2.4a3.132,3.132,0,0,0-.039-.508c-.064-.349-.244-.61-.643-.61-.463,0-.957.555-.957,1.553v1.963Z" transform="translate(-617.306 -512.465)"/><path class="aa" d="M661.222,513.7l.022-3.466h-.555v-.785h.555v-.205a2.027,2.027,0,0,1,.446-1.431,1.459,1.459,0,0,1,1.045-.391,1.57,1.57,0,0,1,.649.111l-.044.8a1.164,1.164,0,0,0-.424-.069c-.48,0-.671.444-.666,1v.2h.879v.785h-.879l-.025,3.466Z" transform="translate(-628.769 -507.425)"/><path class="aa" d="M675.052,516.161a2.074,2.074,0,1,1-2.069-1.761A2.074,2.074,0,0,1,675.052,516.161Zm-2.989.9a1.084,1.084,0,0,0,1.012,1c.757,0,1.073-1.048.921-1.9a1.065,1.065,0,0,0-.99-.976C672.193,515.185,671.918,516.266,672.063,517.062Z" transform="translate(-636.198 -512.467)"/></g><path class="k" d="M1254.506,876.83V1066H1236.37V876.83" transform="translate(-962.68 -682.806)"/><path class="j" d="M1252.332,1066.865H1232.47V876.83h1.726v188.309h16.41V876.83h1.726Z" transform="translate(-959.643 -682.806)"/><path class="ab" d="M820.663,1028.648c7.586,2.5,15.472,6.984,18.959,14.522,3.078,6.652,1.77,14.857-2.434,20.856a29.258,29.258,0,0,1-14.056,10.347,41.41,41.41,0,0,1-11.272,2.405c-8.154.6-16.231-.852-24.175-2.531-6.955-1.472-14.7-1.21-21.862-1.744-13.122-.978-17.2-1.343-31.167-1.6-.794-.015-1.941.022-3.319.1a24.148,24.148,0,0,1-25.137-20.114h0a24.168,24.168,0,0,1,19.4-27.766c4.18-.781,7.714-1.452,9.336-1.784a49.43,49.43,0,0,1,9.834-.7c17.379-.044,34.862,2.2,52.155,3.733C804.6,1025.052,813.3,1026.225,820.663,1028.648Z" transform="translate(-549.562 -794.791)"/><path class="ac" d="M615.548,1047.923a28.487,28.487,0,0,1,24.294-27.881l55.127-8.207c11.013-1.567,22.009-3.262,33.017-4.868,3.063-.443,6.149-.805,9.2-1.328,1.233-.221,2.461-.46,3.675-.752,3.6-.863,7.081-.035,10.621.943A45.913,45.913,0,0,1,772.366,1018c8.032,8.367,12.361,20.415,10.557,31.864-1.582,10.048-9.559,22.845-20.316,25.067-11.208,2.317-21.907,1.509-33.252,1.633-21.889.239-56.776.465-85.651.151a28.485,28.485,0,0,1-28.162-28.8Z" transform="translate(-479.228 -782.244)"/><path class="ac" d="M648.223,1233.76c.768-12.522-7.49-91.532-7.488-105.46-.761-10.694-3.22-25.89,6.349-33.466a18.775,18.775,0,0,1,21.464-.885c12,7.993,6.479,20.922,5.154,32.358-.71,5.775,2.1,37.75-.193,58.57-2.941,27.722-4.359,53.811-4.505,56.663C665.554,1251.239,649.759,1250.422,648.223,1233.76Z" transform="translate(-498.184 -849.586)"/><path class="ad" d="M1137.051,795.5h-52.164a24.264,24.264,0,0,1-23.268-31.145l38.463-130.033a24.266,24.266,0,0,1,24.027-17.366l56.107,1.77a15.251,15.251,0,0,1,14.352,18.849l-33.935,139.406a24.268,24.268,0,0,1-23.582,18.519Z" transform="translate(-825.81 -480.428)"/><path class="ae" d="M1468.134,483.065h-19.915a9.628,9.628,0,0,1-9.6-9.6V459.822a18.065,18.065,0,0,1,18.01-18.012h11.506a18.065,18.065,0,0,1,18.01,18.012v5.233A18.065,18.065,0,0,1,1468.134,483.065Z" transform="translate(-1120.176 -344.047)"/><path class="ab" d="M470.749,1061.711c5.474-11.6,12.075-31.09,27.954-30.523a17.976,17.976,0,0,1,13.728,28.771c-4.565,6.3-9.072,12.783-13.562,19.238-1.527,2.071-14.3,24.878-24.8,40.18q-11.192,16.222-22.15,32.608c-2.175,3.244-4.516,6.43-6.545,9.767-2.593,4.26-4.777,8.209-10.4,8.756-.221.02-.443.035-.653.044a11.65,11.65,0,0,1-10.694-6.534c-3.432-7.3,2.815-14.186,6.245-20.274,3.6-6.382,6.964-12.89,10.294-19.413,7.616-14.912,14.95-29.97,22.2-45.066Q466.6,1070.5,470.749,1061.711Z" transform="translate(-329.003 -802.998)"/><path class="af" d="M685.4,1061.948c-.885,2.346-2.12,4.5-3.945,5.583-2.6,1.549-5.8,1.7-8.809,1.44s-6.01-.885-9.033-.779c-1.79.069-3.576.4-5.366.292a6.192,6.192,0,0,1-4.72-2.188c-1.055-1.449-.562-2.671-.04-4.138s1.133-3.049,1.631-4.713c2.153-7.174,4.819-16.507,10.821-21.464,4.353-3.587,14.427-7.409,18.972-2.16,1.618,1.865,1.963,4.487,2.138,6.95.352,4.965,1.033,10.115,0,15.047A41.463,41.463,0,0,1,685.4,1061.948Z" transform="translate(-508.322 -803.051)"/><path class="ag" d="M1010.994,482.333l-1.578-3.266-2.388-6.78c-.622-1.7-.33-19.287-.33-19.287l8.7,1.562,4.791,10.891-.664,8.889Z" transform="translate(-783.777 -352.76)"/><path class="ah" d="M1024.525,537.895s-8.811,3.067-10.73,1.992c-2.315-1.3-2.365-5.388-2.365-5.388s10.907-3.414,13.308-1.106C1025.548,534.179,1024.525,537.895,1024.525,537.895Z" transform="translate(-787.515 -414.74)"/><path class="ai" d="M991.081,426.365l-13.693,1.607a1.969,1.969,0,0,1-2.188-1.724h0l-3.507-29.9a1.5,1.5,0,0,1,1.312-1.664h0l14.635-1.717a1.5,1.5,0,0,1,1.664,1.317l3.505,29.9a1.972,1.972,0,0,1-1.726,2.186Z" transform="translate(-756.562 -306.002)"/><rect class="aj" width="16.18" height="31.344" rx="1" transform="translate(215.817 89.516) rotate(-6.69)"/><circle class="n" cx="4.698" cy="4.698" r="4.698" transform="translate(221.081 97.462)"/><g class="ak" transform="translate(225.18 100.598)"><path class="c" d="M1020.831,462.006a3.693,3.693,0,1,1,3.673-4.122h0a3.7,3.7,0,0,1-3.235,4.1A3.649,3.649,0,0,1,1020.831,462.006Zm0-6.873a2.99,2.99,0,0,0-.372.022,3.18,3.18,0,1,0,3.529,2.788h0a3.184,3.184,0,0,0-3.149-2.81Z" transform="translate(-1017.143 -454.619)"/></g><g class="ak" transform="translate(224.083 99.496)"><path class="c" d="M1016.97,459.212a4.786,4.786,0,1,1,.566-.033A4.786,4.786,0,0,1,1016.97,459.212Zm.013-9.137a4.4,4.4,0,0,0-.511.031,4.348,4.348,0,1,0,.511-.031Z" transform="translate(-1012.187 -449.639)"/></g><path class="c" d="M1010.018,449.843a.613.613,0,0,1-.389-.139l-2.478-2.04a.611.611,0,0,1,.768-.949h0l1.9,1.549,2.434-4.671a.611.611,0,0,1,1.084.564l-2.779,5.342a.613.613,0,0,1-.42.316A.583.583,0,0,1,1010.018,449.843Z" transform="translate(-784.016 -345.178)"/><path class="ai" d="M995.921,510.58l-.817,2.306-.443.053-.792-2.118.394-.046a.164.164,0,0,1,.1.02.11.11,0,0,1,.055.071l.37,1.175c.018.044.035.1.055.155s.033.115.049.177c.016-.064.031-.128.047-.188a1.505,1.505,0,0,1,.055-.168l.367-1.261a.238.238,0,0,1,.022-.042.207.207,0,0,1,.035-.04.256.256,0,0,1,.1-.047Z" transform="translate(-773.84 -397.599)"/><path class="ai" d="M1004.417,510.318v.533l.615-.073v.367l-.613.073v.549l.812-.1v.383l-1.3.153.013-2.213,1.3-.153v.383Z" transform="translate(-781.674 -397.023)"/><path class="ai" d="M1011.8,509.243a1.127,1.127,0,0,1,.345,0,.662.662,0,0,1,.246.089.442.442,0,0,1,.153.164.557.557,0,0,1,.066.221.819.819,0,0,1,0,.232.785.785,0,0,1-.071.21.643.643,0,0,1-.131.177.759.759,0,0,1-.188.137.361.361,0,0,1,.089.053.32.32,0,0,1,.073.082l.407.73-.443.051a.208.208,0,0,1-.1,0,.15.15,0,0,1-.066-.062l-.312-.617a.124.124,0,0,0-.053-.053.171.171,0,0,0-.082,0l-.111.013v.825l-.485.057v-2.213Zm0,1.044a.4.4,0,0,0,.175-.053.312.312,0,0,0,.108-.1.324.324,0,0,0,.051-.133.6.6,0,0,0,0-.155.359.359,0,0,0-.031-.108.221.221,0,0,0-.066-.08.293.293,0,0,0-.1-.042.359.359,0,0,0-.137,0l-.175.02v.677Z" transform="translate(-787.281 -396.548)"/><path class="ai" d="M1019.078,509.277v.85l-.489.058v-.843l-.719-1.283.443-.051a.137.137,0,0,1,.1.018.144.144,0,0,1,.06.071l.288.635a1.775,1.775,0,0,1,.1.235c.016-.04.031-.082.049-.124s.04-.086.06-.135l.294-.7a.4.4,0,0,1,.058-.08.168.168,0,0,1,.1-.046l.4-.046Z" transform="translate(-792.53 -395.458)"/><path class="ai" d="M1027.9,507.518v.582l.664-.077v.381l-.664.077v.867l-.491.058.013-2.213,1.3-.153v.381Z" transform="translate(-799.959 -394.843)"/><path class="ai" d="M1035.049,508.843l-.489.058v-2.213l.491-.058Z" transform="translate(-805.526 -394.523)"/><path class="ai" d="M1039.132,506.206v.535l.617-.073v.367l-.613.073v.549l.814-.1v.383l-1.3.153.013-2.213,1.3-.153v.383Z" transform="translate(-808.711 -393.822)"/><path class="ai" d="M1047.642,506.01a1.271,1.271,0,0,1,0,.343,1.483,1.483,0,0,1-.08.31,1.125,1.125,0,0,1-.372.482,1.086,1.086,0,0,1-.274.155,1.259,1.259,0,0,1-.323.08l-.783.093.013-2.213.783-.091a.986.986,0,0,1,.394.027.852.852,0,0,1,.533.443A1.033,1.033,0,0,1,1047.642,506.01Zm-.5.071a.867.867,0,0,0-.06-.237.5.5,0,0,0-.113-.175.444.444,0,0,0-.161-.1.508.508,0,0,0-.208-.018l-.292.035v1.447l.294-.033a.587.587,0,0,0,.261-.091.567.567,0,0,0,.184-.193.75.75,0,0,0,.1-.279,1.266,1.266,0,0,0,0-.365Z" transform="translate(-814.287 -393.378)"/><path class="al" d="M1026.972,482.114c3.6-1.179,4.41-.378,4.41-.378V479.8c.022-2.029.642-6.541.642-6.541a11.916,11.916,0,0,1-2.352-6.233,3.361,3.361,0,0,1,1.306-2.68s4.342,5.065,4.965,7.081c.664,1.927,1.5,4.563.713,6.984a60.354,60.354,0,0,0-1.713,6.711c-.531,2.618-.1,5.41-1.549,7.782a5.4,5.4,0,0,1-4.775,2.7,5.785,5.785,0,0,1-4.1-2.565c-1.069-1.5-2.536-4.023-1.876-5.871C1023.363,485.1,1024.761,482.838,1026.972,482.114Z" transform="translate(-796.117 -361.599)"/><path class="al" d="M1029.843,563.193a6.365,6.365,0,0,1,6.437-2.323,7.777,7.777,0,0,1,4.618,3.277l.016-.011c.055.089.124.19.188.285.624.85,1.208,1.757,1.848,2.627,4.032,5.479,8.324,10.776,12.628,16.045L1044,593.022c.044-.04-1.106-1.83-1.164-1.936l-4.959-8.238-5.466-9.072a39.966,39.966,0,0,1-2.281-4.45C1029.243,567.269,1028.433,565.171,1029.843,563.193Z" transform="translate(-801.258 -436.648)"/><path class="am" d="M1076.248,641.655c-.717-.971-1.549-1.892-2.186-2.905-1.106-1.781-2.025-3.7-3.029-5.532l-5.961-10.9a5.739,5.739,0,0,1-.912-2.6c-.013-1.474,1.213-1.885,2.213-2.627,1.106-.825,2.213-1.638,3.319-2.456.85-.626,1.62-1.474,2.487-2.029a1.78,1.78,0,0,1,1.795-.153,2.668,2.668,0,0,1,.706.695l14.109,17.961a4.94,4.94,0,0,1,1.02,1.753c.394,1.549-.885,2.4-1.943,3.18l-3.576,2.638-4.729,3.487A2.376,2.376,0,0,1,1076.248,641.655Z" transform="translate(-828.576 -476.786)"/><path class="an" d="M1095.552,658.422c-7.758-6.7-16.454-12.372-23.823-19.55a1.328,1.328,0,0,0-1.856-.053l-17.05,15.722a1.4,1.4,0,0,0-.281,1.682c2.173,3.813,12.644,19.561,24.308,29.565,6.437,5.545,14.923,10.475,22.878,4.565a16.714,16.714,0,0,0,6.349-14.089C1105.713,668.873,1100.885,663.029,1095.552,658.422Z" transform="translate(-819.406 -497.187)"/><path class="f" d="M1065.587,637.784l-18.207,17.01a1.149,1.149,0,0,0,0,1.622l.022.02,4.857,5.393,20.417-18.857-5.464-5.311a1.139,1.139,0,0,0-1.626.124Z" transform="translate(-815.249 -496.338)"/><path class="an" d="M1189.725,565.24c-4.611,3.762-7.415,9.194-11.553,13.467a141.238,141.238,0,0,0-13.941,16.9,31.367,31.367,0,0,0-5.421,20.63,23.424,23.424,0,0,0,2.963,9.095c2.89,4.344,7.915,6.167,12.761,6.7,6.747.748,12.761-1.739,17.645-6.165,2.717-2.463,5.753-4.5,8.409-7.1a97.4,97.4,0,0,0,7.229-8.024c4.946-6.094,10.217-12.69,13.317-19.946,2.419-5.66,3.4-12.142,1.549-18.008a20.057,20.057,0,0,0-9.369-11.4,17.942,17.942,0,0,0-12.19-2.082A33.328,33.328,0,0,0,1189.725,565.24Z" transform="translate(-902.156 -435.291)"/><path class="t" d="M1361.855,437.157c.026.064.053.128.075.193a29.813,29.813,0,0,1,.564,3.149q1.89,8.44,3.775,16.884c.558,2.492,1.02,5,1.812,7.406a8.223,8.223,0,0,1-.907,6.86,11.9,11.9,0,0,1-7.063,4.868,24.3,24.3,0,0,1-8.718.425,14.682,14.682,0,0,1-4.554-1.013c-2.682-1.2-4.2-3.784-2.983-6.592,2.133-5.145,1.783-8.541,1.783-8.541l-.907-8.63c-.184-1.737-.385-3.474-.549-5.213-.241-2.6-.761-4.755.752-7.163a14,14,0,0,1,11.741-5.7C1358.485,434.263,1361.061,435.327,1361.855,437.157Z" transform="translate(-1046.049 -337.993)"/><path class="ao" d="M1365.011,473.34a43.866,43.866,0,0,1-8.957,1.992c-2.076.237-4.476.206-5.859-1.361a6.818,6.818,0,0,1-1.3-3.726,96.836,96.836,0,0,1-.825-10.5,22.824,22.824,0,0,0,6.548-2.815c2.434-1.536,7.021-8.758,10.511-5.413a4.824,4.824,0,0,1,1.106,2.919q1,6.875,2.007,13.75a4.943,4.943,0,0,1-.314,3.392,4.681,4.681,0,0,1-2.556,1.629Z" transform="translate(-1049.663 -350.928)"/><path class="r" d="M1433.781,487.376h.1a.564.564,0,0,0,.343-.485l-3.642-14.987c-.679-3.116-2.629-13.582-2.629-13.582a.42.42,0,1,0-.834.1.168.168,0,0,0,0,.044l2.624,13.6c.6,2.8,3.651,14.885,3.651,14.885a.374.374,0,0,0,.314.425A.381.381,0,0,0,1433.781,487.376Z" transform="translate(-1111.217 -356.6)"/><path class="ap" d="M908.979,985.4a60.23,60.23,0,0,1-23.4,31.847q-2.073,1.427-4.118,2.9c-6.977,5.054-13.5,10.639-18.335,17.7a45.5,45.5,0,0,0-4.954,9.367c-6.827,17.64-12.17,28.822-12.17,28.822a55.443,55.443,0,0,1-15.33-.491c-12.648-1.991-30.758-8.63-44.884-28.881-24.135-34.86-18.43-73.089-18.43-73.089a122.64,122.64,0,0,1,35.7-6.687,107.833,107.833,0,0,0,30.207-5.864,122.058,122.058,0,0,0,12.591-5.034c15.459-7.223,34.993-5.127,50.507,1.589,4.742,2.053,9.484,4.824,12.064,9.294C911.584,972.389,910.825,979.32,908.979,985.4Z" transform="translate(-596.988 -740.931)"/><path class="f" d="M918.8,1225.151a3.206,3.206,0,0,1-3.423,1.312l-6.453-2.919-5.731-3.249a1.509,1.509,0,0,1,.029-2.3,480.037,480.037,0,0,1,36.907-38.841c22.146-20.906,41.056-31.351,41.056-31.351l3.251,5.173s-20.827,14.175-40.687,39.293C932.149,1207.017,922.506,1220.176,918.8,1225.151Z" transform="translate(-702.828 -893.816)"/><path class="f" d="M845.975,997.106l-3.222-4.828s-23.553,13.365-42.486,25.268c-15.224,9.573-42.34,26.379-49.7,31.127-.819.755-1.208,1.6-.83,2.213a38.279,38.279,0,0,1,2.277,3.62l5.065,7.156c.511.52,1.841.285,2.713-.383L788.81,1037.5c12.659-10.124,57.172-40.4,57.172-40.4Zm-7.966-12.67-2.281-4.218s-19.269,10.179-42.576,21.6c-18.877,9.345-44.256,16.877-52.886,19.3-1.726.484-2.8,2-2.394,2.95l4.253,11.759c.221.943,1.4,1.047,2.565.553,3.983-1.9,13.474-6.2,27.6-13.985l65.72-37.956Zm-5.636-8.964-2.414-4.136a385.126,385.126,0,0,1-45.92,15.4,261.953,261.953,0,0,1-45.517,7.809c-1.812.057-3.58,1.651-3.591,3.1l-.274,12.2c-.042,1.106,1.084,1.724,2.414,1.489,4.707-1.036,16.64-4.089,38.631-11.42a401.588,401.588,0,0,0,56.672-24.445Zm-5.147-8.787S802.885,977.052,781,980.714c-18.366,3.122-37.436,3.319-43.112,3.412-.932-.016-1.5-.622-1.294-1.471l2.157-7.732a3.228,3.228,0,0,1,2.806-2c5.651.175,21.006.5,35.77.485,18.574-.133,47.949-9.823,47.949-9.823Z" transform="translate(-571.984 -750.36)"/><path class="aq" d="M1037.056,985.413c-3.684,12.17-12.17,24.978-23.051,31.95-5.224,3.35-14.206,1.241-20.063.157a83.693,83.693,0,0,1-20.661-6.7c-12.321-5.848-20.309-14.994-30.094-23.557a54.5,54.5,0,0,1-10.433-12.31c-1.049-1.695-2.027-3.782-1.224-5.607.752-1.706,2.735-2.434,4.516-2.987l21.243-6.6c5.426-1.686,11.507-1.374,16.627-3.762,15.459-7.223,34.993-5.127,50.507,1.589,4.742,2.053,9.484,4.824,12.064,9.294C1039.661,972.4,1038.9,979.327,1037.056,985.413Z" transform="translate(-725.065 -740.939)"/><path class="d" d="M1184.86,580.9a33.179,33.179,0,0,1-.664,4.454,76.545,76.545,0,0,1-4.262,12.573c-.81,1.967-1.624,3.892-2.361,5.753-.925,2.346-1.848,4.855-2.746,7.455-1.392,4.058-2.722,8.355-3.914,12.668-1.221,4.426-2.3,8.851-3.142,13.073-.372,1.874-.7,3.7-.978,5.47-.327,2.08-.624,4.78-.872,7.6-.494,5.483-.485,12.887-.392,16.536a2.12,2.12,0,0,1-2.213,2.049c-2.149.126-4.3.246-6.448.235A93.175,93.175,0,0,1,1134.9,665.7a122.136,122.136,0,0,1-15.97-5.14c-5.5-2.188-11.4-4-16.691-6.638-2.41-.96-4.826-1.919-7.15-3.076-1.343-.664-4.819-1.938-5.41-3.45-.179-.443.33-1.124,1.075-1.978.513-.593,1.142-1.272,1.733-2.034a107.381,107.381,0,0,0,6.86-9.887v-.013c.148-.239.294-.48.443-.721,2.213-3.613,4.35-7.371,6.357-11.115q.865-1.622,1.7-3.235c1.533-2.976,3.1-5.988,4.41-9.1a39.488,39.488,0,0,0,2.724-9.154c.19-1.228.3-2.465.425-3.7a29.431,29.431,0,0,1,.907-5.494c1.051-3.578,3.319-6.661,5.709-9.526,5.576-6.689,12.208-13.363,19.643-17.97l1.467-.909c1.992-1.241,3.959-2.859,6.047-3.937l.177-.091c.562-.281,4.2-1.655,4.2-.5.195.221.383.443.569.664a9.194,9.194,0,0,0,5.68,3.541,11.23,11.23,0,0,0,5.924.044,9.767,9.767,0,0,0,3.206-1.126,2.326,2.326,0,0,0,.976-1.613,2.452,2.452,0,0,0-.091-1.257c.825.513,2.536,1.376,4.271,2.319,2.042,1.106,4.118,2.332,4.8,3.226q1.9,2.483,3.576,5.129c.142.221.272.443.4.664a15.942,15.942,0,0,1,1.626,4.62A23.979,23.979,0,0,1,1184.86,580.9Z" transform="translate(-848.424 -434.188)"/><path class="f" d="M1140.32,847.15c-2.007,3.744-4.147,7.5-6.357,11.115-.146.241-.292.482-.443.721V859l66.559,16.454c.248-2.823.544-5.532.872-7.6.276-1.77.606-3.6.978-5.47Z" transform="translate(-882.589 -659.693)"/><path class="f" d="M1254.4,747.974c-1.392,4.058-2.722,8.356-3.914,12.668l-58.639-14.5a39.47,39.47,0,0,0,2.724-9.154c.19-1.228.3-2.465.425-3.7Z" transform="translate(-928.012 -571.028)"/><path class="f" d="M1239.514,623.51l53.549,13.19a76.541,76.541,0,0,1-4.262,12.573l-59.332-14.708Z" transform="translate(-957.307 -485.54)"/><path class="ar" d="M1439.43,286s2.087-4.368,8.409-4.412c5.716-.082,9.719,1.27,13.029,7.579,2.115,4,5.9,5.64,11.006,7.26a11.387,11.387,0,0,1,8.037,12.8c-1.033,7.384-.651,11.385,3.122,14.965s7.882,17.381-6.966,25.416c-13.37,7.3-27.151.383-30.683-10.936-3.456-10.907,2.049-16.2,5.924-23.323,3.417-6.229,1.6-13.779-.018-15.711-1.9-2.454-3.047-2.011-3.047-2.011Z" transform="translate(-1120.807 -219.276)"/><path class="as" d="M1439.43,286s2.087-4.368,8.409-4.412c5.716-.082,9.719,1.27,13.029,7.579,2.115,4,5.9,5.64,11.006,7.26a11.387,11.387,0,0,1,8.037,12.8c-1.033,7.384-.651,11.385,3.122,14.965s7.882,17.381-6.966,25.416c-13.37,7.3-27.151.383-30.683-10.936-3.456-10.907,2.049-16.2,5.924-23.323,3.417-6.229,1.6-13.779-.018-15.711-1.9-2.454-3.047-2.011-3.047-2.011Z" transform="translate(-1120.807 -219.276)"/><path class="t" d="M859.24,797.074c-3.279.664-10.807.429-19.3,1-3.138.208-6.417.531-9.65,1.042l-.7.108-10.23,1.58c-4.733.728-16.445,1.425-21.179,2.153-4.136.637-2.958.471-3.961,5.709a6.273,6.273,0,0,0,2.655,6.271c1.686,1.106-2.877,1.77-.859,1.927,2.385.117,11.385-.314,13.759-.122q12.921,1.06,25.863,1.837c8.539.513,17.025,1.564,25.54,2.474,0,0,.336-3.319.549-7.495C862.092,806.337,862.07,796.572,859.24,797.074Z" transform="translate(-618.294 -620.684)"/><path class="at" d="M912.424,818.7a12.56,12.56,0,0,1-2.655.186q-11.85-.033-23.657-1.184a2.877,2.877,0,0,1-1.2-.3c-.951-.562-.938-1.938-.686-3.016.664-2.888.115-6.388.117-9.387,0-2.151-.051-2.6,2.472-3.02,8.63-1.449,17.26-4.235,26.011-4.235a2.8,2.8,0,0,1,2.795,2.793v7.57c0,2.93,1.184,8.783-2.138,10.256a5.23,5.23,0,0,1-1.06.336Z" transform="translate(-688.345 -621.217)"/><path class="au" d="M964.708,779.395,960.59,744.92s26.111-4.758,49.082-9.4c18.231-3.687,22.287,6.1,23.626,15.454.923,6.72-4.915,18.388-19.993,20.8C1001.462,773.285,964.708,779.395,964.708,779.395Z" transform="translate(-747.924 -572.142)"/><path class="av" d="M926.49,781.985l3.62,33.451,8.044-.341-3.921-34.535Z" transform="translate(-721.37 -607.838)"/><path class="aw" d="M1215.188,571.084c5.424,13.994-6.756,26.151-22.245,38.073-10.889,8.5-27.945,19.966-35.81,22.526-7.019,2.326-15.047-.184-21.114-6.723-5.917-6.375-6.676-17.9,2.35-23.9,8.3-5.51,10.785-7.333,24.482-17.306,14.691-10.914,25.766-25.126,33.4-24.956C1205.467,558.471,1212.052,563.012,1215.188,571.084Z" transform="translate(-881.073 -435.137)"/><path class="t" d="M1297.825,337.822s-.843,11.17.151,18.776c.768,6.163,3.644,9.387,6.838,10.59s8.8-.518,12.883-2.323c3.454-1.536,5.49-3.255,6.121-5.359.635-2.213,1.814-5,1.814-5l.175-6.618-6.873-17.12Z" transform="translate(-1010.277 -257.577)"/><path class="ax" d="M1324.609,302.216a26.5,26.5,0,0,1,6.924,14.469,19.583,19.583,0,0,1-.965,10.278c-1.091,2.655-3.279,5.556-6.388,5.78a5.282,5.282,0,0,1-5.532-3.647c-.644-2.175-1.345-5.8-3.335-7.22-2.713,1.069-5.218.314-5.567-4.3-.414-5.224-.1-8.88-.885-9.535-1.071-.885-2.859.04-9.577,1.593s-11.106,1.606-11.748.347c-.586-.443,2.1-4.572,5.7-8.752a20.78,20.78,0,0,1,15.171-6.678C1313.734,294.453,1318.566,295.546,1324.609,302.216Z" transform="translate(-1002.462 -229.373)"/><ellipse class="t" cx="5.804" cy="5.397" rx="5.804" ry="5.397" transform="translate(311.964 101.433) rotate(-86.72)"/><ellipse class="v" cx="2.545" cy="2.443" rx="2.545" ry="2.443" transform="translate(314.79 98.331) rotate(-86.72)"/><path class="u" d="M1413.7,414.911a4.647,4.647,0,0,0,3.361,1.823,5.412,5.412,0,0,0,.617-10.774,5.054,5.054,0,0,0-4.647,2.691.524.524,0,0,1-.5-.131.6.6,0,0,1-.168-.622,5.965,5.965,0,0,1,5.262-2.859,6.033,6.033,0,0,1,5.532,6.539,6.111,6.111,0,0,1-6.251,5.862,5.406,5.406,0,0,1-3.487-1.423Z" transform="translate(-1099.708 -315.406)"/><path class="u" d="M1323.795,462.393a16.3,16.3,0,0,0,4.107-.48,26.944,26.944,0,0,0,10.486-5.008,5.972,5.972,0,0,0,2.288-4.357c.011-.2.029-.509-.175-.52s-.316.186-.429.383a6.347,6.347,0,0,1-2.157,3.855,26.278,26.278,0,0,1-10.068,4.828c-3.193.531-3.815.7-6.141.363a6.355,6.355,0,0,1-3.2-1.233c-.39-.327-.491-.334-.305-.015a6.042,6.042,0,0,0,3.361,1.954A18.413,18.413,0,0,0,1323.795,462.393Z" transform="translate(-1026.335 -352.004)"/><path class="y" d="M1316.448,381.438a4.3,4.3,0,0,0-3.872-1.854.765.765,0,1,1-.013-1.529,5.91,5.91,0,0,1,5.26,2.545.794.794,0,0,1-.261,1C1317.459,381.7,1316.736,381.863,1316.448,381.438Zm-13.941-2.538a.728.728,0,0,1-.593-.339.77.77,0,0,1,.161-1.011,3.319,3.319,0,0,1,2.877-.549.779.779,0,1,1-.343,1.52l-.049-.013a2.5,2.5,0,0,0-1.651.314.608.608,0,0,1-.411.077Z" transform="translate(-1013.631 -293.487)"/><path class="f" d="M1439.258,311.333l2.534-1.487s1.443-2.06-3.295-8.349c-4.364-5.753-7.3-5.926-7.966-5.35l-2.461,1.991s8.524,6.1,11.177,13.186Z" transform="translate(-1111.961 -230.445)"/><path class="c" d="M1324.448,456.7a5.056,5.056,0,0,0,5.5-3.693l-9.772.679A5.312,5.312,0,0,0,1324.448,456.7Z" transform="translate(-1027.945 -352.768)"/><path class="r" d="M1322.418,455c-.139,0-.281,0-.429-.011a5.954,5.954,0,0,1-4.868-3.425.69.69,0,0,1,.361-.907.7.7,0,0,1,.221-.055l9.771-.679a.688.688,0,0,1,.739.637.676.676,0,0,1-.062.343c-.031.069-.064.151-.1.248A5.577,5.577,0,0,1,1322.418,455Zm-3.47-3.1a4.2,4.2,0,0,0,3.1,1.713h0c2.7.126,3.815-1.175,4.37-2.23Z" transform="translate(-1025.518 -350.363)"/><path class="w" d="M1322.893,426.935h-.091a2.236,2.236,0,0,1-2.2-2.011,4.086,4.086,0,0,1,1.219-2.89.693.693,0,0,1,.845,1.084,3.079,3.079,0,0,0-.688,1.642c.06.511.323.713,1,.8a.693.693,0,0,1-.086,1.379ZM1322.526,423.222Z" transform="translate(-1028.263 -328.57)"/><circle class="x" cx="1.425" cy="1.425" r="1.425" transform="translate(298.676 93.022) rotate(-86.72)"/><path class="x" d="M1348.535,407.106c.2.011.909.155,1.022-.042.12-.3-.467-.741-.761-.963a4.05,4.05,0,0,0-2.111-.529.509.509,0,1,0-.093,1.014h.035a4.623,4.623,0,0,1,1.71.4.305.305,0,0,0,.2.113Z" transform="translate(-1048.152 -315.826)"/><path class="x" d="M1348.99,407.468a.529.529,0,0,1-.418-.2,2.8,2.8,0,0,0-2.036-.613.535.535,0,1,1,0-1.071h0a3.615,3.615,0,0,1,2.877,1.029.536.536,0,0,1-.427.859Z" transform="translate(-1048.051 -315.834)"/><circle class="x" cx="1.425" cy="1.425" r="1.425" transform="translate(288.15 91.605) rotate(-86.72)"/><path class="x" d="M1301.653,401.123a.536.536,0,0,1-.421-.2,2.786,2.786,0,0,0-2.036-.615.533.533,0,0,1-.527-.54h0a.527.527,0,0,1,.527-.527h.015a3.587,3.587,0,0,1,2.877,1.029.533.533,0,0,1-.443.856Z" transform="translate(-1011.194 -310.896)"/><path class="y" d="M1352.674,385.973a.679.679,0,0,1-.487-.2,4.409,4.409,0,0,1-.341-.392c-.5-.626-1.182-1.48-3.824-1.631a.693.693,0,0,1,.08-1.383h0c3.257.186,4.24,1.414,4.826,2.149l.221.272a.693.693,0,0,1-.487,1.186Z" transform="translate(-1049.118 -297.755)"/><path class="y" d="M1302.563,379.141a.693.693,0,0,1-.372-1.277,3.435,3.435,0,0,1,2.852-.516.694.694,0,0,1-.206,1.372h0a2.151,2.151,0,0,0-1.905.314A.683.683,0,0,1,1302.563,379.141Z" transform="translate(-1013.687 -293.769)"/><circle class="c" cx="2.082" cy="2.082" r="2.082" transform="translate(317.324 117.336)"/><circle class="c" cx="2.082" cy="2.082" r="2.082" transform="translate(312.381 119.418)"/><circle class="c" cx="2.082" cy="2.082" r="2.082" transform="translate(307.588 120.535)"/><circle class="c" cx="2.082" cy="2.082" r="2.082" transform="translate(302.339 121.5)"/><circle class="c" cx="2.082" cy="2.082" r="2.082" transform="translate(297.528 121.5)"/><path class="t" d="M715.771,803.477a7.845,7.845,0,0,1-3.056,6.8c-3.273,2.476-7.415,1.5-11.172,1.184a32.669,32.669,0,0,1-12.281-3.54c-7.152-3.735-7.605-4.724-8.444-5.448-.6-.549.6-1.77.6-1.77s-2.434-1.657-2.213-3.056c.122-1.385,1.932-.482,1.932-.482s-1.328-1.529-.9-2.326,4.346-.885,6.452-.133,7.793.8,8.973.954c1.06.062-2.394-2.065-4.012-3.1s-1.41-2.56,1.682-1.52,5.8,1.609,6.6,2.025,2.737,1.511,4.016,2.385l1.281.872c1.742,1.483,4.242.763,6.271,1.549a6.859,6.859,0,0,1,4.109,4.587,6.665,6.665,0,0,1,.173,1.022Z" transform="translate(-528.789 -615.726)"/><path class="ag" d="M703.775,845.315h-.015a32.568,32.568,0,0,1-20.411-7.977,2.583,2.583,0,0,1-1.069-1.713,1.549,1.549,0,0,1,.644-1.252,2.668,2.668,0,0,1,2.434-.4.569.569,0,0,1-.312,1.093,1.567,1.567,0,0,0-1.345.133.69.69,0,0,0-.3.354c.022.308.341.626.684.925a31.878,31.878,0,0,0,19.694,7.7.569.569,0,0,1-.015,1.135Z" transform="translate(-531.199 -649.33)"/><path class="ag" d="M676.14,817.618c.113,1.562,1.974,2.082,2.091,2.171l.609.283,6.807,2.31a.467.467,0,0,0,.3-.885l-7.068-2.379c-.56-.237-1.894-.976-1.817-1.934a3.4,3.4,0,0,1,.292-.693c.281-.25,1.086-.131,1.308-.057s.239-.159.2-.469c.073-.221-.146-.294-.383-.474a2.168,2.168,0,0,0-1.651.221c-.443.133-.914.759-.684,1.883Z" transform="translate(-526.369 -634.981)"/><path class="ag" d="M682.5,794.3a1.813,1.813,0,0,0,.3.4l8.884,2.323c.221.075.516-.071.487-.279.075-.221-.071-.516-.279-.487l-8.6-2.374c-.591-.476-.509-.633-.392-1a.806.806,0,0,1,.356-.469c.575-.4.925-.31,3.983.157,2.775.443,10.843,1.241,11.153,1.2a.575.575,0,0,0,.474-.381.458.458,0,0,0-.175-.5c-3.983-2.177-5.472-3.762-5.532-4.171.089-.12.37-.367,1.239-.175,1.414.33,6.508,2.142,8.172,2.751a8.791,8.791,0,0,1,4.029,2.682c.232.292.409.832.859.478.3-.235.159-.522.029-.8a4.982,4.982,0,0,0-1.423-1.4,10.4,10.4,0,0,0-3.3-1.83c-2.877-1.071-6.964-2.394-8.274-2.737-1.414-.327-1.888.053-2.14.509a.885.885,0,0,0-.12.648c.221.812,1.792,2.275,4.322,3.815-2.328-.1-9.194-1.029-9.194-1.029-3.034-.626-3.848-.578-4.822-.02-.575.4-.978,1.432-.046,2.68Z" transform="translate(-530.924 -613.293)"/><path class="ag" d="M814.366,883.96h-.042c-8.851-.693-26.472-1.613-33.634-1.664a.555.555,0,0,1,0-1.106h0c7.194.051,24.85.974,33.723,1.666a.555.555,0,0,1-.044,1.106Z" transform="translate(-607.438 -686.201)"/><path class="ag" d="M804.219,813.137a62.032,62.032,0,0,1-8.96-.52.554.554,0,0,1,.175-1.093c6.121.976,20.743.555,28.45-1.31a.555.555,0,1,1,.325,1.062l-.064.015C819.045,812.526,810.955,813.137,804.219,813.137Z" transform="translate(-618.815 -630.911)"/><path class="ay" d="M1340.969,220.58H1225.18l8.3-14.52h115.789Z" transform="translate(-953.966 -160.463)"/><rect class="az" width="3.501" height="5.446" rx="1.75" transform="translate(304.049 22.756)"/><g transform="translate(-30)"><path class="ai" d="M1378.268,199.962H1265.781a2.421,2.421,0,0,1,0-4.842h112.487a2.421,2.421,0,1,1,0,4.842Z" transform="translate(-983.697 -151.944)"/><path class="ba" d="M1513.771,188.41h13.122a.741.741,0,0,1,.741.741h0a.741.741,0,0,1-.741.741h-13.122a.741.741,0,0,1-.741-.741h0a.741.741,0,0,1,.741-.741Z" transform="translate(-1178.119 -146.719)"/><path class="j" d="M1503.5,104.117h8.386c3.729-2.89,6.34-9.072,6.34-13.41a10.533,10.533,0,0,0-21.066-.02v.02C1497.16,95.036,1499.78,101.227,1503.5,104.117Z" transform="translate(-1165.762 -62.427)"/><path class="j" d="M1530.276,48.2h0a4.116,4.116,0,0,1,4.116,4.116v9.8a4.116,4.116,0,0,1-4.116,4.116h0a4.116,4.116,0,0,1-4.116-4.116v-9.8A4.116,4.116,0,0,1,1530.276,48.2Z" transform="translate(-1188.344 -37.534)"/><path class="j" d="M1517.938,44.92h8.665a2.058,2.058,0,0,1,2.058,2.058h0a2.058,2.058,0,0,1-2.058,2.058h-8.665a2.058,2.058,0,0,1-2.058-2.058h0A2.058,2.058,0,0,1,1517.938,44.92Z" transform="translate(-1180.34 -34.98)"/><path class="ba" d="M1299.861,106.56c0,.281-4.072,12.02-5.868,17.189a1.808,1.808,0,0,0,1.713,2.405h7.353Z" transform="translate(-1007.473 -82.98)"/><path class="ai" d="M1336.785,64.179h-24.208a1.961,1.961,0,0,1-1.938-1.68l-4.868-33.7a1.958,1.958,0,0,1,1.655-2.213,2.009,2.009,0,0,1,.283-.02h24.208a1.958,1.958,0,0,1,1.938,1.678l4.868,33.7a1.961,1.961,0,0,1-1.662,2.213A1.917,1.917,0,0,1,1336.785,64.179Zm-22.511-3.919h20.249l-4.3-29.778h-20.247Z" transform="translate(-1016.707 -20.69)"/><path class="j" d="M1357.147,84.7h-15.3l-3.074-21.3h15.3Z" transform="translate(-1042.42 -49.371)"/><path class="n" d="M1357.362,116.85h-.852a5.941,5.941,0,0,0-5.882,6.008,6.325,6.325,0,0,0,.062.792l.387,2.677h15.3l-.624-4.319a5.942,5.942,0,0,0-5.636-5.089C1359.186,116.883,1358.234,116.852,1357.362,116.85Z" transform="translate(-1051.654 -90.993)"/><ellipse class="bb" cx="3.671" cy="4.707" rx="3.671" ry="4.707" transform="translate(301.867 16.837)"/></g><g transform="matrix(0.995, -0.105, 0.105, 0.995, 217.596, 91.827)"><g transform="translate(0 0)"><g transform="translate(0 0)"><path class="bc" d="M0,1.469A1.427,1.427,0,0,0,1.481,2.961a1.606,1.606,0,0,0,1.013-.355.157.157,0,0,0,.024-.234l-.081-.109A.146.146,0,0,0,2.2,2.235a1.2,1.2,0,0,1-.7.25A.961.961,0,0,1,.537,1.46.924.924,0,0,1,1.5.476a1.192,1.192,0,0,1,.646.2c.1.061.173.052.23-.04L2.445.52A.157.157,0,0,0,2.413.286,1.6,1.6,0,0,0,1.477,0,1.429,1.429,0,0,0,0,1.469ZM2.933,2.743a.151.151,0,0,0,.169.169h.173a.15.15,0,0,0,.169-.169V1.957a.614.614,0,0,1,.593-.682c.258,0,.323.169.323.42V2.743a.15.15,0,0,0,.169.169H4.7a.151.151,0,0,0,.169-.169V1.59c0-.545-.262-.783-.718-.783a.81.81,0,0,0-.714.416H3.433a1.168,1.168,0,0,0,.012-.173V.218A.151.151,0,0,0,3.276.048H3.1a.153.153,0,0,0-.169.169Zm2.292-.859A1.054,1.054,0,0,0,6.33,2.961a1.3,1.3,0,0,0,.7-.206.153.153,0,0,0,.056-.226l-.048-.081c-.052-.093-.125-.1-.226-.056a.851.851,0,0,1-.444.133.591.591,0,0,1-.617-.565H7a.178.178,0,0,0,.178-.173A.887.887,0,0,0,6.27.807,1.015,1.015,0,0,0,5.225,1.884Zm.537-.234a.5.5,0,0,1,.5-.456.419.419,0,0,1,.416.456ZM7.553,2.743a.151.151,0,0,0,.169.169H7.9a.15.15,0,0,0,.169-.169v-.73h.266l.48.783a.2.2,0,0,0,.2.117h.218c.137,0,.182-.085.113-.2l-.605-.928V1.775l.512-.718c.077-.109.032-.2-.1-.2H8.949a.211.211,0,0,0-.2.113l-.428.613H8.065V.218A.151.151,0,0,0,7.9.048H7.722a.153.153,0,0,0-.169.169Zm2.15,0a.149.149,0,0,0,.165.169h.178a.149.149,0,0,0,.165-.169V1.025a.15.15,0,0,0-.165-.169H9.868a.15.15,0,0,0-.165.169Zm1.017,0a.149.149,0,0,0,.165.169h.178a.149.149,0,0,0,.165-.169V1.949a.615.615,0,0,1,.593-.674c.258,0,.323.169.323.42V2.743a.151.151,0,0,0,.169.169h.173a.15.15,0,0,0,.169-.169V1.59c0-.545-.262-.783-.718-.783a.8.8,0,0,0-.73.436H11.2a.656.656,0,0,0,.008-.093V1.025a.15.15,0,0,0-.165-.169h-.157a.15.15,0,0,0-.165.169Z" transform="translate(0 0.752)"/><g transform="translate(9.259 0)"><g transform="translate(0 0)"><path class="bc" d="M.894.567a.153.153,0,0,1,0,.213L.776.9A.153.153,0,0,1,.563.9L.043.374a.153.153,0,0,1,0-.213L.162.043a.153.153,0,0,1,.213,0Z" transform="translate(0 0.381)"/><path class="bc" d="M.943.043a.153.153,0,0,1,.213,0l.119.119a.153.153,0,0,1,0,.213l-.9.9a.153.153,0,0,1-.213,0L.043,1.152a.153.153,0,0,1,0-.213Z" transform="translate(0.405)"/></g></g></g></g></g></g><g class="bd" transform="translate(94.543 113.089)"><line class="be" y1="10.296" x2="10.296" transform="translate(2.076)"/><line class="be" y1="18.421" x2="18.419"/></g><g class="bd" transform="translate(166.804 152.802)"><line class="be" x1="10.296" y2="10.296" transform="translate(6.048 8.125)"/><line class="be" x1="18.419" y2="18.421"/></g></g><g transform="translate(434.744 92.168)"><g transform="translate(248.023 2489.332)"><g class="bp" transform="matrix(1, 0, 0, 1, -6.77, -123.5)"><path class="m" d="M307.992,655.51c-12.252,1.992-24.4,7.738-31.648,18.174-6.912,9.976-6.5,21.5-4.514,32.99a4.215,4.215,0,0,0,1.183,2.666c1.177.945,2.9.4,4.278-.232,10.285-4.769,19.87-11.588,24.826-22.082a1.373,1.373,0,0,0-.484-1.848l-7.715-3.759a40.878,40.878,0,0,1,8.106.69,1.373,1.373,0,0,0,1.66-1.66,30.367,30.367,0,0,1,5.845-22.956C310.3,656.432,309.007,655.333,307.992,655.51Z" transform="translate(-229.05 -531.99)"/></g><g class="bo" transform="matrix(1, 0, 0, 1, -6.77, -123.5)"><path class="m" d="M331.777,875.288l-11.285-3.472a1.37,1.37,0,0,0-1.522.619l-3.224,5.481V873.8a1.355,1.355,0,0,0-1.351-1.351c-9.389,1.245-17.591,9.286-21.308,18.055-.461,1.083,1.383,2.167,2.257,2.167,17.543,4.3,28.05-7.841,36.468-14.8C332.763,877.077,333.153,875.714,331.777,875.288Z" transform="translate(-244.26 -678.54)"/></g><g class="bn" transform="matrix(1, 0, 0, 1, -6.77, -123.5)"><path class="m" d="M185.771,859.866c-3.224-2.212-7.364-4.4-11.285-4.943a19.574,19.574,0,0,0-6.181.132c-.9.168-5.007,2.157-5.526,1.935,4.291,1.831,8.176,5.252,9.556,9.795,1.48,4.872,4.046,9.027,8.966,10.962,4.111,1.592,9.253,1.161,11.417-3.189C195.544,868.894,190.082,862.82,185.771,859.866Z" transform="translate(-156.01 -667)"/></g><g class="bm" transform="matrix(1, 0, 0, 1, -6.77, -123.5)"><path class="m" d="M175.463,712.686c-.919-.409-2.486.3-1.98,1.522a54.407,54.407,0,0,1,3.588,13.067c.119.854.032,2.731.471,3.443.529.861,1.934.993,2.944,1.241a69.176,69.176,0,0,0,8,1.318l-7.838,2.322a6.01,6.01,0,0,0-2.508,1.2c-3.14,2.992,2.012,11.214,3.975,13.632,3.176,3.918,8.093,7.054,13.306,5.716,5.294-1.361,7.8-7.028,7.967-12.084C203.926,727.93,188.285,718.37,175.463,712.686Z" transform="translate(-163.2 -570.67)"/></g><g class="bl" transform="matrix(1, 0, 0, 1, -6.77, -123.5)"><rect class="m" width="50.368" height="9.621" transform="translate(19.14 223.48)"/></g><g class="bk" transform="matrix(1, 0, 0, 1, -6.77, -123.5)"><path class="m" d="M201.16,993.7v9.821a25.258,25.258,0,0,0,25.184,25.184h0a25.258,25.258,0,0,0,25.184-25.184V993.7Z" transform="translate(-182.02 -761.16)"/></g><g class="bj" transform="matrix(1, 0, 0, 1, -6.77, -123.5)"><path class="m" d="M270.651,805.445a.948.948,0,0,1-.935-.8c-3.869-24.055.048-49.294,11.633-75.023a.951.951,0,0,1,1.731.78c-11.43,25.384-15.3,50.258-11.488,73.94a.967.967,0,0,1-.787,1.089Z" transform="translate(-227.49 -581.88)"/></g><g class="bi" transform="matrix(1, 0, 0, 1, -6.77, -123.5)"><path class="m" d="M275.526,923.826a.951.951,0,0,1-.861-1.351,45.275,45.275,0,0,1,18.033-19.7.953.953,0,0,1,.967,1.641,43.362,43.362,0,0,0-17.272,18.868A.945.945,0,0,1,275.526,923.826Z" transform="translate(-231.76 -699.46)"/></g><g class="bh" transform="matrix(1, 0, 0, 1, -6.77, -123.5)"><path class="m" d="M238.872,910.4a.967.967,0,0,1-.9-.645,72.2,72.2,0,0,0-15.5-26.712.952.952,0,1,1,1.4-1.29,74.074,74.074,0,0,1,15.911,27.405.948.948,0,0,1-.616,1.193A.909.909,0,0,1,238.872,910.4Z" transform="translate(-196.29 -685.1)"/></g><g class="bg" transform="matrix(1, 0, 0, 1, -6.77, -123.5)"><path class="m" d="M240.581,840.326a.967.967,0,0,1-.925-.754c-3.166-15.154-7.757-34.3-15.253-48.256a.948.948,0,0,1,1.67-.9c7.612,14.164,12.252,33.5,15.44,48.762a.967.967,0,0,1-.735,1.125A1,1,0,0,1,240.581,840.326Z" transform="translate(-197.69 -623.08)"/></g><g class="bf" transform="matrix(1, 0, 0, 1, -6.77, -123.5)"><rect class="m" width="50.368" height="2.215" transform="translate(19.14 228.29)"/></g></g><g transform="translate(248.023 2489.332)"><path class="n" d="M307.992,655.51c-12.252,1.992-24.4,7.738-31.648,18.174-6.912,9.976-6.5,21.5-4.514,32.99a4.215,4.215,0,0,0,1.183,2.666c1.177.945,2.9.4,4.278-.232,10.285-4.769,19.87-11.588,24.826-22.082a1.373,1.373,0,0,0-.484-1.848l-7.715-3.759a40.878,40.878,0,0,1,8.106.69,1.373,1.373,0,0,0,1.66-1.66,30.367,30.367,0,0,1,5.845-22.956C310.3,656.432,309.007,655.333,307.992,655.51Z" transform="translate(-235.813 -655.491)"/><path class="n" d="M331.777,875.288l-11.285-3.472a1.37,1.37,0,0,0-1.522.619l-3.224,5.481V873.8a1.355,1.355,0,0,0-1.351-1.351c-9.389,1.245-17.591,9.286-21.308,18.055-.461,1.083,1.383,2.167,2.257,2.167,17.543,4.3,28.05-7.841,36.468-14.8C332.763,877.077,333.153,875.714,331.777,875.288Z" transform="translate(-251.024 -802.039)"/><path class="n" d="M185.771,859.866c-3.224-2.212-7.364-4.4-11.285-4.943a19.574,19.574,0,0,0-6.181.132c-.9.168-5.007,2.157-5.526,1.935,4.291,1.831,8.176,5.252,9.556,9.795,1.48,4.872,4.046,9.027,8.966,10.962,4.111,1.592,9.253,1.161,11.417-3.189C195.544,868.894,190.082,862.82,185.771,859.866Z" transform="translate(-162.78 -790.499)"/><path class="n" d="M175.463,712.686c-.919-.409-2.486.3-1.98,1.522a54.407,54.407,0,0,1,3.588,13.067c.119.854.032,2.731.471,3.443.529.861,1.934.993,2.944,1.241a69.176,69.176,0,0,0,8,1.318l-7.838,2.322a6.01,6.01,0,0,0-2.508,1.2c-3.14,2.992,2.012,11.214,3.975,13.632,3.176,3.918,8.093,7.054,13.306,5.716,5.294-1.361,7.8-7.028,7.967-12.084C203.926,727.93,188.285,718.37,175.463,712.686Z" transform="translate(-169.966 -694.166)"/><rect class="f" width="50.368" height="9.621" transform="translate(12.375 99.978)"/><path class="f" d="M201.16,993.7v9.821a25.258,25.258,0,0,0,25.184,25.184h0a25.258,25.258,0,0,0,25.184-25.184V993.7Z" transform="translate(-188.786 -884.656)"/><path class="f" d="M270.651,805.445a.948.948,0,0,1-.935-.8c-3.869-24.055.048-49.294,11.633-75.023a.951.951,0,0,1,1.731.78c-11.43,25.384-15.3,50.258-11.488,73.94a.967.967,0,0,1-.787,1.089Z" transform="translate(-234.26 -705.377)"/><path class="f" d="M275.526,923.826a.951.951,0,0,1-.861-1.351,45.275,45.275,0,0,1,18.033-19.7.953.953,0,0,1,.967,1.641,43.362,43.362,0,0,0-17.272,18.868A.945.945,0,0,1,275.526,923.826Z" transform="translate(-238.532 -822.955)"/><path class="f" d="M238.872,910.4a.967.967,0,0,1-.9-.645,72.2,72.2,0,0,0-15.5-26.712.952.952,0,1,1,1.4-1.29,74.074,74.074,0,0,1,15.911,27.405.948.948,0,0,1-.616,1.193A.909.909,0,0,1,238.872,910.4Z" transform="translate(-203.055 -808.596)"/><path class="f" d="M240.581,840.326a.967.967,0,0,1-.925-.754c-3.166-15.154-7.757-34.3-15.253-48.256a.948.948,0,0,1,1.67-.9c7.612,14.164,12.252,33.5,15.44,48.762a.967.967,0,0,1-.735,1.125A1,1,0,0,1,240.581,840.326Z" transform="translate(-204.459 -746.577)"/><rect class="j" width="50.368" height="2.215" transform="translate(12.375 104.789)"/></g></g></g></svg>