<svg xmlns="http://www.w3.org/2000/svg" xmlns:xlink="http://www.w3.org/1999/xlink" width="341.635" height="256.225" viewBox="0 0 341.635 256.225"><defs><style>.a{fill:none;}.b{fill:url(#a);}.c{fill:url(#b);}.d{fill:url(#c);}.e{fill:url(#d);}.f{fill:#00c0b7;}.g{fill:url(#e);}.ai,.h{fill:#161643;}.i{fill:#a8e4ef;}.j{fill:#99dbe8;}.k{fill:#e48674;}.l{fill:#a6d7ff;}.m{opacity:0.6;}.n{fill:#fff;}.o{fill:#b0deff;}.p{fill:#cbe9ff;}.q{fill:url(#f);}.r{fill:#ff6870;}.s{fill:url(#g);}.t{fill:url(#h);}.u{fill:#ff7b33;}.v{opacity:0.34;isolation:isolate;fill:url(#i);}.w{clip-path:url(#j);}.x{fill:#cc7a5e;}.y{fill:url(#k);}.z{fill:#2960f5;}.aa{fill:url(#l);}.ab{fill:#e89976;}.ac{opacity:0.219;fill:url(#m);}.ad{fill:#9ed3fd;}.ae{fill:#ea9d7d;}.af{opacity:0.219;fill:url(#n);}.ag{fill:#cf7653;}.ah{fill:#a9d9ff;}.ai{opacity:0.133;}.aj{fill:url(#o);}.ak{fill:url(#p);}.al{fill:url(#q);}.am{fill:url(#r);}.an{fill:url(#s);}.ao{fill:url(#t);}.ap{fill:#db8a6b;}.aq{fill:#b76349;}.ar{fill:#7a3e2b;}.as{fill:#b4603f;}.at{fill:#4f2b23;}.au{fill:url(#u);}.av{opacity:0.45;}.aw{fill:#274bf0;}.ax{fill:url(#v);}.ay{fill:url(#w);}.az{fill:#00bfb7;}.ba{opacity:0.299;fill:url(#x);}.bb{fill:url(#y);}.bc{fill:url(#z);}.bd{fill:url(#aa);}.be{fill:url(#ab);}.bf{fill:#8cc63f;}.bg{fill:url(#ac);}.bh{fill:#e0906e;}.bi{fill:#23235d;}.bj{fill:url(#ad);}</style><linearGradient id="a" x1="0.5" y1="3.912" x2="0.5" y2="4.912" gradientUnits="objectBoundingBox"><stop offset="0" stop-color="#cbe9ff" stop-opacity="0"/><stop offset="0.96" stop-color="#cbe9ff"/></linearGradient><linearGradient id="b" x1="0.5" y1="-0.571" x2="0.5" y2="0.429" gradientUnits="objectBoundingBox"><stop offset="0" stop-color="#2960f5"/><stop offset="0.08" stop-color="#2076e7"/><stop offset="0.22" stop-color="#1491d6"/><stop offset="0.36" stop-color="#0ba6c8"/><stop offset="0.52" stop-color="#05b5be"/><stop offset="0.71" stop-color="#01bdb9"/><stop offset="1" stop-color="#00c0b7"/></linearGradient><linearGradient id="c" y1="-2.472" x2="1" y2="-2.472" gradientUnits="objectBoundingBox"><stop offset="0" stop-color="#00c0b7"/><stop offset="0.29" stop-color="#01bdb9"/><stop offset="0.48" stop-color="#05b5be"/><stop offset="0.64" stop-color="#0ba6c8"/><stop offset="0.78" stop-color="#1491d6"/><stop offset="0.92" stop-color="#2076e7"/><stop offset="1" stop-color="#2960f5"/></linearGradient><linearGradient id="d" y1="-5.925" x2="1" y2="-5.925" xlink:href="#c"/><linearGradient id="e" x1="0" y1="-0.723" x2="1" y2="-0.723" xlink:href="#b"/><linearGradient id="f" x1="0.5" y1="8.272" x2="0.5" y2="9.272" xlink:href="#b"/><linearGradient id="g" x1="0.317" y1="-4.573" x2="1.035" y2="-5.725" gradientUnits="objectBoundingBox"><stop offset="0" stop-color="#1a8cff"/><stop offset="0.72" stop-color="#2960f5"/></linearGradient><linearGradient id="h" x1="0.965" y1="-23.057" x2="1.939" y2="-23.057" gradientUnits="objectBoundingBox"><stop offset="0.01" stop-color="#ff7a00"/><stop offset="0.98" stop-color="#ffb600"/></linearGradient><linearGradient id="i" y1="-1.534" x2="1" y2="-1.534" gradientUnits="objectBoundingBox"><stop offset="0" stop-color="#fff"/><stop offset="1" stop-color="#cbe9ff"/></linearGradient><clipPath id="j"><rect class="a" width="335.778" height="241.12"/></clipPath><linearGradient id="k" x1="0.516" y1="-3.818" x2="0.516" y2="-3.362" gradientUnits="objectBoundingBox"><stop offset="0" stop-color="#cc7a5e" stop-opacity="0"/><stop offset="0.92" stop-color="#aa5f4b"/></linearGradient><linearGradient id="l" x1="0.874" y1="-0.008" x2="-0.34" y2="1.498" gradientUnits="objectBoundingBox"><stop offset="0" stop-color="#d2ecff"/><stop offset="1" stop-color="#fff"/></linearGradient><linearGradient id="m" x1="-0.652" y1="-3.017" x2="0.115" y2="-3.017" gradientUnits="objectBoundingBox"><stop offset="0" stop-color="#5b1219" stop-opacity="0"/><stop offset="0.3" stop-color="#5b1219" stop-opacity="0.039"/><stop offset="0.59" stop-color="#5b1219" stop-opacity="0.169"/><stop offset="0.87" stop-color="#5b1219" stop-opacity="0.38"/><stop offset="1" stop-color="#5b1219" stop-opacity="0.502"/></linearGradient><linearGradient id="n" x1="0.501" y1="0.345" x2="0.443" y2="1.238" gradientUnits="objectBoundingBox"><stop offset="0" stop-color="#5b1219" stop-opacity="0"/><stop offset="0.16" stop-color="#5b1219" stop-opacity="0.078"/><stop offset="1" stop-color="#5b1219" stop-opacity="0.502"/></linearGradient><linearGradient id="o" x1="-16.228" y1="19.766" x2="-16.823" y2="19.411" gradientUnits="objectBoundingBox"><stop offset="0.02" stop-color="#4f211e"/><stop offset="0.99" stop-color="#743529"/></linearGradient><linearGradient id="p" y1="0.804" x2="1" y2="0.804" gradientUnits="objectBoundingBox"><stop offset="0.19" stop-color="#743529"/><stop offset="0.47" stop-color="#5e2b21"/></linearGradient><linearGradient id="q" y1="-9.205" x2="0.499" y2="-9.205" gradientUnits="objectBoundingBox"><stop offset="0" stop-color="#5b1219" stop-opacity="0"/><stop offset="0.34" stop-color="#5b1219" stop-opacity="0.039"/><stop offset="0.66" stop-color="#5b1219" stop-opacity="0.169"/><stop offset="0.97" stop-color="#5b1219" stop-opacity="0.38"/><stop offset="1" stop-color="#5b1219" stop-opacity="0.4"/></linearGradient><linearGradient id="r" x1="0.459" y1="0.5" x2="0.046" y2="0.599" gradientUnits="objectBoundingBox"><stop offset="0" stop-color="#a9d9ff"/><stop offset="1" stop-color="#9ed3fd"/></linearGradient><linearGradient id="s" x1="0.844" y1="-0.031" x2="0.147" y2="0.831" gradientUnits="objectBoundingBox"><stop offset="0" stop-color="#bfe7ff"/><stop offset="1" stop-color="#a9d9ff"/></linearGradient><linearGradient id="t" x1="0" y1="1.773" x2="1" y2="1.773" xlink:href="#p"/><linearGradient id="u" x1="0.5" x2="0.5" y2="1" gradientUnits="objectBoundingBox"><stop offset="0" stop-color="#274bf0"/><stop offset="1" stop-color="#01baba"/></linearGradient><linearGradient id="v" x1="0.5" x2="0.5" y2="1" gradientUnits="objectBoundingBox"><stop offset="0" stop-color="#02b9bb"/><stop offset="1" stop-color="#00c0b7"/></linearGradient><linearGradient id="w" x1="0.5" y1="0.062" x2="0.5" y2="1.062" xlink:href="#i"/><linearGradient id="x" x1="0.5" y1="-4.858" x2="0.5" y2="-4.36" xlink:href="#k"/><linearGradient id="y" x1="0.5" y1="-22.513" x2="0.5" y2="-22.014" gradientUnits="objectBoundingBox"><stop offset="0.08" stop-color="#aa5f4b" stop-opacity="0.302"/><stop offset="1" stop-color="#cc7a5e" stop-opacity="0"/></linearGradient><linearGradient id="z" x1="-0.049" y1="-0.46" x2="1.183" y2="-0.46" gradientUnits="objectBoundingBox"><stop offset="0" stop-color="#aa5f4b"/><stop offset="0.04" stop-color="#ac604c" stop-opacity="0.949"/><stop offset="0.38" stop-color="#ba6b54" stop-opacity="0.541"/><stop offset="0.67" stop-color="#c47359" stop-opacity="0.251"/><stop offset="0.88" stop-color="#ca785d" stop-opacity="0.071"/><stop offset="1" stop-color="#cc7a5e" stop-opacity="0"/></linearGradient><linearGradient id="aa" x1="-0.049" y1="1.635" x2="1.183" y2="1.635" xlink:href="#z"/><linearGradient id="ab" x1="-0.049" y1="-2.679" x2="1.183" y2="-2.679" xlink:href="#z"/><linearGradient id="ac" x1="1.027" y1="-0.059" x2="-0.027" y2="0.884" gradientUnits="objectBoundingBox"><stop offset="0" stop-color="#cbe9ff"/><stop offset="1" stop-color="#fff"/></linearGradient><linearGradient id="ad" x1="0.5" y1="0.317" x2="0.5" y2="1.317" xlink:href="#b"/></defs><g transform="translate(0.01)"><rect class="b" width="43.385" height="18.924" transform="translate(17.778 81.637)"/><path class="c" d="M25.488,558.063C19.326,549.174,10.093,543.243,0,539.82v27.369a46.6,46.6,0,0,1,5.238-.214L0,569.518v11.016c6.137,8.221,15.006,14.041,24.378,18.388,1.58.732,3.579,1.36,4.937.271a4.824,4.824,0,0,0,1.367-3.077C32.983,582.861,33.463,569.565,25.488,558.063Z" transform="translate(-0.008 -424.557)"/><path class="d" d="M0,768.26v20.4a1.3,1.3,0,0,0,.611-.214l4.172-2.763C4.27,793.4,2.1,794.984,8.8,798.627a73.38,73.38,0,0,0,9.395,4.516c1.668.589,4.766,1.8,6.406,1.522l.854-.143C26.4,786.065,9.724,779.267,0,768.26Z" transform="translate(-0.008 -604.221)"/><path class="e" d="M23.748,928.711C19.569,918.843,10.477,909.785,0,908v21.478a31.941,31.941,0,0,0,21.162,1.727C22.153,931.205,24.277,929.956,23.748,928.711Z" transform="translate(-0.008 -714.123)"/><path class="f" d="M173.237,896.843c2.494,5.018,8.428,5.515,13.168,3.681,5.675-2.2,8.637-7.012,10.345-12.632,1.593-5.242,6.075-9.181,11.024-11.3-.6.254-5.338-2.041-6.376-2.231a22.438,22.438,0,0,0-7.132-.151c-4.5.628-9.271,3.147-13,5.7C176.3,883.323,170,890.326,173.237,896.843Z" transform="translate(-135.556 -687.38)"/><path class="g" d="M157.713,662.732c.192,5.831,3.081,12.367,9.181,13.936,6.017,1.546,11.686-2.075,15.35-6.591,2.263-2.791,8.21-12.275,4.586-15.724a6.971,6.971,0,0,0-2.9-1.381L174.9,650.29a80.578,80.578,0,0,0,9.233-1.525c1.153-.286,2.776-.427,3.395-1.431.5-.822.4-2.989.544-3.974a62.616,62.616,0,0,1,4.14-15.064c.581-1.407-1.226-2.227-2.287-1.757C175.136,633.091,157.094,644.12,157.713,662.732Z" transform="translate(-124.034 -492.657)"/><path class="h" d="M88.662,743.11a1.135,1.135,0,0,1-.171-.013,1.068,1.068,0,0,1-.884-1.223c4.392-27.331-.068-56.023-13.257-85.31a1.068,1.068,0,0,1,1.947-.88,172.456,172.456,0,0,1,13.1,42.38,136.571,136.571,0,0,1,.316,44.148A1.068,1.068,0,0,1,88.662,743.11Z" transform="translate(-58.408 -515.187)"/><path class="h" d="M65.312,885.978h-.021a1.1,1.1,0,0,1-1.068-1.117A73.446,73.446,0,0,0,45.9,835.241a1.1,1.1,0,0,1,1.638-1.454A75.723,75.723,0,0,1,66.414,884.9,1.093,1.093,0,0,1,65.312,885.978Z" transform="translate(-35.901 -655.482)"/><path class="h" d="M59.447,981.879a1.1,1.1,0,0,1-.993-.641,50.024,50.024,0,0,0-19.921-21.762,1.1,1.1,0,0,1,1.1-1.894,52.237,52.237,0,0,1,20.8,22.729,1.1,1.1,0,0,1-.527,1.458A1.066,1.066,0,0,1,59.447,981.879Z" transform="translate(-29.885 -753.002)"/><path class="h" d="M140.79,953.941a1.093,1.093,0,0,1-1.044-1.428,85.408,85.408,0,0,1,18.363-31.6,1.1,1.1,0,0,1,1.659,1.433l-.047.049a83.228,83.228,0,0,0-17.88,30.794A1.1,1.1,0,0,1,140.79,953.941Z" transform="translate(-109.874 -723.979)"/><path class="h" d="M139.162,819a1.025,1.025,0,0,1-.214-.024,1.093,1.093,0,0,1-.854-1.281h0c3.679-17.6,9.03-39.911,17.81-56.252a1.1,1.1,0,0,1,2.011.882,1.037,1.037,0,0,1-.081.152c-8.65,16.093-13.947,38.2-17.6,55.663A1.1,1.1,0,0,1,139.162,819Z" transform="translate(-108.6 -598.346)"/><rect class="i" width="193.881" height="23.176" transform="translate(-0.01 217.945)"/><path class="j" d="M209.183,1063.262c-7.879-.214-15.273-2.857-23.244-2.562-3.771.137-7.531.688-11.3.53a19.874,19.874,0,0,1-7.5-1.657c-1.516-.7-3.562-1.175-4.879-2.189-4.121-3.169-.641-7.717,3.288-8.618,4.016-.922,8.161.128,12.171.692l11.974,1.687,19,2.678c2.633.371,6.083.89,7.971,2.944,1.552,1.687,1.646,4.828-.335,5.979a5.792,5.792,0,0,1-2.883.551Q211.31,1063.326,209.183,1063.262Z" transform="translate(-126.16 -824.546)"/><path class="j" d="M156.124,1033.579H71.164L13.93,1023.04H105.4Z" transform="translate(-10.964 -804.6)"/><path class="k" d="M1128.9,551.641a.32.32,0,1,0-.32-.32A.32.32,0,0,0,1128.9,551.641Z" transform="translate(-887.613 -433.35)"/><rect class="l" width="58.885" height="39.672" rx="14" transform="translate(95.903 29.848)"/><path class="l" d="M624.64,287.943l-.013-.056c0-.015,0,0-.011,0v.017l-.049.07a1.925,1.925,0,0,0-.1.214c-.066.135-.122.316-.184.48s-.111.352-.169.532l-.081.273-.07.284-.141.577-.117.6c-.088.4-.139.809-.214,1.221a33.616,33.616,0,0,0-.282,5.161l.053,1.332.015.337.028.333.062.673.06.675c.019.228.043.455.077.677l.19,1.356c.055.459.143.907.231,1.36l.263,1.367c.2.905.427,1.809.653,2.729l-.122.066c-.6-.717-1.228-1.435-1.828-2.178l-.873-1.138c-.293-.382-.587-.767-.854-1.166l-.824-1.2c-.143-.2-.273-.4-.4-.613l-.386-.624-.389-.628-.194-.316-.179-.322-.724-1.317a40.723,40.723,0,0,1-2.445-5.607c-.162-.5-.339-1-.478-1.514l-.214-.775-.192-.8-.1-.4-.081-.414c-.051-.28-.113-.547-.152-.841s-.092-.572-.12-.895c-.015-.16-.034-.3-.045-.483v-.636Z" transform="translate(-483.103 -225.208)"/><g class="m" transform="translate(218.79 109.559)"><path class="n" d="M1025.184,519.165a.472.472,0,0,1-.333-.8l5.125-5.125a.47.47,0,0,1,.664.664l-5.124,5.125A.47.47,0,0,1,1025.184,519.165Z" transform="translate(-1024.715 -513.109)"/></g><g class="m" transform="translate(219.174 109.946)"><path class="n" d="M1026.981,523.435a.472.472,0,0,1-.331-.8l7.584-7.584a.47.47,0,0,1,.664.664l-7.584,7.584A.463.463,0,0,1,1026.981,523.435Z" transform="translate(-1026.515 -514.919)"/></g><circle class="h" cx="0.357" cy="0.357" r="0.357" transform="translate(225.461 108.718)"/><path class="o" d="M125.515,175.132H84.421a1.281,1.281,0,0,1-1.281-1.281v-57.2a1.281,1.281,0,0,1,1.281-1.281h41.094a1.281,1.281,0,0,1,1.281,1.281v57.2A1.281,1.281,0,0,1,125.515,175.132ZM85.7,172.57h38.532V117.932H85.7Z" transform="translate(-65.396 -90.736)"/><rect class="n" width="25.981" height="36.166" transform="translate(26.582 36.433)"/><path class="p" d="M148.792,205.075H121.53V167.63h27.262Zm-25.981-1.281h24.7V168.911h-24.7Z" transform="translate(-95.589 -131.838)"/><path class="q" d="M139.864,264.67c-7.076,0-9.295.521-12.354.681v14.763h24.7V265.289C151.727,265.246,145.172,264.676,139.864,264.67Z" transform="translate(-100.292 -208.158)"/><path class="p" d="M136.186,800.279H65.873a6.856,6.856,0,0,1-2.989-.72,7.641,7.641,0,0,1-4.159-5.338l-.337-1.853-8.327-45.8a4.911,4.911,0,0,1,4.954-6.055h70.312a7.59,7.59,0,0,1,7.157,6.055l8.658,47.658A4.914,4.914,0,0,1,136.186,800.279Z" transform="translate(-39.3 -582.396)"/><path class="h" d="M133.319,798.233H63.007a7.65,7.65,0,0,1-3.333-.8A8.4,8.4,0,0,1,55.1,791.55L46.429,743.9a5.9,5.9,0,0,1,1.189-4.943,5.733,5.733,0,0,1,4.516-2.014h70.312a8.367,8.367,0,0,1,7.9,6.683l8.669,47.656a5.911,5.911,0,0,1-1.187,4.941A5.683,5.683,0,0,1,133.319,798.233ZM52.134,738.469a4.239,4.239,0,0,0-3.344,1.463,4.476,4.476,0,0,0-.854,3.692L56.6,791.279a6.873,6.873,0,0,0,3.745,4.787,6.085,6.085,0,0,0,2.658.641h70.312a4.241,4.241,0,0,0,3.344-1.465,4.471,4.471,0,0,0,.854-3.69L128.848,743.9a6.809,6.809,0,0,0-6.406-5.428Z" transform="translate(-36.433 -579.588)"/><path class="n" d="M126.928,788.964H101.675a2.737,2.737,0,0,1-2.562-2.176h0a1.772,1.772,0,0,1,1.781-2.178h25.245a2.735,2.735,0,0,1,2.562,2.178h0A1.764,1.764,0,0,1,126.928,788.964Z" transform="translate(-77.931 -617.08)"/><path class="n" d="M118.893,828.87H107.926a1.967,1.967,0,0,1-1.849-1.563l-.214-1.226a1.281,1.281,0,0,1,.967-1.531,1.3,1.3,0,0,1,.314-.032H118.1a1.969,1.969,0,0,1,1.849,1.563l.214,1.226a1.281,1.281,0,0,1-.967,1.531A1.213,1.213,0,0,1,118.893,828.87Z" transform="translate(-83.243 -648.467)"/><path class="n" d="M131.159,867.97H115.407a2.306,2.306,0,0,1-2.169-1.836l-.124-.681a1.5,1.5,0,0,1,1.115-1.8,1.525,1.525,0,0,1,.38-.038h15.745a2.308,2.308,0,0,1,2.182,1.838l.124.681a1.5,1.5,0,0,1-1.119,1.794A1.433,1.433,0,0,1,131.159,867.97Z" transform="translate(-88.939 -679.218)"/><path class="n" d="M149,910.231H123.745a2.735,2.735,0,0,1-2.562-2.176h0a1.771,1.771,0,0,1,1.781-2.176h25.245a2.737,2.737,0,0,1,2.562,2.176h0A1.759,1.759,0,0,1,149,910.231Z" transform="translate(-95.288 -712.456)"/><path class="n" d="M191.582,828.87H180.626a1.967,1.967,0,0,1-1.849-1.563l-.214-1.226a1.281,1.281,0,0,1,.967-1.531,1.3,1.3,0,0,1,.314-.032H190.8a1.969,1.969,0,0,1,1.849,1.563l.214,1.226a1.284,1.284,0,0,1-1.283,1.563Z" transform="translate(-140.42 -648.467)"/><path class="n" d="M140.259,946.523H129.292a1.967,1.967,0,0,1-1.847-1.565l-.214-1.223a1.281,1.281,0,0,1,.965-1.533,1.3,1.3,0,0,1,.316-.032h10.958a1.966,1.966,0,0,1,1.847,1.565l.214,1.223a1.281,1.281,0,0,1-.965,1.533A1.244,1.244,0,0,1,140.259,946.523Z" transform="translate(-100.048 -740.996)"/><path class="n" d="M212.919,946.523H201.961a1.967,1.967,0,0,1-1.847-1.565l-.233-1.223a1.281,1.281,0,0,1,.965-1.533,1.3,1.3,0,0,1,.316-.032h10.958a1.967,1.967,0,0,1,1.853,1.565l.224,1.223a1.281,1.281,0,0,1-.965,1.533A1.3,1.3,0,0,1,212.919,946.523Z" transform="translate(-157.185 -740.996)"/><path class="n" d="M216.134,867.921h-6.82a1.608,1.608,0,0,1-1.507-1.281l-.327-1.8a1.033,1.033,0,0,1,.76-1.251.97.97,0,0,1,.282-.03h6.82a1.6,1.6,0,0,1,1.507,1.281l.327,1.808a1.04,1.04,0,0,1-1.042,1.281Z" transform="translate(-163.163 -679.169)"/><path class="r" d="M203.714,974.259H214.67a1.973,1.973,0,0,1,1.849,1.563l.214,1.226a1.281,1.281,0,0,1-.967,1.531,1.3,1.3,0,0,1-.314.032H204.5a1.962,1.962,0,0,1-1.847-1.563l-.214-1.226a1.281,1.281,0,0,1,.967-1.531A1.207,1.207,0,0,1,203.714,974.259Z" transform="translate(-159.201 -766.234)"/><path class="f" d="M306.384,974.259H317.34a1.973,1.973,0,0,1,1.849,1.563l.214,1.226a1.281,1.281,0,0,1-.967,1.531,1.3,1.3,0,0,1-.314.032H307.174a1.962,1.962,0,0,1-1.847-1.563l-.214-1.226a1.281,1.281,0,0,1,.967-1.531A1.207,1.207,0,0,1,306.384,974.259Z" transform="translate(-239.949 -766.234)"/><path class="h" d="M226.34,875.95l2.616,6.391.094-4.1L233,877.4Z" transform="translate(-178.02 -688.917)"/><path class="h" d="M238.147,884.069l-1.014,1.241-4.243-3.589,1.016-1.241Z" transform="translate(-183.171 -692.479)"/><path class="h" d="M122.869,792.7H105.375a.764.764,0,1,1-.081-1.527h17.575a.764.764,0,0,1,.081,1.527Z" transform="translate(-82.25 -622.243)"/><path class="h" d="M120.382,832.629h-7.708a.764.764,0,0,1,0-1.529h7.708a.764.764,0,1,1,0,1.529Z" transform="translate(-88.023 -653.643)"/><path class="h" d="M190.925,832.629h-8.541a.764.764,0,0,1,0-1.529h8.541a.764.764,0,1,1,0,1.529Z" transform="translate(-142.848 -653.643)"/><path class="h" d="M128.548,871.789H117.724a.764.764,0,0,1,0-1.529h10.823a.764.764,0,1,1,0,1.529Z" transform="translate(-91.995 -684.442)"/><path class="h" d="M212.911,869.22a.76.76,0,0,1-.749-.628l-.389-2.135a.764.764,0,0,1,1.495-.273l.389,2.135a.764.764,0,0,1-.619.888.72.72,0,0,1-.134.013Z" transform="translate(-166.561 -680.807)"/><path class="p" d="M229.342,1018.734H147.805L99.3,1012.96h81.537Z" transform="translate(-78.105 -796.672)"/><path class="h" d="M228.979,1016.719H147.343l-48.5-5.765.09-1.524h81.635l48.505,5.765Zm-81.49-1.527H216.1l-35.658-4.245H111.824Z" transform="translate(-77.743 -793.896)"/><path class="h" d="M292.183,1022.417H236.931l-17.541-1.937h55.253Z" transform="translate(-172.554 -802.587)"/><path class="p" d="M96.89,1012.96v1.606l47.788,6.16v-1.8" transform="translate(-76.21 -796.672)"/><path class="h" d="M141.866,1018.556h-.1l-47.786-6.16a.762.762,0,0,1-.666-.758v-1.6a.764.764,0,1,1,1.527-.081.514.514,0,0,1,0,.081v.933l46.259,5.957v-.933a.764.764,0,0,1,1.527-.081.516.516,0,0,1,0,.081v1.8a.762.762,0,0,1-.76.764Z" transform="translate(-73.398 -793.739)"/><path class="p" d="M320.7,1040.344v1.6l82.769-.382V1040" transform="translate(-252.232 -817.939)"/><path class="h" d="M317.88,1039.746a.762.762,0,0,1-.764-.76v-1.608a.764.764,0,0,1,1.527-.081.521.521,0,0,1,0,.081v.837l81.242-.376v-.8a.764.764,0,1,1,1.527-.081.524.524,0,0,1,0,.081v1.565a.764.764,0,0,1-.76.764l-82.769.382Z" transform="translate(-249.412 -814.973)"/><path class="s" d="M301.873,799.037H282.118a2.825,2.825,0,0,1-2.695-2.167l-2.372-12.363a1.785,1.785,0,0,1,1.862-2.167H298.67a2.821,2.821,0,0,1,2.692,2.167l2.372,12.363A1.783,1.783,0,0,1,301.873,799.037Z" transform="translate(-217.873 -615.294)"/><path class="t" d="M295.831,805.6H294.62a2.221,2.221,0,0,1-2.114-1.708l-.075-.384a1.409,1.409,0,0,1,1.463-1.708H295.1a2.221,2.221,0,0,1,2.114,1.708l.073.384A1.407,1.407,0,0,1,295.831,805.6Z" transform="translate(-229.976 -630.599)"/><path class="h" d="M306.949,839.541h-7.518a.641.641,0,0,1,0-1.281h7.518a.641.641,0,0,1,0,1.281Z" transform="translate(-235 -659.274)"/><path class="h" d="M350.858,839.541h-3.378a.641.641,0,0,1,0-1.281h3.378a.641.641,0,1,1,0,1.281Z" transform="translate(-272.79 -659.274)"/><path class="u" d="M377.768,850.1h-1.377a.641.641,0,0,1,0-1.281h1.377a.641.641,0,0,1,0,1.281Z" transform="translate(-295.527 -667.579)"/><path class="h" d="M315.187,825.411H296.731a.641.641,0,1,1,0-1.281h18.457a.641.641,0,0,1,0,1.281Z" transform="translate(-232.877 -648.161)"/><path class="n" d="M341.408,793.072h-9.2a.592.592,0,0,1-.562-.453h0a.349.349,0,0,1,.389-.444h9.2a.591.591,0,0,1,.564.453h0a.371.371,0,0,1-.286.444A.332.332,0,0,1,341.408,793.072Z" transform="translate(-260.833 -623.027)"/><path class="v" d="M61.267,798.558h2.622l59.145-58.018H54.964A4.916,4.916,0,0,0,50.01,746.6l8.327,45.8.348,1.853a7.426,7.426,0,0,0,2.581,4.307Z" transform="translate(-39.263 -582.419)"/><g transform="translate(39.478 160.005)"><path class="h" d="M185.333,759.892a2.107,2.107,0,0,0,.854.186c.489,0,.82-.231.841-.959l.013-.352h-.013a.931.931,0,0,1-.884.553,1.272,1.272,0,0,1-1.185-1.106,1.653,1.653,0,0,1,1.674-2.084,3.076,3.076,0,0,1,1.125.214v2.584a1.939,1.939,0,0,1-.391,1.394,1.567,1.567,0,0,1-1.1.348,2.261,2.261,0,0,1-1.016-.214Zm1.708-3.1a1.128,1.128,0,0,0-.427-.077c-.655,0-.991.707-.867,1.384.053.327.243.641.617.641s.666-.444.673-1.01Z" transform="translate(-184.924 -754.686)"/><path class="h" d="M204.717,756.413l-.017,2.161c0,.374,0,.7.021.972h-.662l-.036-.547h-.013a1.11,1.11,0,0,1-.974.617.956.956,0,0,1-.978-.888,2.452,2.452,0,0,1-.038-.559l.015-1.755h.747v1.708a2.379,2.379,0,0,0,.026.427.466.466,0,0,0,.48.444c.348,0,.677-.412.681-1.068l.013-1.525Z" transform="translate(-198.368 -754.899)"/><path class="h" d="M220.266,759.122a2.229,2.229,0,0,1-1.068.245,1.456,1.456,0,0,1-1.52-1.294,1.547,1.547,0,0,1,1.416-1.973,1.121,1.121,0,0,1,1.17.882c.147.8-.641,1.068-1.864,1.033a1.012,1.012,0,0,0,.164.444.839.839,0,0,0,.7.322,1.615,1.615,0,0,0,.824-.214ZM219.1,756.66a.774.774,0,0,0-.724.8c.773.013,1.249-.1,1.181-.468a.427.427,0,0,0-.457-.325Z" transform="translate(-210.659 -754.661)"/><path class="h" d="M232.406,758.639a1.965,1.965,0,0,0,.79.213c.3,0,.451-.181.412-.386s-.162-.32-.5-.483a1.229,1.229,0,0,1-.767-.816c-.109-.6.342-1.029,1.08-1.029a1.738,1.738,0,0,1,.769.16l-.094.54a1.437,1.437,0,0,0-.611-.141c-.284,0-.448.154-.41.367.032.173.2.295.485.427a1.309,1.309,0,0,1,.8.843c.124.688-.386,1.068-1.138,1.068a1.828,1.828,0,0,1-.916-.226Z" transform="translate(-222.193 -754.693)"/><path class="h" d="M244.756,752.43v.854h.707l-.011.579h-.707l-.021,1.266a2.81,2.81,0,0,0,.03.444.3.3,0,0,0,.322.278h0a1.668,1.668,0,0,0,.254-.013l.036.585a1.627,1.627,0,0,1-.476.064.777.777,0,0,1-.854-.64,2.563,2.563,0,0,1-.034-.585l.015-1.4h-.427v-.574h.427v-.675Z" transform="translate(-231.064 -751.777)"/><path class="h" d="M254.394,758.639a1.974,1.974,0,0,0,.792.214c.3,0,.448-.182.412-.386s-.162-.32-.5-.483a1.225,1.225,0,0,1-.767-.816c-.109-.6.339-1.029,1.08-1.029a1.768,1.768,0,0,1,.769.16l-.1.54a1.405,1.405,0,0,0-.611-.141c-.282,0-.446.154-.408.367.03.173.194.295.483.427a1.3,1.3,0,0,1,.8.843c.126.688-.384,1.068-1.136,1.068a1.828,1.828,0,0,1-.916-.226Z" transform="translate(-239.487 -754.693)"/><path class="h" d="M272.352,750.8a.361.361,0,0,1,.252-.444.347.347,0,0,1,.115-.013.482.482,0,0,1,.472.4.361.361,0,0,1-.263.44.321.321,0,0,1-.12.011A.461.461,0,0,1,272.352,750.8Zm.011,3.98.021-3.132h.752l-.028,3.132Z" transform="translate(-253.674 -750.139)"/><path class="h" d="M279.932,759.308l.013-2.163c0-.374,0-.7-.015-.972h.655l.038.566h.013a1.068,1.068,0,0,1,1.01-.641.944.944,0,0,1,.954.854,3.268,3.268,0,0,1,.036.521l-.015,1.819h-.756l.013-1.768a2.187,2.187,0,0,0-.013-.38c-.047-.256-.177-.451-.474-.451-.339,0-.7.412-.7,1.144v1.448Z" transform="translate(-259.645 -754.661)"/><path class="h" d="M295.506,754.013l.017-2.562h-.4v-.579h.4v-.16a1.5,1.5,0,0,1,.329-1.055,1.068,1.068,0,0,1,.771-.29,1.145,1.145,0,0,1,.478.085l-.034.592a.85.85,0,0,0-.312-.051c-.354,0-.493.327-.491.732v.147h.641v.579h-.641l-.019,2.562Z" transform="translate(-271.591 -749.366)"/><path class="h" d="M307.93,757.517a1.528,1.528,0,1,1-1.522-1.288A1.524,1.524,0,0,1,307.93,757.517Zm-2.2.664a.8.8,0,0,0,.745.732c.559,0,.792-.771.679-1.4a.785.785,0,0,0-.73-.72c-.6,0-.8.786-.692,1.373Z" transform="translate(-279.302 -754.764)"/></g><g class="w" transform="translate(5.753)"><path class="x" d="M423.062,588.673l-1.823-3.777-2.761-7.841c-.717-1.969-.38-22.3-.38-22.3l10.059,1.815,5.541,12.6-.762,10.277Z" transform="translate(-334.524 -436.307)"/><path class="y" d="M434.7,653.436s-8.541,2.972-10.407,1.922c-2.244-1.258-2.3-5.223-2.3-5.223s10.578-3.312,12.907-1.068C435.693,649.831,434.7,653.436,434.7,653.436Z" transform="translate(-337.655 -509.864)"/><path class="z" d="M413.978,546.647,400.7,548.205a1.922,1.922,0,0,1-2.12-1.678l-3.4-29a1.454,1.454,0,0,1,1.281-1.614h0l14.191-1.663a1.454,1.454,0,0,1,1.614,1.281h0l3.4,29A1.922,1.922,0,0,1,413.978,546.647Z" transform="translate(-316.549 -404.442)"/><rect class="aa" width="15.692" height="30.399" rx="1" transform="translate(79.29 112.29) rotate(-6.69)"/><path class="ab" d="M442.109,588.936c4.161-1.362,5.1-.427,5.1-.427l-.013-2.234c.026-2.349.741-7.561.741-7.561a13.816,13.816,0,0,1-2.718-7.206,3.89,3.89,0,0,1,1.51-3.1s5.02,5.855,5.739,8.2c.756,2.229,1.74,5.276.824,8.073a69.311,69.311,0,0,0-1.979,7.77c-.615,3.026-.117,6.254-1.8,9a6.247,6.247,0,0,1-5.522,3.126,6.687,6.687,0,0,1-4.74-2.968c-1.236-1.727-2.932-4.651-2.167-6.784C437.935,592.393,439.551,589.773,442.109,588.936Z" transform="translate(-349.362 -447.043)"/><path class="ab" d="M445.777,686.679a7.369,7.369,0,0,1,7.445-2.686,9,9,0,0,1,5.338,3.788l.028-.019c.064.1.143.214.214.331.724.982,1.4,2.031,2.135,3.036,4.661,6.335,9.626,12.461,14.6,18.551L462.15,721.157c.051-.045-1.281-2.114-1.347-2.236l-5.731-9.525L448.766,698.9a45.96,45.96,0,0,1-2.639-5.144C445.094,691.392,444.157,688.968,445.777,686.679Z" transform="translate(-355.667 -537.815)"/><rect class="ac" width="16.283" height="25.052" rx="8.142" transform="translate(97.281 169.508) rotate(-36.42)"/><path class="ad" d="M522.737,800c-8.968-7.744-19.023-14.306-27.544-22.6a1.522,1.522,0,0,0-2.146-.06l-19.71,18.179a1.616,1.616,0,0,0-.325,1.945c2.509,4.407,14.618,22.614,28.1,34.178,7.441,6.406,17.254,12.113,26.451,5.278a19.318,19.318,0,0,0,7.337-16.287C534.484,812.086,528.9,805.339,522.737,800Z" transform="translate(-377.63 -611.035)"/><path class="h" d="M487.869,776.2,466.82,795.868a1.326,1.326,0,0,0,0,1.875l.023.023L472.459,804l23.607-21.8-6.316-6.126a1.313,1.313,0,0,0-1.881.141Z" transform="translate(-372.6 -610.105)"/><path class="ad" d="M638.458,688.941c-5.338,4.349-10.924,10.65-15.711,15.587a161.993,161.993,0,0,0-16.106,19.533,36.3,36.3,0,0,0-6.269,23.85c.384,3.327,1.659,7.86,3.427,10.514,3.339,5.022,9.151,7.129,14.752,7.751,7.8.854,14.752-2.011,20.4-7.13,3.143-2.846,6.664-5.2,9.711-8.2a112.817,112.817,0,0,0,8.359-9.273c5.716-7.046,11.81-14.671,15.395-23.06,2.795-6.542,3.935-14.035,1.787-20.818A23.184,23.184,0,0,0,663.37,684.51a20.748,20.748,0,0,0-14.092-2.409C649.042,682.157,644.529,683.987,638.458,688.941Z" transform="translate(-477.795 -536.163)"/><path class="ad" d="M601.552,727.282a179.84,179.84,0,0,0-15.465,15.939L571,760.657a33.277,33.277,0,0,0-3.993,5.291c-2.43,4.311-1.768,8.8,1.495,12.491a13.253,13.253,0,0,0,11.722,4.044c6.9-.893,11.49-6.158,14.432-12.079,2.421-4.87,5.584-9.327,8.541-13.892l9.653-14.855A58.811,58.811,0,0,0,618.8,730.95c1.467-3.816,2.707-7.629,1.68-11.59a4.253,4.253,0,0,0-2.562-3.09c-.521-.248-2.235.028-3.715.922C609.807,719.847,601.565,727.269,601.552,727.282Z" transform="translate(-450.551 -563.264)"/><path class="ae" d="M842.856,535.49c.032.073.062.147.088.214a31.693,31.693,0,0,1,.641,3.63q2.2,9.779,4.375,19.537c.641,2.883,1.181,5.78,2.1,8.562a9.5,9.5,0,0,1-1.051,7.922,13.711,13.711,0,0,1-8.165,5.616,28.339,28.339,0,0,1-10.08.491,16.525,16.525,0,0,1-5.263-1.174c-3.1-1.384-4.849-4.373-3.448-7.618,2.466-5.949,2.06-9.875,2.06-9.875L823.06,552.8c-.214-2.009-.446-4.016-.641-6.028-.282-3.006-.882-5.5.869-8.28A16.2,16.2,0,0,1,836.86,531.9C838.959,532.142,841.938,533.367,842.856,535.49Z" transform="translate(-651.9 -418.28)"/><path class="af" d="M844.789,569.493H829.022a2.562,2.562,0,0,1-2.562-2.562c0-4.484-1.042-9.081,2.829-12.3,2.022-1.682,4.531-2.641,6.833-3.918a23.851,23.851,0,0,1,5-2.492,5.108,5.108,0,0,1,5.184,1.138,7.208,7.208,0,0,1,1.326,3.916,46.568,46.568,0,0,1,.579,9.053C848.068,564.5,847.761,569.493,844.789,569.493Z" transform="translate(-655.654 -430.978)"/><path class="ag" d="M929.528,594.938h.117a.641.641,0,0,0,.4-.559l-4.213-17.327c-.784-3.6-3.039-15.7-3.039-15.7a.485.485,0,0,0-.957.162h0l3.038,15.7c.694,3.241,4.221,17.21,4.221,17.21a.427.427,0,0,0,.433.515Z" transform="translate(-730.759 -441.174)"/><path class="ah" d="M707.461,792.359h-55.6c-6.722,0-13.42.69-20.135.8a54.094,54.094,0,0,1-10.012-.389c-1.922-.333-2.9-.641-3.269-1.161-.557-.773.256-2.005,1.364-4.484,1.922-4.294,3.675-8.618,5.221-13,1.742-4.945,3.617-10.021,5.195-15.186a85.9,85.9,0,0,0,3.416-15.544,48.442,48.442,0,0,0-.177-12.687c-.132-.875-.3-1.745-.472-2.614-.72-3.553-1.659-7.076-1.734-10.693a24.131,24.131,0,0,1,.551-5.552c.051-.241.107-.483.164-.722s.122-.491.188-.732a31.757,31.757,0,0,1,4.191-8.915,47.269,47.269,0,0,1,3.551-4.7c.038-.045.079-.088.117-.13.557-.613,6.6-7.119,10.958-11.46,5.124-5.112,8.18-7.815,11.893-10.236,1.281-.835,1.281-.756,2.545-.075A13.517,13.517,0,0,0,667.84,676a19.5,19.5,0,0,0,6.6,1.089,26.627,26.627,0,0,0,8.771-1.708,10.858,10.858,0,0,0,3.666-2.148c.824-.837,2.325-1.868,1.922-2.989a18.684,18.684,0,0,1,5.938,3.609c1.881,1.5,3.7,3.1,5.438,4.764a17.96,17.96,0,0,1,3.739,5.379,31.289,31.289,0,0,1,2.716,12.57,89.5,89.5,0,0,1-1.281,15.3c-.365,2.43-.745,4.817-1.055,7.117-.386,2.887-.728,5.962-1.014,9.13-.427,4.941-.734,10.129-.875,15.3-.147,5.3-.124,10.571.1,15.544.1,2.208.239,4.352.427,6.406.214,2.423.628,5.537,1.132,8.773C705.368,782.77,707.288,792.359,707.461,792.359Z" transform="translate(-492.014 -527.13)"/><path class="h" d="M727.823,1092.036c-.177-2.06-.316-4.2-.416-6.406H655.145c-1.578,5.165-3.453,10.249-5.2,15.186h79C728.451,1097.572,728.032,1094.463,727.823,1092.036Z" transform="translate(-516.933 -853.826)"/><path class="h" d="M757.468,941.14c-.427,4.941-.735,10.129-.875,15.3H687.839a48.444,48.444,0,0,0-.177-12.687c-.132-.875-.3-1.745-.472-2.614Z" transform="translate(-546.222 -740.187)"/><path class="h" d="M755.176,808.746H681.65c.051-.241.107-.483.164-.722s.122-.491.188-.732a31.75,31.75,0,0,1,4.191-8.914,47.253,47.253,0,0,1,3.551-4.7c.038-.045.079-.088.117-.13l66.618-.09A88.837,88.837,0,0,1,755.176,808.746Z" transform="translate(-541.865 -624.04)"/><path class="ai" d="M704.5,711.376c-8.716,1.732-16.554,13.475-23.451,19.046-8.583,6.931-12.561,10.691-13.806,21.653-1.008,8.874,1.14,17.836-.267,26.69-.662,4.157-2.742,7.736-4.4,11.581l-5.68,13.155c-1.458,3.38-2.94,7.147-1.77,10.638,1.947,5.8,9.521,7,15.64,6.967,10.4-.052,16.622.025,23.911-12.156,3.615-6.043,6.618,6.229,11.973,5.189,4.031-.784,19.837.337,21.97-3.171,1.446-2.379,3.664-5.212,3.416-7.986-1.992-23.346-1.021-37.4,1.708-56.69,1.375-9.713,5.257-26.291-5.5-32.047-4.4-2.349-9.638-2.485-14.6-2.011C711.49,712.433,706.632,710.951,704.5,711.376Z" transform="translate(-520.671 -559.422)"/><path class="aj" d="M936.56,354.449s2.411-5.05,9.724-5.1c6.609-.092,11.236,1.469,15.062,8.754,2.447,4.621,6.82,6.523,12.726,8.393,4.862,1.576,10.371,6.254,9.292,14.8-1.2,8.541-.754,13.161,3.609,17.3s9.107,20.092-8.05,29.37c-15.457,8.43-31.387.442-35.474-12.645-3.993-12.6,2.37-18.728,6.85-26.961,3.95-7.2,1.856-15.929-.021-18.149-2.2-2.823-3.521-2.3-3.521-2.3Z" transform="translate(-742.346 -274.751)"/><path class="ak" d="M936.56,354.449s2.411-5.05,9.724-5.1c6.609-.092,11.236,1.469,15.062,8.754,2.447,4.621,6.82,6.523,12.726,8.393,4.862,1.576,10.371,6.254,9.292,14.8-1.2,8.541-.754,13.161,3.609,17.3s9.107,20.092-8.05,29.37c-15.457,8.43-31.387.442-35.474-12.645-3.993-12.6,2.37-18.728,6.85-26.961,3.95-7.2,1.856-15.929-.021-18.149-2.2-2.823-3.521-2.3-3.521-2.3Z" transform="translate(-742.346 -274.751)"/><path class="ae" d="M326.367,1012.323c-3.843.457-12.493-.478-22.334-.583-3.63-.043-7.439.034-11.216.333-.271.024-.544.043-.818.062l-11.932.9-16.563,1.243c-4.826.361-11.494-.389-13.121,5.552a7.26,7.26,0,0,0,2.5,7.473c1.845,1.422,3.152,1.437,5.451,1.8,2.739.352,6.536,1.008,9.254,1.446q14.8,2.379,29.645,4.439c9.8,1.36,19.484,3.335,29.216,5.15,0,0,.685-3.8,1.307-8.59C328.822,1023.248,329.676,1012,326.367,1012.323Z" transform="translate(-202.504 -795.704)"/><rect class="al" width="27.971" height="20.44" rx="10.22" transform="translate(73.227 217.078)"/><path class="am" d="M457.638,998.168,456,958.062s30.516-3.137,57.416-6.427c21.352-2.609,25.138,9.038,25.836,19.936.459,7.828-7.317,20.754-24.914,22.172-13.785.67-56.7,4.422-56.7,4.422Z" transform="translate(-364.395 -748.15)"/><path class="h" d="M414.64,983.839l1.166,38.882,9.3.331-1.424-40.142Z" transform="translate(-331.867 -773.039)"/><path class="an" d="M713.831,702.821c10.569,13.761,1.012,31.21-12.292,49.475-9.314,12.978-24.506,31.236-32.391,36.64-7.031,4.864-16.744,4.7-25.622-.589-8.637-5.146-13.238-17.684-5.165-27.273,7.411-8.812,9.579-11.643,21.529-27.164,12.747-16.885,18.228-31.915,26.748-34.206C696.762,696.334,707.726,694.889,713.831,702.821Z" transform="translate(-504.519 -548.177)"/><path class="ae" d="M766.934,416.535s-.976,12.916.171,21.707c.89,7.125,4.213,10.853,7.9,12.243s10.174-.6,14.893-2.684c3.993-1.777,6.346-3.764,7.076-6.192.734-2.552,2.1-5.765,2.1-5.765l.214-7.653L791.339,408.4Z" transform="translate(-608.634 -321.198)"/><path class="ao" d="M797.528,373.785a30.653,30.653,0,0,1,8,16.732,22.6,22.6,0,0,1-1.115,11.88c-1.264,3.079-3.792,6.425-7.388,6.683a6.078,6.078,0,0,1-6.382-4.217c-.743-2.515-1.554-6.707-3.843-8.346-3.137,1.236-6.034.363-6.435-4.966-.48-6.04-.12-10.264-1.021-11.024-1.238-1.014-3.3.047-11.071,1.843s-12.839,1.858-13.582.4c-.679-.51,2.426-5.285,6.594-10.117a24.03,24.03,0,0,1,17.539-7.721C784.954,364.813,790.542,366.075,797.528,373.785Z" transform="translate(-599.24 -287.006)"/><ellipse class="ae" cx="6.709" cy="6.239" rx="6.709" ry="6.239" transform="translate(186.502 119.834) rotate(-86.72)"/><ellipse class="ap" cx="2.942" cy="2.825" rx="2.942" ry="2.825" transform="translate(189.773 116.248) rotate(-86.72)"/><path class="aq" d="M905.7,508.707a5.392,5.392,0,0,0,3.888,2.11,6.258,6.258,0,0,0,.713-12.457,5.83,5.83,0,0,0-5.366,3.111.611.611,0,0,1-.581-.149.689.689,0,0,1-.194-.72,6.906,6.906,0,0,1,6.085-3.307,7.19,7.19,0,0,1-.822,14.338,6.258,6.258,0,0,1-4.031-1.644Z" transform="translate(-716.837 -391.104)"/><path class="aq" d="M797.813,565.579a18.6,18.6,0,0,0,4.749-.553,31.12,31.12,0,0,0,12.124-5.791c2.733-2.436,2.639-4.911,2.646-5.037.013-.235.034-.587-.2-.6s-.367.214-.5.442a7.358,7.358,0,0,1-2.5,4.456A30.33,30.33,0,0,1,802.5,564.08c-3.69.613-4.409.807-7.1.427a7.322,7.322,0,0,1-3.7-1.424c-.448-.378-.566-.386-.352-.019a6.974,6.974,0,0,0,3.886,2.259A20.861,20.861,0,0,0,797.813,565.579Z" transform="translate(-628.06 -435.393)"/><path class="ar" d="M788.67,468.87a4.962,4.962,0,0,0-4.484-2.135.885.885,0,1,1-.017-1.77,6.827,6.827,0,0,1,6.081,2.942.918.918,0,0,1-.3,1.162C789.834,469.167,789,469.355,788.67,468.87Zm-16.1-2.925a.841.841,0,0,1-.685-.393.891.891,0,0,1,.186-1.168,3.843,3.843,0,0,1,3.337-.641.9.9,0,1,1-.386,1.759l-.068-.017a2.916,2.916,0,0,0-1.907.361.715.715,0,0,1-.476.092Z" transform="translate(-612.725 -364.616)"/><path class="h" d="M935.922,384.386l2.927-1.719s1.67-2.381-3.809-9.651c-5.043-6.655-8.451-6.852-9.2-6.192L923,369.14S932.854,376.186,935.922,384.386Z" transform="translate(-731.681 -288.301)"/><path class="ag" d="M818.77,553.626a.8.8,0,0,1-.026-1.6c4.087-.141,5.071-2.434,5.552-3.538.043-.1.081-.19.117-.267a.8.8,0,1,1,1.454.673c-.03.064-.062.141-.1.226-.508,1.185-1.858,4.332-6.961,4.507Z" transform="translate(-649.096 -430.796)"/><path class="as" d="M796.858,523.336h-.1a2.576,2.576,0,0,1-2.543-2.325,4.726,4.726,0,0,1,1.409-3.342.8.8,0,0,1,.976,1.253,3.471,3.471,0,0,0-.794,1.9c.07.589.371.824,1.157.927a.8.8,0,0,1-.1,1.595ZM796.431,519.044Z" transform="translate(-630.38 -407.048)"/><circle class="at" cx="1.648" cy="1.648" r="1.648" transform="translate(171.231 106.912)"/><path class="at" d="M827.661,499.757c.235.015,1.051.179,1.181-.049.139-.346-.54-.854-.88-1.112a4.715,4.715,0,0,0-2.441-.6.588.588,0,0,0-.066,1.174,5.405,5.405,0,0,1,1.977.468.363.363,0,0,0,.228.13Z" transform="translate(-654.528 -391.66)"/><path class="at" d="M828.114,500.132a.624.624,0,0,1-.485-.235,3.239,3.239,0,0,0-2.349-.709.619.619,0,1,1,.017-1.238h0c2.376.036,3.226,1.068,3.316,1.191a.617.617,0,0,1-.5.991Z" transform="translate(-654.347 -391.627)"/><circle class="at" cx="1.648" cy="1.648" r="1.648" transform="translate(159.062 105.27)"/><path class="at" d="M771.507,492.52a.613.613,0,0,1-.485-.235,3.251,3.251,0,0,0-2.349-.709.619.619,0,0,1,.019-1.236c2.374.034,3.224,1.068,3.314,1.189a.617.617,0,0,1-.117.854.627.627,0,0,1-.376.126Z" transform="translate(-609.855 -385.642)"/><path class="ar" d="M832.415,474.305a.8.8,0,0,1-.564-.233,5.272,5.272,0,0,1-.391-.453c-.579-.724-1.369-1.708-4.422-1.885a.8.8,0,1,1,.092-1.6c3.766.214,4.911,1.636,5.581,2.483a3.42,3.42,0,0,0,.267.316.8.8,0,0,1-.564,1.371Z" transform="translate(-655.616 -369.75)"/><path class="ar" d="M772.58,466.217a.8.8,0,0,1-.427-1.48,4.061,4.061,0,0,1,3.305-.591.8.8,0,0,1-.239,1.584,2.481,2.481,0,0,0-2.2.365A.812.812,0,0,1,772.58,466.217Z" transform="translate(-612.751 -364.953)"/><circle class="n" cx="2.406" cy="2.406" r="2.406" transform="translate(193.031 138.647)"/><circle class="n" cx="2.406" cy="2.406" r="2.406" transform="translate(187.781 141.41)"/><circle class="n" cx="2.406" cy="2.406" r="2.406" transform="translate(181.561 143.198)"/><circle class="n" cx="2.406" cy="2.406" r="2.406" transform="translate(175.495 143.424)"/><circle class="n" cx="2.406" cy="2.406" r="2.406" transform="translate(169.828 142.143)"/><g transform="translate(81.546 113.742)"><circle class="au" cx="4.597" cy="4.597" r="4.597" transform="translate(2.565 5.861)"/><g class="av" transform="translate(6.975 9.714)"><path class="n" d="M444.371,583.286a3.638,3.638,0,1,1,.431-.026A3.593,3.593,0,0,1,444.371,583.286Zm0-6.725a2.939,2.939,0,0,0-.364.022,3.111,3.111,0,1,0,3.447,2.734h0a3.117,3.117,0,0,0-3.078-2.749Z" transform="translate(-440.73 -576.009)"/></g><g class="av" transform="translate(5.942 8.704)"><path class="n" d="M440.608,580.668a4.675,4.675,0,1,1,4.647-5.219h0a4.67,4.67,0,0,1-4.093,5.187A4.754,4.754,0,0,1,440.608,580.668Zm0-8.94a4.263,4.263,0,1,0,4.239,3.768h0a4.267,4.267,0,0,0-4.233-3.759Z" transform="translate(-435.938 -571.319)"/></g><path class="n" d="M431.657,567.579a.6.6,0,0,1-.381-.138l-2.426-1.988a.6.6,0,0,1,.76-.924l1.857,1.527,2.37-4.571a.6.6,0,0,1,1.062.552l-2.727,5.22a.605.605,0,0,1-.411.31A.469.469,0,0,1,431.657,567.579Z" transform="translate(-424.278 -554.663)"/><g transform="matrix(0.995, -0.105, 0.105, 0.995, 0, 1.199)"><g transform="translate(0 0)"><g transform="translate(0 0)"><path class="aw" d="M0,1.331A1.293,1.293,0,0,0,1.342,2.684a1.455,1.455,0,0,0,.918-.322.142.142,0,0,0,.022-.212l-.073-.1A.132.132,0,0,0,2,2.026a1.088,1.088,0,0,1-.636.227.871.871,0,0,1-.874-.929.838.838,0,0,1,.87-.892,1.081,1.081,0,0,1,.585.183c.088.055.157.048.208-.037L2.216.472A.142.142,0,0,0,2.187.26,1.449,1.449,0,0,0,1.338,0,1.3,1.3,0,0,0,0,1.331ZM2.658,2.486a.137.137,0,0,0,.154.154h.157a.136.136,0,0,0,.154-.154V1.773a.556.556,0,0,1,.537-.618c.234,0,.293.154.293.38v.951a.136.136,0,0,0,.154.154h.157a.137.137,0,0,0,.154-.154V1.441c0-.494-.238-.709-.651-.709a.734.734,0,0,0-.647.377H3.112A1.057,1.057,0,0,0,3.123.951V.2A.137.137,0,0,0,2.969.044H2.812A.139.139,0,0,0,2.658.2Zm2.077-.779a.956.956,0,0,0,1,.976A1.179,1.179,0,0,0,6.369,2.5a.139.139,0,0,0,.051-.2l-.044-.073c-.048-.084-.113-.1-.2-.051a.771.771,0,0,1-.4.121.536.536,0,0,1-.559-.512H6.347a.162.162,0,0,0,.161-.157A.8.8,0,0,0,5.682.731.92.92,0,0,0,4.735,1.708ZM5.221,1.5a.454.454,0,0,1,.45-.413.379.379,0,0,1,.377.413Zm1.623.991A.137.137,0,0,0,7,2.64h.157a.136.136,0,0,0,.154-.154V1.825H7.55l.435.709a.185.185,0,0,0,.179.106h.2c.124,0,.165-.077.1-.183l-.548-.841V1.609L8.38.958c.069-.1.029-.183-.1-.183H8.11a.191.191,0,0,0-.183.1l-.388.556h-.23V.2A.137.137,0,0,0,7.156.044H7A.139.139,0,0,0,6.845.2Zm1.949,0a.135.135,0,0,0,.15.154H9.1a.135.135,0,0,0,.15-.154V.929A.136.136,0,0,0,9.1.775H8.944a.136.136,0,0,0-.15.154Zm.921,0a.135.135,0,0,0,.15.154h.161a.135.135,0,0,0,.15-.154v-.72a.558.558,0,0,1,.537-.611c.234,0,.293.154.293.38v.951a.137.137,0,0,0,.154.154h.157a.136.136,0,0,0,.154-.154V1.441c0-.494-.238-.709-.651-.709a.727.727,0,0,0-.662.395H10.15a.6.6,0,0,0,.007-.084V.929a.136.136,0,0,0-.15-.154H9.865a.136.136,0,0,0-.15.154Z" transform="translate(0 0.681)"/><g transform="translate(8.391 0)"><g transform="translate(0 0)"><path class="aw" d="M.81.514a.139.139,0,0,1,0,.193L.7.814a.139.139,0,0,1-.193,0L.039.339a.139.139,0,0,1,0-.193L.147.039a.139.139,0,0,1,.193,0Z" transform="translate(0 0.345)"/><path class="aw" d="M.855.039a.139.139,0,0,1,.193,0l.108.108a.139.139,0,0,1,0,.193l-.816.812a.139.139,0,0,1-.193,0L.039,1.044a.139.139,0,0,1,0-.193Z" transform="translate(0.367 0)"/></g></g></g></g></g><g transform="translate(2.057 19.967) rotate(-8)"><rect class="ax" width="12.48" height="5.969" rx="2.984" transform="matrix(1, 0.017, -0.017, 1, 0.104, 0)"/><g transform="translate(1.856 1.49)"><path class="n" d="M1.356,0a1.418,1.418,0,0,1,.458.065.841.841,0,0,1,.313.179.694.694,0,0,1,.18.27.957.957,0,0,1,.058.335,1.337,1.337,0,0,1-.073.454.944.944,0,0,1-.229.363,1.061,1.061,0,0,1-.391.239,1.612,1.612,0,0,1-.56.086H.793L.667,3H0L.363,0ZM1.175,1.485a.625.625,0,0,0,.242-.042.391.391,0,0,0,.158-.12.485.485,0,0,0,.088-.184A.981.981,0,0,0,1.69.9.515.515,0,0,0,1.666.741a.324.324,0,0,0-.2-.211A.48.48,0,0,0,1.291.5H.974l-.121.984Z" transform="translate(0 0)"/><path class="n" d="M2.815,3H2.3a.192.192,0,0,1-.2-.145L2,2.313H.986l-.222.539a.29.29,0,0,1-.091.1A.242.242,0,0,1,.527,3H0L1.432,0h.687ZM1.923,1.856,1.778,1C1.767.947,1.755.883,1.742.809S1.717.657,1.7.572q-.05.129-.1.24c-.032.073-.06.137-.083.192l-.353.852Z" transform="translate(1.964 0.003)"/><path class="n" d="M.675,3H0L.363,0h.675Z" transform="translate(5.018 0.001)"/><path class="n" d="M2.723,1.307a1.885,1.885,0,0,1-.056.464,1.743,1.743,0,0,1-.158.408,1.561,1.561,0,0,1-.977.762A1.723,1.723,0,0,1,1.08,3H0L.371,0H1.452a1.339,1.339,0,0,1,.53.1,1.178,1.178,0,0,1,.4.274,1.228,1.228,0,0,1,.253.414A1.483,1.483,0,0,1,2.723,1.307Zm-.687.017A1.194,1.194,0,0,0,1.992.992.7.7,0,0,0,1.867.737a.566.566,0,0,0-.2-.163A.629.629,0,0,0,1.385.517h-.4L.743,2.483h.4a.818.818,0,0,0,.37-.081A.8.8,0,0,0,1.8,2.17a1.084,1.084,0,0,0,.177-.363,1.748,1.748,0,0,0,.059-.483Z" transform="translate(6.236 0)"/></g></g></g></g><path class="ay" d="M957.771,6.865,939.529,241.128l-46.429.149L939.529,6.865Z" transform="translate(-702.413 -0.008)"/><path class="az" d="M1189.9,30.416a38.022,38.022,0,0,1,7.322,28.738,1.716,1.716,0,0,0,2.075,2.078,51.194,51.194,0,0,1,10.149-.865l-9.717,4.7a1.716,1.716,0,0,0-.6,2.31c6.229,13.149,18.228,21.677,31.1,27.655,1.708.794,3.882,1.473,5.357.293a5.242,5.242,0,0,0,1.482-3.337c2.5-14.383,3.019-28.812-5.637-41.295-9.073-13.08-24.265-20.259-39.606-22.761C1190.539,27.73,1188.923,29.092,1189.9,30.416Z" transform="translate(-935.604 -21.95)"/><path class="f" d="M1206.336,211.554a78.148,78.148,0,0,0,8.946,36.725,1.7,1.7,0,0,0,2.31.6l4.529-2.989c-.564,8.366-2.912,10.08,4.362,14.033a80.019,80.019,0,0,0,10.2,4.911c1.809.641,5.169,1.956,6.948,1.653l.927-.156c1.386-27.213-32.526-31.069-34.847-54.77C1209.507,209.43,1206.344,209.342,1206.336,211.554Z" transform="translate(-948.766 -165.105)"/><path class="f" d="M1145.6,444.381c10.537,8.705,23.7,23.914,45.651,18.519,1.068,0,3.384-1.356,2.81-2.714-4.655-10.984-14.923-21.049-26.677-22.605a1.687,1.687,0,0,0-1.687,1.689v5.157l-4.057-6.873a1.708,1.708,0,0,0-1.907-.775l-14.127,4.347C1143.876,441.654,1144.365,443.362,1145.6,444.381Z" transform="translate(-900.121 -343.471)"/><path class="f" d="M1474.508,404.931a24.439,24.439,0,0,0-7.738-.164c-4.887.681-10.061,3.416-14.1,6.192-5.4,3.7-12.235,11.3-8.718,18.376,2.705,5.443,9.145,5.979,14.289,3.991,6.158-2.385,9.371-7.608,11.225-13.706a18.73,18.73,0,0,1,7.046-9.47v-4.484A14.86,14.86,0,0,0,1474.508,404.931Z" transform="translate(-1134.886 -318.159)"/><path class="az" d="M1462.054,135.972c-16.048,7.117-35.626,19.082-34.955,39.288.214,6.329,3.344,13.422,9.971,15.126,6.527,1.676,12.679-2.253,16.655-7.153,2.458-3.028,8.908-13.322,4.977-17.062a7.469,7.469,0,0,0-3.141-1.495l-9.809-2.917a87.612,87.612,0,0,0,10.016-1.655c1.253-.31,3.021-.474,3.685-1.552.547-.89.427-3.241.591-4.313a67.617,67.617,0,0,1,3.958-15.03v-3.021a2.148,2.148,0,0,0-1.949-.216Z" transform="translate(-1122.378 -106.828)"/><rect class="h" width="63.046" height="12.043" transform="translate(268.022 131.108)"/><path class="h" d="M1318.336,667.19v12.29A31.616,31.616,0,0,1,1286.814,711h0a31.617,31.617,0,0,1-31.524-31.524V667.19Z" transform="translate(-987.268 -524.731)"/><path class="h" d="M1352.01,262.151a1.116,1.116,0,0,1-.188-.015,1.174,1.174,0,0,1-.974-1.345c4.766-29.652-.068-60.785-14.374-92.563a1.175,1.175,0,1,1,2.135-.963,187.263,187.263,0,0,1,14.218,45.99,148.233,148.233,0,0,1,.342,47.91A1.172,1.172,0,0,1,1352.01,262.151Z" transform="translate(-1051.006 -130.943)"/><path class="h" d="M1326.653,417.329h-.021a1.187,1.187,0,0,1-1.166-1.209h0a79.713,79.713,0,0,0-19.885-53.843,1.189,1.189,0,0,1,1.727-1.636c.017.019.034.036.049.056a82.063,82.063,0,0,1,20.477,55.458,1.192,1.192,0,0,1-1.181,1.174Z" transform="translate(-1026.564 -283.345)"/><path class="h" d="M1320.512,521.6a1.191,1.191,0,0,1-1.068-.685,54.29,54.29,0,0,0-21.617-23.615,1.187,1.187,0,0,1,1.2-2.052h0a56.668,56.668,0,0,1,22.571,24.662,1.189,1.189,0,0,1-.57,1.582,1.21,1.21,0,0,1-.5.113Z" transform="translate(-1020.259 -389.372)"/><path class="h" d="M1408.745,491.4a1.222,1.222,0,0,1-.361-.056,1.191,1.191,0,0,1-.771-1.495,92.758,92.758,0,0,1,19.917-34.3,1.189,1.189,0,0,1,1.751,1.608,90.345,90.345,0,0,0-19.4,33.416A1.19,1.19,0,0,1,1408.745,491.4Z" transform="translate(-1107.023 -357.999)"/><path class="h" d="M1406.942,345.212a1.191,1.191,0,0,1-1.168-1.426h0c3.993-19.106,9.8-43.308,19.326-61.041a1.189,1.189,0,0,1,2.095,1.125c-9.395,17.464-15.132,41.453-19.093,60.4A1.187,1.187,0,0,1,1406.942,345.212Z" transform="translate(-1105.602 -221.902)"/><rect class="p" width="63.046" height="2.774" transform="translate(268.022 137.129)"/><path class="ae" d="M195.536,1012.35c.015,1.437.365,3.709-.641,4.821-.916,1.014-2.925,1.01-4.149.854-3.63-.459-5.684-.107-9.352.124-3.468.214-5.609-1.119-8.987-2.067-2.7-.758-8.129-2.05-7.473-5.451.109-.559-.056-1.108.559-1.172a5.077,5.077,0,0,1-1.475-3.045c.034-1.162.476-2.456,1.433-2.528a5.222,5.222,0,0,1-1.964-2.31c-.472-.963-.327-2.957,1-3.045a8.836,8.836,0,0,1,2.912.717,6.683,6.683,0,0,1,1.964.641,10.525,10.525,0,0,0,2.577,1.174c.252.068,2.588.572,2.667.3.175-.6-.288-1.176-.585-1.73s.075-1.973.685-2.11a1.207,1.207,0,0,1,.517.038c2.291.506,4.213,1.537,6.5,2.043a22.063,22.063,0,0,1,3.1.7c.854.323,1.512,1.036,2.334,1.429a20.341,20.341,0,0,1,3.1,1.582,12.756,12.756,0,0,1,4.757,6.049A9.3,9.3,0,0,1,195.536,1012.35Z" transform="translate(-128.394 -784.523)"/><path class="ag" d="M215.186,1025.27a.614.614,0,0,1-.164-.024c-3.843-1.018-23.9-4.791-27.971-4.723-1.281.023-2.473.1-3.63.179a36.77,36.77,0,0,1-7.127,0,37.087,37.087,0,0,1-10.249-3.132c-.905-.459-3.662-1.86-3.523-3.865a4.332,4.332,0,0,1,.53-1.843,4.194,4.194,0,0,1-1.55-2.8,2.6,2.6,0,0,1,1.422-2.562c-.026-.021-.051-.043-.079-.062a4.894,4.894,0,0,1-1.392-1.379,3.535,3.535,0,0,1-.51-2.727c.267-1.091.769-1.26,1.629-1.465a3.289,3.289,0,0,1,2.291.38,66.114,66.114,0,0,0,8.705,2.52,17.9,17.9,0,0,0,2.639.2c.641.019,1.356.038,2.265.1a.642.642,0,1,1-.09,1.281h0c-.882-.062-1.589-.083-2.212-.1a19.055,19.055,0,0,1-2.812-.214,66.882,66.882,0,0,1-9.09-2.645,2.112,2.112,0,0,0-1.4-.271c-.587.141-.587.141-.681.525a2.279,2.279,0,0,0,.344,1.727,3.585,3.585,0,0,0,1.038,1.014,3.511,3.511,0,0,1,.427.369,1.647,1.647,0,0,0,.372.305.641.641,0,0,1,.034,1.281c-.854.128-1.708.69-1.623,1.623a3.072,3.072,0,0,0,1.708,2.334,1.354,1.354,0,0,1,.28.135.641.641,0,0,1-.587,1.134l-.032-.013a2.848,2.848,0,0,0-.344,1.264c-.03.427.3,1.352,2.827,2.635a36.561,36.561,0,0,0,9.822,3,35.186,35.186,0,0,0,6.89,0c1.17-.079,2.383-.16,3.69-.184,4.183-.081,24.128,3.653,28.317,4.768a.64.64,0,0,1-.164,1.26Z" transform="translate(-126.519 -787.111)"/><path class="n" d="M856.869,256.232H843.71L903.2.01h13.475Z" transform="translate(-663.568 -0.008)"/><path class="ae" d="M1055.3,619.256c-4.356,6.745-6.207,8.5-12.47,13.527a14.982,14.982,0,0,0-3.085,3.643,50.448,50.448,0,0,0-2.906,5.383h-77.2c7.764-12.6,15.211-23.961,12.062-36.1-4.27-16.5-1.623-36.939,4.193-52.409,5.359-14.25,12.771-27.171,23.133-38.325,2.161-2.327,4.6-4.67,7.7-5.355,7.883-1.744,15.572,12.48,20.321,17.509q3.594,3.8,6.833,7.917a118.035,118.035,0,0,1,9.342,13.764c8.968,15.444,17.137,33.1,18.28,50.942C1061.933,606.521,1058.983,613.568,1055.3,619.256Z" transform="translate(-754.745 -400.688)"/><path class="ba" d="M1221.548,897.468s-39.907,8.842-47.707,3.169c-9.395-6.833-7.539-24.66-7.539-24.66s49.206-9.292,58.47,2.024C1227.9,881.819,1221.548,897.468,1221.548,897.468Z" transform="translate(-917.164 -686.115)"/><path class="bb" d="M1155.73,1084.26c-.937.448-1.482,2.186-1.832,4.23a50.483,50.483,0,0,0-2.906,5.383H1104.78c2.7-3.391,5.765-6.019,10.091-4.217h0a19.129,19.129,0,0,0,15.03-.233c2.545-1.151,4.892-2.885,7.648-3.331,2.176-.35,4.384.141,6.581.316A22.846,22.846,0,0,0,1155.73,1084.26Z" transform="translate(-868.895 -852.748)"/><path class="ae" d="M1441.044,488.8h-10.462a13.772,13.772,0,0,1,0-27.544h10.462a13.772,13.772,0,1,1,0,27.544Z" transform="translate(-1114.3 -362.772)"/><path class="ae" d="M1433.6,624.8h-10.05a13.772,13.772,0,0,1,0-27.544h10.05a13.772,13.772,0,1,1,0,27.544Z" transform="translate(-1108.771 -469.733)"/><path class="bc" d="M1452.525,615.207q.113.363.25.717c.517,1.326,1.313,2.592,1.386,4.014.154,3.049-4.55,3.579-6.816,4.369a22.321,22.321,0,0,1-8.492,1.187c-5.552-.3-11.127-2.936-12.952-8.541-.094-.284-.175-.572-.246-.854a14.338,14.338,0,0,1,4.428-13.631c5.071-4.631,16.477-8.541,20.325-.32a18.375,18.375,0,0,1,1.3,6.86A25.308,25.308,0,0,0,1452.525,615.207Z" transform="translate(-1120.979 -469.815)"/><path class="bd" d="M1453.667,476.9a6.956,6.956,0,0,1,.9,1.828c2.24,7.422-9.263,7.794-13.806,7.9-6.265.158-12.7-1.89-14.816-8.387-.094-.284-.175-.572-.245-.854a14.338,14.338,0,0,1,4.428-13.631c3.643-3.327,9.807-6.465,14.848-5.146,6.224,1.631,3.809,9.687,5.846,14.178A29.474,29.474,0,0,0,1453.667,476.9Z" transform="translate(-1121.01 -360.448)"/><path class="ae" d="M1425.942,765.8h-10.39a13.772,13.772,0,0,1,0-27.544h10.39a13.772,13.772,0,0,1,0,27.544Z" transform="translate(-1102.479 -580.626)"/><path class="be" d="M1463.031,752.9a8.355,8.355,0,0,1,.611,2.105c.372,2.718-.978,4.307-3.179,5.515-7.638,4.194-21.124,3.587-24.281-6.094-.094-.284-.175-.572-.246-.854a14.339,14.339,0,0,1,4.428-13.631c3.843-3.515,15.666-6.327,17.41.549.363,1.424.41,2.921.828,4.332a19.535,19.535,0,0,0,2.716,5.013A18.836,18.836,0,0,1,1463.031,752.9Z" transform="translate(-1129.063 -579.067)"/><path class="bf" d="M1233.926,604.647a4.817,4.817,0,0,1-3.486-1.494l-16.7-17.51a4.822,4.822,0,0,1,6.976-6.66l11.5,12.051,16.868-42.738a4.821,4.821,0,1,1,8.968,3.54l-19.644,49.75a4.824,4.824,0,0,1-3.559,2.964A4.94,4.94,0,0,1,1233.926,604.647Z" transform="translate(-953.536 -428.823)"/><path class="z" d="M1235.9,437.957h-60.414a8.637,8.637,0,0,1-8.639-8.639v-131.9a6.57,6.57,0,0,1,6.568-6.572h64.552a6.572,6.572,0,0,1,6.572,6.572h0v131.9a8.637,8.637,0,0,1-8.641,8.639Z" transform="translate(-917.711 -228.748)"/><rect class="bg" width="70.893" height="137.339" rx="6" transform="translate(252.538 65.433)"/><path class="bh" d="M1144.738,1086.207a26.554,26.554,0,0,1-10.14-1.994.641.641,0,0,1,.44-1.2l.049.021a25.573,25.573,0,0,0,21.61-1.068l.427-.226a6.42,6.42,0,0,1,6.643-.653c.237.081.474.162.711.237a14.278,14.278,0,0,0,13.324-2.74.641.641,0,0,1,.835.972,15.587,15.587,0,0,1-14.543,2.989c-.246-.077-.493-.162-.741-.246a5.211,5.211,0,0,0-5.607.563l-.427.233a26.753,26.753,0,0,1-12.581,3.115Z" transform="translate(-892.015 -848.159)"/><path class="ag" d="M176.541,1026.816a.639.639,0,0,1-.156-.019,28.218,28.218,0,0,1-4.911-2.022l-.269-.132a.641.641,0,0,1,.508-1.177l.056.028.273.135a27.028,27.028,0,0,0,4.657,1.922.641.641,0,0,1-.156,1.262Z" transform="translate(-134.353 -804.893)"/><path class="ag" d="M177.433,1051.595a.641.641,0,0,1-.226-.043c-.171-.064-.378-.134-.609-.213a15.948,15.948,0,0,1-2.547-1.051.641.641,0,1,1,.626-1.119,14.428,14.428,0,0,0,2.336.957c.246.085.465.16.641.228a.641.641,0,0,1-.214,1.241Z" transform="translate(-136.637 -825.086)"/><path class="ag" d="M229.212,1000.842a8.654,8.654,0,0,1-3.2-.5,18.089,18.089,0,0,1-2.752-1.431,12.894,12.894,0,0,0-3.438-1.608c-.641-.16-1.335-.29-2-.427a15.312,15.312,0,0,1-5.2-1.659l-.079-.047c-.256-.156-.547-.331-.715-.3s-.348.451-.327.867a3.109,3.109,0,0,0,1.147,2.234.641.641,0,1,1-.769,1.025l-.032-.026a4.407,4.407,0,0,1-1.625-3.167,1.978,1.978,0,0,1,1.356-2.188,2.3,2.3,0,0,1,1.631.459l.075.045a14.118,14.118,0,0,0,4.776,1.495c.679.13,1.381.265,2.065.427a13.8,13.8,0,0,1,3.786,1.751,17.07,17.07,0,0,0,2.562,1.337,9.972,9.972,0,0,0,4.057.378l1.563-.068a207.728,207.728,0,0,0,21.006-1.625.641.641,0,0,1,.186,1.268,209.228,209.228,0,0,1-21.139,1.638l-1.561.068C230.111,1000.825,229.656,1000.842,229.212,1000.842Z" transform="translate(-165.343 -781.435)"/><g class="m" transform="translate(293.364 179.331)"><path class="n" d="M1375.261,859.869a1.281,1.281,0,0,1-.907-2.191l17.423-17.423a1.283,1.283,0,0,1,1.815,1.815l-17.425,17.423A1.281,1.281,0,0,1,1375.261,859.869Z" transform="translate(-1373.975 -839.88)"/></g><g class="m" transform="translate(303.594 179.331)"><path class="n" d="M1423.171,859.869a1.281,1.281,0,0,1-.907-2.191l17.423-17.423a1.283,1.283,0,1,1,1.815,1.815l-17.423,17.423A1.28,1.28,0,0,1,1423.171,859.869Z" transform="translate(-1421.885 -839.88)"/></g><g class="m" transform="translate(76.711 193.501)"><g class="m" transform="translate(5.836 7.86)"><path class="n" d="M387.594,954.889a.961.961,0,0,1-.679-1.64l9.935-9.939a.961.961,0,0,1,1.358,1.358l-9.933,9.935A.961.961,0,0,1,387.594,954.889Z" transform="translate(-386.634 -943.052)"/></g><g class="m"><path class="n" d="M360.264,925.937a.961.961,0,0,1-.679-1.64l17.773-17.776a.961.961,0,1,1,1.36,1.358h0l-17.771,17.776A.956.956,0,0,1,360.264,925.937Z" transform="translate(-359.304 -906.239)"/></g></g><g class="m" transform="translate(15.956 160.612)"><g class="m"><path class="n" d="M75.724,766a.961.961,0,0,1-.679-1.64l11.848-11.848a.961.961,0,0,1,1.4,1.311l-.047.047L76.4,765.721A.954.954,0,0,1,75.724,766Z" transform="translate(-74.764 -752.21)"/></g><g class="m" transform="translate(4.315 2.658)"><path class="n" d="M95.934,778.453a.961.961,0,0,1-.679-1.64l11.85-11.848a.961.961,0,1,1,1.4,1.311l-.047.047L96.615,778.172A.957.957,0,0,1,95.934,778.453Z" transform="translate(-94.974 -764.66)"/></g></g><g transform="translate(100.331 41.129)"><g transform="translate(0 0)"><g transform="translate(0 0)"><path class="bi" d="M-234.9-101.773a5.639,5.639,0,0,0,5.853,5.9,6.348,6.348,0,0,0,4-1.4.62.62,0,0,0,.1-.925l-.319-.431a.578.578,0,0,0-.925-.112,4.743,4.743,0,0,1-2.775.989,3.8,3.8,0,0,1-3.812-4.051,3.654,3.654,0,0,1,3.8-3.891,4.714,4.714,0,0,1,2.552.8c.383.239.686.207.909-.16l.287-.462a.62.62,0,0,0-.128-.925,6.318,6.318,0,0,0-3.7-1.132A5.648,5.648,0,0,0-234.9-101.773Zm11.595,5.04a.6.6,0,0,0,.67.67h.686a.592.592,0,0,0,.67-.67v-3.11a2.427,2.427,0,0,1,2.344-2.7c1.021,0,1.276.67,1.276,1.659v4.147a.592.592,0,0,0,.67.67h.686a.6.6,0,0,0,.67-.67v-4.561c0-2.153-1.037-3.094-2.839-3.094a3.2,3.2,0,0,0-2.823,1.643h-.032a4.617,4.617,0,0,0,.048-.686v-3.285a.6.6,0,0,0-.67-.67h-.686a.605.605,0,0,0-.67.67Zm9.059-3.4a4.168,4.168,0,0,0,4.37,4.258,5.141,5.141,0,0,0,2.759-.813.606.606,0,0,0,.223-.893l-.191-.319c-.207-.367-.494-.415-.893-.223a3.362,3.362,0,0,1-1.754.526,2.338,2.338,0,0,1-2.44-2.233h4.96a.7.7,0,0,0,.7-.686c0-2.233-1.292-3.875-3.6-3.875A4.012,4.012,0,0,0-214.245-100.13Zm2.121-.925a1.982,1.982,0,0,1,1.962-1.8,1.655,1.655,0,0,1,1.643,1.8Zm7.081,4.322a.6.6,0,0,0,.67.67h.686a.592.592,0,0,0,.67-.67V-99.62h1.053l1.9,3.094a.809.809,0,0,0,.781.463h.861c.542,0,.718-.335.447-.8l-2.392-3.668v-.032l2.025-2.839c.3-.431.128-.8-.415-.8h-.766a.833.833,0,0,0-.8.447l-1.691,2.424h-1v-5.391a.6.6,0,0,0-.67-.67h-.686a.605.605,0,0,0-.67.67Zm8.5,0a.587.587,0,0,0,.654.67h.7a.587.587,0,0,0,.654-.67v-6.794a.594.594,0,0,0-.654-.67h-.7a.594.594,0,0,0-.654.67Zm4.019,0a.587.587,0,0,0,.654.67h.7a.587.587,0,0,0,.654-.67v-3.142a2.433,2.433,0,0,1,2.344-2.663c1.021,0,1.276.67,1.276,1.659v4.147a.6.6,0,0,0,.67.67h.686a.592.592,0,0,0,.67-.67v-4.561c0-2.153-1.037-3.094-2.839-3.094a3.172,3.172,0,0,0-2.887,1.722h-.032a2.6,2.6,0,0,0,.032-.367v-.494a.594.594,0,0,0-.654-.67h-.622a.594.594,0,0,0-.654.67Z" transform="translate(234.898 110.549)"/><g transform="translate(36.601)"><g transform="translate(0)"><path class="bi" d="M88.735,201.841a.606.606,0,0,1,0,.841l-.469.469a.606.606,0,0,1-.841,0L85.37,201.08a.606.606,0,0,1,0-.841l.469-.469a.606.606,0,0,1,.841,0Z" transform="translate(-85.2 -198.096)"/><path class="bi" d="M168.129,125.37a.606.606,0,0,1,.841,0l.469.469a.606.606,0,0,1,0,.841l-3.559,3.543a.606.606,0,0,1-.841,0l-.469-.469a.606.606,0,0,1,0-.841Z" transform="translate(-162.798 -125.2)"/></g></g></g></g></g><g transform="translate(252.537 65.435)"><circle class="bj" cx="21.673" cy="21.673" r="21.673" transform="translate(15.468 36.461)"/><g class="av" transform="translate(11.54 57.908)"><path class="n" d="M1251.954,602.548a17.034,17.034,0,1,1,17.034-17.034h0A17.057,17.057,0,0,1,1251.954,602.548Zm0-31.7a14.671,14.671,0,1,0,14.671,14.678A14.671,14.671,0,0,0,1251.954,570.845Z" transform="translate(-1234.92 -568.48)"/></g><g class="av" transform="translate(6.54 52.912)"><path class="n" d="M1234.715,590.329a22.035,22.035,0,1,1,22.034-22.035A22.035,22.035,0,0,1,1234.715,590.329Zm0-42.151a20.11,20.11,0,1,0,20.11,20.112,20.11,20.11,0,0,0-20.11-20.112Z" transform="translate(-1212.68 -546.26)"/></g><path class="n" d="M1303.7,522.58a2.82,2.82,0,0,1-2.024-.866l-10.264-10.682a2.822,2.822,0,0,1,4.07-3.91l7.851,8.171,13.65-20.1a2.822,2.822,0,1,1,4.67,3.17h0l-15.609,22.979a2.821,2.821,0,0,1-2.1,1.228A2.41,2.41,0,0,1,1303.7,522.58Z" transform="translate(-1266.563 -452.804)"/><g transform="translate(11.17 102.556)"><rect class="ax" width="52.443" height="26.625" rx="13.313" transform="translate(0 0)"/><g transform="translate(6.851 6.847)"><path class="n" d="M1292.892,785.667a6.084,6.084,0,0,1,1.963.28,3.6,3.6,0,0,1,1.341.766,2.974,2.974,0,0,1,.772,1.157,4.1,4.1,0,0,1,.249,1.435,5.73,5.73,0,0,1-.311,1.945,4.044,4.044,0,0,1-.983,1.556,4.553,4.553,0,0,1-1.677,1.024,6.908,6.908,0,0,1-2.4.37h-1.369l-.538,4.328h-2.859l1.556-12.857Zm-.775,6.363a2.677,2.677,0,0,0,1.036-.181,1.677,1.677,0,0,0,.678-.513,2.082,2.082,0,0,0,.376-.79,4.209,4.209,0,0,0,.115-1.005,2.213,2.213,0,0,0-.1-.7,1.389,1.389,0,0,0-.843-.905,2.049,2.049,0,0,0-.762-.128h-1.36l-.52,4.219Z" transform="translate(-1287.08 -785.665)"/><path class="n" d="M1326.207,798.551h-2.225a.821.821,0,0,1-.865-.622l-.4-2.312h-4.356l-.952,2.312a1.245,1.245,0,0,1-.392.432,1.036,1.036,0,0,1-.622.2h-2.259l6.139-12.857h2.947Zm-3.821-4.894-.622-3.672c-.047-.227-.1-.5-.155-.815s-.109-.653-.162-1.017q-.215.554-.42,1.027c-.137.311-.258.588-.358.825l-1.512,3.653Z" transform="translate(-1305.72 -785.689)"/><path class="n" d="M1359.1,798.537h-2.893l1.556-12.857h2.894Z" transform="translate(-1334.7 -785.675)"/><path class="n" d="M1384.671,791.272a8.1,8.1,0,0,1-.239,1.988,7.48,7.48,0,0,1-.678,1.749,6.691,6.691,0,0,1-4.188,3.267,7.393,7.393,0,0,1-1.935.249H1373l1.59-12.857h4.633a5.74,5.74,0,0,1,2.272.429,5.051,5.051,0,0,1,1.718,1.176,5.265,5.265,0,0,1,1.086,1.774A6.359,6.359,0,0,1,1384.671,791.272Zm-2.947.072a5.1,5.1,0,0,0-.184-1.425,3.016,3.016,0,0,0-.538-1.092,2.431,2.431,0,0,0-.878-.7,2.7,2.7,0,0,0-1.188-.246h-1.73l-1.024,8.426h1.73a3.5,3.5,0,0,0,1.586-.349,3.4,3.4,0,0,0,1.2-.992,4.644,4.644,0,0,0,.759-1.556,7.49,7.49,0,0,0,.252-2.069Z" transform="translate(-1346.266 -785.667)"/></g></g><g transform="translate(10.276 10.427)"><g transform="translate(0 0)"><g transform="translate(0 0)"><path class="aw" d="M-234.9-101.424a5.978,5.978,0,0,0,6.205,6.256,6.73,6.73,0,0,0,4.244-1.488.657.657,0,0,0,.1-.981l-.338-.456a.613.613,0,0,0-.981-.118,5.028,5.028,0,0,1-2.942,1.048,4.026,4.026,0,0,1-4.041-4.295,3.874,3.874,0,0,1,4.024-4.125,5,5,0,0,1,2.705.845c.406.254.727.22.964-.169l.3-.49a.657.657,0,0,0-.135-.981,6.7,6.7,0,0,0-3.923-1.2A5.988,5.988,0,0,0-234.9-101.424Zm12.292,5.343a.635.635,0,0,0,.71.71h.727a.628.628,0,0,0,.71-.71v-3.3a2.573,2.573,0,0,1,2.485-2.857c1.082,0,1.353.71,1.353,1.758v4.4a.628.628,0,0,0,.71.71h.727a.635.635,0,0,0,.71-.71v-4.836c0-2.283-1.1-3.28-3.01-3.28a3.394,3.394,0,0,0-2.993,1.741h-.034a4.9,4.9,0,0,0,.051-.727v-3.483a.635.635,0,0,0-.71-.71h-.727a.642.642,0,0,0-.71.71Zm9.6-3.6a4.418,4.418,0,0,0,4.633,4.514,5.45,5.45,0,0,0,2.925-.862.642.642,0,0,0,.237-.947l-.2-.338c-.22-.389-.524-.44-.947-.237a3.564,3.564,0,0,1-1.86.558,2.478,2.478,0,0,1-2.587-2.367h5.258a.747.747,0,0,0,.744-.727c0-2.367-1.37-4.109-3.821-4.109A4.253,4.253,0,0,0-213-99.682Zm2.249-.981a2.1,2.1,0,0,1,2.08-1.911,1.754,1.754,0,0,1,1.742,1.911Zm7.507,4.582a.635.635,0,0,0,.71.71h.727a.628.628,0,0,0,.71-.71v-3.06h1.116l2.012,3.28a.857.857,0,0,0,.828.49h.913c.575,0,.761-.355.473-.845l-2.536-3.889v-.034l2.147-3.01c.321-.456.135-.845-.44-.845h-.812a.883.883,0,0,0-.845.473l-1.792,2.57H-201.1v-5.715a.635.635,0,0,0-.71-.71h-.727a.642.642,0,0,0-.71.71Zm9.012,0a.623.623,0,0,0,.693.71h.744a.623.623,0,0,0,.693-.71v-7.2a.63.63,0,0,0-.693-.71h-.744a.63.63,0,0,0-.693.71Zm4.261,0a.623.623,0,0,0,.693.71h.744a.623.623,0,0,0,.693-.71v-3.331a2.579,2.579,0,0,1,2.485-2.824c1.082,0,1.353.71,1.353,1.758v4.4a.635.635,0,0,0,.71.71h.727a.628.628,0,0,0,.71-.71v-4.836c0-2.283-1.1-3.28-3.01-3.28a3.363,3.363,0,0,0-3.06,1.826h-.034a2.757,2.757,0,0,0,.034-.389v-.524a.63.63,0,0,0-.693-.71h-.659a.63.63,0,0,0-.693.71Z" transform="translate(234.898 110.728)"/><g transform="translate(38.802)"><g transform="translate(0)"><path class="aw" d="M88.947,201.975a.642.642,0,0,1,0,.892l-.5.5a.642.642,0,0,1-.892,0l-2.178-2.2a.642.642,0,0,1,0-.892l.5-.5a.642.642,0,0,1,.892,0Z" transform="translate(-85.2 -198.005)"/><path class="aw" d="M168.353,125.38a.642.642,0,0,1,.892,0l.5.5a.642.642,0,0,1,0,.892l-3.773,3.756a.642.642,0,0,1-.892,0l-.5-.5a.642.642,0,0,1,0-.892Z" transform="translate(-162.702 -125.2)"/></g></g></g></g></g><g class="m"><path class="n" d="M1184.95,331.979a1.349,1.349,0,0,1-.956-2.307l18.347-18.347a1.351,1.351,0,0,1,1.911,1.911L1185.9,331.584A1.349,1.349,0,0,1,1184.95,331.979Z" transform="translate(-1183.595 -310.93)"/></g><g class="m" transform="translate(10.779)"><path class="n" d="M1232.89,331.979a1.349,1.349,0,0,1-.956-2.307l18.347-18.347a1.351,1.351,0,0,1,1.911,1.911l-18.347,18.347A1.35,1.35,0,0,1,1232.89,331.979Z" transform="translate(-1231.535 -310.93)"/></g></g><path class="ae" d="M1045.782,643.505a13.774,13.774,0,0,1-13.772-13.768c0-15.6,9.589-31.351,28.511-46.8a172.421,172.421,0,0,1,25.746-17.276c6.728-3.547,12.948-7.554,16.685-2.511,4.546,6.13,4.546,17.78-5.622,25.409-.244.184-9.252,7.367-19.7,15.963-11.488,9.448-13.986,16.492-16.828,22.77-3.139,6.927-7.409,16.206-15.015,16.208Z" transform="translate(-811.663 -441.032)"/><path class="bh" d="M1272.643,602.521c-2.729,0-6.062-.982-7.845-3.779a7.916,7.916,0,0,1,2.178-10.55.641.641,0,0,1,.794,1.006h0a6.651,6.651,0,0,0-1.892,8.857c1.33,2.088,4.189,3.333,7.281,3.171,2.223-.115,6.3-3.132,9-5.124.707-.521,1.315-.972,1.834-1.332a.641.641,0,1,1,.73,1.053h0c-.5.348-1.1.794-1.8,1.311-2.989,2.212-7.085,5.242-9.694,5.381C1273.036,602.515,1272.839,602.521,1272.643,602.521Z" transform="translate(-993.836 -462.492)"/><path class="bh" d="M1190.27,691.33a.64.64,0,0,1-.427-.171,14.253,14.253,0,0,1-4.381-8.278.641.641,0,0,1,1.262-.214v.032a12.967,12.967,0,0,0,3.974,7.52.641.641,0,0,1-.427,1.11Z" transform="translate(-932.345 -536.506)"/><path class="bh" d="M1173.233,704.74a.628.628,0,0,1-.337-.1,8.084,8.084,0,0,1-3.7-7.324.642.642,0,1,1,1.281.1,6.771,6.771,0,0,0,3.1,6.137.641.641,0,0,1-.339,1.185Z" transform="translate(-919.544 -547.96)"/><path class="bh" d="M1054.57,672.9a.641.641,0,0,1-.384-1.153,42.664,42.664,0,0,1,16.377-7.58c2.718-.72,4.866-1.281,6.489-2.586a.641.641,0,0,1,.833.974l-.032.026c-1.834,1.469-4.211,2.1-6.963,2.825a41.552,41.552,0,0,0-15.935,7.366A.64.64,0,0,1,1054.57,672.9Z" transform="translate(-828.902 -520.201)"/></g></svg>