<svg xmlns="http://www.w3.org/2000/svg" xmlns:xlink="http://www.w3.org/1999/xlink" width="346.397" height="253" viewBox="0 0 346.397 253"><defs><style>.a{fill:none;}.b{fill:#a8e4ef;}.c{fill:#99dbe8;}.d{fill:#fff;}.e{clip-path:url(#a);}.f{fill:#cbe9ff;}.g{fill:url(#b);}.h{fill:url(#c);}.i{fill:url(#d);}.j{fill:url(#e);}.k{fill:url(#f);}.l{fill:#161643;}.m{fill:#cc7a5e;}.n{fill:#2960f5;}.o{clip-path:url(#g);}.p{fill:#f77731;}.q{fill:#c26419;}.r{fill:#e09374;}.s{fill:#cf7653;}.t{fill:#743529;}.u{fill:#ea9d7d;}.v{fill:#b76349;}.w{fill:#db8a6b;}.x{fill:#b4603f;}.y{fill:#4f2b23;}.z{fill:#7a3e2b;}.aa{fill:#e89976;}.ab{fill:#94cefc;}.ac{opacity:0.266;fill:url(#h);}.ad{fill:#e79a7a;}.ae{fill:#c12f4f;}.af{fill:#ad203a;}.ag{fill:url(#i);}.ah{fill:#a9d9ff;}.ai,.aw{fill:#23235d;}.aj{fill:url(#j);}.ak{fill:url(#k);}.al{fill:url(#l);}.am{fill:url(#m);}.an{fill:url(#n);}.ao{fill:url(#o);}.ap{fill:#00c0b7;}.aq{opacity:0.6;}.ar{fill:#b0deff;}.as{opacity:0.34;isolation:isolate;fill:url(#p);}.at{fill:url(#q);}.au{fill:#008dff;}.av{fill:url(#r);}.aw{font-size:11px;font-family:ProximaNova-Bold, Proxima Nova;font-weight:700;}.ax{fill:#a1ceff;}.ay{fill:url(#s);}.az{fill:url(#u);}.ba{fill:url(#v);}.bb{fill:url(#w);}.bc{fill:url(#x);}.bd{fill:#4da6ff;}.be{fill:url(#y);}.bf{fill:#80bfff;}.bg{fill:#ff6870;}.bh{filter:url(#at);}.bi{filter:url(#ar);}.bj{filter:url(#ap);}.bk{filter:url(#an);}.bl{filter:url(#al);}.bm{filter:url(#aj);}.bn{filter:url(#ah);}.bo{filter:url(#af);}.bp{filter:url(#ad);}.bq{filter:url(#ab);}.br{filter:url(#z);}</style><clipPath id="a"><rect class="a" width="305.532" height="215.641"/></clipPath><linearGradient id="b" x1="0.5" y1="-2.061" x2="0.5" y2="-1.061" gradientUnits="objectBoundingBox"><stop offset="0" stop-color="#2960f5"/><stop offset="0.08" stop-color="#2076e7"/><stop offset="0.22" stop-color="#1491d6"/><stop offset="0.36" stop-color="#0ba6c8"/><stop offset="0.52" stop-color="#05b5be"/><stop offset="0.71" stop-color="#01bdb9"/><stop offset="1" stop-color="#00c0b7"/></linearGradient><linearGradient id="c" x1="0.5" y1="-3.648" x2="0.5" y2="-2.648" xlink:href="#b"/><linearGradient id="d" x1="0.5" y1="-10.037" x2="0.5" y2="-9.037" xlink:href="#b"/><linearGradient id="e" x1="0.5" y1="-8.807" x2="0.5" y2="-7.807" xlink:href="#b"/><linearGradient id="f" x1="0.5" y1="-3.152" x2="0.5" y2="-2.152" xlink:href="#b"/><clipPath id="g"><path class="a" d="M835.337,566.167l.625.055,8.034.729c.573.052.966.857.873,1.8l-1.686,18.9c-.088.936-.632,1.657-1.209,1.606l-8.654-.781c-.573-.051-.97-.855-.877-1.793l1.686-18.9a2.22,2.22,0,0,1,.548-1.318A.821.821,0,0,1,835.337,566.167Z" transform="translate(-832.428 -566.167)"/></clipPath><linearGradient id="h" x1="5.177" y1="-0.484" x2="5.111" y2="0.379" gradientUnits="objectBoundingBox"><stop offset="0" stop-color="#5b1219" stop-opacity="0"/><stop offset="0.16" stop-color="#5b1219" stop-opacity="0.078"/><stop offset="1" stop-color="#5b1219" stop-opacity="0.502"/></linearGradient><linearGradient id="i" x1="0.267" y1="21.561" x2="0.293" y2="20.575" gradientUnits="objectBoundingBox"><stop offset="0" stop-color="#7f0026" stop-opacity="0"/><stop offset="1" stop-color="#7f0026"/></linearGradient><linearGradient id="j" x1="0.585" y1="15.45" x2="-0.01" y2="15.095" gradientUnits="objectBoundingBox"><stop offset="0.02" stop-color="#4f211e"/><stop offset="0.99" stop-color="#743529"/></linearGradient><linearGradient id="k" y1="0.58" x2="1" y2="0.58" gradientUnits="objectBoundingBox"><stop offset="0.19" stop-color="#743529"/><stop offset="0.47" stop-color="#5e2b21"/></linearGradient><linearGradient id="l" x1="0.149" y1="-2.307" x2="1.079" y2="-1.778" gradientUnits="objectBoundingBox"><stop offset="0" stop-color="#5b1219" stop-opacity="0.502"/><stop offset="0.76" stop-color="#5b1219" stop-opacity="0"/></linearGradient><linearGradient id="m" x1="0.882" y1="0.204" x2="0.462" y2="0.554" gradientUnits="objectBoundingBox"><stop offset="0" stop-color="#a9d9ff"/><stop offset="1" stop-color="#bfe7ff"/></linearGradient><linearGradient id="n" x1="0.92" y1="0.753" x2="-0.803" y2="-0.325" gradientUnits="objectBoundingBox"><stop offset="0" stop-color="#bfe7ff"/><stop offset="1" stop-color="#dbf2ff"/></linearGradient><linearGradient id="o" x1="0" y1="1.357" x2="1" y2="1.357" xlink:href="#k"/><linearGradient id="p" x1="-0.267" y1="-2.069" x2="0.733" y2="-2.069" gradientUnits="objectBoundingBox"><stop offset="0" stop-color="#fff"/><stop offset="1" stop-color="#cbe9ff"/></linearGradient><linearGradient id="q" x1="0.146" y1="-6.999" x2="0.905" y2="-7.972" gradientUnits="objectBoundingBox"><stop offset="0" stop-color="#1a8cff"/><stop offset="0.72" stop-color="#2960f5"/></linearGradient><linearGradient id="r" x1="-0.118" y1="-13.103" x2="0.867" y2="-13.92" gradientUnits="objectBoundingBox"><stop offset="0.28" stop-color="#2960f5"/><stop offset="1" stop-color="#1a8cff"/></linearGradient><linearGradient id="s" x1="0" y1="15.827" x2="1" y2="15.827" xlink:href="#p"/><linearGradient id="u" x1="0" y1="18.379" x2="1" y2="18.379" xlink:href="#p"/><linearGradient id="v" x1="0" y1="18.383" x2="1" y2="18.383" xlink:href="#p"/><linearGradient id="w" x1="0.5" y1="10.214" x2="0.5" y2="11.214" xlink:href="#p"/><linearGradient id="x" x1="0.5" y1="10.214" x2="0.5" y2="11.214" xlink:href="#p"/><linearGradient id="y" x1="0.499" y1="16.049" x2="0.499" y2="17.05" gradientUnits="objectBoundingBox"><stop offset="0.01" stop-color="#ff7a00"/><stop offset="0.06" stop-color="#ff8100"/><stop offset="0.25" stop-color="#ff9800"/><stop offset="0.46" stop-color="#ffa900"/><stop offset="0.69" stop-color="#ffb300"/><stop offset="0.98" stop-color="#ffb600"/></linearGradient><filter id="z" x="34.749" y="96.953" width="51.2" height="66.359" filterUnits="userSpaceOnUse"><feOffset dy="3" input="SourceAlpha"/><feGaussianBlur stdDeviation="2" result="aa"/><feFlood flood-opacity="0.161"/><feComposite operator="in" in2="aa"/><feComposite in="SourceGraphic"/></filter><filter id="ab" x="41.99" y="166.686" width="51.658" height="33.798" filterUnits="userSpaceOnUse"><feOffset dy="3" input="SourceAlpha"/><feGaussianBlur stdDeviation="2" result="ac"/><feFlood flood-opacity="0.161"/><feComposite operator="in" in2="ac"/><feComposite in="SourceGraphic"/></filter><filter id="ad" x="0" y="161.195" width="42.717" height="35.856" filterUnits="userSpaceOnUse"><feOffset dy="3" input="SourceAlpha"/><feGaussianBlur stdDeviation="2" result="ae"/><feFlood flood-opacity="0.161"/><feComposite operator="in" in2="ae"/><feComposite in="SourceGraphic"/></filter><filter id="af" x="3.419" y="115.356" width="42.019" height="55.891" filterUnits="userSpaceOnUse"><feOffset dy="3" input="SourceAlpha"/><feGaussianBlur stdDeviation="2" result="ag"/><feFlood flood-opacity="0.161"/><feComposite operator="in" in2="ag"/><feComposite in="SourceGraphic"/></filter><filter id="ah" x="12.375" y="196.929" width="62.368" height="21.621" filterUnits="userSpaceOnUse"><feOffset dy="3" input="SourceAlpha"/><feGaussianBlur stdDeviation="2" result="ai"/><feFlood flood-opacity="0.161"/><feComposite operator="in" in2="ai"/><feComposite in="SourceGraphic"/></filter><filter id="aj" x="12.374" y="205.996" width="62.368" height="47.005" filterUnits="userSpaceOnUse"><feOffset dy="3" input="SourceAlpha"/><feGaussianBlur stdDeviation="2" result="ak"/><feFlood flood-opacity="0.161"/><feComposite operator="in" in2="ak"/><feComposite in="SourceGraphic"/></filter><filter id="al" x="34.012" y="120.691" width="26.871" height="88.33" filterUnits="userSpaceOnUse"><feOffset dy="3" input="SourceAlpha"/><feGaussianBlur stdDeviation="2" result="am"/><feFlood flood-opacity="0.161"/><feComposite operator="in" in2="am"/><feComposite in="SourceGraphic"/></filter><filter id="an" x="36.045" y="176.637" width="31.557" height="33.186" filterUnits="userSpaceOnUse"><feOffset dy="3" input="SourceAlpha"/><feGaussianBlur stdDeviation="2" result="ao"/><feFlood flood-opacity="0.161"/><feComposite operator="in" in2="ao"/><feComposite in="SourceGraphic"/></filter><filter id="ap" x="19.165" y="169.805" width="29.608" height="40.953" filterUnits="userSpaceOnUse"><feOffset dy="3" input="SourceAlpha"/><feGaussianBlur stdDeviation="2" result="aq"/><feFlood flood-opacity="0.161"/><feComposite operator="in" in2="aq"/><feComposite in="SourceGraphic"/></filter><filter id="ar" x="19.831" y="140.295" width="29.241" height="62.406" filterUnits="userSpaceOnUse"><feOffset dy="3" input="SourceAlpha"/><feGaussianBlur stdDeviation="2" result="as"/><feFlood flood-opacity="0.161"/><feComposite operator="in" in2="as"/><feComposite in="SourceGraphic"/></filter><filter id="at" x="12.375" y="201.74" width="62.368" height="14.215" filterUnits="userSpaceOnUse"><feOffset dy="3" input="SourceAlpha"/><feGaussianBlur stdDeviation="2" result="au"/><feFlood flood-opacity="0.161"/><feComposite operator="in" in2="au"/><feComposite in="SourceGraphic"/></filter></defs><g transform="translate(-676.768 -2481.547)"><g transform="translate(717.633 2476.271)"><path class="b" d="M621,1089.648l-231.072-.076v-2.6l126.559-15.695H621Z" transform="translate(-315.47 -857.13)"/><ellipse class="c" cx="9.307" cy="1.871" rx="9.307" ry="1.871" transform="translate(286.236 221.742)"/><path class="c" d="M698.6,1095.971l115.589.64,52.722-7.69a1.164,1.164,0,0,0-.176-2.316l-11.549.076-97.276-.191Z" transform="translate(-565.197 -869.436)"/><path class="d" d="M1256.947,1112.41h-24l28.116-4.9h24Z" transform="translate(-997.508 -886.442)"/><g class="e" transform="translate(0 23.089)"><rect class="f" width="61.416" height="20.041" transform="translate(130.634 210.13)"/><path class="d" d="M743.812,1189.467H681.34v-21.1h62.472Zm-61.416-1.054h60.367v-18.987H682.4Z" transform="translate(-551.233 -958.769)"/><rect class="f" width="61.416" height="20.041" transform="translate(192.329 210.13)"/><path class="d" d="M1066.892,1189.467H1004.42v-21.1h62.472Zm-61.418-1.054h60.354v-18.987h-60.362Z" transform="translate(-812.618 -958.769)"/><rect class="f" width="61.416" height="20.041" transform="translate(254.653 210.13)"/><path class="d" d="M1393.281,1189.467H1330.8v-21.1h62.481Zm-61.416-1.054h60.362v-18.987h-60.362Z" transform="translate(-1076.673 -958.769)"/><path class="g" d="M235.144,755.637c-12.639,2.055-25.153,7.965-32.619,18.735-7.125,10.277-6.7,22.151-4.638,33.99a4.324,4.324,0,0,0,1.218,2.75c1.215.972,3,.412,4.411-.243,10.6-4.9,20.482-11.933,25.6-22.749a1.422,1.422,0,0,0-.5-1.91l-8-3.876a41.979,41.979,0,0,1,8.354.712,1.425,1.425,0,0,0,1.719-1.719,31.292,31.292,0,0,1,6.027-23.662C237.518,756.59,236.19,755.467,235.144,755.637Z" transform="translate(-159.034 -624.837)"/><path class="h" d="M256.427,924.5c-1.91,19.516-29.833,22.692-28.691,45.1l.764.13c1.465.248,4.234-.836,5.729-1.362a64.324,64.324,0,0,0,8.4-4.035c5.99-3.246,4.058-4.667,3.594-11.555l3.728,2.469a1.4,1.4,0,0,0,1.91-.5,64.372,64.372,0,0,0,7.365-30.248A1.4,1.4,0,0,0,256.427,924.5Z" transform="translate(-184.22 -760.383)"/><path class="i" d="M275.517,1135.639l-11.631-3.578a1.409,1.409,0,0,0-1.57.638l-3.34,5.66v-4.247a1.4,1.4,0,0,0-1.392-1.39c-9.676,1.283-18.141,9.571-21.96,18.615-.474,1.117,1.426,2.234,2.313,2.232,18.084,4.436,28.913-8.079,37.59-15.246C276.531,1137.478,276.934,1136.07,275.517,1135.639Z" transform="translate(-190.569 -929.355)"/><path class="j" d="M32.751,1107.611c-3.33-2.28-7.591-4.533-11.614-5.093a20.034,20.034,0,0,0-6.37.136c-.928.17-5.156,2.221-5.7,1.994,4.423,1.885,8.427,5.412,9.85,10.1,1.528,5.02,4.172,9.321,9.244,11.284,4.234,1.64,9.536,1.2,11.763-3.286C42.824,1116.918,37.194,1110.666,32.751,1107.611Z" transform="translate(-7.338 -905.337)"/><path class="k" d="M29.581,855.056c-.955-.42-2.563.313-2.041,1.572a55.929,55.929,0,0,1,3.7,13.464c.126.882.036,2.817.487,3.552.546.886,2,1.023,3.034,1.279a71.577,71.577,0,0,0,8.247,1.36l-8.078,2.395a6.209,6.209,0,0,0-2.586,1.235c-3.237,3.08,2.074,11.555,4.1,14.049,3.273,4.035,8.339,7.27,13.715,5.889,5.458-1.4,8.037-7.243,8.211-12.452C58.916,870.768,42.8,860.917,29.581,855.056Z" transform="translate(-22.199 -705.189)"/><path class="l" d="M195.142,962.163a.98.98,0,0,1-.955-.823,122.016,122.016,0,0,1,.283-39.454,154.139,154.139,0,0,1,11.708-37.871.98.98,0,0,1,1.812.743.59.59,0,0,1-.027.061c-11.782,26.161-15.767,51.8-11.839,76.209a.978.978,0,0,1-.81,1.121h0A.854.854,0,0,1,195.142,962.163Z" transform="translate(-155.918 -728.241)"/><path class="l" d="M205.169,1108.695a.98.98,0,0,1-.978-.955,67.591,67.591,0,0,1,16.867-45.671.979.979,0,1,1,1.463,1.3h0a65.623,65.623,0,0,0-16.373,44.335.98.98,0,0,1-.955,1Z" transform="translate(-165.19 -872.501)"/><path class="l" d="M204.514,1207.623a.98.98,0,0,1-.884-1.394,46.668,46.668,0,0,1,18.586-20.308.98.98,0,0,1,.985,1.692,44.683,44.683,0,0,0-17.8,19.447.982.982,0,0,1-.888.563Z" transform="translate(-164.671 -972.875)"/><path class="l" d="M129.588,1178.7a.978.978,0,0,1-.932-.68,74.4,74.4,0,0,0-15.977-27.515.979.979,0,1,1,1.442-1.323h0a76.36,76.36,0,0,1,16.4,28.243.976.976,0,0,1-.932,1.276Z" transform="translate(-90.953 -942.985)"/><path class="l" d="M132.991,1041.772a.979.979,0,0,1-.955-.779c-3.262-15.6-7.993-35.354-15.722-49.733a.98.98,0,0,1,1.719-.928c7.846,14.6,12.626,34.531,15.912,50.262a.976.976,0,0,1-.764,1.146h0A1.054,1.054,0,0,1,132.991,1041.772Z" transform="translate(-94.035 -814.366)"/><path class="m" d="M829.242,624.314l1.413-2.925,2.137-6.074c.558-1.528.3-17.274.3-17.274l-7.795,1.4L821,609.194l.59,7.963Z" transform="translate(-664.224 -497.348)"/><path class="n" d="M842.926,563.115l-1.841,20.48c-.107,1.106-.745,1.953-1.423,1.892l-10.21-.926c-.678-.061-1.146-1.008-1.033-2.114l1.841-20.478c.107-1.106.743-1.953,1.423-1.892l10.21.938C842.571,561.068,843.029,562.015,842.926,563.115Z" transform="translate(-670.212 -466.632)"/><path class="f" d="M835.367,565.449l.651.057,8.314.764c.6.053,1,.892.909,1.866l-1.629,19.287c-.092.974-.659,1.719-1.256,1.673l-9-.817c-.6-.053-1.01-.89-.913-1.866l1.671-19.275a2.292,2.292,0,0,1,.573-1.371A.861.861,0,0,1,835.367,565.449Z" transform="translate(-673.467 -470.981)"/><g class="o" transform="translate(158.959 94.606)"><rect class="d" width="12.282" height="17.012" rx="6.141" transform="translate(1.838 18.493) rotate(-89.78)"/><path class="p" d="M854.159,637.53a2.261,2.261,0,0,1-.454,0H850.99l-3.317-.011h-.115v-.924a3.084,3.084,0,0,1,.136-.941,1.719,1.719,0,0,1,.519-.84,3.569,3.569,0,0,1,.955-.636,4.9,4.9,0,0,1,1.818-.411,4.141,4.141,0,0,1,1.91.319,2.18,2.18,0,0,1,.909.7,4.264,4.264,0,0,1,.573.926,3.393,3.393,0,0,1,.143,1.035,1.435,1.435,0,0,1-.059.5A.382.382,0,0,1,854.159,637.53Z" transform="translate(-844.67 -620.849)"/><path class="q" d="M854.517,644.9l-6.958-.027v-.3a3.085,3.085,0,0,1,.136-.941l6.811.027v.011Z" transform="translate(-844.67 -628.846)"/><path class="l" d="M874.025,643.624a.1.1,0,0,1-.1-.092l-.109-1.99a.1.1,0,1,1,.191-.011l.109,1.99a.1.1,0,0,1-.088.1h-.009Z" transform="translate(-865.909 -627.042)"/><path class="l" d="M855.4,644.188a.1.1,0,0,1-.1-.094l-.109-1.99a.1.1,0,0,1,.094-.1h0a.1.1,0,0,1,.1.094l.109,1.99a.1.1,0,0,1-.094.105h0Z" transform="translate(-850.843 -627.519)"/><path class="l" d="M892.581,614.187h0l-5.523-.021a.458.458,0,1,1,0-.917h0l5.519.021a.458.458,0,1,1,0,.917Z" transform="translate(-876.255 -604.259)"/><path class="l" d="M892,626.426h0l-4.827-.017a.46.46,0,0,1,0-.919h0l4.831.019a.458.458,0,1,1,0,.917Z" transform="translate(-876.373 -614.162)"/><path class="l" d="M892.234,640.66h0l-3.456-.013a.458.458,0,0,1,0-.917h0l3.458.013a.458.458,0,0,1,0,.917Z" transform="translate(-877.647 -625.682)"/><path class="r" d="M861.534,623.736v.015c.025.076.027.191.046.263l.309,1.409a6.2,6.2,0,0,0,.147.617.682.682,0,0,1-.076.573.984.984,0,0,1-.592.4,2.016,2.016,0,0,1-.726.032,1.194,1.194,0,0,1-.382-.086.41.41,0,0,1-.258-.525l.011-.031a1.637,1.637,0,0,0,.151-.712l-.073-.72c-.013-.145-.031-.29-.044-.435a.847.847,0,0,1,.065-.6,1.013,1.013,0,0,1,.443-.351.992.992,0,0,1,.552-.117A.554.554,0,0,1,861.534,623.736Z" transform="translate(-854.718 -612.53)"/><path class="s" d="M868.654,628.282h0a.044.044,0,0,0,.029-.04l-.3-1.251c-.055-.26-.216-1.132-.216-1.132a.042.042,0,0,0-.04-.029.047.047,0,0,0-.029.04l.216,1.132c.05.233.3,1.241.3,1.241a.032.032,0,0,0,.025.038Z" transform="translate(-861.288 -614.437)"/><path class="t" d="M869.41,609.128a.764.764,0,0,1,.7-.365,1.077,1.077,0,0,1,1,.491c.084.136.115.3.206.428a6.912,6.912,0,0,1,.456.537.874.874,0,0,1,.057.852c-.141.252-.441.382-.56.657a1.473,1.473,0,0,0,.021.842,2.507,2.507,0,0,1-.894,2.307c-.153.122-.382.223-.529.094a.457.457,0,0,1-.115-.241,3.342,3.342,0,0,1-.105-1.887,2.591,2.591,0,0,1,.411-.707,4.19,4.19,0,0,0,.33-.558,1.38,1.38,0,0,0,0-1.31c-.157-.2-.252-.168-.252-.168Z" transform="translate(-862.348 -600.626)"/><path class="u" d="M855.686,614.089a9.733,9.733,0,0,0,0,1.566.974.974,0,0,0,.573.884,1.715,1.715,0,0,0,1.075-.191c.288-.126.458-.269.512-.445s.153-.416.153-.416l.013-.546-.573-1.43Z" transform="translate(-851.219 -604.469)"/><path class="t" d="M857.814,610.644a2.208,2.208,0,0,1,.573,1.209,1.635,1.635,0,0,1-.082.855.71.71,0,0,1-.535.481.443.443,0,0,1-.46-.305c-.052-.191-.109-.485-.275-.6-.227.088-.435.025-.462-.361-.034-.435,0-.739-.071-.794s-.239,0-.8.13-.926.13-.98.025c-.048-.036.178-.382.479-.728a1.728,1.728,0,0,1,1.266-.552A1.616,1.616,0,0,1,857.814,610.644Z" transform="translate(-850.46 -601.63)"/><ellipse class="u" cx="0.483" cy="0.451" rx="0.483" ry="0.451" transform="translate(6.471 11.395) rotate(-86.5)"/><path class="v" d="M866.884,621.512a.4.4,0,0,0,.281.153.453.453,0,0,0,.053-.9.42.42,0,0,0-.382.223.044.044,0,0,1-.042-.011.051.051,0,0,1-.013-.052.5.5,0,0,1,.439-.237.506.506,0,0,1,.46.548.514.514,0,0,1-.523.487.456.456,0,0,1-.29-.12Z" transform="translate(-860.219 -610.278)"/><path class="v" d="M858.043,626.079a1.305,1.305,0,0,0,.344-.038,2.23,2.23,0,0,0,.875-.414.5.5,0,0,0,.191-.363c0-.017,0-.042-.013-.044s-.027.015-.036.033a.538.538,0,0,1-.191.321,2.189,2.189,0,0,1-.84.4,1.3,1.3,0,0,1-.514.029.513.513,0,0,1-.265-.1c-.032-.027-.04-.027-.025,0a.5.5,0,0,0,.279.164C857.934,626.071,857.984,626.075,858.043,626.079Z" transform="translate(-852.761 -613.943)"/><ellipse class="w" cx="0.212" cy="0.204" rx="0.212" ry="0.204" transform="translate(6.736 11.141) rotate(-86.5)"/><path class="l" d="M869.238,611.441l.212-.122s.12-.172-.273-.7c-.361-.481-.607-.5-.661-.449l-.206.166A2.98,2.98,0,0,1,869.238,611.441Z" transform="translate(-861.458 -601.755)"/><path class="s" d="M859.837,625.158a.059.059,0,0,1-.057-.055.056.056,0,0,1,.014-.04.055.055,0,0,1,.038-.019h0a.382.382,0,0,0,.4-.254v-.019a.063.063,0,0,1,.078-.029.059.059,0,0,1,.027.078v.015a.493.493,0,0,1-.5.323Z" transform="translate(-854.556 -613.553)"/><path class="x" d="M858.071,622.707h0a.191.191,0,0,1-.191-.168.328.328,0,0,1,.1-.239.059.059,0,0,1,.08.015.057.057,0,0,1-.01.074.242.242,0,0,0-.057.136c0,.042.027.059.082.067a.059.059,0,0,1,.048.069.057.057,0,0,1-.048.048Z" transform="translate(-853.02 -611.573)"/><circle class="y" cx="0.118" cy="0.118" r="0.118" transform="translate(5.397 10.457)"/><path class="y" d="M860.568,620.846c.015,0,.075.013.084,0s-.038-.063-.063-.082a.381.381,0,0,0-.176-.044.041.041,0,0,0-.03.011.042.042,0,0,0-.014.029h0a.04.04,0,0,0,.009.03.04.04,0,0,0,.027.014h0a.416.416,0,0,1,.143.034h.017Z" transform="translate(-855.033 -610.302)"/><path class="y" d="M860.541,620.863a.048.048,0,0,1-.036-.017.237.237,0,0,0-.17-.052.046.046,0,0,1-.019-.09h.019a.3.3,0,0,1,.239.086.046.046,0,0,1,0,.063A.065.065,0,0,1,860.541,620.863Z" transform="translate(-854.961 -610.289)"/><circle class="y" cx="0.118" cy="0.118" r="0.118" transform="translate(4.518 10.337)"/><path class="y" d="M856.018,620.232a.04.04,0,0,1-.034-.017.24.24,0,0,0-.17-.052.046.046,0,0,1-.044-.046.044.044,0,0,1,.044-.044h0a.294.294,0,0,1,.239.086.046.046,0,0,1,0,.063h0A.048.048,0,0,1,856.018,620.232Z" transform="translate(-851.313 -609.778)"/><path class="z" d="M860.92,618.776a.055.055,0,0,1-.04-.017l-.029-.032c-.04-.052-.1-.124-.317-.138a.055.055,0,0,1-.055-.059h0a.054.054,0,0,1,.057-.053h0a.48.48,0,0,1,.4.18l.019.023a.057.057,0,0,1,0,.08h0A.059.059,0,0,1,860.92,618.776Z" transform="translate(-855.123 -608.487)"/><path class="z" d="M856.149,618.126a.057.057,0,0,1-.032-.1h0a.294.294,0,0,1,.239-.042.059.059,0,0,1,.048.065.054.054,0,0,1-.02.037.053.053,0,0,1-.041.011h0a.191.191,0,0,0-.16.027A.055.055,0,0,1,856.149,618.126Z" transform="translate(-851.573 -608.079)"/><circle class="d" cx="0.174" cy="0.174" r="0.174" transform="translate(6.936 12.722)"/><circle class="d" cx="0.174" cy="0.174" r="0.174" transform="translate(6.523 12.894)"/><circle class="d" cx="0.174" cy="0.174" r="0.174" transform="translate(6.122 12.986)"/><circle class="d" cx="0.174" cy="0.174" r="0.174" transform="translate(5.685 13.064)"/><circle class="d" cx="0.174" cy="0.174" r="0.174" transform="translate(5.284 13.062)"/></g><path class="aa" d="M809.17,625.731c-3.225-1.056-3.951-.338-3.951-.338l.01-1.73c-.019-1.818-.573-5.859-.573-5.859a10.682,10.682,0,0,0,2.1-5.584,3.017,3.017,0,0,0-1.169-2.4s-3.882,4.535-4.442,6.349c-.586,1.719-1.35,4.088-.64,6.256a53.787,53.787,0,0,1,1.528,6.011c.476,2.345.09,4.847,1.4,6.97a4.84,4.84,0,0,0,4.277,2.421,5.188,5.188,0,0,0,3.67-2.292c.955-1.337,2.273-3.6,1.68-5.257C812.4,628.41,811.151,626.38,809.17,625.731Z" transform="translate(-647.412 -506.879)"/><path class="aa" d="M760.08,712.06a5.7,5.7,0,0,0-5.767-2.081,6.943,6.943,0,0,0-4.134,2.935h-.015c-.05.078-.111.17-.168.256-.56.764-1.081,1.572-1.656,2.351-3.609,4.91-7.447,9.655-11.31,14.373l10.373,8.891c-.04-.034.985-1.637,1.043-1.732l4.442-7.38,4.894-8.146a35.959,35.959,0,0,0,2.043-3.985C760.617,715.712,761.343,713.833,760.08,712.06Z" transform="translate(-596.288 -587.806)"/><path class="ab" d="M594.68,808.4c6.949-6,14.738-11.076,21.338-17.511a1.182,1.182,0,0,1,1.663-.048l15.277,14.081a1.254,1.254,0,0,1,.252,1.507c-1.946,3.414-11.326,17.52-21.769,26.48-5.765,4.965-13.367,9.384-20.492,4.089a14.974,14.974,0,0,1-5.685-12.619C585.58,817.758,589.9,812.522,594.68,808.4Z" transform="translate(-473.488 -653.073)"/><path class="q" d="M728.809,789.751l16.306,15.236a1.025,1.025,0,0,1,0,1.453l-.017.017-4.35,4.831L722.46,794.4l4.892-4.755a1.02,1.02,0,0,1,1.459.109Z" transform="translate(-584.501 -652.152)"/><path class="ab" d="M452.321,713.643c4.13,3.37,6.64,8.234,10.348,12.061a124.968,124.968,0,0,1,12.479,15.137,28.108,28.108,0,0,1,4.858,18.477,18.28,18.28,0,0,1-2.635,7.554,15.935,15.935,0,0,1-11.457,6.6c-6.042.668-11.429-1.558-15.8-5.523-2.435-2.206-5.156-4.031-7.524-6.357a86.777,86.777,0,0,1-6.475-7.186c-4.428-5.458-9.151-11.366-11.927-17.864-2.166-5.07-3.055-10.875-1.384-16.13a17.95,17.95,0,0,1,8.391-10.212,16.075,16.075,0,0,1,10.917-1.866A29.824,29.824,0,0,1,452.321,713.643Z" transform="translate(-341.359 -586.341)"/><path class="ab" d="M463.525,735.406a4.873,4.873,0,0,0-3.323-.825,3.79,3.79,0,0,0-2.291,2.765c-.919,3.54.191,6.951,1.5,10.363a52.632,52.632,0,0,0,5.32,9.577q4.319,6.643,8.635,13.285a125.019,125.019,0,0,1,7.638,12.424c2.631,5.3,6.737,10,12.909,10.8a11.853,11.853,0,0,0,10.484-3.615,9.222,9.222,0,0,0,1.337-11.171,29.924,29.924,0,0,0-3.573-4.732l-13.491-15.6a160.531,160.531,0,0,0-13.829-14.255C474.826,744.419,467.457,737.78,463.525,735.406Z" transform="translate(-370.196 -607.753)"/><path class="u" d="M423.586,581.033c-.025.055-.046.115-.067.172a26.525,26.525,0,0,0-.5,2.82q-1.692,7.558-3.382,15.122c-.5,2.232-.915,4.478-1.625,6.632a7.359,7.359,0,0,0,.815,6.137,10.605,10.605,0,0,0,6.326,4.35,22.02,22.02,0,0,0,7.808.382,13.119,13.119,0,0,0,4.077-.909c2.4-1.071,3.758-3.388,2.673-5.9a17.386,17.386,0,0,1-1.6-7.652l.823-7.74c.162-1.556.346-3.111.491-4.669.216-2.33.682-4.26-.674-6.416a12.548,12.548,0,0,0-10.516-5.1C426.605,578.44,424.3,579.393,423.586,581.033Z" transform="translate(-337.917 -481.304)"/><path class="ac" d="M443.9,609.992c2.6,0,5.519-.382,8.053.191,1.232.279,1.764,1,3.055.382,1.432-.7,1.78-2.622,2.036-4.01.321-1.738.592-3.449.913-5.186a10.319,10.319,0,0,0,.191-3.219c-.458-2.954-4.283-3.718-6.506-4.952a21.277,21.277,0,0,0-4.47-2.227,4.568,4.568,0,0,0-4.636,1.018,6.461,6.461,0,0,0-1.186,3.5,41.647,41.647,0,0,0-.516,8.1C440.964,605.526,441.239,609.992,443.9,609.992Z" transform="translate(-356.612 -491.455)"/><path class="s" d="M415.249,629.973h-.092a.5.5,0,0,1-.307-.433l3.263-13.424c.607-2.79,2.353-12.164,2.353-12.164a.382.382,0,0,1,.743.126l-2.355,12.164c-.538,2.511-3.269,13.333-3.269,13.333a.336.336,0,0,1-.267.393Z" transform="translate(-335.631 -501.922)"/><path class="ad" d="M501.857,1275.822c3.006-25.038,2.752-49.267,8.053-74.019,2.057-9.6,2.431-20.74-4.138-28.04-3.8-4.22-9.468-6.464-15.13-6.89-5.566-.418-11.41.9-15.735,4.428-7.482,6.111-8.761,17.1-7.508,26.682,1.862,14.211,4.667,27.836,5.026,42.217.3,11.839.321,23.679.873,35.507.166,2.213-.955,24.731-.3,40.724.5,11.322.884,22.648,1.23,33.975.1,3.367.351,6.768.306,10.136-.059,4.3-.273,8.186,3.579,11.161.149.115.3.225.456.33a10.049,10.049,0,0,0,10.808.128c5.861-3.769,4.447-11.648,4.732-17.675.3-6.3.821-12.6,1.377-18.9,1.27-14.389,2.817-28.752,4.438-43.1Q500.864,1284.154,501.857,1275.822Z" transform="translate(-377.805 -957.497)"/><path class="ae" d="M226.45,1252.4s13.041,29.833,50.986,31.653c37.939,1.681,64.2-20.87,64.2-20.87a109.891,109.891,0,0,0-11.946-30.253c-8.937-15.267-12.859-41.879-12.859-41.879l-63.385.281s-.819,24.511-10.944,38.1-16.04,22.972-16.04,22.972Z" transform="translate(-183.208 -977.118)"/><path class="af" d="M211.815,1257.23a2.847,2.847,0,0,1,0-2.943c3.922-4.621,14.41-21.005,21.068-34.315,7.386-16.107,8.116-27.452,8.116-27.452h7.113a136.491,136.491,0,0,1-11.855,44.4c-6.384,13.587-13.042,26.052-15.414,29.98a1.037,1.037,0,0,1-1.732.139l-7.3-9.8Z" transform="translate(-171.036 -978.307)"/><path class="af" d="M322.941,1277.468a2.871,2.871,0,0,0,.638,3.222l5.289,3.5,5.2,2.811c.638.281,1.459-.139,1.734-1.121a429.635,429.635,0,0,0,11.855-46.5c5.29-26.753,4.2-46.082,4.2-46.082h-5.477a185.107,185.107,0,0,1-10.4,49.582C330.327,1258.7,324.946,1272.286,322.941,1277.468Z" transform="translate(-261.093 -978.938)"/><path class="af" d="M482.766,1191.314s-1.732,48.181-3.374,62.608l-4.2,33.335c-.092.981.365,2.1,1,2.242l7.843.42a34.711,34.711,0,0,1,3.831,0c.638,0,1.094-.7,1.276-1.68.092-7.845-.09-36.417-.09-52.525,0-20.03-1.1-44.26-1.1-44.26l-5.2-.139Zm13.407,0,2.553,67.931c.821,14.425,2.1,23.679,2.553,27.592.191,1.121.821,1.961,1.642,1.68l10.944-2.379c.913-.141,1.551-1.682,1.094-3.222-2.28-7.705-8.664-30.534-10.579-49.3-2.461-23.106-3.922-42.584-3.922-42.584l-4.285.281Zm9.485,0a359.514,359.514,0,0,0,8.48,54.614c4.925,20.171,8.3,30.676,9.758,34.737.456,1.121,1.461,1.681,2.28,1.121l9.12-6.013c1.094-.7,1.461-2.8.64-4.2a234.871,234.871,0,0,1-15.779-38.237,344.813,344.813,0,0,1-10.214-42.16l-4.285.141Zm12.412-.281s6.647,26.892,15.4,41.056c7.023,11.205,14.593,22.69,17.419,26.893a2.888,2.888,0,0,1-.181,3.082l-4.835,5.3a1.05,1.05,0,0,1-1.732-.281c-2.645-4.342-11.582-18.9-17.967-34.315-7.659-18.349-11.4-41.739-11.4-41.739Z" transform="translate(-384.44 -977.102)"/><path class="ag" d="M297.13,1229.636s20.432,9.384,31.556,5.883c30.278-9.806,63.931,3.92,63.931,3.92s-8.02-13.865-11.492-22.69a248.6,248.6,0,0,1-7.3-24.231l-63.383.14s-2.1,15.406-7.113,25.491A84.113,84.113,0,0,1,297.13,1229.636Z" transform="translate(-240.391 -978.308)"/><path class="ae" d="M226.45,1252.4s13.041,29.833,50.986,31.653c37.939,1.681,64.2-20.87,64.2-20.87a109.891,109.891,0,0,0-11.946-30.253c-8.937-15.267-12.859-41.879-12.859-41.879l-63.385.281s-.819,24.511-10.944,38.1-16.04,22.972-16.04,22.972Z" transform="translate(-183.208 -977.118)"/><path class="af" d="M211.815,1257.23a2.847,2.847,0,0,1,0-2.943c3.922-4.621,14.41-21.005,21.068-34.315,7.386-16.107,8.116-27.452,8.116-27.452h7.113a136.491,136.491,0,0,1-11.855,44.4c-6.384,13.587-13.042,26.052-15.414,29.98a1.037,1.037,0,0,1-1.732.139l-7.3-9.8Z" transform="translate(-171.036 -978.307)"/><path class="af" d="M322.941,1277.468a2.871,2.871,0,0,0,.638,3.222l5.289,3.5,5.2,2.811c.638.281,1.459-.139,1.734-1.121a429.635,429.635,0,0,0,11.855-46.5c5.29-26.753,4.2-46.082,4.2-46.082h-5.477a185.107,185.107,0,0,1-10.4,49.582C330.327,1258.7,324.946,1272.286,322.941,1277.468Z" transform="translate(-261.093 -978.938)"/><path class="af" d="M482.766,1191.314s-1.732,48.181-3.374,62.608l-4.2,33.335c-.092.981.365,2.1,1,2.242l7.843.42a34.711,34.711,0,0,1,3.831,0c.638,0,1.094-.7,1.276-1.68.092-7.845-.09-36.417-.09-52.525,0-20.03-1.1-44.26-1.1-44.26l-5.2-.139Zm13.407,0,2.553,67.931c.821,14.425,2.1,23.679,2.553,27.592.191,1.121.821,1.961,1.642,1.68l10.944-2.379c.913-.141,1.551-1.682,1.094-3.222-2.28-7.705-8.664-30.534-10.579-49.3-2.461-23.106-3.922-42.584-3.922-42.584l-4.285.281Zm9.485,0a359.514,359.514,0,0,0,8.48,54.614c4.925,20.171,8.3,30.676,9.758,34.737.456,1.121,1.461,1.681,2.28,1.121l9.12-6.013c1.094-.7,1.461-2.8.64-4.2a234.871,234.871,0,0,1-15.779-38.237,344.813,344.813,0,0,1-10.214-42.16l-4.285.141Zm12.412-.281s6.647,26.892,15.4,41.056c7.023,11.205,14.593,22.69,17.419,26.893a2.888,2.888,0,0,1-.181,3.082l-4.835,5.3a1.05,1.05,0,0,1-1.732-.281c-2.645-4.342-11.582-18.9-17.967-34.315-7.659-18.349-11.4-41.739-11.4-41.739Z" transform="translate(-384.44 -977.102)"/><path class="ah" d="M418.265,797.724c-.288.427-1.05.682-2.532.956a39.582,39.582,0,0,1-7.757.318c-5.2-.089-10.392-.656-15.6-.656H349.31c.126,0,1.614-7.873,2.647-14.981.382-2.66.712-5.217.875-7.207.139-1.692.246-3.454.325-5.264.174-4.083.191-8.414.078-12.764-.109-4.251-.342-8.5-.678-12.57-.223-2.6-.487-5.126-.787-7.491-.241-1.889-.535-3.846-.815-5.847a76.893,76.893,0,0,1-1-12.552,27.124,27.124,0,0,1,2.1-10.325,14.733,14.733,0,0,1,2.9-4.436q2.022-2.055,4.214-3.913a14.331,14.331,0,0,1,4.6-2.964c-.51.8.149,1.937.787,2.632a5.568,5.568,0,0,0,2.4,1.316,25.205,25.205,0,0,0,7.684,1.747,12.159,12.159,0,0,0,7.8-2.284,1.14,1.14,0,0,1,.674-.322,1.057,1.057,0,0,1,.533.233l2.427,1.65a23.04,23.04,0,0,0,2.206,1.215,49.448,49.448,0,0,1,6.777,4.565,43.516,43.516,0,0,1,12.384,17.86,32.084,32.084,0,0,1,1.428,5.565,63.691,63.691,0,0,1,.516,13.345c-.174,4.2-.474,8.41-.382,12.57.031,1.328.1,2.652.216,3.968q.416,4.419,1.188,8.8a106.142,106.142,0,0,0,2.964,12.463v.012a105.824,105.824,0,0,0,3.846,10.679C418.068,796.079,418.7,797.089,418.265,797.724Z" transform="translate(-282.607 -578.244)"/><path class="ai" d="M355.191,829.217c.336,3.819.573,7.848.678,11.857h55.76l.382-11.857Zm54.885-17.837a37.855,37.855,0,0,0-3.263-6.51l-54.232-.09a68.54,68.54,0,0,0,1,11.849H411.5a28.88,28.88,0,0,0-1.428-5.249Zm2.958,41.734H355.791c-.078,1.719-.191,3.372-.325,4.965-.162,1.877-.485,4.289-.875,6.8H416v-.011a95.354,95.354,0,0,1-2.964-11.752Z" transform="translate(-285.242 -664.609)"/><path class="aj" d="M256.511,424.082s-1.869-3.913-7.535-3.955c-5.12-.073-8.7,1.146-11.669,6.789-1.9,3.58-5.282,5.053-9.859,6.5a10.2,10.2,0,0,0-7.2,11.457c.928,6.617.584,10.2-2.794,13.407s-7.056,15.567,6.235,22.754c11.975,6.531,24.318.342,27.483-9.8,3.1-9.769-1.835-14.513-5.307-20.889-3.055-5.58-1.436-12.342.017-14.068,1.7-2.2,2.729-1.8,2.729-1.8Z" transform="translate(-173.364 -353.407)"/><path class="ak" d="M256.511,424.082s-1.869-3.913-7.535-3.955c-5.12-.073-8.7,1.146-11.669,6.789-1.9,3.58-5.282,5.053-9.859,6.5a10.2,10.2,0,0,0-7.2,11.457c.928,6.617.584,10.2-2.794,13.407s-7.056,15.567,6.235,22.754c11.975,6.531,24.318.342,27.483-9.8,3.1-9.769-1.835-14.513-5.307-20.889-3.055-5.58-1.436-12.342.017-14.068,1.7-2.2,2.729-1.8,2.729-1.8Z" transform="translate(-173.364 -353.407)"/><path class="u" d="M832.092,668.992a10.837,10.837,0,0,1-3.225,4.27c-1.6,1.421-3.221,2.759-4.774,4.226q-2.448,2.32-4.913,4.621-4.728,4.43-9.517,8.784-1.3,1.186-2.6,2.366c-5.675,5.156-11.013,10.64-16.449,16.052,0,0-2.1-2.131-4.583-4.927-4.3-4.843-9.762-11.671-7.5-12.907,2.643-1.379,7.747-5.729,13.963-10.075l.075-.052c2.307-1.614,4.774-3.227,7.325-4.682l.55-.319,8.02-4.636,2.962-1.719,8.181-4.726c3.246-1.875,7.186-5.267,10.824-2.171A5.622,5.622,0,0,1,832.092,668.992Z" transform="translate(-629.436 -548.969)"/><path class="al" d="M880.564,716.674q-4.734,4.426-9.521,8.784l-6.334,4.031a2.146,2.146,0,0,1-2.954-.657L854.2,716.959a2.1,2.1,0,0,1-.326-.991l.074-.052c2.307-1.614,4.774-3.227,7.325-4.682l.55-.319,8.02-4.636,2.962-1.719a2.209,2.209,0,0,1,.29.361Z" transform="translate(-690.817 -583.527)"/><rect class="d" width="17.702" height="12.779" rx="6.389" transform="translate(176.987 100.346)"/><path class="p" d="M939.366,636.459a2.186,2.186,0,0,1-.474,0H932.5l-.011-.655V635.5a3.15,3.15,0,0,1,.138-.98,1.786,1.786,0,0,1,.537-.876,3.616,3.616,0,0,1,.989-.665,5.044,5.044,0,0,1,1.889-.435,4.311,4.311,0,0,1,1.986.325,2.293,2.293,0,0,1,.955.722,4.249,4.249,0,0,1,.6.955,3.491,3.491,0,0,1,.153,1.077,1.5,1.5,0,0,1-.057.521A.411.411,0,0,1,939.366,636.459Z" transform="translate(-754.422 -525.251)"/><path class="q" d="M939.729,644.257h-7.241v-.307a3.15,3.15,0,0,1,.138-.98h7.086Z" transform="translate(-754.422 -533.698)"/><path class="l" d="M960.046,642.912a.1.1,0,0,1-.1-.1l-.12-2.07a.1.1,0,1,1,.2-.011l.122,2.07a.1.1,0,0,1-.1.109Z" transform="translate(-776.536 -531.799)"/><path class="l" d="M940.671,643.514a.1.1,0,0,1-.1-.1l-.12-2.07a.1.1,0,0,1,.094-.109h0a.107.107,0,0,1,.109.1l.12,2.072a.1.1,0,0,1-.1.107h0Z" transform="translate(-760.863 -532.298)"/><path class="l" d="M979.259,612.135h-5.742a.477.477,0,0,1,0-.955h5.742a.477.477,0,1,1,0,.955Z" transform="translate(-787.231 -507.979)"/><path class="l" d="M978.545,624.875h-5.028a.477.477,0,0,1,0-.955h5.028a.477.477,0,0,1,0,.955Z" transform="translate(-787.231 -518.286)"/><path class="l" d="M978.983,639.685h-3.6a.477.477,0,1,1,0-.955h3.6a.477.477,0,1,1,0,.955Z" transform="translate(-788.743 -530.268)"/><path class="r" d="M947.014,622.189v.017a2.621,2.621,0,0,1,.05.273l.327,1.465c.05.216.09.433.159.642a.708.708,0,0,1-.08.594,1.021,1.021,0,0,1-.611.422,2.145,2.145,0,0,1-.764.036,1.28,1.28,0,0,1-.4-.088.428.428,0,0,1-.271-.54l.011-.032a1.675,1.675,0,0,0,.155-.741l-.078-.75c-.015-.151-.032-.3-.048-.451a.887.887,0,0,1,.065-.622,1.228,1.228,0,0,1,1.02-.495A.573.573,0,0,1,947.014,622.189Z" transform="translate(-764.873 -516.666)"/><path class="s" d="M954.424,626.891h0a.052.052,0,0,0,.031-.042l-.315-1.3c-.059-.271-.229-1.178-.229-1.178a.051.051,0,0,0-.042-.031.046.046,0,0,0-.029.042l.227,1.178c.052.245.317,1.291.317,1.291a.033.033,0,0,0,.023.04Z" transform="translate(-771.697 -518.626)"/><path class="t" d="M955.11,606.971a.79.79,0,0,1,.729-.382,1.119,1.119,0,0,1,1.043.506c.088.141.118.309.216.445a6.139,6.139,0,0,1,.477.556.916.916,0,0,1,.063.886c-.147.264-.458.411-.573.685a1.615,1.615,0,0,0,.025.877,2.611,2.611,0,0,1-.92,2.4c-.159.128-.4.233-.55.1a.486.486,0,0,1-.118-.248,3.445,3.445,0,0,1-.117-1.963,2.618,2.618,0,0,1,.422-.737,4.57,4.57,0,0,0,.342-.573,1.448,1.448,0,0,0,0-1.362c-.164-.214-.265-.176-.265-.176Z" transform="translate(-772.724 -504.261)"/><path class="u" d="M940.884,612.161a10.083,10.083,0,0,0,.011,1.627,1.03,1.03,0,0,0,.594.92,1.8,1.8,0,0,0,1.117-.2c.3-.134.477-.283.531-.464a4.338,4.338,0,0,1,.158-.433l.015-.573-.6-1.486Z" transform="translate(-761.193 -508.278)"/><path class="t" d="M943.064,608.54a2.292,2.292,0,0,1,.6,1.257,1.728,1.728,0,0,1-.082.892.729.729,0,0,1-.556.5.455.455,0,0,1-.477-.317c-.057-.191-.116-.5-.29-.624-.235.092-.453.027-.483-.382-.036-.453,0-.764-.076-.827s-.248,0-.831.139-.955.139-1.018.029c-.052-.038.191-.4.495-.764a1.8,1.8,0,0,1,1.316-.573A1.679,1.679,0,0,1,943.064,608.54Z" transform="translate(-760.373 -505.301)"/><ellipse class="u" cx="0.504" cy="0.468" rx="0.504" ry="0.468" transform="translate(181.785 105.727) rotate(-86.72)"/><path class="v" d="M952.505,619.867a.4.4,0,0,0,.292.159.47.47,0,0,0,.053-.934.441.441,0,0,0-.4.233.044.044,0,0,1-.042-.011.052.052,0,0,1-.015-.053.506.506,0,0,1,.938.319.531.531,0,0,1-.542.508.472.472,0,0,1-.3-.122Z" transform="translate(-770.523 -514.315)"/><path class="v" d="M943.359,624.613a1.406,1.406,0,0,0,.357-.042,2.34,2.34,0,0,0,.909-.433.514.514,0,0,0,.191-.382c0-.019,0-.044-.015-.046s-.027.017-.036.034a.574.574,0,0,1-.191.334,2.292,2.292,0,0,1-.873.418,1.319,1.319,0,0,1-.533.031.552.552,0,0,1-.279-.107c-.032-.027-.042-.029-.025,0a.529.529,0,0,0,.29.168A1.463,1.463,0,0,0,943.359,624.613Z" transform="translate(-762.81 -518.116)"/><ellipse class="w" cx="0.222" cy="0.212" rx="0.222" ry="0.212" transform="translate(182.06 105.457) rotate(-86.72)"/><path class="l" d="M954.964,609.337l.22-.13s.124-.178-.286-.724c-.382-.5-.634-.514-.689-.464l-.208.172a3.107,3.107,0,0,1,.97,1.146Z" transform="translate(-771.826 -505.407)"/><path class="s" d="M945.165,623.683a.061.061,0,1,1,0-.12h0a.407.407,0,0,0,.416-.265v-.019a.061.061,0,0,1,.08-.031.058.058,0,0,1,.031.033.057.057,0,0,1,0,.045h0v.017a.525.525,0,0,1-.521.338Z" transform="translate(-764.621 -517.738)"/><path class="x" d="M943.4,621.16h0a.191.191,0,0,1-.191-.176.342.342,0,0,1,.107-.25.061.061,0,0,1,.082.019h0a.063.063,0,0,1,0,.073.246.246,0,0,0-.059.143c0,.044.027.061.086.069a.061.061,0,0,1,0,.12Z" transform="translate(-763.097 -515.702)"/><circle class="y" cx="0.124" cy="0.124" r="0.124" transform="translate(180.659 104.75)"/><path class="y" d="M945.907,619.209c.017,0,.078.013.088,0s-.04-.065-.067-.084a.382.382,0,0,0-.191-.046.046.046,0,0,0-.048.042.042.042,0,0,0,.038.046h0a.448.448,0,0,1,.149.036h.017Z" transform="translate(-765.102 -514.37)"/><path class="y" d="M946.012,619.219a.048.048,0,0,1-.038-.017.242.242,0,0,0-.176-.054.048.048,0,0,1,0-.094h0a.315.315,0,0,1,.248.09.048.048,0,0,1-.013.067.049.049,0,0,1-.023,0Z" transform="translate(-765.16 -514.349)"/><circle class="y" cx="0.124" cy="0.124" r="0.124" transform="translate(179.747 104.626)"/><path class="y" d="M941.218,618.588a.048.048,0,0,1-.036-.017.244.244,0,0,0-.176-.054.046.046,0,0,1-.046-.046h0a.046.046,0,0,1,.046-.046h0a.317.317,0,0,1,.248.09.048.048,0,0,1,0,.065h0A.036.036,0,0,1,941.218,618.588Z" transform="translate(-761.276 -513.84)"/><path class="z" d="M946.31,617.038a.059.059,0,0,1-.042-.017l-.029-.034c-.044-.055-.1-.128-.332-.141a.063.063,0,0,1-.057-.063.061.061,0,0,1,.021-.042.061.061,0,0,1,.044-.015h0a.483.483,0,0,1,.418.191l.019.023a.057.057,0,0,1,0,.084.059.059,0,0,1-.046.019Z" transform="translate(-765.233 -512.464)"/><path class="z" d="M941.343,616.379a.063.063,0,0,1-.052-.029.059.059,0,0,1,.019-.082h0a.3.3,0,0,1,.246-.046.06.06,0,1,1-.017.118.191.191,0,0,0-.164.029A.064.064,0,0,1,941.343,616.379Z" transform="translate(-761.537 -512.051)"/><circle class="d" cx="0.181" cy="0.181" r="0.181" transform="translate(182.271 107.099)"/><circle class="d" cx="0.181" cy="0.181" r="0.181" transform="translate(181.843 107.28)"/><circle class="d" cx="0.181" cy="0.181" r="0.181" transform="translate(181.427 107.375)"/><circle class="d" cx="0.181" cy="0.181" r="0.181" transform="translate(180.972 107.459)"/><circle class="d" cx="0.181" cy="0.181" r="0.181" transform="translate(180.554 107.459)"/><path class="u" d="M982.761,600.341a12.959,12.959,0,0,1-1.719-1.3,3.016,3.016,0,0,0-1.791-1.066c-.447-.042-.955.063-1.291-.242a.825.825,0,0,1-.191-.817,1.6,1.6,0,0,1,.483-.726,3.7,3.7,0,0,1,2.377-.936c1.591-.065,3.042,1.453,4.476.235a4.389,4.389,0,0,0,1.222-2.143,8.261,8.261,0,0,0,.412-4.01,9.921,9.921,0,0,0-1.413-3.729c-.854-1.237-1.91-2.347-3.6-1.91-.724.191-1.7.542-2.125-.071-.382-.541.191-1.239.735-1.6a8.5,8.5,0,0,1,9.073.252c-.382-.552.262-1.337.934-1.348a2.561,2.561,0,0,1,1.719.955c4.759,4.726,8.58,18.59.785,23.26C988.82,607.526,986.185,602.789,982.761,600.341Z" transform="translate(-791.026 -483.425)"/><path class="am" d="M674.915,747.215,658.456,720.83s-20.9,11.318-39.549,20.958c-14.8,7.652-12.143,16.76-7.829,24.043,3.124,5.209,13.749,10.086,25.627,3.311C645.815,763.553,674.915,747.215,674.915,747.215Z" transform="translate(-491.645 -596.69)"/><path class="ai" d="M878.874,703.65l16.231,25.4-5.809,4.268L872.67,707Z" transform="translate(-706.027 -582.791)"/><path class="an" d="M352.442,738.517c-.764,13.422,6.479,18.082,29.471,26.3,11.625,4.235,29.323,9.292,36.731,9.3,6.622.042,12.764-4.312,16.132-11.561,3.283-7.065-1.91-16.676-11.247-19.287a209.136,209.136,0,0,1-24.156-8.4c-8.784-3.857-28.922-13.917-35.375-11.664C356.047,725.461,352.887,730.774,352.442,738.517Z" transform="translate(-285.097 -598.347)"/><path class="u" d="M474.941,477.529s.764,10-.132,16.816c-.689,5.521-3.265,8.4-6.126,9.485s-7.883-.462-11.538-2.08c-3.094-1.375-4.917-2.916-5.482-4.8-.573-1.978-1.625-4.476-1.625-4.476l-.158-5.92,6.156-15.334Z" transform="translate(-363.972 -394.745)"/><path class="ao" d="M391.584,440.454a23.741,23.741,0,0,0-6.2,12.96,17.548,17.548,0,0,0,.863,9.206c.98,2.385,2.939,4.976,5.729,5.177a4.715,4.715,0,0,0,4.946-3.267c.573-1.948,1.2-5.2,2.985-6.466,2.431.955,4.675.281,4.988-3.848.37-4.68.092-7.953.789-8.542.955-.785,2.561.036,8.578,1.428s9.947,1.44,10.522.311c.527-.4-1.877-4.094-5.106-7.839a18.618,18.618,0,0,0-13.589-5.981C401.326,433.5,397,434.481,391.584,440.454Z" transform="translate(-311.595 -364.301)"/><ellipse class="u" cx="4.833" cy="5.198" rx="4.833" ry="5.198" transform="translate(78.888 91.924) rotate(-3.28)"/><ellipse class="w" cx="2.192" cy="2.284" rx="2.192" ry="2.284" transform="translate(82.399 94.625) rotate(-3.43)"/><path class="v" d="M421.145,557.1a4.175,4.175,0,0,1-3.013,1.635,4.848,4.848,0,0,1-.552-9.651,4.515,4.515,0,0,1,4.157,2.412.477.477,0,0,0,.451-.118.533.533,0,0,0,.151-.556,5.348,5.348,0,0,0-4.715-2.563,5.418,5.418,0,0,0-4.965,5.857,5.473,5.473,0,0,0,5.6,5.251,4.833,4.833,0,0,0,3.124-1.276Z" transform="translate(-333.851 -457.065)"/><path class="v" d="M470.6,606.31a14.337,14.337,0,0,1-3.68-.428,24.14,24.14,0,0,1-9.391-4.486,5.36,5.36,0,0,1-2.051-3.9c-.01-.191-.025-.454.157-.466s.283.166.382.344a5.69,5.69,0,0,0,1.932,3.453,23.524,23.524,0,0,0,9.017,4.325c2.864.476,3.416.626,5.5.325a5.635,5.635,0,0,0,2.864-1.1c.348-.294.439-.3.273-.015a5.445,5.445,0,0,1-3.009,1.751A16.227,16.227,0,0,1,470.6,606.31Z" transform="translate(-368.497 -496.529)"/><path class="z" d="M503,523.291a.712.712,0,0,1-.235-.9,5.3,5.3,0,0,1,4.711-2.278.685.685,0,1,1-.013,1.369A3.854,3.854,0,0,0,504,523.142C503.747,523.522,503.1,523.377,503,523.291Zm13.472-2.416a.552.552,0,0,1-.369-.071,2.246,2.246,0,0,0-1.478-.281.7.7,0,1,1-.351-1.35,2.981,2.981,0,0,1,2.586.491.691.691,0,0,1,.143.905A.655.655,0,0,1,516.476,520.875Z" transform="translate(-406.702 -433.455)"/><path class="l" d="M384.334,448.8l-2.269-1.337s-1.293-1.845,2.952-7.476c3.907-5.156,6.548-5.309,7.125-4.793l2.2,1.791s-7.638,5.461-10.012,11.811Z" transform="translate(-308.957 -365.44)"/><path class="s" d="M511.482,596.547h-.021c-3.955-.138-5-2.576-5.395-3.493-.029-.067-.053-.126-.078-.177a.621.621,0,0,1,1.129-.52h0c.027.059.057.13.09.208.367.854,1.13,2.631,4.3,2.74a.621.621,0,1,1-.021,1.241Z" transform="translate(-409.32 -492.458)"/><path class="x" d="M545.335,570.209a.621.621,0,0,1-.078-1.236c.607-.078.842-.265.9-.718a2.708,2.708,0,0,0-.615-1.468.621.621,0,0,1,.764-.972,3.66,3.66,0,0,1,1.092,2.587,2,2,0,0,1-1.971,1.8Zm.328-3.325" transform="translate(-440.701 -471.196)"/><circle class="y" cx="1.278" cy="1.278" r="1.278" transform="translate(98.408 91.738)"/><path class="y" d="M517,550.178c-.191,0-.813.137-.915-.038-.107-.269.418-.665.682-.861a3.639,3.639,0,0,1,1.891-.474.455.455,0,0,1,.052.909h0a4.182,4.182,0,0,0-1.528.363.286.286,0,0,1-.177.1Z" transform="translate(-417.527 -457.514)"/><path class="y" d="M516.317,550.528a.481.481,0,0,1-.382-.775,3.176,3.176,0,0,1,2.568-.922.485.485,0,0,1,.487.472.479.479,0,0,1-.472.487h0a2.474,2.474,0,0,0-1.824.55A.468.468,0,0,1,516.317,550.528Z" transform="translate(-417.332 -457.535)"/><circle class="y" cx="1.278" cy="1.278" r="1.278" transform="translate(107.836 90.468)"/><path class="y" d="M565.489,543.917a.48.48,0,0,1-.384-.766h0a3.176,3.176,0,0,1,2.568-.922.48.48,0,1,1,.1.955.4.4,0,0,1-.084,0,2.467,2.467,0,0,0-1.816.54A.477.477,0,0,1,565.489,543.917Z" transform="translate(-457.117 -452.193)"/><path class="z" d="M503.465,527.957a.621.621,0,0,1-.435-1.062c.073-.078.141-.16.206-.244.525-.657,1.405-1.759,4.325-1.925a.621.621,0,0,1,.071,1.239c-2.366.136-2.979.9-3.426,1.461a3.769,3.769,0,0,1-.3.351A.622.622,0,0,1,503.465,527.957Z" transform="translate(-406.824 -438.033)"/><path class="z" d="M563.25,521.13a.616.616,0,0,1-.33-.1,1.924,1.924,0,0,0-1.707-.283.621.621,0,0,1-.191-1.228,3.1,3.1,0,0,1,2.553.46.621.621,0,0,1-.332,1.146Z" transform="translate(-453.465 -433.754)"/><circle class="d" cx="1.864" cy="1.864" r="1.864" transform="translate(80.2 117.153)"/><circle class="d" cx="1.864" cy="1.864" r="1.864" transform="translate(84.403 119.28)"/><circle class="d" cx="1.864" cy="1.864" r="1.864" transform="translate(89.399 120.023)"/><circle class="d" cx="1.864" cy="1.864" r="1.864" transform="translate(94.003 119.736)"/><circle class="d" cx="1.864" cy="1.864" r="1.864" transform="translate(98.502 119.226)"/><circle class="ap" cx="2.106" cy="2.106" r="2.106" transform="translate(163.884 95.905)"/><path class="d" d="M863.91,579.037H863.9a.275.275,0,0,1-.21-.111l-.855-1.146a.275.275,0,0,1,.432-.34v.011l.657.884,1.558-1.768a.274.274,0,1,1,.411.363l-1.782,2.024a.268.268,0,0,1-.2.082Z" transform="translate(-698.027 -479.901)"/></g><circle class="ah" cx="3.964" cy="3.964" r="3.964" transform="translate(178.175 98.479)"/><circle class="ah" cx="2.362" cy="2.362" r="2.362" transform="translate(187.658 111.613)"/><circle class="ah" cx="6.256" cy="6.256" r="6.256" transform="translate(162.952 84.539)"/><circle class="ah" cx="3.964" cy="3.964" r="3.964" transform="translate(227.707 137.661)"/><circle class="ah" cx="2.362" cy="2.362" r="2.362" transform="translate(215.526 134.78)"/><circle class="ah" cx="6.256" cy="6.256" r="6.256" transform="translate(240.891 145.405)"/><circle class="ah" cx="3.964" cy="3.964" r="3.964" transform="translate(217.888 104.695)"/><circle class="ah" cx="2.362" cy="2.362" r="2.362" transform="translate(210.04 115.499)"/><circle class="ah" cx="6.256" cy="6.256" r="6.256" transform="translate(226.81 86.309)"/><path class="d" d="M1234.162,167.966l1.639.474v6.344a15.554,15.554,0,0,1-10,14.53h0a15.555,15.555,0,0,1-10.006-14.53v-6.346l1.64-.474A30.068,30.068,0,0,1,1234.162,167.966Z" transform="translate(-983.625 -125.35)"/><g class="aq" transform="translate(160.681 117.903)"><path class="d" d="M841.7,570.456a.248.248,0,0,1-.248-.248.252.252,0,0,1,.073-.176l2.706-2.7a.249.249,0,0,1,.351.352l-2.706,2.706A.25.25,0,0,1,841.7,570.456Z" transform="translate(-841.45 -567.259)"/></g><g class="aq" transform="translate(160.888 118.105)"><path class="d" d="M842.778,572.824a.25.25,0,0,1-.177-.422h0l4.01-4.01a.248.248,0,0,1,.351.351l-4.01,4.01A.241.241,0,0,1,842.778,572.824Z" transform="translate(-842.532 -568.319)"/></g><circle class="l" cx="0.319" cy="0.319" r="0.319" transform="translate(166.183 117.242)"/><path class="ar" d="M1061.069,866.961h62.882a6.79,6.79,0,0,0,6.4-5.416l7.753-42.62a4.392,4.392,0,0,0-4.428-5.416h-62.884a6.788,6.788,0,0,0-6.4,5.416l-7.762,42.62A4.4,4.4,0,0,0,1061.069,866.961Z" transform="translate(-854.789 -648.583)"/><path class="l" d="M1121.085,864.756H1058.2a5.142,5.142,0,0,1-4.039-1.8,5.342,5.342,0,0,1-1.064-4.421l7.755-42.62a7.5,7.5,0,0,1,7.065-5.975H1130.8a5.142,5.142,0,0,1,4.039,1.8,5.329,5.329,0,0,1,1.062,4.421l-7.753,42.62A7.487,7.487,0,0,1,1121.085,864.756Zm-53.159-53.451a6.087,6.087,0,0,0-5.729,4.854l-7.755,42.62a3.964,3.964,0,0,0,.764,3.3,3.743,3.743,0,0,0,2.99,1.308h62.882a6.086,6.086,0,0,0,5.729-4.854l7.753-42.62a3.952,3.952,0,0,0-.764-3.3,3.752,3.752,0,0,0-2.989-1.31Z" transform="translate(-851.922 -645.695)"/><path class="f" d="M1187.907,868.577H1156.59l9.321-49.777h31.317Z" transform="translate(-935.73 -652.863)"/><path class="as" d="M1057.8,865.489h4.01l64.507-51.979H1077.4c-9.132,0-10.755,0-12.722,4.392l-7.829,42.074-.3,2.754C1056.827,864.242,1056.636,864.507,1057.8,865.489Z" transform="translate(-854.794 -648.583)"/><path class="d" d="M1199.569,958.109h21.124a2.291,2.291,0,0,0,2.15-1.82h0a1.48,1.48,0,0,0-1.489-1.82h-21.122a2.291,2.291,0,0,0-2.15,1.82h0A1.479,1.479,0,0,0,1199.569,958.109Z" transform="translate(-969.275 -762.626)"/><path class="d" d="M1260.485,992.046h9.166a1.646,1.646,0,0,0,1.547-1.308l.191-1.024a1.062,1.062,0,0,0-.785-1.279,1.019,1.019,0,0,0-.285-.029h-9.166a1.644,1.644,0,0,0-1.545,1.308l-.191,1.024a1.061,1.061,0,0,0,.791,1.279,1.03,1.03,0,0,0,.277.029Z" transform="translate(-1018.899 -790.082)"/><path class="d" d="M1192.489,992.046h9.166a1.646,1.646,0,0,0,1.545-1.308l.191-1.024a1.062,1.062,0,0,0-.791-1.279.989.989,0,0,0-.281-.029h-9.166a1.646,1.646,0,0,0-1.545,1.308l-.191,1.024a1.062,1.062,0,0,0,.791,1.279A.988.988,0,0,0,1192.489,992.046Z" transform="translate(-963.884 -790.082)"/><path class="l" d="M1225.22,959.78l2.186,5.345.078-3.428,3.3-.7Z" transform="translate(-991.255 -766.922)"/><path class="l" d="M1235.736,967.022l-.848,1.037-3.548-3,.85-1.037Z" transform="translate(-996.206 -770.353)"/><path class="l" d="M1213.288,959.116a.581.581,0,0,1-.115-.011.636.636,0,0,1-.516-.737h0l.323-1.782a.64.64,0,0,1,1.259.229l-.325,1.782A.64.64,0,0,1,1213.288,959.116Z" transform="translate(-981.084 -763.924)"/><path class="d" d="M1268.832,825.26l-.907,3.678h-.785l.905-3.678Z" transform="translate(-1025.17 -658.09)"/><path class="d" d="M1276,825.2a5.878,5.878,0,0,1,1.02-.082,1.925,1.925,0,0,1,1.321.4,1.337,1.337,0,0,1,.42,1.146,2.291,2.291,0,0,1-.854,1.692,2.793,2.793,0,0,1-1.791.485,6.5,6.5,0,0,1-1-.065Zm.05,2.99a1.9,1.9,0,0,0,.344.021,1.433,1.433,0,0,0,1.065-.432,1.717,1.717,0,0,0,.445-1.108c.033-.573-.269-.922-.918-.922a1.626,1.626,0,0,0-.334.023Z" transform="translate(-1031.626 -657.976)"/><path class="f" d="M825.7,1091.121h72.921L942,1085.96H869.078Z" transform="translate(-668.026 -869.007)"/><path class="l" d="M898.321,1088.909H825.36l-.08-1.362,43.418-5.167h72.961l.082,1.361Zm-61.437-1.367h61.357l31.89-3.794H868.78Z" transform="translate(-667.687 -866.111)"/><path class="l" d="M973.73,1095.2h49.414l15.685-1.734H989.417Z" transform="translate(-787.789 -875.083)"/><path class="f" d="M1256.076,1085.96v1.434l-42.736,5.511v-1.614" transform="translate(-981.643 -869.007)"/><path class="l" d="M1210.443,1090.725a.684.684,0,0,1-.684-.684v-1.614a.684.684,0,1,1,1.367,0v.836l41.369-5.333v-.827a.684.684,0,0,1,1.367,0v1.434a.684.684,0,0,1-.6.678l-42.736,5.511Z" transform="translate(-978.747 -866.143)"/><path class="f" d="M899.723,1113.3v1.434l-74.023-.342v-1.4" transform="translate(-668.026 -890.875)"/><path class="l" d="M896.842,1112.529h0l-74.023-.342a.684.684,0,0,1-.68-.683v-1.4a.684.684,0,0,1,1.367,0v.722l72.656.336v-.749a.684.684,0,1,1,1.367,0v1.434a.684.684,0,0,1-.684.684Z" transform="translate(-665.146 -887.987)"/><path class="d" d="M1228.563,867.459H1211.09a1.689,1.689,0,0,1-1.684-2.053l1.881-11.713a2.488,2.488,0,0,1,2.343-2.053H1231.1a1.69,1.69,0,0,1,1.686,2.053l-1.881,11.713A2.481,2.481,0,0,1,1228.563,867.459Z" transform="translate(-978.439 -679.432)"/><path class="p" d="M1225.659,900.4a1.042,1.042,0,0,1-.038.223,1.641,1.641,0,0,1-.137.422.619.619,0,0,1-.415.382,2.612,2.612,0,0,1-.573,0h-7.766l.115-.81.053-.382a4.486,4.486,0,0,1,.363-1.213,2.783,2.783,0,0,1,.825-1.085,5.563,5.563,0,0,1,1.337-.823,6.7,6.7,0,0,1,2.381-.539,4.738,4.738,0,0,1,2.345.4,2.17,2.17,0,0,1,1.008.892,4.565,4.565,0,0,1,.527,1.146.138.138,0,0,1,0,.04A4.34,4.34,0,0,1,1225.659,900.4Z" transform="translate(-984.386 -715.777)"/><path class="q" d="M1226.112,910.861a1.036,1.036,0,0,1-.038.223h-8.784l.053-.382a4.485,4.485,0,0,1,.363-1.213h8.421a.157.157,0,0,1,0,.04,4.326,4.326,0,0,1-.015,1.331Z" transform="translate(-984.839 -726.236)"/><path class="l" d="M1250.981,909.5h-.013a.124.124,0,0,1-.111-.136h0l.264-2.563a.128.128,0,0,1,.138-.113.126.126,0,0,1,.111.137l-.264,2.565A.126.126,0,0,1,1250.981,909.5Z" transform="translate(-1011.996 -723.968)"/><path class="l" d="M1227.3,910.132h-.013a.124.124,0,0,1-.111-.136l.265-2.563a.124.124,0,0,1,.248,0,.068.068,0,0,1,0,.017l-.264,2.563A.126.126,0,0,1,1227.3,910.132Z" transform="translate(-992.838 -724.472)"/><path class="l" d="M1281.284,871.361h-6.974a.581.581,0,1,1,0-1.161h6.974a.581.581,0,1,1,0,1.161Z" transform="translate(-1030.501 -694.448)"/><path class="l" d="M1277.871,887.131h-6.111a.581.581,0,0,1,0-1.161h6.111a.581.581,0,0,1,0,1.161Z" transform="translate(-1028.438 -707.207)"/><path class="l" d="M1275.473,905.459H1271.1a.58.58,0,1,1,0-1.159h4.369a.58.58,0,0,1,0,1.159Z" transform="translate(-1027.908 -722.036)"/><path class="r" d="M1237.722,883.8v.021a3.321,3.321,0,0,1,0,.338q.055.907.107,1.812a7.9,7.9,0,0,0,.063.8.976.976,0,0,1-.214.735,1.527,1.527,0,0,1-.827.521,2.6,2.6,0,0,1-.926.046,1.334,1.334,0,0,1-.462-.109.47.47,0,0,1-.239-.623.456.456,0,0,1,.048-.084,2.358,2.358,0,0,0,.334-.919l.053-.928c.012-.191.019-.382.032-.56a1.168,1.168,0,0,1,.2-.764,1.635,1.635,0,0,1,.615-.458,1.382,1.382,0,0,1,.72-.153A.557.557,0,0,1,1237.722,883.8Z" transform="translate(-999.316 -705.181)"/><path class="s" d="M1248.494,889.626h.009a.07.07,0,0,0,.044-.054l-.124-1.608c-.019-.336-.044-1.459-.044-1.459a.046.046,0,0,0-.044-.036.072.072,0,0,0-.046.052l.044,1.459c.015.3.128,1.6.128,1.6a.034.034,0,0,0,.013.044A.031.031,0,0,0,1248.494,889.626Z" transform="translate(-1009.919 -707.611)"/><path class="t" d="M1249.832,864.993a1.167,1.167,0,0,1,.955-.474,1.137,1.137,0,0,1,1.167.626c.078.176.082.382.174.552a7.623,7.623,0,0,1,.47.686,1.157,1.157,0,0,1-.092,1.092c-.231.327-.64.508-.842.85a2,2,0,0,0-.145,1.085,3.859,3.859,0,0,1-1.595,2.977c-.218.157-.529.286-.687.12a.493.493,0,0,1-.1-.308,4.393,4.393,0,0,1,.248-2.429,4.054,4.054,0,0,1,.661-.913,6.5,6.5,0,0,0,.529-.72,1.853,1.853,0,0,0,.269-1.686c-.158-.263-.286-.216-.286-.216Z" transform="translate(-1010.562 -689.852)"/><path class="u" d="M1233.292,871.387a12.814,12.814,0,0,0-.309,2.016c-.025.663.223,1.008.538,1.146a2.264,2.264,0,0,0,1.4-.25,1.348,1.348,0,0,0,.737-.573c.1-.223.277-.537.277-.537l.132-.712-.428-1.837Z" transform="translate(-997.534 -694.804)"/><path class="t" d="M1237.226,866.938a2.457,2.457,0,0,1,.479,1.554,2.318,2.318,0,0,1-.279,1.1,1.11,1.11,0,0,1-.773.621.457.457,0,0,1-.518-.382c-.031-.235-.042-.625-.227-.775-.3.115-.556.032-.512-.462a3.717,3.717,0,0,0,.071-1.023c-.071-.069-.3,0-1.037.172s-1.2.172-1.243.036c-.053-.048.3-.491.752-.94a2.552,2.552,0,0,1,1.719-.716A1.644,1.644,0,0,1,1237.226,866.938Z" transform="translate(-997.696 -691.149)"/><ellipse class="u" cx="0.657" cy="0.539" rx="0.657" ry="0.539" transform="translate(237.806 178.499) rotate(-56.22)"/><path class="v" d="M1247.264,880.865a.408.408,0,0,0,.323.191.678.678,0,0,0,.646-.548.466.466,0,0,0-.3-.588.408.408,0,0,0-.1-.021.64.64,0,0,0-.535.288.05.05,0,0,1-.05-.014c-.029-.023,0-.067,0-.067a.749.749,0,0,1,.6-.307.54.54,0,0,1,.495.582.454.454,0,0,1-.023.12.793.793,0,0,1-.764.63.484.484,0,0,1-.344-.153Z" transform="translate(-1009.053 -702.215)"/><path class="v" d="M1235.02,886.791a1.717,1.717,0,0,0,.441-.052,3.371,3.371,0,0,0,1.19-.537.764.764,0,0,0,.317-.468c0-.023.011-.055,0-.055a.1.1,0,0,0-.052.04.858.858,0,0,1-.294.414,3.294,3.294,0,0,1-1.146.517,1.639,1.639,0,0,1-.653.04.548.548,0,0,1-.315-.132c-.036-.036-.046-.036-.032,0a.508.508,0,0,0,.321.208A1.471,1.471,0,0,0,1235.02,886.791Z" transform="translate(-998.738 -706.972)"/><ellipse class="w" cx="0.29" cy="0.243" rx="0.29" ry="0.243" transform="translate(238.254 178.334) rotate(-52.25)"/><path class="l" d="M1252.441,867.912l.292-.161s.191-.221-.2-.9c-.361-.619-.668-.638-.747-.573l-.294.214a3.057,3.057,0,0,1,.955,1.417Z" transform="translate(-1012.508 -691.259)"/><path class="s" d="M1237.692,885.624a.073.073,0,1,1,0-.145h0a.613.613,0,0,0,.573-.338l.013-.025a.074.074,0,0,1,.1-.023.073.073,0,0,1,.025.1l-.013.021a.764.764,0,0,1-.691.411Z" transform="translate(-1001.287 -706.489)"/><path class="x" d="M1236.017,882.481h-.012a.206.206,0,0,1-.206-.206v-.019a.518.518,0,0,1,.17-.3.073.073,0,0,1,.1.031.071.071,0,0,1-.017.09.41.41,0,0,0-.1.191c0,.046,0,.065.082.076a.071.071,0,0,1,.061.078h0A.073.073,0,0,1,1236.017,882.481Z" transform="translate(-999.814 -703.953)"/><ellipse class="y" cx="0.164" cy="0.139" rx="0.164" ry="0.139" transform="matrix(0.694, -0.72, 0.72, 0.694, 236.674, 177.839)"/><path class="y" d="M1239.694,880.088c.021,0,.094.017.109,0s-.038-.078-.065-.1a.391.391,0,0,0-.212-.055.063.063,0,0,0-.065.052.045.045,0,0,0,0,.034.043.043,0,0,0,.026.022h.011a.42.42,0,0,1,.174.044.025.025,0,0,0,.019.011Z" transform="translate(-1002.775 -702.32)"/><path class="y" d="M1239.754,880.175a.055.055,0,0,1-.048-.027.259.259,0,0,0-.191-.061.054.054,0,0,1-.038-.014.054.054,0,0,1-.017-.037h0a.055.055,0,0,1,.056-.055h0c.22,0,.284.1.29.116a.056.056,0,0,1-.019.076h0A.048.048,0,0,1,1239.754,880.175Z" transform="translate(-1002.775 -702.361)"/><ellipse class="y" cx="0.164" cy="0.139" rx="0.164" ry="0.139" transform="matrix(0.694, -0.72, 0.72, 0.694, 235.591, 177.686)"/><path class="y" d="M1234.1,879.31a.055.055,0,0,1-.048-.027.25.25,0,0,0-.191-.061.059.059,0,0,1-.055-.057.055.055,0,0,1,.055-.055h0c.22,0,.285.1.292.116a.058.058,0,0,1-.019.076h0A.054.054,0,0,1,1234.1,879.31Z" transform="translate(-998.204 -701.657)"/><path class="z" d="M1240.553,877.374a.071.071,0,0,1-.055-.027c0-.011-.019-.027-.031-.044-.04-.065-.1-.153-.365-.168a.073.073,0,1,1,0-.145h0c.319.017.416.132.481.237a.141.141,0,0,0,.019.027.077.077,0,0,1,0,.1.079.079,0,0,1-.05.017Z" transform="translate(-1003.237 -699.941)"/><path class="z" d="M1234.623,876.581a.073.073,0,0,1-.073-.073.071.071,0,0,1,.036-.063.382.382,0,0,1,.305-.054.073.073,0,0,1,.061.082.075.075,0,0,1-.084.061.238.238,0,0,0-.208.036A.086.086,0,0,1,1234.623,876.581Z" transform="translate(-998.803 -699.448)"/><ellipse class="d" cx="0.241" cy="0.204" rx="0.241" ry="0.204" transform="matrix(0.694, -0.72, 0.72, 0.694, 238.124, 180.823)"/><ellipse class="d" cx="0.241" cy="0.204" rx="0.241" ry="0.204" transform="matrix(0.694, -0.72, 0.72, 0.694, 237.565, 181.046)"/><ellipse class="d" cx="0.241" cy="0.204" rx="0.241" ry="0.204" transform="matrix(0.694, -0.72, 0.72, 0.694, 237.044, 181.167)"/><ellipse class="d" cx="0.241" cy="0.204" rx="0.241" ry="0.204" transform="matrix(0.694, -0.72, 0.72, 0.694, 236.473, 181.269)"/><ellipse class="d" cx="0.241" cy="0.204" rx="0.241" ry="0.204" transform="matrix(0.694, -0.72, 0.72, 0.694, 235.966, 181.27)"/><path class="n" d="M1204.018,1031.45h-15.343a2.654,2.654,0,0,1-2.673-3.1l.382-2.864a3.674,3.674,0,0,1,3.514-3.1h15.344a2.654,2.654,0,0,1,2.673,3.1l-.382,2.864A3.674,3.674,0,0,1,1204.018,1031.45Z" transform="translate(-959.503 -817.568)"/><path class="d" d="M1208.086,1037.595a.526.526,0,0,1-.1.09.22.22,0,0,1-.115.031.211.211,0,0,1-.12-.038l-.128-.088a.915.915,0,0,0-.166-.086.583.583,0,0,0-.229-.038.674.674,0,0,0-.221.033.513.513,0,0,0-.166.1.447.447,0,0,0-.111.141.534.534,0,0,0-.053.178.242.242,0,0,0,.04.176.476.476,0,0,0,.145.124,1.458,1.458,0,0,0,.216.1l.248.1a1.988,1.988,0,0,1,.246.12.856.856,0,0,1,.208.17.685.685,0,0,1,.132.246.846.846,0,0,1,.017.345,1.577,1.577,0,0,1-.512.995,1.686,1.686,0,0,1-.5.3,1.717,1.717,0,0,1-.63.111,1.625,1.625,0,0,1-.653-.139,1.326,1.326,0,0,1-.273-.159.942.942,0,0,1-.2-.2l.363-.4a.35.35,0,0,1,.1-.074.25.25,0,0,1,.116-.029.227.227,0,0,1,.141.052l.143.113a1.068,1.068,0,0,0,.191.113.648.648,0,0,0,.275.05.572.572,0,0,0,.4-.128.6.6,0,0,0,.191-.382.291.291,0,0,0-.038-.191.415.415,0,0,0-.143-.128,1.248,1.248,0,0,0-.214-.094l-.246-.086a2.323,2.323,0,0,1-.246-.113.685.685,0,0,1-.2-.166.663.663,0,0,1-.126-.254.928.928,0,0,1-.015-.37,1.336,1.336,0,0,1,.158-.489,1.5,1.5,0,0,1,.334-.414,1.579,1.579,0,0,1,.479-.288,1.693,1.693,0,0,1,.922-.074,1.34,1.34,0,0,1,.283.1,1.223,1.223,0,0,1,.235.141.937.937,0,0,1,.168.179Z" transform="translate(-975.017 -829.243)"/><path class="d" d="M1222.328,1037.593l-.231.92h1.111l-.164.634h-1.105l-.239.955h1.463l-.166.657h-2.347l.955-3.819h2.341l-.168.657Z" transform="translate(-987.557 -829.348)"/><path class="d" d="M1239.932,1036.9l-.955,3.819h-.458a.356.356,0,0,1-.16-.032.266.266,0,0,1-.107-.109l-1.081-2.356c-.017.1-.036.191-.057.273l-.546,2.225h-.777l.955-3.819h.559a.2.2,0,0,1,.067.017.178.178,0,0,1,.05.042c.015.021.029.044.042.067l1.085,2.357c.013-.061.027-.12.038-.176s.025-.107.038-.156l.533-2.154Z" transform="translate(-999.806 -829.315)"/><path class="d" d="M1260.05,1038.556a2.487,2.487,0,0,1-.145.59,2.534,2.534,0,0,1-.271.519,2.341,2.341,0,0,1-.382.432,2.4,2.4,0,0,1-1.02.538,2.539,2.539,0,0,1-.6.073h-1.413l.955-3.819h1.413a1.716,1.716,0,0,1,.678.126,1.262,1.262,0,0,1,.749.876A1.731,1.731,0,0,1,1260.05,1038.556Zm-.9.021a1.421,1.421,0,0,0,0-.422.794.794,0,0,0-.124-.323.638.638,0,0,0-.242-.208.839.839,0,0,0-.355-.073h-.529l-.622,2.5h.529a1.207,1.207,0,0,0,.5-.1,1.254,1.254,0,0,0,.4-.294,1.6,1.6,0,0,0,.288-.464A2.283,2.283,0,0,0,1259.147,1038.577Z" transform="translate(-1016.335 -829.306)"/><path class="at" d="M1502.891,1005.426h15.626a.3.3,0,0,1,.3.3v15.17a6.466,6.466,0,0,1-6.468,6.468h-3.294a6.466,6.466,0,0,1-6.468-6.468v-15.175a.3.3,0,0,1,.3-.3Z" transform="translate(-1215.659 -803.847)"/><ellipse class="n" cx="8.116" cy="1.528" rx="8.116" ry="1.528" transform="translate(286.933 200.032)"/><path class="au" d="M1539.12,931.315l-5.288,13.367c-.269.678-1.31.794-1.778.806-.13,0-.561-.023-.561-.023a1.175,1.175,0,0,1-.495-1l5.6-14.131a1.337,1.337,0,0,1,1.719-.745l.055.023A1.337,1.337,0,0,1,1539.12,931.315Z" transform="translate(-1238.629 -742.425)"/><path class="f" d="M1551.377,928.531l-5.66,14.3c-.115.292-.592.349-.779.363-.672.048-2.309.048-2.309.048l6.225-15.7a1.337,1.337,0,0,1,1.734-.75l.038.015A1.336,1.336,0,0,1,1551.377,928.531Z" transform="translate(-1248.053 -740.149)"/><rect class="ap" width="2.714" height="16.816" rx="1.357" transform="translate(291.308 186.107)"/><path class="au" d="M1496.2,931.767l6.567,14.131a.061.061,0,0,1-.031.08,4.845,4.845,0,0,1-.928.653,1.978,1.978,0,0,1-2.036-.737l-6.032-12.985a1.337,1.337,0,0,1,.644-1.759l.057-.027A1.337,1.337,0,0,1,1496.2,931.767Z" transform="translate(-1208.405 -743.642)"/><path class="av" d="M1564.546,1042.493a1.146,1.146,0,0,1,0-2.292c2.389,0,2.546-.684,2.546-5.44a2.72,2.72,0,0,0-.714-2.156,2.317,2.317,0,0,0-1.636-.407,1.146,1.146,0,0,1-.483-2.24.937.937,0,0,1,.1-.017,4.551,4.551,0,0,1,3.5.911,4.843,4.843,0,0,1,1.528,3.909c0,2.257,0,4.041-.55,5.358C1568.167,1041.718,1566.763,1042.493,1564.546,1042.493Z" transform="translate(-1264.819 -823.644)"/><path class="ap" d="M1384.581,1118.2l-21.96-.821-3.158-1.186a.21.21,0,0,1-.126-.269.206.206,0,0,1,.126-.126l3.246-1.13,21.96.821a1.36,1.36,0,0,1,1.3,1.405h0A1.361,1.361,0,0,1,1384.581,1118.2Z" transform="translate(-1099.75 -892.235)"/><g class="aq" transform="translate(209.405 166.579)"><g class="aq" transform="translate(1.74 0.007)"><path class="d" d="M1106.578,832.548a.861.861,0,0,1-.609-1.469l8.627-8.627a.86.86,0,0,1,1.216,1.216l-8.627,8.627A.854.854,0,0,1,1106.578,832.548Z" transform="translate(-1105.718 -822.201)"/></g><g class="aq"><path class="d" d="M1097.462,839.319a.859.859,0,0,1-.607-1.467l15.437-15.437a.859.859,0,1,1,1.214,1.216l-15.435,15.435a.856.856,0,0,1-.609.252Z" transform="translate(-1096.604 -822.164)"/></g></g><g class="aq" transform="translate(259.26 197.93)"><g class="aq" transform="translate(5.07 6.789)"><path class="d" d="M1385.092,1032.238a.859.859,0,0,1-.609-1.465h0l8.627-8.627a.859.859,0,1,1,1.214,1.216l-8.627,8.627A.859.859,0,0,1,1385.092,1032.238Z" transform="translate(-1384.234 -1021.894)"/></g><g class="aq"><path class="d" d="M1358.542,1003.475a.859.859,0,0,1-.607-1.467l15.437-15.435a.859.859,0,0,1,1.214,1.214l-15.435,15.437A.865.865,0,0,1,1358.542,1003.475Z" transform="translate(-1357.683 -986.342)"/></g></g><g transform="translate(198.634 34.292)"><path class="ah" d="M1128.462,178.633a12.853,12.853,0,0,0-12.9-12.061h-2.638a16.485,16.485,0,0,0-26.146-13.291,19.1,19.1,0,0,0-32.234,8.619,6.157,6.157,0,0,1-5.959,4.68h-.531a12.728,12.728,0,0,0-.786,25.44c.2,0,.4.016.6.016h67.88a12.764,12.764,0,0,0,12.728-12.8C1128.479,179.036,1128.472,178.834,1128.462,178.633Z" transform="translate(-1035.139 -147.473)"/><g transform="translate(24.516 12.704)"><g transform="translate(0 0)"><g transform="translate(0 0)"><path class="ai" d="M-234.9-102.351a5.078,5.078,0,0,0,5.27,5.313,5.716,5.716,0,0,0,3.6-1.264.558.558,0,0,0,.086-.833l-.287-.388a.52.52,0,0,0-.833-.1,4.271,4.271,0,0,1-2.5.89,3.419,3.419,0,0,1-3.432-3.648,3.291,3.291,0,0,1,3.418-3.5,4.245,4.245,0,0,1,2.3.718c.345.215.617.187.819-.144l.259-.416a.558.558,0,0,0-.115-.833,5.689,5.689,0,0,0-3.332-1.02A5.086,5.086,0,0,0-234.9-102.351Zm10.44,4.538a.539.539,0,0,0,.6.6h.617a.533.533,0,0,0,.6-.6v-2.8a2.185,2.185,0,0,1,2.111-2.427c.919,0,1.149.6,1.149,1.493v3.734a.533.533,0,0,0,.6.6h.618a.539.539,0,0,0,.6-.6v-4.107c0-1.939-.933-2.786-2.556-2.786a2.883,2.883,0,0,0-2.542,1.479h-.029a4.16,4.16,0,0,0,.043-.618V-106.8a.539.539,0,0,0-.6-.6h-.617a.545.545,0,0,0-.6.6Zm8.157-3.059a3.753,3.753,0,0,0,3.935,3.834,4.629,4.629,0,0,0,2.484-.732.546.546,0,0,0,.2-.8l-.172-.287c-.187-.33-.445-.373-.8-.2a3.027,3.027,0,0,1-1.58.474,2.1,2.1,0,0,1-2.2-2.01h4.466a.635.635,0,0,0,.632-.618,3.158,3.158,0,0,0-3.245-3.49A3.612,3.612,0,0,0-216.3-100.872Zm1.91-.833a1.784,1.784,0,0,1,1.766-1.623,1.49,1.49,0,0,1,1.479,1.623Zm6.376,3.892a.539.539,0,0,0,.6.6h.617a.533.533,0,0,0,.6-.6v-2.6h.948l1.709,2.786a.728.728,0,0,0,.7.416h.775c.488,0,.646-.3.4-.718l-2.154-3.3v-.029l1.824-2.556c.273-.388.115-.718-.373-.718h-.689a.75.75,0,0,0-.718.4l-1.522,2.183h-.9V-106.8a.539.539,0,0,0-.6-.6h-.617a.545.545,0,0,0-.6.6Zm7.654,0a.529.529,0,0,0,.589.6h.632a.529.529,0,0,0,.589-.6v-6.118a.535.535,0,0,0-.589-.6h-.632a.535.535,0,0,0-.589.6Zm3.619,0a.529.529,0,0,0,.589.6h.632a.529.529,0,0,0,.589-.6v-2.829a2.19,2.19,0,0,1,2.111-2.4c.919,0,1.149.6,1.149,1.493v3.734a.539.539,0,0,0,.6.6h.617a.533.533,0,0,0,.6-.6v-4.107c0-1.939-.933-2.786-2.556-2.786a2.856,2.856,0,0,0-2.6,1.551h-.029a2.34,2.34,0,0,0,.029-.33v-.445a.535.535,0,0,0-.589-.6h-.56a.535.535,0,0,0-.589.6Z" transform="translate(234.898 110.254)"/><g transform="translate(32.957)"><g transform="translate(0)"><path class="ai" d="M88.383,201.617a.545.545,0,0,1,0,.757l-.422.422a.545.545,0,0,1-.757,0l-1.85-1.865a.545.545,0,0,1,0-.757l.422-.422a.545.545,0,0,1,.757,0Z" transform="translate(-85.2 -198.245)"/><path class="ai" d="M167.758,125.353a.545.545,0,0,1,.757,0l.422.422a.545.545,0,0,1,0,.757l-3.2,3.19a.545.545,0,0,1-.757,0l-.422-.422a.545.545,0,0,1,0-.757Z" transform="translate(-162.958 -125.2)"/></g></g></g></g></g><text class="aw" transform="translate(47.576 37.759)"><tspan x="-19.465" y="0">Storage</tspan></text></g><path class="ah" d="M37.209,0A37.209,37.209,0,1,1,0,37.209,37.209,37.209,0,0,1,37.209,0Z" transform="translate(101.045 11.891)"/><g transform="translate(-20.62 -8.847)"><path class="f" d="M647.407,162.208H613.68V157.83h33.727Zm-32.264-1.48h30.781v-1.421H615.143Z" transform="translate(-468.372 -120.459)"/><path class="ar" d="M634.044,81.483H595.06V64.57h38.984Zm-37.508-1.475h36.033V66.045H596.535Z" transform="translate(-454.161 -49.281)"/><rect class="d" width="52.03" height="45.767" transform="translate(133.63 24.475)"/><path class="ax" d="M614.021,147.5H561.986a.739.739,0,0,1-.736-.739V101a.736.736,0,0,1,.736-.736h52.035a.734.734,0,0,1,.736.732v45.772a.739.739,0,0,1-.734.739Zm-51.3-1.475h50.557V101.735H562.725Z" transform="translate(-428.357 -76.521)"/><path class="ar" d="M748.252,133.946H736.16V100.28h12.09Zm-10.615-1.478h9.14V101.753h-9.14Z" transform="translate(-561.851 -76.535)"/><rect class="ay" width="7.906" height="12.017" transform="translate(177.759 43.967)"/><path class="ar" d="M757.352,196.43H748.29V183.26h9.062Zm-7.911-1.155H756.2V184.418h-6.755Z" transform="translate(-571.109 -139.867)"/><rect class="ay" width="38.401" height="12.017" transform="translate(133.63 43.967)"/><path class="ar" d="M601.542,196.43H562V183.26h39.542Zm-38.394-1.155h37.236V184.418H563.137Z" transform="translate(-428.929 -139.867)"/><rect class="az" width="7.906" height="12.017" transform="translate(177.759 28.639)"/><path class="ar" d="M757.352,131.67H748.29V118.51h9.062Zm-7.911-1.155H756.2V119.658h-6.755Z" transform="translate(-571.109 -90.449)"/><path class="ba" d="M564.38,120.95h38.4v12.014h-38.4" transform="translate(-430.746 -92.313)"/><path class="ar" d="M603.357,131.68H564.38v-1.153H602.2V119.665H564.38V118.51h38.977Z" transform="translate(-430.746 -90.449)"/><path class="ax" d="M740.46,132.855h-1.475v-31.12H725.95V100.26h14.51Z" transform="translate(-554.059 -76.521)"/><rect class="ax" width="1.475" height="31.04" transform="translate(132.893 24.965)"/><rect class="d" width="41.415" height="15.431" transform="translate(133.63 70.246)"/><path class="ax" d="M603.437,310.462h-41.42a.727.727,0,0,1-.727-.729V294.3a.732.732,0,0,1,.727-.732h41.42a.734.734,0,0,1,.732.732v15.431A.734.734,0,0,1,603.437,310.462ZM562.749,309H602.7v-13.97H562.749Z" transform="translate(-428.387 -224.059)"/><path class="ar" d="M614.742,298.215H561.23V293.55h53.512Zm-52.033-1.48h50.557V295.02H562.71Z" transform="translate(-428.341 -224.043)"/><rect class="ax" width="1.475" height="8.761" transform="translate(132.893 70.242)"/><rect class="d" width="10.615" height="15.431" transform="translate(175.05 70.246)"/><path class="ar" d="M747.547,310.462H736.932a.729.729,0,0,1-.732-.729h0V294.3a.732.732,0,0,1,.732-.732h10.615a.734.734,0,0,1,.732.732v15.431A.734.734,0,0,1,747.547,310.462ZM737.663,309h9.144v-13.97h-9.144Z" transform="translate(-561.882 -224.059)"/><rect class="ax" width="1.475" height="12.017" transform="translate(184.926 73.631)"/><path class="ar" d="M757.164,320.733H752.09V307h5.074Zm-3.6-1.478h2.119V308.48h-2.119Z" transform="translate(-574.009 -234.309)"/><rect class="bb" width="14.096" height="12.242" transform="translate(138.33 73.432)"/><path class="ar" d="M596.663,349.171H581.09V344.26h15.573Zm-14.1-1.478h12.62v-1.946h-12.62Z" transform="translate(-443.499 -262.746)"/><rect class="bc" width="11.311" height="12.242" transform="translate(156.661 73.432)"/><path class="ar" d="M596.663,320.733H581.09V307h15.573Zm-14.1-1.478h12.62V308.48h-12.62Z" transform="translate(-443.499 -234.309)"/><path class="ar" d="M671.306,320.733H658.52V307h12.786Zm-11.313-1.478h9.838V308.48h-9.838Z" transform="translate(-502.595 -234.309)"/><path class="b" d="M766.48,345.555a5.285,5.285,0,0,1,2.131-4.025,4.712,4.712,0,0,1,3.954-.912,3.836,3.836,0,0,1,2.813,2.818,2.273,2.273,0,0,1,3.012-.133,2.542,2.542,0,0,1,1.1,2.119" transform="translate(-584.992 -259.881)"/><path class="b" d="M534.535,344.822a1.854,1.854,0,0,1,3.514-.98,4.186,4.186,0,0,1,5.875-3.992,2.563,2.563,0,0,1,1.5,2.508,4.519,4.519,0,0,1-.594,2.278" transform="translate(-407.961 -259.107)"/><rect class="d" width="63.209" height="13.572" transform="translate(128.044 56.67)"/><path class="ax" d="M601.376,251.139H538.156a.8.8,0,0,1-.8-.793v-13.57a.8.8,0,0,1,.8-.8h63.221a.793.793,0,0,1,.8.8v13.572a.793.793,0,0,1-.8.791Zm-62.413-1.586h61.62V237.569H538.961Z" transform="translate(-410.123 -180.105)"/><path class="bd" d="M582.45,60.2a16.915,16.915,0,0,1,2.9-.206,4.61,4.61,0,0,1,2.9.76,2.766,2.766,0,0,1,1.013,2.195,3.014,3.014,0,0,1-.874,2.254,4.39,4.39,0,0,1-3.078,1,5.416,5.416,0,0,1-.732-.043v3.388h-2.117Zm2.117,4.293a3.177,3.177,0,0,0,.71.054c1.139,0,1.854-.573,1.854-1.546,0-.871-.606-1.392-1.676-1.392a3.689,3.689,0,0,0-.883.085Z" transform="translate(-444.537 -45.787)"/><path class="bd" d="M624.224,64.452c0,3.109-1.894,4.994-4.655,4.994-2.813,0-4.459-2.117-4.459-4.823,0-2.841,1.814-4.972,4.615-4.972C622.635,59.655,624.224,61.835,624.224,64.452Zm-6.85.128c0,1.854.874,3.163,2.309,3.163s2.268-1.38,2.268-3.223c0-1.7-.817-3.163-2.294-3.163S617.374,62.738,617.374,64.58Z" transform="translate(-469.464 -45.527)"/><path class="bd" d="M659.55,60.33h2.15v7.679h3.77v1.8h-5.92Z" transform="translate(-503.381 -46.045)"/><path class="bd" d="M692.055,60.33V69.8H689.9V60.33Z" transform="translate(-526.545 -46.045)"/><path class="bd" d="M712.392,69.087a6.047,6.047,0,0,1-2.42.419c-3.275,0-4.972-2.039-4.972-4.736a4.829,4.829,0,0,1,5.176-5.032,5.564,5.564,0,0,1,2.337.424l-.438,1.7a4.6,4.6,0,0,0-1.8-.353,3.117,3.117,0,0,0,.014,6.232,5.394,5.394,0,0,0,1.785-.31Z" transform="translate(-538.069 -45.592)"/><path class="bd" d="M747.812,65.823H744.32v2.252h3.9v1.757H742.17V60.36h5.851v1.757h-3.708v1.97h3.5Z" transform="translate(-566.438 -46.068)"/><path class="ar" d="M504.49,284.637c.836-.081.931-.355.862-.928a17.354,17.354,0,0,0-1.269-3.078c-1.073-2.354-.62-5.1,0-7.613a31.034,31.034,0,0,0,1.077-5.247,7.326,7.326,0,0,0-.909-4.317,9.014,9.014,0,0,0-1.852-2.576c-.492-.447-2.275-1.148-1.513.265,1.693,3.152,2.271,5.844,1.165,9.182-.6,1.816-1.565,3.535-2.155,5.335-.668,2.036-.71,4.518-1.044,6.63a2.843,2.843,0,0,0-.028,1.366C499.281,285,502.421,284.857,504.49,284.637Z" transform="translate(-380.654 -198.67)"/><path class="b" d="M488.477,250.2c.014-.081.026-.163.033-.249a3.445,3.445,0,0,0-2.368-3.5,5.259,5.259,0,0,0,2.434-2.32,2.853,2.853,0,0,0-.419-3.178,2,2,0,0,0-2.974.218,3.078,3.078,0,0,0-1-3.708,2.326,2.326,0,0,0-3.381,1.184,2.983,2.983,0,0,0-1.122-3.033,2.822,2.822,0,0,0-4.3,1.151,2.758,2.758,0,0,0-4.8.331c-.2.372-1,3.178-.237,3.315a4.209,4.209,0,0,0-3.464.474c-1.009.793-1.444,2.853-.528,3.817a2.391,2.391,0,0,0-2.6,1.7,3.714,3.714,0,0,0,.639,3.627,2.665,2.665,0,0,0,1.894,3.232c1.21.206,2.382-.514,3.455-1.212-.142.092,1.615,1.058,1.811,1.094a5.208,5.208,0,0,0,2.1.017c1.366-.324,2.382-1.8,3.052-2.95a2.669,2.669,0,1,0,5.32.424,3.334,3.334,0,0,0,6.471-.429Z" transform="translate(-353.777 -179.398)"/><path class="be" d="M634.181,248.739l-.206,4.025a3.163,3.163,0,0,1-.995,2.15l-1.558,1.461a2.465,2.465,0,0,1-3.379-.014l-1.532-1.463a3.167,3.167,0,0,1-.976-2.1l-.237-4.044a1.421,1.421,0,0,1,1.338-1.513h6.121a1.421,1.421,0,0,1,1.437,1.421A.221.221,0,0,0,634.181,248.739Z" transform="translate(-477.238 -188.699)"/><path class="bf" d="M627.725,255.673a3.055,3.055,0,0,1-2.117-.852l-1.534-1.463a3.767,3.767,0,0,1-1.167-2.51l-.249-4.049a2.051,2.051,0,0,1,1.925-2.169h6.147a2.051,2.051,0,0,1,2.051,2.051v.1l-.194,4.025a3.77,3.77,0,0,1-1.184,2.574l-1.563,1.454A3.078,3.078,0,0,1,627.725,255.673Zm-3.031-9.8a.8.8,0,0,0-.8.793v.057l.249,4.049a2.515,2.515,0,0,0,.8,1.686l1.532,1.463a1.842,1.842,0,0,0,2.522,0l1.556-1.463a2.522,2.522,0,0,0,.8-1.726l.206-4.025a.8.8,0,0,0-.8-.841Z" transform="translate(-475.222 -186.707)"/><path class="bf" d="M577.09,360.238H492.169a.739.739,0,0,1,0-1.478H577.09a.739.739,0,1,1,0,1.478Z" transform="translate(-375.069 -273.813)"/><g class="aq" transform="translate(157.506 29.871)"><path class="d" d="M665.728,134.409a.523.523,0,0,1-.376-.154.533.533,0,0,1,0-.751h0l7.2-7.191a.532.532,0,1,1,.748.755l-7.184,7.2A.523.523,0,0,1,665.728,134.409Z" transform="translate(-665.197 -126.16)"/></g><g class="aq" transform="translate(161.733 29.895)"><path class="d" d="M683.58,134.483a.526.526,0,0,1-.53-.528.533.533,0,0,1,.156-.376l7.191-7.191a.53.53,0,0,1,.751.746l-7.193,7.2A.528.528,0,0,1,683.58,134.483Z" transform="translate(-683.05 -126.257)"/></g><g class="aq" transform="translate(158.031 45.166)"><path class="d" d="M667.943,199.006a.528.528,0,0,1-.374-.9h0l7.191-7.193a.529.529,0,0,1,.748.748l-7.193,7.205A.53.53,0,0,1,667.943,199.006Z" transform="translate(-667.414 -190.756)"/></g><g class="aq" transform="translate(162.255 45.168)"><path class="d" d="M685.783,199.009a.528.528,0,0,1-.374-.9h0l7.193-7.193a.528.528,0,0,1,.746.748l-7.189,7.205A.528.528,0,0,1,685.783,199.009Z" transform="translate(-685.254 -190.759)"/></g><g class="aq" transform="translate(140.754 74.363)"><path class="d" d="M594.98,318.7a.53.53,0,0,1-.53-.53.54.54,0,0,1,.156-.376l3.6-3.594a.53.53,0,0,1,.751.748l-3.6,3.6A.533.533,0,0,1,594.98,318.7Z" transform="translate(-594.45 -314.057)"/></g><g class="aq" transform="translate(142.554 75.543)"><path class="d" d="M602.578,323.689a.531.531,0,0,1-.372-.907l3.594-3.594a.53.53,0,0,1,.751.748l-3.6,3.6A.533.533,0,0,1,602.578,323.689Z" transform="translate(-602.05 -319.047)"/></g><g class="aq" transform="translate(158.929 74.238)"><path class="d" d="M671.739,318.182a.53.53,0,0,1-.377-.9l3.6-3.6a.53.53,0,0,1,.784.71l-.038.036-3.6,3.6A.53.53,0,0,1,671.739,318.182Z" transform="translate(-671.208 -313.535)"/></g><g class="aq" transform="translate(160.718 75.393)"><path class="d" d="M679.29,323.08a.528.528,0,0,1-.53-.528.54.54,0,0,1,.154-.374l3.6-3.6a.53.53,0,1,1,.748.751l-3.6,3.594A.53.53,0,0,1,679.29,323.08Z" transform="translate(-678.76 -318.408)"/></g><rect class="ax" width="1.475" height="8.761" transform="translate(184.926 70.242)"/><rect class="ar" width="1.475" height="11.979" transform="translate(172.746 57.465)"/></g></g><g transform="translate(434.744 92.168)"><g transform="translate(248.023 2489.332)"><g class="br" transform="matrix(1, 0, 0, 1, -6, -99.95)"><path class="bg" d="M307.992,655.51c-12.252,1.992-24.4,7.738-31.648,18.174-6.912,9.976-6.5,21.5-4.514,32.99a4.215,4.215,0,0,0,1.183,2.666c1.177.945,2.9.4,4.278-.232,10.285-4.769,19.87-11.588,24.826-22.082a1.373,1.373,0,0,0-.484-1.848l-7.715-3.759a40.878,40.878,0,0,1,8.106.69,1.373,1.373,0,0,0,1.66-1.66,30.367,30.367,0,0,1,5.845-22.956C310.3,656.432,309.007,655.333,307.992,655.51Z" transform="translate(-229.81 -555.54)"/></g><g class="bq" transform="matrix(1, 0, 0, 1, -6, -99.95)"><path class="bg" d="M331.777,875.288l-11.285-3.472a1.37,1.37,0,0,0-1.522.619l-3.224,5.481V873.8a1.355,1.355,0,0,0-1.351-1.351c-9.389,1.245-17.591,9.286-21.308,18.055-.461,1.083,1.383,2.167,2.257,2.167,17.543,4.3,28.05-7.841,36.468-14.8C332.763,877.077,333.153,875.714,331.777,875.288Z" transform="translate(-245.02 -702.08)"/></g><g class="bp" transform="matrix(1, 0, 0, 1, -6, -99.95)"><path class="bg" d="M185.771,859.866c-3.224-2.212-7.364-4.4-11.285-4.943a19.574,19.574,0,0,0-6.181.132c-.9.168-5.007,2.157-5.526,1.935,4.291,1.831,8.176,5.252,9.556,9.795,1.48,4.872,4.046,9.027,8.966,10.962,4.111,1.592,9.253,1.161,11.417-3.189C195.544,868.894,190.082,862.82,185.771,859.866Z" transform="translate(-156.78 -690.55)"/></g><g class="bo" transform="matrix(1, 0, 0, 1, -6, -99.95)"><path class="bg" d="M175.463,712.686c-.919-.409-2.486.3-1.98,1.522a54.407,54.407,0,0,1,3.588,13.067c.119.854.032,2.731.471,3.443.529.861,1.934.993,2.944,1.241a69.176,69.176,0,0,0,8,1.318l-7.838,2.322a6.01,6.01,0,0,0-2.508,1.2c-3.14,2.992,2.012,11.214,3.975,13.632,3.176,3.918,8.093,7.054,13.306,5.716,5.294-1.361,7.8-7.028,7.967-12.084C203.926,727.93,188.285,718.37,175.463,712.686Z" transform="translate(-163.97 -594.21)"/></g><g class="bn" transform="matrix(1, 0, 0, 1, -6, -99.95)"><rect class="bg" width="50.368" height="9.621" transform="translate(18.37 199.93)"/></g><g class="bm" transform="matrix(1, 0, 0, 1, -6, -99.95)"><path class="bg" d="M201.16,993.7v9.821a25.258,25.258,0,0,0,25.184,25.184h0a25.258,25.258,0,0,0,25.184-25.184V993.7Z" transform="translate(-182.79 -784.7)"/></g><g class="bl" transform="matrix(1, 0, 0, 1, -6, -99.95)"><path class="bg" d="M270.651,805.445a.948.948,0,0,1-.935-.8c-3.869-24.055.048-49.294,11.633-75.023a.951.951,0,0,1,1.731.78c-11.43,25.384-15.3,50.258-11.488,73.94a.967.967,0,0,1-.787,1.089Z" transform="translate(-228.26 -605.42)"/></g><g class="bk" transform="matrix(1, 0, 0, 1, -6, -99.95)"><path class="bg" d="M275.526,923.826a.951.951,0,0,1-.861-1.351,45.275,45.275,0,0,1,18.033-19.7.953.953,0,0,1,.967,1.641,43.362,43.362,0,0,0-17.272,18.868A.945.945,0,0,1,275.526,923.826Z" transform="translate(-232.53 -723)"/></g><g class="bj" transform="matrix(1, 0, 0, 1, -6, -99.95)"><path class="bg" d="M238.872,910.4a.967.967,0,0,1-.9-.645,72.2,72.2,0,0,0-15.5-26.712.952.952,0,1,1,1.4-1.29,74.074,74.074,0,0,1,15.911,27.405.948.948,0,0,1-.616,1.193A.909.909,0,0,1,238.872,910.4Z" transform="translate(-197.05 -708.64)"/></g><g class="bi" transform="matrix(1, 0, 0, 1, -6, -99.95)"><path class="bg" d="M240.581,840.326a.967.967,0,0,1-.925-.754c-3.166-15.154-7.757-34.3-15.253-48.256a.948.948,0,0,1,1.67-.9c7.612,14.164,12.252,33.5,15.44,48.762a.967.967,0,0,1-.735,1.125A1,1,0,0,1,240.581,840.326Z" transform="translate(-198.46 -646.62)"/></g><g class="bh" transform="matrix(1, 0, 0, 1, -6, -99.95)"><rect class="bg" width="50.368" height="2.215" transform="translate(18.37 204.74)"/></g></g><g transform="translate(248.023 2489.332)"><path class="ap" d="M307.992,655.51c-12.252,1.992-24.4,7.738-31.648,18.174-6.912,9.976-6.5,21.5-4.514,32.99a4.215,4.215,0,0,0,1.183,2.666c1.177.945,2.9.4,4.278-.232,10.285-4.769,19.87-11.588,24.826-22.082a1.373,1.373,0,0,0-.484-1.848l-7.715-3.759a40.878,40.878,0,0,1,8.106.69,1.373,1.373,0,0,0,1.66-1.66,30.367,30.367,0,0,1,5.845-22.956C310.3,656.432,309.007,655.333,307.992,655.51Z" transform="translate(-235.813 -655.491)"/><path class="ap" d="M331.777,875.288l-11.285-3.472a1.37,1.37,0,0,0-1.522.619l-3.224,5.481V873.8a1.355,1.355,0,0,0-1.351-1.351c-9.389,1.245-17.591,9.286-21.308,18.055-.461,1.083,1.383,2.167,2.257,2.167,17.543,4.3,28.05-7.841,36.468-14.8C332.763,877.077,333.153,875.714,331.777,875.288Z" transform="translate(-251.024 -802.039)"/><path class="ap" d="M185.771,859.866c-3.224-2.212-7.364-4.4-11.285-4.943a19.574,19.574,0,0,0-6.181.132c-.9.168-5.007,2.157-5.526,1.935,4.291,1.831,8.176,5.252,9.556,9.795,1.48,4.872,4.046,9.027,8.966,10.962,4.111,1.592,9.253,1.161,11.417-3.189C195.544,868.894,190.082,862.82,185.771,859.866Z" transform="translate(-162.78 -790.499)"/><path class="ap" d="M175.463,712.686c-.919-.409-2.486.3-1.98,1.522a54.407,54.407,0,0,1,3.588,13.067c.119.854.032,2.731.471,3.443.529.861,1.934.993,2.944,1.241a69.176,69.176,0,0,0,8,1.318l-7.838,2.322a6.01,6.01,0,0,0-2.508,1.2c-3.14,2.992,2.012,11.214,3.975,13.632,3.176,3.918,8.093,7.054,13.306,5.716,5.294-1.361,7.8-7.028,7.967-12.084C203.926,727.93,188.285,718.37,175.463,712.686Z" transform="translate(-169.966 -694.166)"/><rect class="l" width="50.368" height="9.621" transform="translate(12.375 99.978)"/><path class="l" d="M201.16,993.7v9.821a25.258,25.258,0,0,0,25.184,25.184h0a25.258,25.258,0,0,0,25.184-25.184V993.7Z" transform="translate(-188.786 -884.656)"/><path class="l" d="M270.651,805.445a.948.948,0,0,1-.935-.8c-3.869-24.055.048-49.294,11.633-75.023a.951.951,0,0,1,1.731.78c-11.43,25.384-15.3,50.258-11.488,73.94a.967.967,0,0,1-.787,1.089Z" transform="translate(-234.26 -705.377)"/><path class="l" d="M275.526,923.826a.951.951,0,0,1-.861-1.351,45.275,45.275,0,0,1,18.033-19.7.953.953,0,0,1,.967,1.641,43.362,43.362,0,0,0-17.272,18.868A.945.945,0,0,1,275.526,923.826Z" transform="translate(-238.532 -822.955)"/><path class="l" d="M238.872,910.4a.967.967,0,0,1-.9-.645,72.2,72.2,0,0,0-15.5-26.712.952.952,0,1,1,1.4-1.29,74.074,74.074,0,0,1,15.911,27.405.948.948,0,0,1-.616,1.193A.909.909,0,0,1,238.872,910.4Z" transform="translate(-203.055 -808.596)"/><path class="l" d="M240.581,840.326a.967.967,0,0,1-.925-.754c-3.166-15.154-7.757-34.3-15.253-48.256a.948.948,0,0,1,1.67-.9c7.612,14.164,12.252,33.5,15.44,48.762a.967.967,0,0,1-.735,1.125A1,1,0,0,1,240.581,840.326Z" transform="translate(-204.459 -746.577)"/><rect class="f" width="50.368" height="2.215" transform="translate(12.375 104.789)"/></g></g></g></svg>