<svg xmlns="http://www.w3.org/2000/svg" xmlns:xlink="http://www.w3.org/1999/xlink" width="404.927" height="237.957" viewBox="0 0 404.927 237.957"><defs><style>.a{fill:#3a3a65;}.b{fill:url(#a);}.c{fill:#ff6870;}.d{fill:#e35d63;}.e{opacity:0.068;fill:url(#b);}.f{fill:#cbe9ff;}.g{fill:none;stroke:#cbe9ff;stroke-miterlimit:10;stroke-width:4.19px;}.h{fill:url(#c);}.i{fill:url(#d);}.j{fill:url(#e);}.k{fill:url(#f);}.l{fill:url(#g);}.m{fill:url(#h);}.n{fill:#30305c;}.o{fill:url(#i);}.p{fill:#35e5bc;}.bn,.q{fill:#161643;}.r{fill:#00c0b7;}.s{fill:url(#k);}.t{fill:#e19271;}.u{fill:#e89976;}.v{fill:#1f2b36;}.w{fill:url(#l);}.x{fill:#1a8cff;}.y{fill:#80bfff;}.z{fill:#f7f9ff;}.aa{opacity:0.45;}.ab{fill:#fff;}.ac{fill:#2960f5;}.ad{fill:#ea9d7d;}.ae{fill:#cc7a5e;}.af,.an,.ao{opacity:0.1;}.af{fill:url(#m);}.ag{fill:#9ed3fd;}.ah,.au{fill:#1c1c48;}.ai{fill:url(#n);}.aj{fill:#cf7653;}.ak{fill:#e79a7a;}.al{fill:#c1e7ff;}.am{fill:#23235d;}.an{fill:url(#o);}.ao{fill:url(#p);}.ap{fill:#ba6858;}.aq{fill:#c12f4f;}.ar{fill:#ad203a;}.as{fill:url(#q);}.at{fill:#a9d9ff;}.au{opacity:0.848;}.av{fill:url(#r);}.aw{fill:#71a1bf;}.ax{fill:#94cbed;}.ay{fill:url(#s);}.az{fill:url(#t);}.ba{opacity:0.103;fill:url(#u);}.bb{fill:#2148ff;}.bc{fill:#002cfa;}.bd{fill:url(#v);}.be{fill:url(#w);}.bf{fill:url(#x);}.bg{fill:#db8a6b;}.bh{fill:#b76349;}.bi{fill:#7a3e2b;}.bj{fill:#b4603f;}.bk{fill:#4f2b23;}.bl{fill:#22244f;}.bm{fill:#80b2f7;}.bn{opacity:0.168;}.bo{fill:url(#z);}.bp{fill:url(#aa);}.bq{fill:#106576;}.br{opacity:0.523;}.bs{fill:#00a29a;}.bt{fill:#121255;}.bu{fill:#1bdbae;}</style><linearGradient id="a" y1="0.32" x2="1" y2="0.32" gradientUnits="objectBoundingBox"><stop offset="0" stop-color="#1a8cff"/><stop offset="0.72" stop-color="#2960f5"/></linearGradient><linearGradient id="b" y1="0.894" x2="1" y2="0.894" gradientUnits="objectBoundingBox"><stop offset="0" stop-color="#fff"/><stop offset="1" stop-color="#cbe9ff"/></linearGradient><linearGradient id="c" y1="-2.576" x2="1" y2="-2.576" gradientUnits="objectBoundingBox"><stop offset="0" stop-color="#2960f5"/><stop offset="0.08" stop-color="#2076e7"/><stop offset="0.22" stop-color="#1491d6"/><stop offset="0.36" stop-color="#0ba6c8"/><stop offset="0.52" stop-color="#05b5be"/><stop offset="0.71" stop-color="#01bdb9"/><stop offset="1" stop-color="#00c0b7"/></linearGradient><linearGradient id="d" x1="0" y1="-4.368" x2="1" y2="-4.368" xlink:href="#c"/><linearGradient id="e" x1="0" y1="-12.072" x2="1" y2="-12.072" xlink:href="#c"/><linearGradient id="f" y1="-10.621" x2="1" y2="-10.621" gradientUnits="objectBoundingBox"><stop offset="0" stop-color="#00c0b7"/><stop offset="0.29" stop-color="#01bdb9"/><stop offset="0.48" stop-color="#05b5be"/><stop offset="0.64" stop-color="#0ba6c8"/><stop offset="0.78" stop-color="#1491d6"/><stop offset="0.92" stop-color="#2076e7"/><stop offset="1" stop-color="#2960f5"/></linearGradient><linearGradient id="g" x1="0" y1="-3.91" x2="1" y2="-3.91" xlink:href="#f"/><linearGradient id="h" x1="0.5" x2="0.5" y2="1" gradientUnits="objectBoundingBox"><stop offset="0" stop-color="#256bf7"/><stop offset="1" stop-color="#274bf0"/></linearGradient><linearGradient id="i" x1="0.5" x2="0.5" y2="1" gradientUnits="objectBoundingBox"><stop offset="0" stop-color="#00c0b7"/><stop offset="1" stop-color="#00605c"/></linearGradient><linearGradient id="k" x1="0.5" x2="0.5" y2="1" gradientUnits="objectBoundingBox"><stop offset="0" stop-color="#2569f6"/><stop offset="1" stop-color="#13357b"/></linearGradient><linearGradient id="l" x1="20.931" y1="10.026" x2="20.931" y2="10.515" gradientUnits="objectBoundingBox"><stop offset="0" stop-color="#cc7a5e" stop-opacity="0"/><stop offset="0.92" stop-color="#aa5f4b"/></linearGradient><linearGradient id="m" x1="-21.439" y1="12.889" x2="-20.872" y2="12.889" gradientUnits="objectBoundingBox"><stop offset="0" stop-color="#5b1219" stop-opacity="0"/><stop offset="0.43" stop-color="#5b1219" stop-opacity="0.031"/><stop offset="0.65" stop-color="#5b1219" stop-opacity="0.11"/><stop offset="0.83" stop-color="#5b1219" stop-opacity="0.259"/><stop offset="0.98" stop-color="#5b1219" stop-opacity="0.471"/><stop offset="1" stop-color="#5b1219" stop-opacity="0.502"/></linearGradient><linearGradient id="n" x1="33.555" y1="7.183" x2="33.494" y2="8.045" gradientUnits="objectBoundingBox"><stop offset="0" stop-color="#5b1219" stop-opacity="0"/><stop offset="0.16" stop-color="#5b1219" stop-opacity="0.078"/><stop offset="1" stop-color="#5b1219" stop-opacity="0.502"/></linearGradient><linearGradient id="o" x1="17.041" y1="-5.071" x2="16.961" y2="-4.163" xlink:href="#n"/><linearGradient id="p" x1="0.513" y1="-4.957" x2="0.434" y2="-4.068" xlink:href="#n"/><linearGradient id="q" x1="-0.107" y1="27.096" x2="-0.082" y2="26.111" gradientUnits="objectBoundingBox"><stop offset="0" stop-color="#7f0026" stop-opacity="0"/><stop offset="1" stop-color="#7f0026"/></linearGradient><linearGradient id="r" x1="9.426" y1="0.845" x2="10.426" y2="0.845" gradientUnits="objectBoundingBox"><stop offset="0" stop-color="#5b1219" stop-opacity="0"/><stop offset="0.28" stop-color="#5b1219" stop-opacity="0.051"/><stop offset="0.59" stop-color="#5b1219" stop-opacity="0.188"/><stop offset="0.87" stop-color="#5b1219" stop-opacity="0.4"/></linearGradient><linearGradient id="s" x1="-0.446" y1="20.479" x2="-1.009" y2="20.119" gradientUnits="objectBoundingBox"><stop offset="0.02" stop-color="#4f211e"/><stop offset="0.99" stop-color="#743529"/></linearGradient><linearGradient id="t" y1="3.293" x2="1" y2="3.293" gradientUnits="objectBoundingBox"><stop offset="0.19" stop-color="#743529"/><stop offset="0.47" stop-color="#5e2b21"/></linearGradient><linearGradient id="u" x1="-21.258" y1="11.272" x2="-20.457" y2="11.272" xlink:href="#m"/><linearGradient id="v" x1="0.242" y1="0.92" x2="0.633" y2="0.338" gradientUnits="objectBoundingBox"><stop offset="0" stop-color="#a9d9ff"/><stop offset="1" stop-color="#bfe7ff"/></linearGradient><linearGradient id="w" x1="1.07" y1="-0.054" x2="0.155" y2="0.87" gradientUnits="objectBoundingBox"><stop offset="0" stop-color="#dbf2ff"/><stop offset="1" stop-color="#bfe7ff"/></linearGradient><linearGradient id="x" x1="0" y1="6.39" x2="1" y2="6.39" xlink:href="#t"/><linearGradient id="z" y1="0.394" x2="1" y2="0.394" gradientUnits="objectBoundingBox"><stop offset="0" stop-color="#ff7a00"/><stop offset="0.01" stop-color="#a598d0"/><stop offset="1" stop-color="#fff"/></linearGradient><linearGradient id="aa" x1="0.5" x2="0.5" y2="0.688" gradientUnits="objectBoundingBox"><stop offset="0" stop-color="#3e4189"/><stop offset="1" stop-color="#1f2145"/></linearGradient></defs><g transform="translate(0.004 -179.533)"><path class="a" d="M47.371,248.42H0v3.153H47.371a1.913,1.913,0,0,1,1.911,1.913V458.159a1.913,1.913,0,0,1-1.911,1.911H0v3.156H47.371a5.062,5.062,0,0,0,5.062-5.062V253.487a5.062,5.062,0,0,0-5.062-5.062Z" transform="translate(-0.004 -55.671)"/><path class="b" d="M46.536,259.1H0V469.067l46.462.481a3.892,3.892,0,0,0,3.968-3.816V262.992a3.9,3.9,0,0,0-3.892-3.892Z" transform="translate(-0.004 -63.648)"/><rect class="c" width="404.912" height="12.072" transform="translate(0.012 405.419)"/><rect class="d" width="162.234" height="7.187" rx="3.594" transform="translate(116.125 407.117)"/><g transform="translate(74.209 179.533)"><path class="e" d="M7.736,0H126.154a7.736,7.736,0,0,1,7.736,7.736V138.878a7.736,7.736,0,0,1-7.736,7.736H7.736A7.736,7.736,0,0,1,0,138.878V7.736A7.736,7.736,0,0,1,7.736,0Z" transform="translate(0 0)"/><path class="f" d="M503.22,491.438H460.45V456.26h42.77ZM461.6,490.286h40.467v-32.88H461.6Z" transform="translate(-431.822 -390.445)"/><path class="f" d="M585.076,491.78H577.81V478h7.266Zm-6.114-1.151h4.97V479.136h-4.97Z" transform="translate(-519.481 -406.683)"/><path class="f" d="M585.076,513.777H577.81V507.45h7.266Zm-6.114-1.152h4.97V508.6h-4.97Z" transform="translate(-519.481 -428.68)"/><rect class="f" width="1.151" height="5.011" transform="translate(59.792 79.342)"/><rect class="f" width="1.151" height="5.011" transform="translate(61.386 79.342)"/><rect class="f" width="1.151" height="5.011" transform="translate(62.884 79.342)"/><path class="f" d="M537.856,491.78H530.59V478h7.266Zm-6.114-1.151H536.7V479.136h-4.963Z" transform="translate(-484.211 -406.683)"/><path class="f" d="M537.856,513.777H530.59V507.45h7.266Zm-6.114-1.152H536.7V508.6h-4.963Z" transform="translate(-484.211 -428.68)"/><rect class="f" width="1.151" height="5.011" transform="translate(47.841 79.342)"/><rect class="f" width="1.151" height="5.011" transform="translate(49.436 79.342)"/><rect class="f" width="1.151" height="5.011" transform="translate(50.934 79.342)"/><path class="f" d="M535.221,550.771H523.23v-14.9h11.991Zm-10.839-1.151h9.688v-12.6h-9.688Z" transform="translate(-478.714 -449.908)"/><path class="f" d="M490.636,491.78H483.37V478h7.266Zm-6.114-1.151h4.963V479.136h-4.963Z" transform="translate(-448.942 -406.683)"/><path class="f" d="M490.636,513.777H483.37V507.45h7.266Zm-6.114-1.152h4.963V508.6h-4.963Z" transform="translate(-448.942 -428.68)"/><rect class="f" width="1.151" height="5.011" transform="translate(35.891 79.342)"/><rect class="f" width="1.151" height="5.011" transform="translate(37.486 79.342)"/><rect class="f" width="1.151" height="5.011" transform="translate(38.984 79.342)"/><path class="f" d="M501.088,448H456.6V443.66h44.488Zm-43.339-1.151h42.188v-2.025H457.749Z" transform="translate(-428.947 -381.034)"/><path class="f" d="M500.769,418.4H456l3.217-10.029h38.657Zm-43.314-1.06h41.9l-2.278-7.909H459.991Z" transform="translate(-428.498 -354.675)"/><line class="g" x1="1.923" y2="8.488" transform="translate(30.799 54.234)"/><line class="g" x1="1.602" y2="8.488" transform="translate(33.988 54.234)"/><line class="g" x1="1.281" y2="8.488" transform="translate(37.174 54.234)"/><line class="g" x1="0.962" y2="8.488" transform="translate(40.361 54.234)"/><line class="g" x1="0.64" y2="8.488" transform="translate(43.549 54.234)"/><line class="g" x1="0.321" y2="8.488" transform="translate(46.735 54.234)"/><line class="g" y2="8.488" transform="translate(49.924 54.234)"/><line class="g" x2="0.319" y2="8.488" transform="translate(52.792 54.234)"/><line class="g" x2="0.643" y2="8.488" transform="translate(55.656 54.234)"/><line class="g" x2="0.962" y2="8.488" transform="translate(58.524 54.234)"/><line class="g" x2="1.281" y2="8.488" transform="translate(61.391 54.234)"/><line class="g" x2="1.602" y2="8.488" transform="translate(64.258 54.234)"/><line class="g" x2="1.921" y2="8.488" transform="translate(67.126 54.234)"/><path class="f" d="M672.02,451.208H629.25V402.4h42.77ZM630.4,450.057h40.469V403.564H630.4Z" transform="translate(-557.903 -350.216)"/><path class="f" d="M753.876,491.78H746.61V478h7.266Zm-6.114-1.151h4.963V479.136h-4.963Z" transform="translate(-645.562 -406.683)"/><path class="f" d="M753.876,513.777H746.61V507.45h7.266Zm-6.114-1.152h4.963V508.6h-4.963Z" transform="translate(-645.562 -428.68)"/><rect class="f" width="1.151" height="5.011" transform="translate(102.511 79.342)"/><rect class="f" width="1.151" height="5.011" transform="translate(104.105 79.342)"/><rect class="f" width="1.151" height="5.011" transform="translate(105.606 79.342)"/><path class="f" d="M703.878,538.453H691.73V519.27h12.148Zm-10.839-1.314h9.526V520.581h-9.526Z" transform="translate(-604.571 -437.509)"/><path class="f" d="M659.436,491.78H652.17V478h7.266Zm-6.114-1.151h4.963V479.136h-4.963Z" transform="translate(-575.023 -406.683)"/><path class="f" d="M659.436,513.777H652.17V507.45h7.266Zm-6.114-1.152h4.963V508.6h-4.963Z" transform="translate(-575.023 -428.68)"/><rect class="f" width="1.151" height="5.011" transform="translate(78.61 79.342)"/><rect class="f" width="1.151" height="5.011" transform="translate(80.205 79.342)"/><rect class="f" width="1.151" height="5.011" transform="translate(81.705 79.342)"/><path class="f" d="M669.888,394.175H625.4V389.83h44.488Zm-43.324-1.164h42.172v-2.025H626.564Z" transform="translate(-555.027 -340.827)"/><path class="f" d="M669.569,364.6H624.8l3.217-10.029h38.657Zm-43.314-1.063h41.9l-2.278-7.909H628.791Z" transform="translate(-554.579 -314.49)"/><line class="g" x1="1.923" y2="8.491" transform="translate(73.519 40.608)"/><line class="g" x1="1.602" y2="8.491" transform="translate(76.707 40.608)"/><line class="g" x1="1.283" y2="8.491" transform="translate(79.893 40.608)"/><line class="g" x1="0.959" y2="8.491" transform="translate(83.082 40.608)"/><line class="g" x1="0.64" y2="8.491" transform="translate(86.268 40.608)"/><line class="g" x1="0.319" y2="8.491" transform="translate(89.457 40.608)"/><line class="g" y2="8.491" transform="translate(92.643 40.608)"/><line class="g" x2="0.319" y2="8.491" transform="translate(95.511 40.608)"/><line class="g" x2="0.64" y2="8.491" transform="translate(98.378 40.608)"/><line class="g" x2="0.962" y2="8.491" transform="translate(101.243 40.608)"/><line class="g" x2="1.283" y2="8.491" transform="translate(104.11 40.608)"/><line class="g" x2="1.602" y2="8.491" transform="translate(106.978 40.608)"/><line class="g" x2="1.923" y2="8.491" transform="translate(109.845 40.608)"/><path class="f" d="M661.542,426.543H656.43V417.89h5.112Zm-3.956-1.151H660.4v-6.35h-2.812Z" transform="translate(-578.204 -361.786)"/><path class="f" d="M708.762,426.543H703.65V417.89h5.112Zm-3.963-1.151h2.812v-6.35H704.8Z" transform="translate(-613.474 -361.786)"/><path class="f" d="M755.982,426.543H750.87V417.89h5.112Zm-3.963-1.151h2.812v-6.35h-2.812Z" transform="translate(-648.744 -361.786)"/><path class="f" d="M661.542,420.609H656.43V416.37h5.112Zm-3.956-1.151H660.4v-1.936h-2.812Z" transform="translate(-578.204 -360.65)"/><path class="f" d="M708.762,420.609H703.65V416.37h5.112Zm-3.963-1.151h2.812v-1.936H704.8Z" transform="translate(-613.474 -360.65)"/><path class="f" d="M708.762,486.9H703.65V478.25h5.112Zm-3.963-1.151h2.812V479.4H704.8Z" transform="translate(-613.474 -406.87)"/><path class="f" d="M708.762,480.969H703.65V476.73h5.112Zm-3.963-1.151h2.812v-1.936H704.8Z" transform="translate(-613.474 -405.735)"/><path class="f" d="M755.982,420.609H750.87V416.37h5.112Zm-3.963-1.151h2.812v-1.936h-2.812Z" transform="translate(-648.744 -360.65)"/><path class="f" d="M538.694,565.618a1.162,1.162,0,0,0,.41-1.012,4.846,4.846,0,0,0-.559-1.4c-.759-1.7-.445-3.672,0-5.479a21.876,21.876,0,0,0,.774-3.776,5.251,5.251,0,0,0-.65-3.105,6.486,6.486,0,0,0-1.344-1.855c-.354-.319-1.635-.825-1.086.2a7.726,7.726,0,0,1,.838,6.608c-.43,1.308-1.126,2.531-1.551,3.837a33.734,33.734,0,0,0-.759,4.778,2.437,2.437,0,0,0-.023.984C535.09,566.678,537.94,566.321,538.694,565.618Z" transform="translate(-487.284 -459.399)"/><path class="f" d="M524.177,541.967a2.31,2.31,0,0,0-1.455-2.166,3.936,3.936,0,0,0-4.93-6c.537-1.478-3.457-3.239-4.419-.949a2.857,2.857,0,0,0-2.154-.85,2.657,2.657,0,0,0-2.025,1.078c-.18.253-.873,2.179-.213,2.278a4.536,4.536,0,0,0-3.017.324c-.878.544-1.265,1.951-.468,2.612a2.08,2.08,0,0,0-1.706,3.644c-.385.987.6,2.073,1.645,2.212a5.345,5.345,0,0,0,3.014-.83,3.356,3.356,0,0,0,3.8.387c1.012-.59,1.989-1.772,3.1-1.384.7.253,1.035,1.027,1.62,1.475a2.044,2.044,0,0,0,3.037-.891,2.34,2.34,0,0,0,3.675.478,2.065,2.065,0,0,0,.5-1.415Z" transform="translate(-463.636 -446.828)"/><path class="f" d="M625.3,552.3c-.218-.539-.7-1.129-.891-1.592a10.829,10.829,0,0,1-.721-5.021,44.392,44.392,0,0,1,1.265-5.6c.58-2.576.339-6.152-1.093-8.1-.283-.387-1.177-.463-.734.759a8.943,8.943,0,0,1,.714,4.907,47.779,47.779,0,0,1-1.392,5.18,26.928,26.928,0,0,0-.795,4.226c-.086.83,0,1.678-.091,2.5-.091.711-.428,1.349-.506,2.068a1.827,1.827,0,0,0,.506,1.541,2.734,2.734,0,0,0,1.713.481,3.876,3.876,0,0,0,1.172-.058C625.464,553.349,625.525,552.848,625.3,552.3Z" transform="translate(-551.768 -446.817)"/><path class="f" d="M616.324,518.556a5.674,5.674,0,0,0-4.808-1.668,5.982,5.982,0,0,1,3.361-1.465c.453-.048.785-.731.253-.972a4.67,4.67,0,0,0-6.522,2.594,5.659,5.659,0,0,0-6.669-2.356.544.544,0,0,0,.144,1.065c1.6.03,3.475.3,4.449,1.518a5.289,5.289,0,0,0-6.484,1.86c-.253.362.18.959.6.787a9.2,9.2,0,0,1,4.674-.979,5.611,5.611,0,0,0-4.216,4.692c-.081.544.7,1.012.984.415a6.967,6.967,0,0,1,4.454-3.8,5.034,5.034,0,0,0-1.364,3.958.549.549,0,0,0,1.1,0c.124-1.377.4-3.6,2.26-3.353,1.741.23,1.842,2.341,1.88,3.723a.529.529,0,0,0,1.035.139,5.229,5.229,0,0,0-.6-4.095,7.273,7.273,0,0,1,3.695,2.832c.253.382,1.028.288.959-.253a5.33,5.33,0,0,0-3.136-4.328,7.55,7.55,0,0,1,3.439.562C616.324,519.644,616.665,518.9,616.324,518.556Z" transform="translate(-536.035 -433.546)"/></g><path class="h" d="M1521.461,736.67c-7.516,1.22-14.957,4.735-19.4,11.135-4.239,6.112-3.983,13.175-2.761,20.218a2.59,2.59,0,0,0,.726,1.635c.721.577,1.771.253,2.622-.144,6.3-2.905,12.188-7.1,15.225-13.535a.839.839,0,0,0-.3-1.131l-4.763-2.3a24.975,24.975,0,0,1,4.968.425.842.842,0,0,0,1.012-.63.812.812,0,0,0,0-.382,18.654,18.654,0,0,1,3.584-14.071C1522.876,737.234,1522.084,736.569,1521.461,736.67Z" transform="translate(-1119.287 -420.349)"/><path class="i" d="M1529.583,812.642c-1.136,11.606-17.741,13.494-17.062,26.826l.453.076a9.333,9.333,0,0,0,3.4-.81,39.177,39.177,0,0,0,4.993-2.4c3.563-1.936,2.414-2.784,2.138-6.871l2.217,1.468a.833.833,0,0,0,1.131-.3,38.244,38.244,0,0,0,4.378-17.986A.827.827,0,0,0,1529.583,812.642Z" transform="translate(-1129.726 -476.505)"/><path class="j" d="M1532.862,905.549a.835.835,0,0,0-.931.382l-1.987,3.363v-2.531a.829.829,0,0,0-.825-.828c-5.755.759-10.784,5.692-13.061,11.069-.283.663.848,1.329,1.374,1.326,9.08,2.23,15.086-2.731,19.841-6.9v-4.528Q1535.069,906.224,1532.862,905.549Z" transform="translate(-1132.35 -546.476)"/><path class="k" d="M1428.419,895.353a17.522,17.522,0,0,0-6.9-3.037,12.015,12.015,0,0,0-3.8.081c-.552.1-3.07,1.321-3.389,1.184a10.082,10.082,0,0,1,5.859,6c.906,2.986,2.48,5.545,5.5,6.712,2.531.977,5.669.711,7-1.954C1434.419,900.885,1431.071,897.162,1428.419,895.353Z" transform="translate(-1056.401 -536.528)"/><path class="l" d="M1423.913,781.288c-.564-.253-1.519.187-1.215.934a33.179,33.179,0,0,1,2.2,8.007,7.505,7.505,0,0,0,.291,2.111c.324.529,1.189.61,1.8.759a42.848,42.848,0,0,0,4.9.81l-4.808,1.422a3.659,3.659,0,0,0-1.536.736c-1.926,1.832,1.232,6.871,2.437,8.351,1.946,2.4,4.958,4.323,8.154,3.5,3.244-.833,4.781-4.3,4.882-7.405C1441.357,790.632,1431.771,784.773,1423.913,781.288Z" transform="translate(-1062.608 -453.63)"/><path class="m" d="M1444.32,1000.74v6.018a15.483,15.483,0,0,0,15.438,15.438h0a15.481,15.481,0,0,0,15.438-15.438v-6.018Z" transform="translate(-1078.802 -617.597)"/><path class="n" d="M1498.187,840.73a.582.582,0,0,1-.574-.488c-2.369-14.742.03-30.212,7.132-45.981a.582.582,0,1,1,1.078.438.274.274,0,0,1-.018.04c-7.005,15.557-9.364,30.8-7.043,45.318a.582.582,0,0,1-.483.666Z" transform="translate(-1117.947 -463.089)"/><path class="n" d="M1502.53,901.923a.582.582,0,0,1-.582-.57,40.215,40.215,0,0,1,10.032-27.16.583.583,0,0,1,.871.774h0a39.016,39.016,0,0,0-9.738,26.363.58.58,0,0,1-.567.592Z" transform="translate(-1121.842 -522.931)"/><path class="n" d="M1502.268,942.675a.614.614,0,0,1-.253-.056.582.582,0,0,1-.278-.774,27.762,27.762,0,0,1,11.044-12.077.585.585,0,1,1,.585,1.012h0a26.574,26.574,0,0,0-10.591,11.566A.579.579,0,0,1,1502.268,942.675Z" transform="translate(-1121.646 -564.528)"/><path class="n" d="M1470.972,930.877a.585.585,0,0,1-.554-.4,44.22,44.22,0,0,0-9.5-16.351.582.582,0,1,1,.858-.787h0a45.367,45.367,0,0,1,9.751,16.794.582.582,0,0,1-.377.731A.6.6,0,0,1,1470.972,930.877Z" transform="translate(-1091.084 -552.17)"/><path class="n" d="M1472.232,872.289a.58.58,0,0,1-.567-.463c-1.941-9.278-4.755-21.023-9.348-29.574a.582.582,0,1,1,.931-.7.65.65,0,0,1,.081.149c4.664,8.68,7.506,20.532,9.463,29.886a.582.582,0,0,1-.451.688A.539.539,0,0,1,1472.232,872.289Z" transform="translate(-1092.156 -498.523)"/><path class="o" d="M232.779,886.391c-.17-1.7.253-3.561-.6-5.039-1.855-3.176-7.8-1.771-9.364-5.1-1.321-2.832,2.025-6.193.873-9.1-.666-1.68-2.548-2.45-4.163-3.262-4.755-2.4-6.4-6.2-8.253-11.191a13.564,13.564,0,0,1,11.373-1.012c3.915,1.3,5.656,3.665,7.319,7.435.521,1.182.947,2.508,2,3.247,1.916,1.341,4.808.028,6.785,1.265,1.86,1.156,1.893,3.862,1.308,5.973s-1.574,4.287-1,6.4c.759,2.822,3.983,4.282,5.272,6.909,1.131,2.308.759,6.18-1.265,7.739A6.4,6.4,0,0,1,232.779,886.391Z" transform="translate(-157.806 -505.675)"/><path class="o" d="M353.343,893.54c-.116.121-.23.253-.337.379-.63.759-1.192,1.587-2.24,1.673a12.571,12.571,0,0,0-3.009.311c-3.581,1.177-3.007,5.163-3.06,8.1a1.929,1.929,0,0,1-.185.967,1.54,1.54,0,0,1-1.238.62,11.8,11.8,0,0,0-1.437.066c-1.354.271-2.144,1.772-2.232,3.141a31.274,31.274,0,0,0,.418,4.118,4.511,4.511,0,0,1-.552,2.87,13.915,13.915,0,0,0-2.047,2.624,3.572,3.572,0,0,0,.091,3.5,4.012,4.012,0,0,0,3.085,1.443,10.052,10.052,0,0,0,4.535-.863,13.8,13.8,0,0,0,3.768-2.075,6.887,6.887,0,0,0,1.673-2.1,2.847,2.847,0,0,0,.253-2.321c-.463-1.675-1.951-3.634-1.012-5.4.612-1.156,2.025-1.572,3.247-2.025,1.847-.668,3.705-2.733,3.072-4.874a6.31,6.31,0,0,1-.638-2.075c.081-1.265,1.675-1.878,2.738-2.025a5.517,5.517,0,0,0,1.974-.43,4.538,4.538,0,0,0,1.665-2.278,3.687,3.687,0,0,1,1.817-2.131,1.694,1.694,0,0,0,.726-.337c.706-.759-1.663-1.984-2.121-2.235a7.357,7.357,0,0,0-8.944,1.339Z" transform="translate(-251.726 -535.803)"/><path class="p" d="M260.094,983.5a7.615,7.615,0,0,0-6.643.964,3.205,3.205,0,0,1,.706-3.242,5.13,5.13,0,0,1,3.082-1.5c4.35-.635,7.592,2.764,9.47,6.286a1.775,1.775,0,0,1,.286,1.306,1.126,1.126,0,0,1-1.078.731,1.845,1.845,0,0,1-1.243-.549c-.671-.625-.992-1.506-1.642-2.161A7.509,7.509,0,0,0,260.094,983.5Z" transform="translate(-189.173 -601.841)"/><path class="q" d="M257.142,903.074a.585.585,0,0,1-.577-.506c-2.485-20.975-21.387-34.5-21.577-34.641a.582.582,0,0,1,.668-.952,60.881,60.881,0,0,1,10.067,9.571c4.738,5.606,10.665,14.643,12,25.872a.582.582,0,0,1-.506.646Z" transform="translate(-175.354 -517.618)"/><path class="q" d="M330.672,860.682a.582.582,0,0,1-.582-.577h0c0-20.661,3.829-33.082,7.038-39.865,3.52-7.43,7.033-9.9,7.18-10a.582.582,0,0,1,.661.959h0c-.033.023-3.46,2.46-6.846,9.665-3.133,6.669-6.868,18.89-6.868,39.244a.582.582,0,0,1-.58.579Z" transform="translate(-246.556 -475.229)"/><path class="q" d="M361.142,933.591a.582.582,0,0,1-.582-.577h0c0-12.978,12.315-24.632,12.841-25.12a.582.582,0,0,1,.795.85c-.127.116-12.472,11.8-12.472,24.27a.582.582,0,0,1-.58.58Z" transform="translate(-269.315 -548.138)"/><path class="r" d="M388.557,794.648c.253-.056-.569,2.974-.706,3.227a5.79,5.79,0,0,1-2.361,2.4c-2.3,1.179-.853-2.622-.253-3.437A5.651,5.651,0,0,1,388.557,794.648Z" transform="translate(-286.996 -463.662)"/><path class="r" d="M380.733,822.074c.218.142-2.508,1.7-2.784,1.784a5.821,5.821,0,0,1-3.368.028c-2.465-.795,1.25-2.457,2.247-2.612A5.676,5.676,0,0,1,380.733,822.074Z" transform="translate(-279.167 -483.498)"/><path class="r" d="M365.687,798.624c.142-.218,1.7,2.505,1.771,2.784a5.821,5.821,0,0,1,.028,3.368c-.795,2.465-2.457-1.25-2.609-2.25A5.643,5.643,0,0,1,365.687,798.624Z" transform="translate(-272.488 -466.622)"/><path class="r" d="M367.937,841.83c.235.106-2.217,2.065-2.475,2.189a5.8,5.8,0,0,1-3.323.544c-2.559-.407.858-2.622,1.82-2.926A5.659,5.659,0,0,1,367.937,841.83Z" transform="translate(-269.798 -498.556)"/><path class="r" d="M349.769,822.562c.106-.238,2.065,2.214,2.189,2.473a5.8,5.8,0,0,1,.544,3.325c-.407,2.556-2.622-.858-2.926-1.822a5.651,5.651,0,0,1,.192-3.976Z" transform="translate(-260.908 -484.5)"/><path class="r" d="M356.5,866.173c.253.078-1.974,2.3-2.217,2.45a5.821,5.821,0,0,1-3.242.911c-2.586-.119.562-2.7,1.483-3.108A5.657,5.657,0,0,1,356.5,866.173Z" transform="translate(-261.46 -516.901)"/><path class="r" d="M336.1,850.451c.081-.253,2.3,1.972,2.45,2.214a5.77,5.77,0,0,1,.914,3.242c-.121,2.586-2.7-.559-3.11-1.483a5.651,5.651,0,0,1-.253-3.973Z" transform="translate(-250.863 -505.328)"/><path class="r" d="M350.068,895.943c.253.078-1.971,2.3-2.214,2.45a5.82,5.82,0,0,1-3.242.911c-2.586-.119.559-2.7,1.483-3.108A5.652,5.652,0,0,1,350.068,895.943Z" transform="translate(-256.656 -539.138)"/><path class="r" d="M329.673,880.221c.081-.253,2.3,1.971,2.45,2.214a5.82,5.82,0,0,1,.914,3.242c-.121,2.589-2.7-.559-3.11-1.483A5.651,5.651,0,0,1,329.673,880.221Z" transform="translate(-246.06 -527.564)"/><path class="r" d="M344.263,922.3c.253.045-1.665,2.531-1.888,2.711a5.822,5.822,0,0,1-3.1,1.313c-2.581.208.213-2.748,1.078-3.272A5.636,5.636,0,0,1,344.263,922.3Z" transform="translate(-252.618 -558.945)"/><path class="r" d="M321.413,911.1c.048-.253,2.531,1.665,2.71,1.888a5.793,5.793,0,0,1,1.316,3.1c.208,2.581-2.751-.215-3.272-1.081A5.664,5.664,0,0,1,321.413,911.1Z" transform="translate(-240.015 -550.627)"/><path class="r" d="M340.8,949.573c.253.048-1.665,2.531-1.888,2.71a5.786,5.786,0,0,1-3.1,1.316c-2.581.207.215-2.751,1.078-3.272A5.664,5.664,0,0,1,340.8,949.573Z" transform="translate(-250.035 -579.319)"/><path class="r" d="M317.953,938.382c.048-.253,2.531,1.665,2.71,1.888a5.785,5.785,0,0,1,1.316,3.1c.208,2.581-2.748-.215-3.272-1.078a5.664,5.664,0,0,1-.754-3.91Z" transform="translate(-237.43 -571.004)"/><path class="s" d="M294.17,1007.45h22.185v16.736a3.672,3.672,0,0,1-3.672,3.672h-14.84a3.672,3.672,0,0,1-3.672-3.672h0Z" transform="translate(-219.726 -622.609)"/><path class="t" d="M1038.914,468.548l1.012-1.344,1.693-2.87c.435-.719,1.883-8.744,1.883-8.744l-4.1-.071-3.156,4.522-.506,4.1Z" transform="translate(-773.623 -210.359)"/><path class="u" d="M1032.935,464.505c-1.518-.861-1.971-.569-1.971-.569l.18-.878c.172-.924.3-3.037.3-3.037a5.537,5.537,0,0,0,1.627-2.624,1.556,1.556,0,0,0-.352-1.336,17.166,17.166,0,0,0-2.9,2.784,5.235,5.235,0,0,0-.951,3.113,27.726,27.726,0,0,1,.177,3.206c0,1.24-.441,2.47,0,3.68a2.5,2.5,0,0,0,1.931,1.66,2.691,2.691,0,0,0,2.1-.8c.62-.585,1.519-1.6,1.379-2.5A3.661,3.661,0,0,0,1032.935,464.505Z" transform="translate(-768.474 -210.763)"/><path class="v" d="M1039.156,434.983l1.906-.334a.671.671,0,0,1,.779.542.7.7,0,0,1-.02.316l-3.543,11.459a.716.716,0,0,1-.592.471l-3.366.213,4.3-12.2a.694.694,0,0,1,.542-.466Z" transform="translate(-772.563 -194.762)"/><path class="w" d="M1037.55,481.318s-2.807,1.154-3.113.716a4.684,4.684,0,0,1-.367-1.944s4.1-1.47,4.3-.544C1038.459,479.86,1037.55,481.318,1037.55,481.318Z" transform="translate(-772.376 -228.076)"/><path class="x" d="M1041.338,431.744c-.876,2.66-2.055,5.623-2.969,8.268-.44,1.265-.737,3.166-1.772,4.049-1.091.936-2.969.42-4.3.914-.177.066.056.731.281.721,1.215-.061,3-.4,4.11-.544.969-.124,1.235-1.584,1.577-2.531,1.245-3.429,2.359-6.894,3.624-10.315C1042.026,431.989,1041.356,431.6,1041.338,431.744Z" transform="translate(-771.004 -192.578)"/><path class="y" d="M1036.356,444.794l-3.814.549c-.3.046-.417-.266-.253-.693l4.277-11.791a1.013,1.013,0,0,1,.63-.648l4.072-.59c.228-.033.319.2.2.529l-4.279,11.791A1.349,1.349,0,0,1,1036.356,444.794Z" transform="translate(-770.99 -192.506)"/><path class="z" d="M1037.57,445.2l-3.644.526c-.228.033-.319-.2-.2-.526l4.029-11.1a1,1,0,0,1,.628-.648l3.645-.526c.228-.033.319.2.2.529l-4.029,11.1A1,1,0,0,1,1037.57,445.2Z" transform="translate(-772.079 -193.477)"/><ellipse class="r" cx="2.093" cy="1.081" rx="2.093" ry="1.081" transform="matrix(0.547, -0.837, 0.837, 0.547, 264.221, 246.226)"/><g class="aa" transform="translate(265.509 244.449)"><path class="ab" d="M1049.749,455.657a.559.559,0,0,1-.445-.2,1.232,1.232,0,0,1-.035-1.174,2.383,2.383,0,0,1,1.534-1.561.582.582,0,0,1,.554.195,1.232,1.232,0,0,1,.035,1.174h0a2.383,2.383,0,0,1-1.534,1.559A.53.53,0,0,1,1049.749,455.657Zm1.164-2.708h-.078a2.21,2.21,0,0,0-1.344,1.4,1.032,1.032,0,0,0,0,.941.339.339,0,0,0,.337.109,2.2,2.2,0,0,0,1.341-1.4h0a1.032,1.032,0,0,0,0-.944.317.317,0,0,0-.253-.106ZM1051.28,454.047Z" transform="translate(-1049.142 -452.708)"/></g><g class="aa" transform="translate(265.179 244.019)"><path class="ab" d="M1048.58,454.8a.663.663,0,0,1-.539-.253,1.6,1.6,0,0,1-.038-1.5,3.132,3.132,0,0,1,1.989-2.025.7.7,0,0,1,.683.235,1.634,1.634,0,0,1,.038,1.5,3.13,3.13,0,0,1-1.992,2.025A.865.865,0,0,1,1048.58,454.8Zm1.556-3.6h-.116a2.961,2.961,0,0,0-1.835,1.908,1.449,1.449,0,0,0,0,1.313.506.506,0,0,0,.506.165,2.95,2.95,0,0,0,1.835-1.908h0a1.447,1.447,0,0,0,0-1.313.483.483,0,0,0-.39-.157Z" transform="translate(-1047.841 -451.009)"/></g><path class="ab" d="M1049.379,451.333h-.046a.286.286,0,0,1-.223-.187l-.286-.817a.286.286,0,0,1,.174-.362.281.281,0,0,1,.359.17h0l.116.326,1.321-1.678a.286.286,0,1,1,.481.311.253.253,0,0,1-.033.04l-1.642,2.088A.3.3,0,0,1,1049.379,451.333Z" transform="translate(-783.385 -205.23)"/><path class="ac" d="M1054.658,436.531h.03l.026-.013.02-.015h.015l.013-.013h0l.015.056a.538.538,0,0,1-.1.086.253.253,0,0,1-.1.038.069.069,0,0,1-.1-.051.159.159,0,0,1,0-.084.677.677,0,0,1,.076-.218.758.758,0,0,1,.058-.1q.031-.042.066-.081a.378.378,0,0,1,.213-.132h.046l.03.013a.089.089,0,0,1,.03.058l-.058.063v.013h-.079a.129.129,0,0,0-.061.025.258.258,0,0,0-.061.056.607.607,0,0,0-.058.081c-.018.035-.033.071-.048.106a.323.323,0,0,0-.018.071.185.185,0,0,0,0,.053.059.059,0,0,0,.018.03A.043.043,0,0,0,1054.658,436.531Z" transform="translate(-787.611 -195.787)"/><path class="ac" d="M1056.043,436a.365.365,0,0,1,.066-.058.157.157,0,0,1,.056-.025h.033a.03.03,0,0,1,.018.028.194.194,0,0,1,0,.053.276.276,0,0,1-.028.076l-.129.3-.1.015.129-.3v-.053h0l-.025.013-.028.025a.153.153,0,0,0-.031.04.334.334,0,0,0-.033.048l-.109.253-.1.013.3-.673.1-.013Z" transform="translate(-788.584 -195.585)"/><path class="ac" d="M1057.585,436.648a.277.277,0,0,1-.048.046l-.046.035-.04.02a.157.157,0,0,1-.046.013.078.078,0,0,1-.048,0,.061.061,0,0,1-.028-.033.114.114,0,0,1,0-.058.271.271,0,0,1,.018-.078.364.364,0,0,1,.03-.071c0-.025.028-.048.041-.071l.048-.058a.344.344,0,0,1,.053-.051.213.213,0,0,1,.106-.053.063.063,0,0,1,.043,0,.051.051,0,0,1,.023.023.083.083,0,0,1,0,.035.122.122,0,0,1,0,.043.253.253,0,0,1-.03.058.156.156,0,0,1-.048.051.251.251,0,0,1-.071.043.5.5,0,0,1-.1.035.154.154,0,0,0,0,.068.03.03,0,0,0,.035.015h.106Zm0-.273a.1.1,0,0,0-.051.033.342.342,0,0,0-.056.078l.056-.02.036-.02.02-.02V436.4a.029.029,0,0,0,0-.02h0Z" transform="translate(-789.745 -195.992)"/><path class="ac" d="M1058.584,435.576h.015a.068.068,0,0,0,.041-.025l.187-.23.028-.028h.028l.089-.013-.253.283a.145.145,0,0,1-.045.043v.015a.045.045,0,0,1,0,.025v.286l-.091.013h-.023v-.23h-.043l-.124.281-.1.015.289-.655.1-.015Z" transform="translate(-790.466 -195.241)"/><path class="ac" d="M1060.281,435.32l-.207.468-.094.013.205-.466Zm.063-.129a.08.08,0,0,1-.015.033.164.164,0,0,1-.048.046.036.036,0,0,1-.023,0,.028.028,0,0,1-.02,0,.014.014,0,0,1,0-.015v-.023a.148.148,0,0,1,.023-.063l.023-.028a.1.1,0,0,1,.025-.02h.043a.014.014,0,0,1,0,.015.035.035,0,0,1,0,.023v.028Z" transform="translate(-791.728 -195.122)"/><path class="ac" d="M1060.868,435.823a.419.419,0,0,1,.076-.073.145.145,0,0,1,.066-.03.038.038,0,0,1,.033,0,.062.062,0,0,1,.015.028.194.194,0,0,1,0,.053.48.48,0,0,1-.028.076l-.132.3-.1.013.132-.3v-.051h0l-.028.013-.031.03c-.013,0-.023.028-.035.043l-.033.056-.1.233h-.1l.2-.468h.071a.071.071,0,0,1,0,.033Z" transform="translate(-792.199 -195.567)"/><path class="ac" d="M1037.295,472.71l-.253.714-.132.018.253-.711Z" transform="translate(-774.497 -223.199)"/><path class="ac" d="M1038.413,472.839a.574.574,0,0,1-.4.4l-.21.03.253-.714.215-.03C1038.433,472.5,1038.491,472.642,1038.413,472.839Zm-.134.023c.043-.124.018-.2-.061-.187l-.084.013-.149.41.088-.013C1038.149,473.075,1038.233,472.984,1038.279,472.862Z" transform="translate(-775.162 -223.057)"/><path class="ac" d="M1040.626,472.11l-.053.149-.268.038-.048.134.253-.035-.053.147-.253.038-.048.134.273-.04-.053.149-.405.058.253-.714Z" transform="translate(-776.783 -222.751)"/><path class="ac" d="M1042.27,471.851l.073.395.154-.428.122-.018-.253.711-.114.018-.073-.395-.154.428-.124.018.253-.714Z" transform="translate(-778.224 -222.519)"/><path class="ac" d="M1045.069,471.52l-.056.154-.149.02-.2.559-.132.02.2-.559-.149.02.056-.152Z" transform="translate(-780.189 -222.31)"/><path class="ac" d="M1046.255,471.42l-.253.711-.132.02.253-.714Z" transform="translate(-781.189 -222.235)"/><path class="ac" d="M1047.37,471.15l-.053.147-.253.035-.056.159.225-.033-.053.149-.228.03-.094.253-.129.02.253-.714Z" transform="translate(-781.832 -222.034)"/><path class="ac" d="M1048.865,471l-.253.711-.132.02.253-.714Z" transform="translate(-783.139 -221.922)"/><path class="ac" d="M1050.141,470.75l-.053.149-.253.038-.048.134.253-.035-.056.147-.238.038-.051.132.273-.038-.053.149-.405.058.253-.714Z" transform="translate(-783.908 -221.735)"/><path class="ac" d="M1051.905,470.889a.575.575,0,0,1-.4.4l-.213.03.253-.714.215-.03C1051.925,470.55,1051.976,470.679,1051.905,470.889Zm-.134.023c.043-.124.018-.2-.063-.187l-.081.013-.149.41.089-.013C1051.642,471.134,1051.723,471.033,1051.771,470.912Z" transform="translate(-785.238 -221.6)"/><path class="ad" d="M1052.178,451.39c.1-.726,1.2-.668,1.645-.534s1.88.2,1.736.977-.635,1.03-1.6.908S1052.1,451.97,1052.178,451.39Z" transform="translate(-785.897 -206.814)"/><path class="ae" d="M1053.969,452.287a4.235,4.235,0,0,1-.759,0c-1.012-.116-2.047-.8-1.956-1.617h0a1.1,1.1,0,0,1,.4-.62,2.2,2.2,0,0,1,1.551-.142c.1.035.192.025.293.061.486.084,1.218.23,1.455.63a.847.847,0,0,1,.177.668,1.1,1.1,0,0,1-1.159,1.012Zm-2.232-1.534c-.048.387.64.969,1.554,1.048,1.012.114,1.265-.2,1.344-.688.035-.1-.018-.139-.023-.187-.177-.253-.807-.377-1.195-.425a1.1,1.1,0,0,0-.339-.053c-.3-.066-1.265-.225-1.346.306Z" transform="translate(-785.206 -206.111)"/><path class="ad" d="M1048.656,467.027c-.134-.7.916-1.063,1.339-1.114.425,0,2.08-.493,2.23.344s-.526,1.159-1.44,1.46C1049.807,467.885,1048.759,467.584,1048.656,467.027Z" transform="translate(-783.261 -218.015)"/><path class="ae" d="M1049.949,467.432c-.982.119-2.065-.177-2.2-.873h0a.962.962,0,0,1,.2-.736,2.026,2.026,0,0,1,1.395-.648l.329-.038c.562-.071,1.4-.22,1.82.109a.76.76,0,0,1,.3.488c.172,1.025-.683,1.415-1.645,1.721C1050.091,467.415,1050.043,467.42,1049.949,467.432Zm-1.736-.977c.094.369.936.645,1.82.491,1.012-.314,1.356-.592,1.28-1.2a.253.253,0,0,0-.116-.177c-.253-.2-1.06-.109-1.475,0l-.375.046a1.842,1.842,0,0,0-1.038.461.649.649,0,0,0-.1.392Z" transform="translate(-782.586 -217.471)"/><path class="ad" d="M1048.268,474.9c-.122-.6.792-.906,1.161-1,.375-.046,1.612-.433,1.739.218.132.7-.253,1.076-1.088,1.225C1049.26,475.634,1048.371,475.363,1048.268,474.9Z" transform="translate(-782.972 -223.972)"/><path class="ae" d="M1049.1,475.19a2.293,2.293,0,0,1-1.359-.215.883.883,0,0,1-.4-.521.759.759,0,0,1,.119-.587,1.992,1.992,0,0,1,1.25-.676l.233-.028a1.973,1.973,0,0,1,1.483.056.759.759,0,0,1,.291.44c.177,1.073-.643,1.364-1.24,1.518C1049.327,475.114,1049.238,475.172,1049.1,475.19Zm.461-1.675c-.187.025-1.47.162-1.736.595a.349.349,0,0,0-.063.253h0c0,.094.117.175.167.215a1.8,1.8,0,0,0,1.349.122c.878-.2,1.012-.506.926-.969C1050.142,473.426,1049.793,473.476,1049.56,473.514Z" transform="translate(-782.278 -223.449)"/><path class="ad" d="M1048.991,459.424c0-.716,1.21-1.012,1.731-1.012s2.313-.142,2.278.673-.729,1.04-1.807,1.172C1050.062,460.434,1048.923,460.05,1048.991,459.424Z" transform="translate(-783.519 -212.512)"/><path class="ae" d="M1050.473,459.556a2.672,2.672,0,0,1-2.007-.468.822.822,0,0,1-.273-.678c.028-.957,1.468-1.227,1.989-1.243l.235-.028c.807,0,1.708-.02,2.1.41a.612.612,0,0,1,.162.549c-.1,1.108-1.081,1.265-2.025,1.389A.346.346,0,0,1,1050.473,459.556Zm-.557-1.832c-.506.061-1.243.342-1.283.774h0a.271.271,0,0,0,.127.268,2.2,2.2,0,0,0,1.751.311c1.172-.144,1.569-.382,1.642-.962a.2.2,0,0,0-.071-.182c-.273-.3-1.265-.273-1.744-.253l-.423.053Z" transform="translate(-782.923 -211.569)"/><path class="u" d="M1007.1,496.242a2.956,2.956,0,0,0-2.72-1.635,3.594,3.594,0,0,0-2.394,1.076h0l-.109.114c-.362.329-.709.688-1.078,1.027-2.326,2.131-4.753,4.156-7.185,6.165l4.378,5.555c-.018-.02.663-.731.7-.774l3-3.29,3.29-3.639a18.732,18.732,0,0,0,1.438-1.82C1007,498.15,1007.56,497.269,1007.1,496.242Z" transform="translate(-742.155 -239.554)"/><path class="af" d="M965.626,516.7l12.181-13.37a4.375,4.375,0,0,0,1.3-2.151,2.734,2.734,0,0,0-2.219-2.837c-1.293-.278-1.814.147-2.882.929a35.831,35.831,0,0,0-3.229,2.6c-2.217,2.042-5.59,3.943-8.119,5.568-1.248.8-1.855,1.873-3.133,2.622-1.164.681-2.164,1.093-2.531,2.531-.418,1.647.936,2.531,2.06,3.368a37.975,37.975,0,0,1,3.012,2.468c.863.787,1.488.539,2.315-.37Z" transform="translate(-714.746 -242.277)"/><path class="ag" d="M929.555,526.286c4.13-2.351,8.6-4.15,12.593-6.755a.61.61,0,0,1,.848.144l6.345,8.68a.651.651,0,0,1-.023.792,63.977,63.977,0,0,1-13.712,11.264c-3.424,1.946-7.729,3.427-10.816.023a7.74,7.74,0,0,1-1.622-6.977C923.995,530.128,926.718,527.9,929.555,526.286Z" transform="translate(-689.364 -258.088)"/><path class="ah" d="M991.628,519.3l6.754,9.364a.529.529,0,0,1-.142.734h-.015l-2.693,2.025-7.592-10.409,2.961-1.926a.529.529,0,0,1,.721.187v.015Z" transform="translate(-737.92 -257.786)"/><path class="ag" d="M872.32,473.321c1.374.633,2.642,2.349,3.594,3.444,1.807,2.088,3.447,4.3,5.122,6.5a71.823,71.823,0,0,1,6.031,8.65,14.558,14.558,0,0,1,1.382,9.794,10.855,10.855,0,0,1-1.855,4.026,7.876,7.876,0,0,1-6.241,2.4,10.3,10.3,0,0,1-7.792-3.8c-1.116-1.281-2.409-2.384-3.482-3.72a45.184,45.184,0,0,1-2.9-4.087c-1.946-3.072-4.019-6.4-5.062-9.9a12.227,12.227,0,0,1,.253-8.377,9.3,9.3,0,0,1,4.93-4.745,8.319,8.319,0,0,1,5.724-.3C872.125,473.243,872.224,473.278,872.32,473.321Z" transform="translate(-642.736 -223.291)"/><path class="ad" d="M857.254,422.033a.919.919,0,0,0-.043.086,13.855,13.855,0,0,0-.372,1.435l-2.349,7.671c-.347,1.131-.65,2.278-1.1,3.358a3.811,3.811,0,0,0,.175,3.2,5.484,5.484,0,0,0,3.093,2.5,11.358,11.358,0,0,0,4.014.506,6.816,6.816,0,0,0,2.141-.306,2.287,2.287,0,0,0,1.615-2.941,8.835,8.835,0,0,1-.506-4.014l.726-3.961c.147-.8.3-1.592.44-2.392.2-1.192.521-2.171-.094-3.338a5.687,5.687,0,0,0-2.217-2.161,5.627,5.627,0,0,0-3.007-.891A3.113,3.113,0,0,0,857.254,422.033Z" transform="translate(-637.218 -184.411)"/><path class="ai" d="M860.362,437.324l4.738.833a2.264,2.264,0,0,0,2.1-.337,2.211,2.211,0,0,0,.43-1.131l.524-2.9a13.114,13.114,0,0,0,.281-1.316,8.812,8.812,0,0,0-.149-.924,2.566,2.566,0,0,0-1.468-.9,12.674,12.674,0,0,1-4.874-3.138c-.253-.271-.666-.572-.967-.344a.76.76,0,0,0-.213.347c-1.169,3.037-1.731,6.3-2.855,9.364Z" transform="translate(-640.797 -189.126)"/><path class="aj" d="M852.1,443.125h-.048a.253.253,0,0,1-.142-.235l2.22-6.8c.425-1.417,1.7-6.185,1.7-6.185a.195.195,0,0,1,.377.094l-1.7,6.185c-.377,1.265-2.219,6.752-2.219,6.752a.172.172,0,0,1-.154.187Z" transform="translate(-636.316 -191.129)"/><path class="ak" d="M768.33,1050.547c-1.081-.306-2.149-.688-3.209-1.06a33.049,33.049,0,0,1-6.75-2.976,3.371,3.371,0,0,1-.759-.534c-.572-.676-.607-1.858-.962-2.667a5.565,5.565,0,0,0-2.068-2.1,4.362,4.362,0,0,0-2.835-.807,4.431,4.431,0,0,0-3.179,2.316,16.123,16.123,0,0,0-1.235,3.728c-.367,1.23-.906,2.4-1.235,3.649s-1.06,4.264.9,4.555l25.637-.19s.506.048.661-1.321S771.493,1051.443,768.33,1050.547Z" transform="translate(-556.977 -647.214)"/><path class="al" d="M757.2,1072.47l-10.434-2.88.9-2.88,10.045,3.11Z" transform="translate(-557.784 -666.872)"/><path class="q" d="M744.893,1107.17a1.154,1.154,0,0,0,1.124,1.184h.1l26.573.046a1.154,1.154,0,0,0,1.182-1.121V1105.8l-29.035-.094.048,1.463Z" transform="translate(-556.343 -696.002)"/><path class="al" d="M773.015,1095.857l-26.573-.048a1.154,1.154,0,0,0-1.182,1.126c0,.033,0,.068,0,.1v1.369l29.033.1v-1.379a1.265,1.265,0,0,0-1.265-1.266Z" transform="translate(-556.656 -688.607)"/><path class="am" d="M822.26,1078.248l.567-3.73c.046-.19-.1-.283-.238-.377l-4.72-1.936c-.284-.094-.425,0-.425.235l-.944,5.76Z" transform="translate(-609.867 -670.949)"/><path class="am" d="M789.49,1068.5l1.321-6.421a.468.468,0,0,0-.142-.425l-4.809-2.407c-.1,0-.238,0-.283.142l-2.078,9.065Z" transform="translate(-585.219 -661.3)"/><path class="ak" d="M874.765,718.208c-2.731-12.768-6.919-24.584-8.476-37.6-.6-5.046-2.278-10.566-6.732-13.038a11.7,11.7,0,0,0-8.567-.835,11.541,11.541,0,0,0-6.962,4.808c-2.64,4.247-1.42,9.847.8,14.327,3.29,6.646,6.957,12.849,9.546,19.831,2.128,5.745,4.13,11.545,6.383,17.242.453,1.055,3.68,12.272,6.686,19.993q3.217,8.192,6.3,16.432c.615,1.632,1.308,3.255,1.852,4.912.691,2.116,1.24,4.049,3.624,4.867l.278.086a5.208,5.208,0,0,0,5.315-1.751c2.237-2.829.223-6.453-.648-9.45-.914-3.141-1.713-6.314-2.5-9.488-1.792-7.258-3.444-14.552-5.062-21.853Q875.679,722.452,874.765,718.208Z" transform="translate(-629.31 -367.793)"/><path class="an" d="M898.759,834.989c.82,2.126,1.478,4.077,2.3,6.2.84,2.182,1.772,4.492,3.708,5.821,2.7,1.853,6.744.949,8.787-1.612a8.564,8.564,0,0,0,1.572-6.689,60.386,60.386,0,0,0-1.382-7.17l-1.85-6.4a4.6,4.6,0,0,0-1.572-2.748c-1.164-.759-2.7-.306-4,.162-1.9.681-3.7,1.625-5.631,2.225-1.1.342-4.763.1-5.062,1.316-.142.557.21.706.418,1.24C896.929,829.685,897.853,832.638,898.759,834.989Z" transform="translate(-668.942 -484.081)"/><path class="ak" d="M791.215,705.832l-6.367,16.111c-.035.1-.073.185-.109.276l-1.045,2.647c-1.941,6.152-16.6,39.933-18,45.581-3,7.154-10.1,5.315-10.27.547.332-1.283,3.341-13.016,5.9-25.682a129.288,129.288,0,0,1,4.715-15.974c1.66-4.765,3.125-8.668,3.366-9.956q.144-.759.273-1.518c.909-5.375,1.25-10.92,1.855-16.318.7-6.185,0-13.567,3.373-19.019a17.108,17.108,0,0,1,10.341-7.519,10.968,10.968,0,0,1,6.3.114c3.9,1.41,6.152,5.717,6.4,9.87C798.4,692.758,793.933,698.935,791.215,705.832Z" transform="translate(-564.245 -373.997)"/><path class="ao" d="M814.361,834.785c-.035.1-.073.185-.109.276l-2.452,6.19a61.567,61.567,0,0,1-3.29,6.514,8.6,8.6,0,0,1-5.342,4.32c-3.181.774-6.929-.99-7.929-4.107a10.1,10.1,0,0,1,.316-5.788c1.66-4.765,3.125-8.668,3.366-9.956q.144-.759.273-1.518c.428-1.265.848-2.5,1.19-3.642.167-.547-.02-.883.433-1.235.99-.759,3.738,1.665,4.808,2.065,1.893.711,3.895,1.068,5.821,1.693,1.319.43,2.8,1.012,3.262,2.328A4.283,4.283,0,0,1,814.361,834.785Z" transform="translate(-593.759 -486.85)"/><path class="ap" d="M793.833,848.806l-.453-.195c.073-.228,9.462-24.3,15.21-37.66,2.068-4.808,3.637-8.994,4.877-12.368l1.364-3.647,6.188-15.546.453.192c-.063.137-4.7,11.677-6.188,15.549l-1.359,3.6c-1.24,3.373-2.809,7.567-4.874,12.368C803.3,824.509,793.914,848.53,793.833,848.806Z" transform="translate(-592.599 -452.266)"/><path class="aq" d="M766.833,697.261s6.752,15.438,26.391,16.387a51.554,51.554,0,0,0,33.237-10.8,56.809,56.809,0,0,0-6.188-15.663c-4.626-7.9-6.656-21.681-6.656-21.681l-32.811.147s-.425,12.687-5.664,19.72-8.311,11.895-8.311,11.895Z" transform="translate(-572.768 -367.198)"/><path class="ar" d="M761.188,699.592a1.473,1.473,0,0,1,0-1.518c2.025-2.392,7.458-10.882,10.905-17.763,3.824-8.352,4.2-14.21,4.2-14.21h3.682a70.688,70.688,0,0,1-6.137,22.984c-3.305,7.033-6.749,13.486-7.979,15.516a.534.534,0,0,1-.9.071l-3.776-5.062Z" transform="translate(-568.396 -367.647)"/><path class="ar" d="M804.566,709.915a1.5,1.5,0,0,0,.329,1.668l2.733,1.812,2.7,1.443c.329.144.759-.073.9-.58a222.524,222.524,0,0,0,6.137-24.073,105.253,105.253,0,0,0,2.171-23.855H816.7A95.866,95.866,0,0,1,811.318,692C808.387,700.2,805.6,707.245,804.566,709.915Z" transform="translate(-600.869 -367.818)"/><path class="ar" d="M867.911,665.617s-.9,24.941-1.746,32.409l-2.181,17.257c-.046.506.19,1.088.521,1.159l4.049.218a18.469,18.469,0,0,1,1.982,0c.332,0,.567-.362.663-.87.046-4.049-.048-18.852-.048-27.188,0-10.376-.567-22.913-.567-22.913l-2.69-.071Zm6.939,0,1.321,35.157c.425,7.468,1.086,12.254,1.323,14.284.094.579.425,1.012.848.87l5.666-1.235c.473-.073.8-.871.567-1.668-1.179-3.988-4.485-15.807-5.477-25.523-1.265-11.963-2.025-22.043-2.025-22.043l-2.209.137Zm4.91,0a186.442,186.442,0,0,0,4.391,28.276c2.548,10.442,4.3,15.878,5.062,17.981.235.58.759.871,1.179.58l4.72-3.115a1.742,1.742,0,0,0,.329-2.176,121.68,121.68,0,0,1-8.174-19.8,178.371,178.371,0,0,1-5.287-21.825l-2.22.073Zm6.421-.147s3.447,13.919,7.98,21.258c3.634,5.8,7.554,11.745,9.017,13.919a1.5,1.5,0,0,1-.094,1.594l-2.5,2.756a.547.547,0,0,1-.9-.147,135.456,135.456,0,0,1-9.3-17.763c-3.966-9.508-5.9-21.618-5.9-21.618Z" transform="translate(-645.33 -367.169)"/><path class="as" d="M794.45,685.256s10.576,4.857,16.336,3.037c15.673-5.061,33.095,2.025,33.095,2.025a115.056,115.056,0,0,1-5.95-11.745,130.317,130.317,0,0,1-3.776-12.542l-32.811.071s-1.086,7.977-3.682,13.2A43.289,43.289,0,0,1,794.45,685.256Z" transform="translate(-593.398 -367.594)"/><path class="am" d="M766.833,697.261s6.752,15.438,26.391,16.387a51.554,51.554,0,0,0,33.237-10.8,56.809,56.809,0,0,0-6.188-15.663c-4.626-7.9-6.656-21.681-6.656-21.681l-32.811.147s-.425,12.687-5.664,19.72-8.311,11.895-8.311,11.895Z" transform="translate(-572.768 -367.198)"/><path class="q" d="M761.188,699.592a1.473,1.473,0,0,1,0-1.518c2.025-2.392,7.458-10.882,10.905-17.763,3.824-8.352,4.2-14.21,4.2-14.21h3.682a70.688,70.688,0,0,1-6.137,22.984c-3.305,7.033-6.749,13.486-7.979,15.516a.534.534,0,0,1-.9.071l-3.776-5.062Z" transform="translate(-568.396 -367.647)"/><path class="q" d="M804.566,709.915a1.5,1.5,0,0,0,.329,1.668l2.733,1.812,2.7,1.443c.329.144.759-.073.9-.58a222.524,222.524,0,0,0,6.137-24.073,105.253,105.253,0,0,0,2.171-23.855H816.7A95.866,95.866,0,0,1,811.318,692C808.387,700.2,805.6,707.245,804.566,709.915Z" transform="translate(-600.869 -367.818)"/><path class="q" d="M867.911,665.617s-.9,24.941-1.746,32.409l-2.181,17.257c-.046.506.19,1.088.521,1.159l4.049.218a18.469,18.469,0,0,1,1.982,0c.332,0,.567-.362.663-.87.046-4.049-.048-18.852-.048-27.188,0-10.376-.567-22.913-.567-22.913l-2.69-.071Zm6.939,0,1.321,35.157c.425,7.468,1.086,12.254,1.323,14.284.094.579.425,1.012.848.87l5.666-1.235c.473-.073.8-.871.567-1.668-1.179-3.988-4.485-15.807-5.477-25.523-1.265-11.963-2.025-22.043-2.025-22.043l-2.209.137Zm4.91,0a186.442,186.442,0,0,0,4.391,28.276c2.548,10.442,4.3,15.878,5.062,17.981.235.58.759.871,1.179.58l4.72-3.115a1.742,1.742,0,0,0,.329-2.176,121.68,121.68,0,0,1-8.174-19.8,178.371,178.371,0,0,1-5.287-21.825l-2.22.073Zm6.421-.147s3.447,13.919,7.98,21.258c3.634,5.8,7.554,11.745,9.017,13.919a1.5,1.5,0,0,1-.094,1.594l-2.5,2.756a.547.547,0,0,1-.9-.147,135.456,135.456,0,0,1-9.3-17.763c-3.966-9.508-5.9-21.618-5.9-21.618Z" transform="translate(-645.33 -367.169)"/><path class="at" d="M850.891,515.987l-.423-7.319-.372-5.98h0l-.385-6.327h.048l-.476-6.152h.048c-.19-2.313-.377-4.2-.519-5.287a11.274,11.274,0,0,0-.238-1.227,30.891,30.891,0,0,0-1.888-6.089c-2.971-6.658-9.627-12.606-15.1-12.606-1.642.046-6.3.331-8.01,2.194,0,0-1.741,10.472-1.754,10.525l-.023.1h0c-.352,1.541-.663,3.25-.931,5.17-.056.235-.1.471-.142.709l-1.134,6.514h-.046l-1.086,6.14h-.051c-.332,2.025-.759,4.153-1.179,6.231-.332,2.123-.709,4.249-1.086,6.089h0l-1.324,7.319Z" transform="translate(-608.613 -217.44)"/><path class="au" d="M820.23,545.731h34.322l-.377-6.089H821.316C820.987,541.765,820.607,543.891,820.23,545.731Zm2.313-12.32h31.3l-.471-6.14H823.629Zm3.4-18.791c-.377,1.6-.709,3.4-.989,5.429-.058.235-.1.471-.142.709h27.854a31.252,31.252,0,0,0-1.888-6.089Z" transform="translate(-612.654 -254.502)"/><path class="av" d="M811.67,483.806a35.429,35.429,0,0,0,.716,4.72,80.958,80.958,0,0,0,4.517,13.327c.858,2.085,1.721,4.125,2.5,6.1.564,1.43.934,3.9,1.936,5.094,1.149,1.359,3.265,1.035,4.895,1.076l22.018.542a191.59,191.59,0,0,0-.878-23.212c-.731-7.433-2.083-15.238-6.9-20.945a20.839,20.839,0,0,0-11.259-6.734c-3.6-.82-8.718-1.374-11.242,1.918q-2.025,2.632-3.8,5.434c-.149.235-.289.473-.423.714a44.584,44.584,0,0,0-1.594,7.268C811.926,480.67,811.754,482.237,811.67,483.806Z" transform="translate(-607.902 -214.415)"/><path class="aw" d="M827.513,491.159l-2.9-.321,1.941-17.515c0-.038.567-4.049-1.465-6.4a5.787,5.787,0,0,0-4.667-1.772c-6.719,0-11.135,8.129-13.537,24.85L804,489.588c1.164-8.152,2.784-14.261,4.965-18.677,2.84-5.76,6.7-8.681,11.462-8.681a8.618,8.618,0,0,1,6.889,2.8c2.814,3.272,2.2,8.195,2.133,8.7Z" transform="translate(-600.531 -215.371)"/><path class="ax" d="M770.389,559.76l-3.973,25.824c-.615,5.76-.9,14.023,16.807,16,15.911,1.794,18.884-3.019,20.018-11.659s2.549-26.909,2.549-26.909Z" transform="translate(-572.31 -288.219)"/><path class="aw" d="M858.167,571.14,855.664,598s-3.209,12.084-13.453,12.274c13.975,1.086,16.759-3.634,17.844-11.849,1.083-8.64,2.551-26.91,2.551-26.91Z" transform="translate(-629.071 -296.719)"/><path class="ay" d="M799.593,358.935a4.252,4.252,0,0,0-3.778-2.278c-2.645-.19-4.533.331-6.231,3.163-1.086,1.794-2.88,2.455-5.289,3.07a5.258,5.258,0,0,0-4.049,5.712c.253,3.447,0,5.287-1.84,6.846s-4.107,7.845,2.549,11.943c6,3.73,12.558.9,14.494-4.249,1.888-4.955-.506-7.552-2.126-10.953-1.415-2.974-.377-6.421.425-7.268.944-1.086,1.465-.85,1.465-.85Z" transform="translate(-579.985 -136.49)"/><path class="az" d="M799.593,358.935a4.252,4.252,0,0,0-3.778-2.278c-2.645-.19-4.533.331-6.231,3.163-1.086,1.794-2.88,2.455-5.289,3.07a5.258,5.258,0,0,0-4.049,5.712c.253,3.447,0,5.287-1.84,6.846s-4.107,7.845,2.549,11.943c6,3.73,12.558.9,14.494-4.249,1.888-4.955-.506-7.552-2.126-10.953-1.415-2.974-.377-6.421.425-7.268.944-1.086,1.465-.85,1.465-.85Z" transform="translate(-579.985 -136.49)"/><path class="ad" d="M706.17,722.372a3.626,3.626,0,0,1,1.443,1.265,4.671,4.671,0,0,1,.706,2.116,1.91,1.91,0,0,1-.084.924c-.111.3-.076.706-.213.974v.02c-.015.084-.025.167-.038.253-.046.364-.1.82-.21,1.306a5.245,5.245,0,0,1-.952,2.207,3.177,3.177,0,0,1-.316.324.408.408,0,0,1-.071.061,1.359,1.359,0,0,1-.334.213A.445.445,0,0,1,705.6,732l-.64.534a.846.846,0,0,1-.491.177.652.652,0,0,1-.506-.253l-.023.046a1.206,1.206,0,0,1-1.1.526c-.663-.038-.759-.433-.661-.8a.273.273,0,0,0,.018-.078c-.03.04-.253.59-.774.41-2.123-.471.914-3.973-.015-4.993-.271.395.025.909-.238,1.306a.661.661,0,0,1-.9.1,1.291,1.291,0,0,1-.448-.858,3.421,3.421,0,0,1,.473-2.217,5.813,5.813,0,0,1,.506-.759c.567-.721,1.265-1.281,1.883-1.931a2.921,2.921,0,0,1,2.424-1.144A3.015,3.015,0,0,1,706.17,722.372Z" transform="translate(-522.694 -409.442)"/><path class="ad" d="M729.861,623.66c-.731,1.367-1.645,4.738-3.037,8.427a43.516,43.516,0,0,1-1.772,4.143l-.144.3-2.075,4.328-2.872,6.005c-.838,1.749-1.518,4.35-3.991,4.09a2.908,2.908,0,0,1-2.424-2.025,5.71,5.71,0,0,1,.132-2.766c.268-1.073.569-2.121.8-3.2q1.265-5.876,2.667-11.722c.921-3.859,1.594-7.764,2.338-11.667,0,0,1.518.3,3.4.759C726.136,621.147,730.466,622.463,729.861,623.66Z" transform="translate(-532.876 -332.892)"/><path class="ba" d="M720.868,631.527a60.454,60.454,0,0,0-1.7,8.756c-.205,1.443-.43,2.88-.742,4.3a38.952,38.952,0,0,0-1.111,4.469,3.4,3.4,0,0,0,.354,2.025,2.837,2.837,0,0,0,2.176,1.372c1.746.175,2.9-.911,3.657-2.316.625-1.167,2.609-3.859,3.161-5.239a39.978,39.978,0,0,1,3.543-7.033c.777-1.265.863-2.49,1.693-3.715.759-1.118,1.481-1.923,1.187-3.384-.337-1.668-1.944-1.888-3.313-2.149A38.1,38.1,0,0,1,726,627.7c-1.116-.337-1.574.159-1.928,1.334C723.893,629.608,721.046,630.937,720.868,631.527Z" transform="translate(-535.765 -338.884)"/><path class="q" d="M555.615,818.449a1.825,1.825,0,0,1-1.645-2.614c.253-.524,39.184-82.214,39.576-83.039a1.825,1.825,0,1,1,3.366,1.407c-.023.056-.048.109-.076.162-1.607,3.368-39.328,82.52-39.581,83.049A1.827,1.827,0,0,1,555.615,818.449Z" transform="translate(-413.643 -416.594)"/><path class="bb" d="M513.692,790.558,486.9,846.3a10.186,10.186,0,0,1-13.567,4.763l-6.509-3.13a10.194,10.194,0,0,1-5.254-12.327,9,9,0,0,1,.493-1.238l26.775-55.735a10.2,10.2,0,0,1,13.567-4.763l6.512,3.128A10.2,10.2,0,0,1,513.692,790.558Z" transform="translate(-344.388 -447.397)"/><path class="bc" d="M488.01,1033.351c-2.151,4.507-4.277,7.823-8.934,5.585l-12.251-5.869a10.194,10.194,0,0,1-5.254-12.327Z" transform="translate(-344.388 -632.536)"/><circle class="ax" cx="4.803" cy="4.803" r="4.803" transform="translate(127.843 403.127) rotate(-22.5)"/><path class="q" d="M510.421,1077.061a6.626,6.626,0,1,1,5.993-3.773h0a6.633,6.633,0,0,1-5.993,3.773Zm0-9.617a2.981,2.981,0,1,0,2.685,4.259h0a2.984,2.984,0,0,0-2.67-4.252ZM514.754,1072.506Z" transform="translate(-376.31 -664.706)"/><rect class="q" width="73.498" height="1.812" transform="matrix(0.431, -0.903, 0.903, 0.431, 128.547, 393.833)"/><path class="bd" d="M711.42,581.666l14.744,6.466s5.623-10.94,10.776-20.514c4.087-7.592.291-10.708-3.68-12.563-2.857-1.311-8.82-.294-11.917,6.074C719.083,566.19,711.42,581.666,711.42,581.666Z" transform="translate(-531.381 -284.331)"/><path class="ah" d="M720.9,671.31,706.55,665.2l1.232-3.523,14.795,6.385Z" transform="translate(-527.743 -364.345)"/><path class="be" d="M783.633,466c-6.438-2.64-11.715,2.505-17.381,9.581-4.049,4.97-9.505,12.775-10.761,16.4-1.141,3.234-.051,6.975,2.928,9.85,2.9,2.8,8.238,3.255,11.1-.878,2.627-3.8,4.3-6.005,9.052-12.267,5.191-6.712,9.91-9.364,9.9-12.907C788.715,471.5,787.358,467.522,783.633,466Z" transform="translate(-563.967 -217.659)"/><path class="ad" d="M883.874,382.454a53.182,53.182,0,0,1-.567,8.686c-.506,2.832-1.936,4.249-3.447,4.722s-4.049-.473-5.9-1.417c-1.556-.8-2.455-1.653-2.69-2.645-.235-1.038-.708-2.359-.708-2.359l.1-3.07,3.634-7.742Z" transform="translate(-650.246 -152.928)"/><path class="bf" d="M849.39,367.257a12.292,12.292,0,0,0-3.589,6.517,9.054,9.054,0,0,0,.175,4.783c.435,1.265,1.369,2.657,2.8,2.845a2.442,2.442,0,0,0,2.652-1.541c.354-.99.774-2.65,1.734-3.255,1.227.567,2.407.283,2.69-1.84.331-2.409.283-4.107.663-4.391.506-.38,1.321.094,4.388.99s5.1,1.04,5.431.473c.283-.19-.85-2.171-2.409-4.2a9.636,9.636,0,0,0-6.833-3.495C854.629,363.954,852.364,364.329,849.39,367.257Z" transform="translate(-631.577 -142.076)"/><ellipse class="ad" cx="2.503" cy="2.69" rx="2.503" ry="2.69" transform="translate(216.773 233.302)"/><ellipse class="bg" cx="1.134" cy="1.179" rx="1.134" ry="1.179" transform="translate(218.284 234.813)"/><path class="bh" d="M860.123,412.419a2.171,2.171,0,0,1-1.6.759,2.509,2.509,0,0,1,0-5,2.338,2.338,0,0,1,2.078,1.369.253.253,0,0,0,.235-.048.276.276,0,0,0,.094-.283,2.761,2.761,0,0,0-2.359-1.463,2.8,2.8,0,0,0-2.738,2.862v.018a2.835,2.835,0,0,0,2.738,2.88,2.531,2.531,0,0,0,1.653-.567Z" transform="translate(-639.242 -174.679)"/><path class="bh" d="M879.6,432.371a7.611,7.611,0,0,1-1.888-.332,12.472,12.472,0,0,1-4.72-2.6,2.751,2.751,0,0,1-.944-2.078c0-.094,0-.235.094-.235s.142.094.19.19a2.941,2.941,0,0,0,.9,1.84,12.151,12.151,0,0,0,4.533,2.5,7.135,7.135,0,0,0,2.832.329,3.328,3.328,0,0,0,1.559-.471c.187-.142.235-.142.142,0a3.09,3.09,0,0,1-1.653.8A8.39,8.39,0,0,1,879.6,432.371Z" transform="translate(-651.36 -189.154)"/><path class="bi" d="M891.97,401.025a.364.364,0,0,1-.094-.471,2.736,2.736,0,0,1,2.5-1.04.355.355,0,1,1-.046.709h0a2,2,0,0,0-1.842.759C892.347,401.172,892.018,401.073,891.97,401.025Zm7.033-.85a.288.288,0,0,1-.187-.046,1.185,1.185,0,0,0-.759-.19.362.362,0,0,1-.142-.709,1.556,1.556,0,0,1,1.324.332.354.354,0,0,1,.045.471.326.326,0,0,1-.283.142Z" transform="translate(-666.132 -168.29)"/><path class="q" d="M846.861,370.307l-1.134-.759s-.615-.992,1.746-3.778c2.171-2.548,3.543-2.548,3.824-2.265l1.086.992S848.273,367.1,846.861,370.307Z" transform="translate(-631.644 -141.538)"/><path class="aj" d="M894.5,428.709h-.028a2.8,2.8,0,0,1-2.685-1.964l-.035-.094a.321.321,0,1,1,.585-.253.158.158,0,0,1,0,.03.535.535,0,0,0,.041.109,2.166,2.166,0,0,0,2.141,1.544.322.322,0,0,1-.03.643Z" transform="translate(-666.042 -188.433)"/><path class="bj" d="M907.5,419.356a.321.321,0,0,1-.02-.64c.316-.023.443-.114.483-.344a1.381,1.381,0,0,0-.276-.779.321.321,0,0,1,.423-.478,1.862,1.862,0,0,1,.486,1.369,1.031,1.031,0,0,1-1.071.873Z" transform="translate(-677.61 -181.631)"/><circle class="bk" cx="0.661" cy="0.661" r="0.661" transform="translate(226.831 233.82)"/><path class="bk" d="M897.137,410.611c-.1,0-.425.046-.473-.048-.048-.142.235-.329.377-.425a1.893,1.893,0,0,1,.992-.187.235.235,0,0,1,0,.471,2.122,2.122,0,0,0-.8.142A.151.151,0,0,1,897.137,410.611Z" transform="translate(-669.74 -176.317)"/><path class="bk" d="M896.835,410.767a.246.246,0,0,1-.19-.4,1.663,1.663,0,0,1,1.354-.4.253.253,0,1,1-.02.506,1.3,1.3,0,0,0-.959.23A.253.253,0,0,1,896.835,410.767Z" transform="translate(-669.688 -176.329)"/><circle class="bk" cx="0.661" cy="0.661" r="0.661" transform="translate(231.74 233.443)"/><path class="bk" d="M916.17,409.3a.253.253,0,0,1-.19-.4,1.629,1.629,0,0,1,1.354-.4.253.253,0,0,1-.02.506,1.284,1.284,0,0,0-.959.23A.253.253,0,0,1,916.17,409.3Z" transform="translate(-684.133 -175.229)"/><path class="bi" d="M892.207,402.071a.324.324,0,0,1-.212-.564c.035-.033.073-.073.114-.119a2.6,2.6,0,0,1,2.278-.868h0a.321.321,0,1,1,0,.643h0c-1.225,0-1.564.38-1.812.653q-.081.091-.167.175A.327.327,0,0,1,892.207,402.071Z" transform="translate(-666.176 -169.278)"/><path class="bi" d="M916.126,400.269a.312.312,0,0,1-.187-.061,1.012,1.012,0,0,0-.873-.195.321.321,0,0,1-.058-.64,1.605,1.605,0,0,1,1.3.314.319.319,0,0,1,.076.445h0A.321.321,0,0,1,916.126,400.269Z" transform="translate(-683.226 -168.4)"/><path class="ak" d="M998.174,1039.789c-1.121.063-2.258.051-3.381.043a32.1,32.1,0,0,1-7.339-.61,3.443,3.443,0,0,1-.9-.253c-.759-.455-1.179-1.559-1.772-2.209a5.556,5.556,0,0,0-2.64-1.313,4.375,4.375,0,0,0-2.943.162,4.43,4.43,0,0,0-2.25,3.224,16.709,16.709,0,0,0,.048,3.928c.056,1.281-.073,2.566.023,3.854s.387,4.376,2.333,4.016l24.174-8.534s.506-.127.192-1.465S1001.456,1039.607,998.174,1039.789Z" transform="translate(-729.628 -643.385)"/><path class="al" d="M987.293,1069.127l-10.8.678-.091-3.014,10.523-.332Z" transform="translate(-729.301 -666.685)"/><path class="q" d="M984.536,1080.106a1.156,1.156,0,0,0,1.45.759l.094-.035,25.143-8.62a1.154,1.154,0,0,0,.759-1.448.309.309,0,0,0-.035-.1l-.445-1.293-27.482,9.364.524,1.369Z" transform="translate(-734.992 -668.859)"/><path class="al" d="M1008.277,1061.12l-25.143,8.62a1.152,1.152,0,0,0-.759,1.445c.013.035.023.068.038.1l.445,1.293,27.479-9.364-.445-1.3a1.265,1.265,0,0,0-1.6-.807Z" transform="translate(-733.723 -662.644)"/><path class="am" d="M1051.073,1053.982l-.681-3.71c-.015-.195-.182-.238-.347-.281l-5.079-.291c-.3,0-.4.139-.327.362l.985,5.752,5.461-1.832Z" transform="translate(-780.252 -654.167)"/><path class="am" d="M1019.974,1054.4l-.843-6.5a.476.476,0,0,0-.271-.357l-5.337-.706c-.091.03-.225.076-.223.225l.992,9.248Z" transform="translate(-756.862 -652.03)"/><rect class="m" width="30.87" height="5.897" transform="translate(365.519 377.585)"/><rect class="f" width="30.87" height="1.359" transform="translate(365.519 380.534)"/><path class="bl" d="M3.772,0H65.834a3.772,3.772,0,0,1,3.772,3.772v204.1a3.772,3.772,0,0,1-3.772,3.772H3.772A3.772,3.772,0,0,1,0,207.877V3.772A3.772,3.772,0,0,1,3.772,0Z" transform="translate(284.764 192.685)"/><rect class="bm" width="69.044" height="60.126" transform="translate(285.093 343.83)"/><path class="bn" d="M1274.158,865.209h-35.142c-.7,0-1.265-.807-1.265-1.8s.567-1.8,1.265-1.8h35.142c.7,0,1.265.807,1.265,1.8S1274.856,865.209,1274.158,865.209Z" transform="translate(-923.141 -515.32)"/><path class="bl" d="M3.414,0H34.7a3.414,3.414,0,0,1,3.414,3.414V145.2a3.414,3.414,0,0,1-3.414,3.414H3.414A3.414,3.414,0,0,1,0,145.2V3.414A3.414,3.414,0,0,1,3.414,0Z" transform="translate(316.262 193.295)"/><circle class="bo" cx="19.958" cy="19.958" r="19.958" transform="translate(314.264 266.35)"/><path class="bp" d="M0,0H70.5V48.067H0Z" transform="translate(285.093 295.692)"/><path class="bq" d="M1172.268,302.916a11.311,11.311,0,0,0-2.523,7.451l-2.016-.473a16.043,16.043,0,0,0,1.969-4.269,4.112,4.112,0,0,0-2.525,3.875,7.831,7.831,0,0,1,.818-8.731c-.6-.438-1.406-.886-2.013-.458a1.784,1.784,0,0,0-.568.934,14.413,14.413,0,0,0-.524,7.243,4.254,4.254,0,0,1-1.979-3.161,7.833,7.833,0,0,1,.556-3.827,5.34,5.34,0,0,0-2.064,2.984,15.679,15.679,0,0,0-.522,3.705,9.693,9.693,0,0,1,1.28-7.724,4.629,4.629,0,0,0-2.448,2.748,14.436,14.436,0,0,0-.709,3.776l-2.375-.638a.381.381,0,0,1-.26-.157.4.4,0,0,1,0-.3c1.03-3.417,2.506-6.833,5.146-9.128a1.556,1.556,0,0,0-1.943-.137,4.028,4.028,0,0,0-1.335,1.665,29.352,29.352,0,0,0-2.591,7.311l-1.28-.273a18.308,18.308,0,0,1,3.914-9.708,2.458,2.458,0,0,0-2.156-.091,2.523,2.523,0,0,0-.826,1.144,27.616,27.616,0,0,0-1.972,7.8,1.618,1.618,0,0,1-.971-.306c-.129-.106,0-1.162,0-1.331a41.142,41.142,0,0,1,.6-6.367c.163-.919.427-2.219.677-3.123.1-.375,1.338-.218,1.943.025a99.34,99.34,0,0,1,11.153,5.608C1168.694,300.112,1170.372,301.645,1172.268,302.916Z" transform="translate(-865.312 -81.124)"/><path class="bq" d="M1232.561,343.049a17.5,17.5,0,0,0-.534,4.22c-.369-.056-.471-.618-.478-1.05q-.03-2.405.175-4.8c.076-.887.139-2.366.957-2.786s1.668.63,2.171,1.266A5.528,5.528,0,0,0,1232.561,343.049Z" transform="translate(-915.494 -144.772)"/><path class="bq" d="M1295.564,393.363a3.789,3.789,0,0,1,2.277,1.594.475.475,0,0,1,.036.433c-.119.2-.418.162-.64.1a11.363,11.363,0,0,1-2.47-.944c-.377-.218-1.6-.99-1.432-1.534C1293.547,392.3,1295.174,393.216,1295.564,393.363Z" transform="translate(-966.289 -162.375)"/><path class="bq" d="M1301.2,404.8a.929.929,0,0,1,.253.415.331.331,0,0,1-.212.387.476.476,0,0,1-.289-.063,5.843,5.843,0,0,1-3.161-3.437C1298.679,401.865,1300.648,404.163,1301.2,404.8Z" transform="translate(-969.628 -168.804)"/><path class="bq" d="M1228.238,264.081c-.215.453-.529.954-1.028,1a9.149,9.149,0,0,1-.218-2.531V260.8c0-.552-.253-1.387.139-1.865.225-.271,2.181-.506,2.169-.182a30,30,0,0,1-.306,3.085,7.461,7.461,0,0,1-.757,2.24Z" transform="translate(-915.046 -64.917)"/><path class="bq" d="M1215.531,262.1q-.759-.2-1.491-.456a1.265,1.265,0,0,1-.65-.4,1.279,1.279,0,0,1-.116-.843c.1-1.126.175-2.26.319-3.384.119-.944.385-1.346,1.46-1.222a.547.547,0,0,1,.643.428.527.527,0,0,1,0,.218C1215.686,256.9,1215.21,262.016,1215.531,262.1Z" transform="translate(-904.839 -62.806)"/><path class="bq" d="M1201.011,259.083a4.526,4.526,0,0,0-2.025-.658c-.367-.028-.815-.058-.972-.392a.953.953,0,0,1,0-.6q.231-1.048.458-2.09a4.585,4.585,0,0,1,.471-1.68.936.936,0,0,1,.84-.387c.157,0,1.544.2,1.546.187a16.377,16.377,0,0,0-.433,3.394C1200.927,257.221,1200.715,258.9,1201.011,259.083Z" transform="translate(-893.424 -60.934)"/><g class="br" transform="translate(287.058 194.817)"><path class="bs" d="M1163.058,271.17a.833.833,0,0,1,.524,1.012,3.236,3.236,0,0,1-.625,1.1,1.549,1.549,0,0,0-.377,1.182c.086.423.62.739.954.476l1.45-3.715a25.244,25.244,0,0,1,5.719,2.505l-2.219,2.961a1.843,1.843,0,0,0-.357.633.628.628,0,0,0,.195.663c.321.228.759-.023,1.065-.268l3.589-2.834a2.614,2.614,0,0,1-1.109,1.979,2.718,2.718,0,0,0-1.149,1.964c1.217.321,1.739-.7,2.561-1.3.506-.375,1.729-1.569,2.422-1.283a9.111,9.111,0,0,1,3.75,2.566c-1.088,1.407-2.943,3-2.432,4.325.817.448,2.936-1.645,3.487-2.025a2.05,2.05,0,0,1,1.184-.38c.253,0,.559.167.506.413-.023.139-.152.23-.253.311a11.271,11.271,0,0,0-3.67,4.272,43.023,43.023,0,0,0-19.93-10.472c0-1.065-.165-1.518-.114-2.579.046-.987.62-2.531,1.926-1.455a1.213,1.213,0,0,1,.385,1.225c-.084.3-.284.559-.342.863s.129.7.44.676c.223-.018.367-.238.478-.433l.886-1.584C1162.23,271.562,1162.584,271.089,1163.058,271.17Z" transform="translate(-1158.188 -262.318)"/><path class="bs" d="M1242.313,314.97a4.694,4.694,0,0,1,2.984-1.43l-3.583,4.555,3.09-2.073a2.532,2.532,0,0,1,1.04-.488.881.881,0,0,1,.957.486l-2.751,2.91c-.324.344-.656.9-.324,1.233.253.253.673.144.992,0,.6-.3,1.141-.714,1.718-1.06a3.633,3.633,0,0,1,1.9-.612,1.736,1.736,0,0,1,1.6,1.012,6,6,0,0,0-5.411,2.612,1.771,1.771,0,0,0-1.012-.63c-.377-.144-.8-.4-.82-.812a1.2,1.2,0,0,1,.253-.65l1.556-2.488a7.92,7.92,0,0,1-1.8,1.3c-.731.344-2.465.448-2.425-.8a3.8,3.8,0,0,1,.719-1.422A7.984,7.984,0,0,1,1242.313,314.97Z" transform="translate(-1218.93 -293.378)"/><path class="bs" d="M1240.46,346.994a2.654,2.654,0,0,1-.435.407,5.819,5.819,0,0,0-1.625,2.389,17.506,17.506,0,0,0-.759,2.819,8.823,8.823,0,0,1,.719-5.234,1.771,1.771,0,0,1,1.453-1.281C1240.344,346.025,1240.88,346.417,1240.46,346.994Z" transform="translate(-1202.335 -304.275)"/><path class="bs" d="M1243.547,356.407a2.12,2.12,0,0,0,.139,1.9,1.76,1.76,0,0,0,2.088.223c.683-.324,1.248-.86,1.939-1.167.342-.149.84-.185.992.154.134.3-.124.623-.362.848l-1.989,1.9a1.519,1.519,0,0,0,2.48-.463c.2-.468.273-1.136.774-1.23s.825.552.678,1.012a3.093,3.093,0,0,1-.921,1.131,1.42,1.42,0,0,0-.549,1.291c.174.638.989.8,1.65.838a3.79,3.79,0,0,0,.506-1.3c.157-.443.557-.893,1.012-.782a.774.774,0,0,1,.506.807,1.756,1.756,0,0,1-.415.931c-.364.483-.843,1.048-.62,1.609a1.536,1.536,0,0,0,.9.721c.362.159.78.294,1.063.048.238-.2.253-.61.547-.759s.648.134.731.45a2.886,2.886,0,0,1-.033.977.92.92,0,0,0,.311.881c.278.175.587.091.878.175.635.182.81.972,1.012,1.6a4.866,4.866,0,0,0,2.341,2.8c-.223-.116-.481-.873-.61-1.1q-.359-.648-.736-1.293-.691-1.184-1.415-2.354-1.45-2.331-3.037-4.576t-3.283-4.368a40.132,40.132,0,0,0-3.543-4.173c-.81-.759-1.326-.547-1.835.367A13.05,13.05,0,0,0,1243.547,356.407Z" transform="translate(-1225.638 -325.079)"/><path class="bs" d="M1264.319,342.118a.9.9,0,0,1,.506.147.329.329,0,0,1,.078.456v.013a.474.474,0,0,1-.228.1c-.759.185-6.018,1.939-6.119.8-.056-.63,1.939-1.078,2.419-1.2A10.4,10.4,0,0,1,1264.319,342.118Z" transform="translate(-1231.487 -314.98)"/><path class="bs" d="M1269.136,349.344c.253,0,.577.053.683.294a.506.506,0,0,1-.2.559,1.4,1.4,0,0,1-.6.2c-.83.144-5.727,1.564-5.725.195C1263.3,349.326,1268.2,349.318,1269.136,349.344Z" transform="translate(-1235.024 -320.391)"/><path class="bs" d="M1269.876,358.634a.554.554,0,0,1,.271-.349,5.254,5.254,0,0,1,5.78-.066.556.556,0,0,1,.21.2.415.415,0,0,1-.164.494,1.094,1.094,0,0,1-.539.149,6.2,6.2,0,0,0-3.351.868c-.438.286-.612.39-1.066.076C1270.734,359.818,1269.836,359.006,1269.876,358.634Z" transform="translate(-1239.942 -326.402)"/><path class="bs" d="M1284.682,367.251a2.471,2.471,0,0,1,1.116.238,1.04,1.04,0,0,1,.582.921,4.454,4.454,0,0,0-4.186,1.739c-.21.289-.418.625-.759.716-1.055.273-2.009-1.832-1.265-2.531C1281.179,367.382,1283.388,367.205,1284.682,367.251Z" transform="translate(-1247.433 -333.765)"/><path class="bs" d="M1290.2,377.649a3.462,3.462,0,0,1,2.531,1.23.394.394,0,0,1,.1.2.286.286,0,0,1-.253.253,1.065,1.065,0,0,1-.387-.066,1.771,1.771,0,0,0-1.339.19,8.919,8.919,0,0,0-.969.807,1.285,1.285,0,0,1-1.167.311,5.188,5.188,0,0,1,4.244.23c.165.083.344.286.218.42a.324.324,0,0,1-.253.063l-2.432-.071a4.876,4.876,0,0,1-2.187-.4C1285.866,379.509,1288.541,377.613,1290.2,377.649Z" transform="translate(-1252.976 -341.536)"/><path class="bs" d="M1281.626,276.345a18.911,18.911,0,0,0-6.886-7.157c-.354-.2-.84-.377-1.131-.091a.99.99,0,0,0-.215.471l-1.518,5.962a3.443,3.443,0,0,0-.129,1.772,1.164,1.164,0,0,0,1.334.9,30.957,30.957,0,0,1,1.04-3.682c.081-.23.21-.506.453-.526a.458.458,0,0,1,.45.344,1.293,1.293,0,0,1,0,.607l-.759,4.776a5.443,5.443,0,0,0,1.266-3.138c.028-.4.083-.906.466-1.027a.64.64,0,0,1,.721.408,1.853,1.853,0,0,1,.068.9l-.289,3.336a2.276,2.276,0,0,0,.058.987.794.794,0,0,0,.739.562c.385-.028.635-.425.724-.8a4.978,4.978,0,0,1,.253-1.126c.175-.349.6-.617.934-.415s.291.7.192,1.081a4.2,4.2,0,0,0-.21,1.87,1.26,1.26,0,0,0,1.339,1.065c.572-.119.876-.736,1.055-1.291a2.378,2.378,0,0,1,.876-1.468,2.067,2.067,0,0,1,.6,1.918,6.075,6.075,0,0,0-.079,2.09,2.032,2.032,0,0,0,1.989,1.486,18.4,18.4,0,0,0-1.207-4.887,27.612,27.612,0,0,0-2.139-4.917Z" transform="translate(-1230.882 -266.915)"/><path class="bs" d="M1262,273.773c-.835-.17-1.792-.438-2.123-1.22a2.647,2.647,0,0,1-.1-1.265l.319-3.756a17.25,17.25,0,0,1,.385-2.06.908.908,0,0,1,.491-.711,1.1,1.1,0,0,1,.506-.02c.253.028,2.179.139,2.179.466-.37,1.468-.744,2.936-1.106,4.4A30.948,30.948,0,0,0,1262,273.773Z" transform="translate(-1221.974 -263.758)"/><path class="bs" d="M1242.116,269.075c-.205-1.374-.276-3.082-.481-4.457l-.671,3.037a2.092,2.092,0,0,1-.253.734.63.63,0,0,1-1.177-.142,3.485,3.485,0,0,1-.081-1.038l.025-2.341c.076-.954-.177-2.212.235-3.168.607-1.4,3.125-.521,4.287-.392.132.015.286.046.342.167a.394.394,0,0,1,0,.253,40.657,40.657,0,0,1-1.106,4.191l-.489,1.415C1242.622,267.668,1242.263,268.632,1242.116,269.075Z" transform="translate(-1206.81 -260.918)"/><path class="bs" d="M1153.8,350.338a1.569,1.569,0,0,1,2.214.144c.023.025.043.053.063.078a2.761,2.761,0,0,0-1.05,2.68c.053.286.218.615.506.628s.476-.283.506-.559a6.5,6.5,0,0,1,.068-.83,1.264,1.264,0,0,1,1.46-.759,3.8,3.8,0,0,1,1.576.848,3.083,3.083,0,0,0-1.111,2.807c.053.367.283.8.653.759a.64.64,0,0,0,.506-.557c.051-.253,0-.531.053-.795a1.909,1.909,0,0,1,2.475-1.23,5.551,5.551,0,0,1,2.409,1.939,6.716,6.716,0,0,0-2.025.729,2.255,2.255,0,0,0-1.131,1.729,7.941,7.941,0,0,1,6.63.435c-1.708,0-3.621.1-4.808,1.341a9.484,9.484,0,0,0,3.771.094,5.1,5.1,0,0,1,3.634.739,7.985,7.985,0,0,0-3.146,1.111,17.1,17.1,0,0,1,5.542,2.518,8.883,8.883,0,0,1-3.584-.291l4.156,2a3.211,3.211,0,0,1,1.065.706,1.08,1.08,0,0,1,.207,1.189.664.664,0,0,1-1.068.124,4.576,4.576,0,0,1,2.26,1.893l-1.845.058a3.474,3.474,0,0,1,1.688,4.52,3.75,3.75,0,0,1-2.025-1.546,6.074,6.074,0,0,1-.3-2.06,1.748,1.748,0,0,0-1.086-1.635,3.794,3.794,0,0,0,0,2.569c-.873-.1-1.266-1.159-1.283-2.037a5.19,5.19,0,0,0-.278-2.584c-.147-.253-.438-.473-.7-.354s-.276.483-.253.772l.2,2.159a2.783,2.783,0,0,1-1.1-1.822c-.1.506-.843.628-1.24.309a1.681,1.681,0,0,1-.489-1.392,7.649,7.649,0,0,0,.038-1.518,1.212,1.212,0,0,0-.944-1.06,3.171,3.171,0,0,0,0,2.407c-.957.063-1.658-.924-1.873-1.858a11.818,11.818,0,0,0-.6-2.8c-.162-.319-.458-.638-.815-.59a.789.789,0,0,0-.526.908,4.1,4.1,0,0,0,.473,1.065,1.185,1.185,0,0,1,.068,1.119c-.792.281-1.6-.521-1.772-1.346a11.925,11.925,0,0,1,.086-2.508,2,2,0,0,0-.425-1.392.974.974,0,0,0-1.329-.147,1.21,1.21,0,0,0-.144,1.324,5.142,5.142,0,0,1,.466,1.326c.036.471-.288,1.012-.759.982s-.683-.537-.673-.972.192-.85.218-1.286-.182-.946-.612-1.012a.849.849,0,0,0-.871.759,3.166,3.166,0,0,0,.185,1.265c.083.319.076.759-.238.855-.375.106-.59-.41-.633-.795l-.286-2.635a2.07,2.07,0,0,0-.293-1.012.709.709,0,0,0-.939-.228,1,1,0,0,0-.253.919l.164,3.2a4.108,4.108,0,0,1-1.167-3.012,3.9,3.9,0,0,0-.051-1.564c-.19-.491-.883-.822-1.248-.443a1.125,1.125,0,0,0-.192.863q.083,1.425.3,2.834a1.283,1.283,0,0,1-1.351-.741,3.692,3.692,0,0,1-.281-1.627l-.114-5.006a6.515,6.515,0,0,1,.235-2.356,2.773,2.773,0,0,1,1.671-1.668C1153.18,348.815,1154.078,349.571,1153.8,350.338Z" transform="translate(-1150.517 -313.01)"/></g><path class="q" d="M1240.073,625.116a1.012,1.012,0,0,1-1.012-1.012V551.572a1.012,1.012,0,1,1,2.025,0V624.1a1.012,1.012,0,0,1-1.012,1.012Z" transform="translate(-924.119 -282.99)"/><path class="q" d="M1240.073,625.116a1.012,1.012,0,0,1-1.012-1.012V551.572a1.012,1.012,0,1,1,2.025,0V624.1a1.012,1.012,0,0,1-1.012,1.012Z" transform="translate(-950.126 -281.621)"/><path class="q" d="M1290.362,625.116a1.012,1.012,0,0,1-1.012-1.012V551.572a1.012,1.012,0,1,1,2.025,0V624.1a1.012,1.012,0,0,1-1.012,1.012Z" transform="translate(-961.682 -282.99)"/><path class="q" d="M1290.362,625.116a1.012,1.012,0,0,1-1.012-1.012V551.572a1.012,1.012,0,1,1,2.025,0V624.1a1.012,1.012,0,0,1-1.012,1.012Z" transform="translate(-987.689 -281.621)"/><path class="q" d="M1340.652,625.116a1.012,1.012,0,0,1-1.012-1.012V551.572a1.012,1.012,0,1,1,2.025,0V624.1a1.012,1.012,0,0,1-1.012,1.012Z" transform="translate(-999.245 -282.99)"/><path class="q" d="M1390.943,625.116a1.012,1.012,0,0,1-1.012-1.012V551.572a1.012,1.012,0,1,1,2.025,0V624.1a1.012,1.012,0,0,1-1.012,1.012Z" transform="translate(-1036.807 -282.99)"/><path class="q" d="M1307.35,552.595h-66.526c-.974,0-1.764-.453-1.764-1.012s.79-1.012,1.764-1.012h66.526c.974,0,1.764.453,1.764,1.012S1308.325,552.595,1307.35,552.595Z" transform="translate(-953.967 -282.997)"/><path class="q" d="M1306.38,598.365H1240.8c-.961,0-1.739-.453-1.739-1.012s.778-1.012,1.739-1.012h65.581c.96,0,1.739.453,1.739,1.012S1307.34,598.365,1306.38,598.365Z" transform="translate(-952.971 -317.184)"/><rect class="bt" width="62.993" height="27.562" rx="12.45" transform="translate(289.578 316.196)"/><path class="q" d="M1197.136,769.24h-56.689a3.682,3.682,0,0,1-3.677-3.675V744.307a3.682,3.682,0,0,1,3.677-3.677h56.689a3.68,3.68,0,0,1,3.675,3.677v21.258A3.68,3.68,0,0,1,1197.136,769.24Zm-56.689-27.562a2.632,2.632,0,0,0-2.627,2.627v21.258a2.63,2.63,0,0,0,2.627,2.624h56.689a2.629,2.629,0,0,0,2.624-2.624V744.3a2.629,2.629,0,0,0-2.624-2.627Z" transform="translate(-847.716 -424.958)"/><path class="q" d="M1336.285,856.734a1.577,1.577,0,0,1-1.518-1.139l-2.369-8.217a1.58,1.58,0,0,1,3.037-.873l2.369,8.215a1.579,1.579,0,0,1-1.081,1.954,1.6,1.6,0,0,1-.438.061Z" transform="translate(-993.788 -503.183)"/><path class="q" d="M1164.086,856.741a1.572,1.572,0,0,1-1.5-2.06l2.64-8.215a1.577,1.577,0,0,1,3,.964l-2.647,8.222a1.576,1.576,0,0,1-1.5,1.088Z" transform="translate(-866.944 -503.19)"/><path class="a" d="M1181.293,463.241h-62.631a5.062,5.062,0,0,1-5.062-5.062V253.5a5.062,5.062,0,0,1,5.062-5.062h62.631a5.061,5.061,0,0,1,5.061,5.062V458.177a5.061,5.061,0,0,1-5.061,5.062Zm-62.631-211.65a1.913,1.913,0,0,0-1.911,1.911V458.177a1.913,1.913,0,0,0,1.911,1.911h62.631a1.913,1.913,0,0,0,1.911-1.911V253.5a1.913,1.913,0,0,0-1.911-1.911Z" transform="translate(-830.41 -57.329)"/><path class="a" d="M1278.218,376.649c-1.012,0-1.858-.567-1.858-1.265V253.335c0-.7.833-1.265,1.858-1.265s1.858.567,1.858,1.265V375.384C1280.065,376.082,1279.245,376.649,1278.218,376.649Z" transform="translate(-951.979 -60.04)"/><rect class="c" width="7.5" height="10.855" rx="3.75" transform="translate(60.333 296.963)"/><path class="a" d="M217.662,633.978a4.992,4.992,0,0,1-4.992-4.992v-10.8a5,5,0,0,1,10,0h0v10.8a4.992,4.992,0,0,1-4.992,4.992Zm0-18.3a2.5,2.5,0,0,0-2.5,2.5v10.8a2.5,2.5,0,1,0,5,0V618.183a2.5,2.5,0,0,0-2.5-2.5Z" transform="translate(-153.578 -325.291)"/><path class="bu" d="M3.75,0A3.75,3.75,0,0,1,7.5,3.75V7.1A3.75,3.75,0,0,1,0,7.1V3.75A3.75,3.75,0,0,1,3.75,0Z" transform="translate(367.092 288.963)"/><path class="a" d="M217.662,633.978a4.992,4.992,0,0,1-4.992-4.992v-10.8a5,5,0,0,1,10,0h0v10.8a4.992,4.992,0,0,1-4.992,4.992Zm0-18.3a2.5,2.5,0,0,0-2.5,2.5v10.8a2.5,2.5,0,1,0,5,0V618.183a2.5,2.5,0,0,0-2.5-2.5Z" transform="translate(153.182 -325.291)"/><ellipse class="bu" cx="3.949" cy="3.949" rx="3.949" ry="3.949" transform="translate(362.807 273.66) rotate(-25)"/><ellipse class="bu" cx="3.949" cy="3.949" rx="3.949" ry="3.949" transform="translate(266.584 229.878) rotate(-25)"/><ellipse class="bu" cx="6.233" cy="6.233" rx="6.233" ry="6.233" transform="translate(347.662 249.266) rotate(-25)"/><ellipse class="bu" cx="6.233" cy="6.233" rx="6.233" ry="6.233" transform="translate(287.975 221.867) rotate(-25)"/><ellipse class="bu" cx="11.694" cy="11.694" rx="11.694" ry="11.694" transform="translate(314.65 221.817) rotate(-25)"/></g></svg>