<svg xmlns="http://www.w3.org/2000/svg" width="16.315" height="13.233" viewBox="0 0 16.315 13.233"><defs><style>.a{fill:#9696b9;fill-rule:evenodd;}</style></defs><path class="a" d="M43.166,15.233a9.433,9.433,0,0,0,9.517-9.517V5.263a7.368,7.368,0,0,0,1.632-1.722,7.524,7.524,0,0,1-1.9.544,3.527,3.527,0,0,0,1.45-1.813,8.314,8.314,0,0,1-2.085.816A3.237,3.237,0,0,0,49.33,2a3.405,3.405,0,0,0-3.354,3.354,1.767,1.767,0,0,0,.091.725,9.371,9.371,0,0,1-6.889-3.535,3.471,3.471,0,0,0-.453,1.722,3.6,3.6,0,0,0,1.45,2.81,3.056,3.056,0,0,1-1.541-.453h0a3.313,3.313,0,0,0,2.719,3.263,2.794,2.794,0,0,1-.906.091,1.542,1.542,0,0,1-.634-.091,3.434,3.434,0,0,0,3.172,2.357,6.843,6.843,0,0,1-4.169,1.45A2.509,2.509,0,0,1,38,13.6a8.555,8.555,0,0,0,5.166,1.632" transform="translate(-38 -2)"/></svg>