<svg xmlns="http://www.w3.org/2000/svg" xmlns:xlink="http://www.w3.org/1999/xlink" width="459.849" height="318.726" viewBox="0 0 459.849 318.726"><defs><style>.a{fill:#b0deff;}.b{fill:#fff;}.c,.d,.g,.h{fill:#23235d;}.c{font-size:17px;font-family:ProximaNova-Bold, Proxima Nova;font-weight:700;}.d,.h{stroke:#23235d;}.d{stroke-width:0.3px;}.e{fill:#aadaff;}.f{fill:#a9d9ff;}.h{stroke-width:0.5px;}.i{fill:url(#k);}.j{fill:#cf7653;}.k,.l{fill:url(#n);}.l{opacity:0.207;}.m{fill:url(#u);}.n,.w,.z{opacity:0.312;}.n{fill:url(#v);}.o{fill:#ea9d7d;}.p{fill:url(#w);}.q{fill:#161643;}.r{fill:url(#x);}.s{fill:#4f2b23;}.t{fill:#b4603f;}.u{fill:#7a3e2b;}.v{fill:#db8a6b;}.w{fill:url(#y);}.x{fill:#cc7a5e;}.y{stroke:#cc7a5e;fill:url(#z);}.z{fill:url(#aa);}.aa{fill:url(#ab);}.ab{fill:url(#ac);}.ac{filter:url(#l);}.ad{filter:url(#i);}.ae{filter:url(#g);}.af{filter:url(#e);}.ag{filter:url(#c);}.ah{filter:url(#a);}</style><filter id="a" x="0" y="100.479" width="110.967" height="103.519" filterUnits="userSpaceOnUse"><feOffset dy="3" input="SourceAlpha"/><feGaussianBlur stdDeviation="3" result="b"/><feFlood flood-color="#1a8cff" flood-opacity="0.161"/><feComposite operator="in" in2="b"/><feComposite in="SourceGraphic"/></filter><filter id="c" x="88.27" y="23.793" width="96.818" height="82.531" filterUnits="userSpaceOnUse"><feOffset dy="3" input="SourceAlpha"/><feGaussianBlur stdDeviation="3" result="d"/><feFlood flood-color="#1a8cff" flood-opacity="0.161"/><feComposite operator="in" in2="d"/><feComposite in="SourceGraphic"/></filter><filter id="e" x="232.817" y="1.989" width="102.822" height="90.645" filterUnits="userSpaceOnUse"><feOffset dy="3" input="SourceAlpha"/><feGaussianBlur stdDeviation="3" result="f"/><feFlood flood-color="#1a8cff" flood-opacity="0.161"/><feComposite operator="in" in2="f"/><feComposite in="SourceGraphic"/></filter><filter id="g" x="310.976" y="64.358" width="111.686" height="104.957" filterUnits="userSpaceOnUse"><feOffset dy="3" input="SourceAlpha"/><feGaussianBlur stdDeviation="3" result="h"/><feFlood flood-color="#1a8cff" flood-opacity="0.161"/><feComposite operator="in" in2="h"/><feComposite in="SourceGraphic"/></filter><filter id="i" x="362.099" y="199.826" width="97.75" height="83.752" filterUnits="userSpaceOnUse"><feOffset dy="3" input="SourceAlpha"/><feGaussianBlur stdDeviation="3" result="j"/><feFlood flood-color="#1a8cff" flood-opacity="0.161"/><feComposite operator="in" in2="j"/><feComposite in="SourceGraphic"/></filter><linearGradient id="k" x1="-0.829" y1="0.5" x2="0.17" y2="0.5" gradientUnits="objectBoundingBox"><stop offset="0.44" stop-color="#ff8440"/><stop offset="0.79" stop-color="#f77731"/></linearGradient><filter id="l" x="156.629" y="130.779" width="127.051" height="187.947" filterUnits="userSpaceOnUse"><feOffset dy="3" input="SourceAlpha"/><feGaussianBlur stdDeviation="2" result="m"/><feFlood flood-opacity="0.2"/><feComposite operator="in" in2="m"/><feComposite in="SourceGraphic"/></filter><linearGradient id="n" x1="-0.119" y1="0.696" x2="0.693" y2="0.779" gradientUnits="objectBoundingBox"><stop offset="0" stop-color="#86c5f7"/><stop offset="1" stop-color="#9ed3fd"/></linearGradient><linearGradient id="u" x1="-1.199" y1="20.297" x2="-0.452" y2="20.297" gradientUnits="objectBoundingBox"><stop offset="0.01" stop-color="#743529"/><stop offset="0.98" stop-color="#4f211e"/></linearGradient><linearGradient id="v" x1="-101.833" y1="1.338" x2="-102.833" y2="1.338" gradientUnits="objectBoundingBox"><stop offset="0.13" stop-color="#5b1219" stop-opacity="0.4"/><stop offset="0.41" stop-color="#5b1219" stop-opacity="0.188"/><stop offset="0.72" stop-color="#5b1219" stop-opacity="0.051"/><stop offset="1" stop-color="#5b1219" stop-opacity="0"/></linearGradient><linearGradient id="w" x1="-217.217" y1="7.33" x2="-217.287" y2="8.263" gradientUnits="objectBoundingBox"><stop offset="0" stop-color="#5b1219" stop-opacity="0"/><stop offset="0.16" stop-color="#5b1219" stop-opacity="0.078"/><stop offset="1" stop-color="#5b1219" stop-opacity="0.502"/></linearGradient><linearGradient id="x" y1="7.566" x2="1" y2="7.566" gradientUnits="objectBoundingBox"><stop offset="0.19" stop-color="#743529"/><stop offset="0.47" stop-color="#5e2b21"/></linearGradient><linearGradient id="y" x1="-64.034" y1="-0.506" x2="-63.936" y2="0.444" gradientUnits="objectBoundingBox"><stop offset="0" stop-color="#5b1219" stop-opacity="0"/><stop offset="0.28" stop-color="#5b1219" stop-opacity="0.051"/><stop offset="0.59" stop-color="#5b1219" stop-opacity="0.188"/><stop offset="0.87" stop-color="#5b1219" stop-opacity="0.4"/></linearGradient><linearGradient id="z" x1="0.946" y1="0.646" x2="0.13" y2="0.79" gradientUnits="objectBoundingBox"><stop offset="0" stop-color="#e89877"/><stop offset="1" stop-color="#e69d7f"/></linearGradient><linearGradient id="aa" x1="-67.386" y1="191.514" x2="-66.888" y2="191.514" gradientUnits="objectBoundingBox"><stop offset="0" stop-color="#5b1219" stop-opacity="0"/><stop offset="0.43" stop-color="#5b1219" stop-opacity="0.031"/><stop offset="0.65" stop-color="#5b1219" stop-opacity="0.11"/><stop offset="0.83" stop-color="#5b1219" stop-opacity="0.259"/><stop offset="0.98" stop-color="#5b1219" stop-opacity="0.471"/><stop offset="1" stop-color="#5b1219" stop-opacity="0.502"/></linearGradient><linearGradient id="ab" x1="1" y1="0.5" x2="0" y2="0.5" gradientUnits="objectBoundingBox"><stop offset="0" stop-color="#bfe7ff"/><stop offset="1" stop-color="#a9d9ff"/></linearGradient><linearGradient id="ac" x1="0.8" y1="0.786" x2="0" y2="0.5" xlink:href="#ab"/></defs><g transform="translate(-685.717 -3630.918)"><ellipse class="a" cx="26.817" cy="26.817" rx="26.817" ry="26.817" transform="translate(732.202 3768.712) rotate(-25)"/><ellipse class="a" cx="3.949" cy="3.949" rx="3.949" ry="3.949" transform="translate(824.86 3795.446) rotate(-25)"/><ellipse class="a" cx="6.233" cy="6.233" rx="6.233" ry="6.233" transform="translate(803.002 3792.596) rotate(-25)"/><g class="ah" transform="matrix(1, 0, 0, 1, 685.72, 3630.92)"><rect class="b" width="74.853" height="59.454" rx="6" transform="translate(9 138.11) rotate(-25)"/></g><text class="c" transform="translate(751.227 3796.093) rotate(-25)"><tspan x="-15.589" y="0">SPA</tspan></text><g transform="matrix(0.891, -0.454, 0.454, 0.891, 705.992, 3757.681)"><path class="d" d="M40.024,25.978a3.959,3.959,0,0,0-3.166-3.9L34.818,18.8a6.067,6.067,0,0,0-5.132-2.81h-3.3A11.944,11.944,0,0,0,26,12.682a2.414,2.414,0,0,0,1.15-3.206l-.5-1.056A2.408,2.408,0,0,0,23.8,7.136a7.336,7.336,0,0,0-2.844-3.323A7.163,7.163,0,0,0,18.15,2.767c-.1-.017-.211-.019-.315-.03A3.984,3.984,0,1,0,10.746,6.21,7.3,7.3,0,0,0,9.708,9.1a7.02,7.02,0,0,0-.067.977,7.26,7.26,0,0,0,.805,3.337A2.419,2.419,0,0,0,9.5,16.081a5.973,5.973,0,0,0-4.2,2.826l-2.129,3.58c-.173.052-.348.1-.519.157a3.754,3.754,0,0,0-1.285,6.391A2.654,2.654,0,0,0,.082,31.3v2.663A2.668,2.668,0,0,0,.97,35.953l.887-.993a1.334,1.334,0,0,1-.443-.993V31.3a1.333,1.333,0,0,1,1.331-1.331H37.362A1.333,1.333,0,0,1,38.693,31.3v2.663A1.333,1.333,0,0,1,37.362,35.3H13.4v1.331H37.362a2.665,2.665,0,0,0,2.663-2.663V31.3a2.654,2.654,0,0,0-1.361-2.309A4.011,4.011,0,0,0,40.024,25.978Zm-6.337-6.471,1.587,2.548-7,.607-2.5-1.875a.664.664,0,0,0-.4-.133h-.3a7.085,7.085,0,0,0,1.129-2.705c.038-.2.07-.41.1-.623h3.383a4.728,4.728,0,0,1,4,2.183ZM25.443,8.987l.5,1.059a1.079,1.079,0,0,1-.362,1.341c-.047-.121-.083-.25-.134-.367L24.329,8.378a1.076,1.076,0,0,1,1.113.608ZM22.6,7.712l1.619,3.832a8.986,8.986,0,0,1,.356.974,10.681,10.681,0,0,1,.457,4.094A9.241,9.241,0,0,1,24.9,17.7a5.785,5.785,0,0,1-1.124,2.5,3.957,3.957,0,0,1-.423.449l-5.916.058a10.688,10.688,0,0,1-3.339-3.28,9.536,9.536,0,0,1-.52-.885l-1.919-3.685a5.942,5.942,0,0,1-.68-2.747l.482.174.451-1.252-.781-.281a5.982,5.982,0,0,1,.4-1.194l1.5,1,.739-1.108L12.208,6.412a5.99,5.99,0,0,1,1.657-1.5l.939,2,1.205-.567-.939-2a5.9,5.9,0,0,1,2.13-.316l-.456,1.822,1.291.323L18.528,4.2a5.857,5.857,0,0,1,1.254.478l-.284.789,1.252.451.172-.479A6.011,6.011,0,0,1,22.6,7.712Zm-11.536,6.9,1.328,2.551c.064.121.125.231.183.337a1.07,1.07,0,0,1-1.256-.586l-.5-1.048A1.094,1.094,0,0,1,11.067,14.611Zm3-13.264a2.66,2.66,0,0,1,2.319,1.368A7.322,7.322,0,0,0,11.615,5.04a2.644,2.644,0,0,1,2.446-3.693ZM6.448,19.585a4.654,4.654,0,0,1,3.609-2.233l.061.128a2.4,2.4,0,0,0,3.189,1.168l.018-.009,0,0a12.056,12.056,0,0,0,2.118,2.272l-8.8.88c-.556.055-1.108.143-1.658.249ZM3.074,23.906a17.127,17.127,0,0,1,3.7-.792l11.278-1.131h7.1l1.2.9-7.729,1.1a.666.666,0,0,0-.136.034L5.954,28.64H3.842a2.429,2.429,0,0,1-.768-4.733ZM36.1,28.641H34.728L19.446,27.285a.63.63,0,0,0-.273.033l-3.889,1.322H9.8l9.082-3.346,8.621-1.231,8.457-.749h.126a2.284,2.284,0,0,1,.28.016,2.666,2.666,0,0,1-.273,5.309Z" transform="translate(0)"/><path class="d" d="M165.4,163.63l.835,1.038a5.836,5.836,0,0,1,2.476-1.164l-.266-1.3A7.173,7.173,0,0,0,165.4,163.63Z" transform="translate(-151.56 -148.701)"/><path class="d" d="M226.791,199.064a3.783,3.783,0,0,1-1.511.359l-.109,0,.031,1.331.109,0a5.131,5.131,0,0,0,3.154-1.192l-.854-1.021A3.774,3.774,0,0,1,226.791,199.064Z" transform="translate(-206.36 -182.021)"/><path class="d" d="M153.722,140.722l.377-1.277a3.649,3.649,0,0,0-4.5,2.125l1.234.5A2.31,2.31,0,0,1,153.722,140.722Z" transform="translate(-137.078 -127.691)"/><path class="d" d="M219.393,108.668l1.223.524a2.312,2.312,0,0,1,2.881-1.363l.4-1.269A3.646,3.646,0,0,0,219.393,108.668Z" transform="translate(-201.062 -97.529)"/><path class="d" d="M0,0H1.332V4.08H0Z" transform="matrix(0.905, -0.426, 0.426, 0.905, 17.54, 12.698)"/><path class="d" d="M237.839,132.073a5.841,5.841,0,0,1,2.476-1.164l-.268-1.3A7.174,7.174,0,0,0,237,131.035Z" transform="translate(-217.208 -118.819)"/><path class="d" d="M41.112,378.932a2.121,2.121,0,0,0-1.339-.95,3.045,3.045,0,0,0-1-.063c-.007-.043-.016-.086-.026-.129a2.051,2.051,0,0,0-.981-1.292,2.147,2.147,0,0,0-2.868.658,2.7,2.7,0,0,0-.353.842,2.132,2.132,0,0,0-1.7.446l-.021.017a1.957,1.957,0,0,0-.732,1.384,1.935,1.935,0,0,0,.512,1.461l.071.078a2.828,2.828,0,0,0,.695.552,1.955,1.955,0,0,0-.028,1.684,2.171,2.171,0,0,0,2.74,1.092,2.9,2.9,0,0,0,.829-.492,2.171,2.171,0,0,0,1.538.639q.076,0,.153-.005a2.078,2.078,0,0,0,1.456-.729,1.966,1.966,0,0,0,.461-1.47,2.756,2.756,0,0,0-.244-.893,1.985,1.985,0,0,0,1.08-1.329,1.963,1.963,0,0,0-.247-1.5Zm-1.638.348a.8.8,0,0,1,.507.353.641.641,0,0,1,.084.489.723.723,0,0,1-.7.519,3.025,3.025,0,0,0-1.681-.588A1.6,1.6,0,0,1,39.474,379.28Zm-3.449-1.409a.813.813,0,0,1,1.077-.22.732.732,0,0,1,.355.457.621.621,0,0,1,.005.273,2.757,2.757,0,0,0-1.093,1.349,1.492,1.492,0,0,1-.517-.8A1.351,1.351,0,0,1,36.025,377.871Zm-2.6,2.073a.639.639,0,0,1,.243-.449l.021-.017a.812.812,0,0,1,.917-.062,2.822,2.822,0,0,0,.994,1.4,1.644,1.644,0,0,1-1.937-.335l-.071-.077A.617.617,0,0,1,33.426,379.944Zm2.178,3.527a.833.833,0,0,1-1.044-.4.63.63,0,0,1,.172-.751c.042,0,.084,0,.126,0a2.971,2.971,0,0,0,1.649-.493,1.347,1.347,0,0,1-.061.833A1.464,1.464,0,0,1,35.6,383.471Zm3.441-.207a.757.757,0,0,1-.533.261.822.822,0,0,1-.8-.453,2.666,2.666,0,0,0,.054-1.678,1.6,1.6,0,0,1,1.428,1.388A.645.645,0,0,1,39.045,383.264Z" transform="translate(-29.348 -344.901)"/></g><g transform="matrix(0.839, 0.545, -0.545, 0.839, 2259.243, 119.022)"><ellipse class="a" cx="26.817" cy="26.817" rx="26.817" ry="26.817" transform="translate(732.202 3768.712) rotate(-25)"/><ellipse class="a" cx="3.949" cy="3.949" rx="3.949" ry="3.949" transform="translate(824.86 3795.446) rotate(-25)"/><ellipse class="a" cx="6.233" cy="6.233" rx="6.233" ry="6.233" transform="translate(803.002 3792.596) rotate(-25)"/><g class="ag" transform="matrix(0.84, -0.54, 0.54, 0.84, 593.05, 3802.33)"><rect class="b" width="74.853" height="59.454" rx="6" transform="translate(97.27 35.01) rotate(-4)"/></g><text class="c" transform="matrix(0.799, -0.602, 0.602, 0.799, 754.594, 3793.438)"><tspan x="-15.172" y="0">EAT</tspan></text><g transform="translate(696.056 3763.235) rotate(-39)"><path class="d" d="M2.7,51.916a.681.681,0,0,0,.661.516h28.6a.681.681,0,0,0,.661-.516l.681-2.724a.681.681,0,0,0-.661-.847h-.716a14.31,14.31,0,0,0-11.57-13.357c.008-.089.027-.175.027-.264a2.724,2.724,0,1,0-5.448,0c0,.089.019.175.027.264A14.31,14.31,0,0,0,3.4,48.345H2.681a.681.681,0,0,0-.661.847Zm28.732-.847H3.894l-.341-1.362H31.774ZM16.3,34.724a1.362,1.362,0,1,1,2.724,0c0,.023-.006.046-.007.068-.447-.042-.9-.068-1.355-.068s-.909.027-1.355.068C16.308,34.77,16.3,34.747,16.3,34.724Zm1.362,1.362A12.945,12.945,0,0,1,30.569,48.345H4.759A12.945,12.945,0,0,1,17.664,36.086Z" transform="translate(0 -9.569)"/><path class="d" d="M10.275,45.788l1.179.681a10.235,10.235,0,0,1,11.4-4.786l.341-1.318a11.6,11.6,0,0,0-12.923,5.424Z" transform="translate(-2.639 -12.12)"/><path class="d" d="M8.536,52.072l1.318.341a10.148,10.148,0,0,1,.421-1.277l-1.263-.511a11.605,11.605,0,0,0-.477,1.447Z" transform="translate(-2.085 -15.509)"/><path class="d" d="M49.2,5.405H47.155V2.681a.681.681,0,0,0-.786-.673L24.576,5.413v.013a.672.672,0,0,0-.576.66V21.069h1.362V6.767H48.517V41.5H41.026v1.362H49.2a.681.681,0,0,0,.681-.681V6.086A.681.681,0,0,0,49.2,5.405Zm-3.405,0H33.451L45.793,3.477Z" transform="translate(-7.017)"/><path class="d" d="M32.455,17.072l-1.927-1.926-.963.963,1.927,1.926a3.405,3.405,0,0,0,4.285.433l1.975,1.975-6.26,6.26.963.963,6.26-6.26,6.26,6.26.963-.963-6.26-6.26,1.012-1.012A3.409,3.409,0,0,0,44.975,19l.963-.963a3.4,3.4,0,1,0-4.815-4.815l-.963.963a3.405,3.405,0,0,0-.433,4.285L38.715,19.48,36.74,17.5a3.405,3.405,0,0,0-.433-4.285l-1.926-1.927-.963.963,1.926,1.927a2.043,2.043,0,0,1,.393,2.316l-3.282-3.282-.963.963,3.282,3.282A2.043,2.043,0,0,1,32.455,17.072Zm8.668-1.926.963-.963a2.043,2.043,0,1,1,2.889,2.889l-.963.963a2.043,2.043,0,1,1-2.889-2.889Z" transform="translate(-8.792 -2.964)"/><path class="d" d="M55,38h1.362v1.362H55Z" transform="translate(-16.905 -11.482)"/><path class="d" d="M55,42h1.362v1.362H55Z" transform="translate(-16.905 -12.758)"/><path class="d" d="M55,46h1.362v1.362H55Z" transform="translate(-16.905 -14.034)"/><path class="d" d="M40,38h8.854v1.362H40Z" transform="translate(-12.12 -11.482)"/><path class="d" d="M44,42h6.129v1.362H44Z" transform="translate(-13.396 -12.758)"/><path class="d" d="M47,46h4.086v1.362H47Z" transform="translate(-14.353 -14.034)"/><path class="d" d="M20,10h1.362V22.259H20Z" transform="translate(-5.741 -2.552)"/></g></g><g transform="translate(4807.5 4062.559) rotate(107)"><ellipse class="e" cx="26.817" cy="26.817" rx="26.817" ry="26.817" transform="translate(732.202 3768.712) rotate(-25)"/><ellipse class="e" cx="3.949" cy="3.949" rx="3.949" ry="3.949" transform="translate(824.86 3795.446) rotate(-25)"/><ellipse class="e" cx="6.233" cy="6.233" rx="6.233" ry="6.233" transform="translate(803.002 3792.596) rotate(-25)"/><g transform="translate(-2870.336 2471.873) rotate(-59)"><g class="af" transform="matrix(0.67, -0.74, 0.74, 0.67, 518.36, 3961.51)"><rect class="b" width="74.853" height="59.454" rx="6" transform="matrix(0.98, 0.19, -0.19, 0.98, 253.16, 7.99)"/></g><text class="c" transform="matrix(0.799, -0.602, 0.602, 0.799, 754.594, 3793.438)"><tspan x="-20.476" y="0">PLAY</tspan></text><g transform="translate(699.909 3756.677) rotate(-38)"><path class="d" d="M20.5,24.25A1.248,1.248,0,1,0,21.746,25.5,1.249,1.249,0,0,0,20.5,24.25ZM20.32,25.5a.178.178,0,0,1,.357,0C20.676,25.694,20.32,25.694,20.32,25.5Z" transform="translate(-4.95 -6.385)"/><path class="d" d="M30.5,26.746A1.248,1.248,0,1,0,29.25,25.5,1.249,1.249,0,0,0,30.5,26.746Zm0-1.426a.178.178,0,0,1,.178.178c0,.2-.357.2-.357,0A.178.178,0,0,1,30.5,25.32Z" transform="translate(-7.82 -6.385)"/><path class="d" d="M27.6,31h-1.07a1.6,1.6,0,0,1-3.209,0H22.25A2.674,2.674,0,0,0,27.6,31Z" transform="translate(-5.811 -8.322)"/><path class="d" d="M29.1,9.843a1.423,1.423,0,0,0-1.337-1.417A9.985,9.985,0,0,0,16.423,3.793,6.411,6.411,0,0,0,5.565,8.417V13.91A27.692,27.692,0,0,1,2.09,27.323a.713.713,0,0,0,1.042.923l2.509-1.825A29.017,29.017,0,0,0,10.8,21.589a8.876,8.876,0,0,0,4.039,5.594v3.338H9.13a5,5,0,0,0-4.991,4.991v8.556a.713.713,0,0,0,.713.713H33.373a.713.713,0,0,0,.713-.713V35.512a5,5,0,0,0-1.326-3.383,11.718,11.718,0,0,1,2.6-2.3l3.3-2.143-.016-.024a11.67,11.67,0,0,0,4.787-5.337A10.244,10.244,0,0,0,44.02,15.1a8.008,8.008,0,0,0-4.638-4.978,8.011,8.011,0,0,0-6.8.043,9.328,9.328,0,0,0-3.507,3c.015-.157.024-.314.024-.474Zm.734,26.028-2.824,6.547-1.964-.847,2.824-6.547Zm-2.083-2.446a.7.7,0,0,0-.907.378l-3.389,7.857a.714.714,0,0,0,.372.938l1.756.757H11.269V31.947h2.187a6.867,6.867,0,0,0,3.407,5.24,4.552,4.552,0,0,0,4.5,0,6.867,6.867,0,0,0,3.407-5.24h3.4a11.657,11.657,0,0,1-.425,1.479Zm-2.639-7.495a8.511,8.511,0,0,0,2.019-3.12l.951,3.668a11.763,11.763,0,0,1,.317,4.042h-5V27.229A8.594,8.594,0,0,0,25.106,25.931Zm-1-9.671H14.121a3.572,3.572,0,0,1-3.493-2.852H27.6A3.572,3.572,0,0,1,24.1,16.261ZM10.569,19.826H10.2a1.07,1.07,0,0,1,0-2.139h.357v1.879C10.556,19.653,10.566,19.739,10.569,19.826Zm-.013-9.982H27.669v2.139H10.556ZM26.064,8.417h-13.9a8.559,8.559,0,0,1,13.9,0ZM4.8,25.268l-.182.132a29.126,29.126,0,0,0,2.37-11.49V8.417a4.987,4.987,0,0,1,7.9-4.053,9.957,9.957,0,0,0-4.422,4.062A1.423,1.423,0,0,0,9.13,9.843V12.7a4.971,4.971,0,0,0,1.426,3.486v.079H10.2a2.49,2.49,0,0,0-.851,4.831A27.624,27.624,0,0,1,4.8,25.268Zm7.179-5.7V17.2a4.957,4.957,0,0,0,2.139.488H24.1a4.957,4.957,0,0,0,2.139-.488v2.628a7.129,7.129,0,0,1-7.264,7.129A7.3,7.3,0,0,1,11.982,19.565Zm6.97,8.815h.163a8.542,8.542,0,0,0,2.85-.495v3.347a.713.713,0,0,0,.713.713h.665a5.444,5.444,0,0,1-2.688,4,3.125,3.125,0,0,1-3.084,0,5.442,5.442,0,0,1-2.688-4h.665a.713.713,0,0,0,.713-.713V27.867A8.187,8.187,0,0,0,18.952,28.381ZM5.565,35.512A3.569,3.569,0,0,1,9.13,31.947h.713V43.356H5.565Zm27.1,0v7.843H28.155l3.266-7.574a.712.712,0,0,0-.366-.933,11.853,11.853,0,0,1,.838-1.538A3.565,3.565,0,0,1,32.66,35.512Zm-2.914-1.229-.689-.3a13.256,13.256,0,0,0,.692-6.321,5.543,5.543,0,0,0,1.6,1.1,5.672,5.672,0,0,0,2.247.426c.074,0,.15-.008.225-.01a13.114,13.114,0,0,0-4.069,5.107Zm3.447-22.831a6.377,6.377,0,0,1,2.774-.636,7.184,7.184,0,0,1,2.851.616,6.621,6.621,0,0,1,3.845,4.1,8.844,8.844,0,0,1-.536,6.225c-1.942,4.5-7.333,6.933-10.218,5.689a6.667,6.667,0,0,1-3.223-4.414,10.454,10.454,0,0,1,.347-6.921h0a8.85,8.85,0,0,1,4.161-4.662Z" transform="translate(0)"/><path class="d" d="M40.353,23.249,39.8,24.563l2.575,1.09-.542,1.256,1.31.565.546-1.266L45,26.765l-.55,1.274,1.309.565.553-1.283,1.313.556-.558,1.292,1.31.565.561-1.3,1.318.558.555-1.313L49.5,27.123l.565-1.31,1.318.558.555-1.313L50.633,24.5l.568-1.318,1.309.565.565-1.309-1.309-.565.565-1.309L51.021,20l-.565,1.31-1.309-.565.565-1.309L48.4,18.872l-.565,1.309-1.309-.565.565-1.309-1.31-.565-.565,1.31L42.6,17.922l-.565,1.309,2.619,1.129-.588,1.363L41.484,20.63l-.555,1.313,2.575,1.09-.565,1.31Zm7.837,3.318-1.313-.556.565-1.31,1.313.556Zm1.7-3.946-.573,1.327-1.313-.555.576-1.336Zm-3.927-1.694,1.309.565-.58,1.345-1.313-.556ZM44.816,23.59l1.313.556-.565,1.309L44.252,24.9Z" transform="translate(-10.847 -4.518)"/><path class="d" d="M54.278,46a4.278,4.278,0,1,0,4.278,4.278A4.282,4.282,0,0,0,54.278,46Zm0,7.13a2.852,2.852,0,1,1,2.852-2.852A2.855,2.855,0,0,1,54.278,53.13Z" transform="translate(-13.775 -12.627)"/><path class="d" d="M54.2,59.49a5.641,5.641,0,0,1-3.585-1.266l-.9,1.109A7.151,7.151,0,0,0,54.2,60.916Z" transform="translate(-13.693 -16.135)"/></g></g></g><g transform="translate(4098.632 6115.824) rotate(139)"><ellipse class="f" cx="26.817" cy="26.817" rx="26.817" ry="26.817" transform="translate(732.202 3768.712) rotate(-25)"/><ellipse class="f" cx="3.949" cy="3.949" rx="3.949" ry="3.949" transform="translate(824.86 3795.446) rotate(-25)"/><ellipse class="f" cx="6.233" cy="6.233" rx="6.233" ry="6.233" transform="translate(803.002 3792.596) rotate(-25)"/><g transform="matrix(0.259, -0.966, 0.966, 0.259, -3099.687, 3525.777)"><g class="ae" transform="matrix(0.44, -0.9, 0.9, 0.44, 478.36, 4059.73)"><rect class="b" width="74.853" height="59.454" rx="6" transform="translate(346.97 70.36) rotate(27)"/></g><text class="c" transform="matrix(0.799, -0.602, 0.602, 0.799, 754.594, 3793.438)"><tspan x="-20.519" y="0">VISIT</tspan></text><g transform="translate(610.403 3832.444) rotate(-40)"><g transform="translate(130.494 21.282)"><g transform="translate(0)"><path class="g" d="M199.632,252.136a.844.844,0,0,0-1.163.27l-.283.454a1.824,1.824,0,0,1-1.558.865h-.989a.845.845,0,1,0,0,1.689h.989a3.5,3.5,0,0,0,2.991-1.661l.283-.454A.845.845,0,0,0,199.632,252.136Z" transform="translate(-194.794 -252.008)"/></g></g><g transform="translate(133.424 32.976)"><g transform="translate(0)"><path class="g" d="M231.063,390.9a.845.845,0,0,0-1.154-.306l0,0a.844.844,0,1,0,1.158.3Z" transform="translate(-229.486 -390.481)"/></g></g><g transform="translate(145.058 41.55)"><g transform="translate(0)"><path class="g" d="M368.108,492h-.016a.845.845,0,0,0,0,1.689h.016a.845.845,0,0,0,0-1.689Z" transform="translate(-367.247 -491.999)"/></g></g><g transform="translate(124.563 -0.001)"><g transform="translate(0 0)"><path class="g" d="M142.56,22.992l.7-.757a3.846,3.846,0,0,0,1.028-2.621V17.729a2.845,2.845,0,0,0-2.1-2.741l-3.5-.947V12.8a6.088,6.088,0,0,0,.618-.725A8.137,8.137,0,0,0,140.752,7.3a8.569,8.569,0,0,0-2.346-6.1,4.907,4.907,0,0,0-4.4-1.109,5.308,5.308,0,0,0-3.395,1.771A3.52,3.52,0,0,0,127.8,3.769a3.85,3.85,0,0,0,.564,3.807,3.921,3.921,0,0,0,2.905,3.772,6.14,6.14,0,0,0,1.42,1.763v1.057l-5.381,2.521a3.766,3.766,0,0,0-2.16,3.4v3.505a1.915,1.915,0,0,0,1.913,1.913h1.285l.753,2.843c-.418,1.045-1.87,4.832-1.87,6.925,0,1.736,1.458,4.6,2.405,6.277h-4.226a.845.845,0,0,0,0,1.689h18.036a.845.845,0,0,0,0-1.689h-1.431c.748-2.146,2.113-6.759,1.227-9.728a19.035,19.035,0,0,0-2.552-4.4l.325-3.548A3,3,0,0,0,142.56,22.992ZM139.02,6.481a8,8,0,0,1,.043.823,6.442,6.442,0,0,1-1.125,3.773,3.057,3.057,0,0,1-2.422,1.421,3.189,3.189,0,0,1-2.6-1.677,3.735,3.735,0,0,0,1.327-2.833,3.721,3.721,0,0,0,2.574-2.86A7.613,7.613,0,0,1,139.02,6.481Zm-6.514.253a.845.845,0,0,0-.078.841c.435.946-.359,1.766-.791,2.122a2.291,2.291,0,0,1-1.594-2.421.844.844,0,0,0-.167-.489,2.351,2.351,0,0,1-.543-2.308,2.051,2.051,0,0,1,1.844-.98.845.845,0,0,0,.718-.5,3.264,3.264,0,0,1,2.378-1.241,5.483,5.483,0,0,1,.862-.07,2.788,2.788,0,0,1,2.044.672c.016.018.033.035.051.051a5.134,5.134,0,0,1,1.1,1.546,5.6,5.6,0,0,0-2.067-.68.845.845,0,0,0-.913.706c-.187,1.163-.7,2.521-2.072,2.4A.843.843,0,0,0,132.506,6.734Zm8.294,23.9a8.357,8.357,0,0,1,.82,1.673c.824,2.763-.814,7.642-1.4,9.245h-6.957a13.044,13.044,0,0,0,7.055-8.13A13.482,13.482,0,0,0,140.8,30.632Zm-.434-8.371h-3.553a.845.845,0,0,0,0,1.689h2.5l-.327,3.573a9.412,9.412,0,0,1-3.345,4.365.844.844,0,0,0,1.042,1.329,13.473,13.473,0,0,0,2.415-2.42,11.744,11.744,0,0,1-.4,2.157c-1.013,3.528-3.571,6.123-7.608,7.723a26.19,26.19,0,0,1-1.843-3.906,25.68,25.68,0,0,0,3.335-1.159.844.844,0,1,0-.669-1.551,23.82,23.82,0,0,1-2.984,1.046,26.348,26.348,0,0,1,1.846-6.379.844.844,0,0,0,.036-.539l-1.526-5.765a.844.844,0,0,0-.815-.628q-.041,0-.083,0h-.011l-.06.009a.912.912,0,0,0-.791.824v1.182h-.456a.224.224,0,0,1-.224-.224V20.087a2.071,2.071,0,0,1,1.188-1.868l5.587-2.617a1.336,1.336,0,0,0,.766-1.205v-.37A4.107,4.107,0,0,0,137,13.912v.153a1.659,1.659,0,0,0,1.224,1.6l3.528.954a1.153,1.153,0,0,1,.85,1.111v1.885a2.162,2.162,0,0,1-.578,1.474l-.7.756A1.3,1.3,0,0,1,140.367,22.261Z" transform="translate(-124.563 0.001)"/></g></g></g></g></g><g transform="translate(1372.879 7719.865) rotate(-173)"><ellipse class="f" cx="26.817" cy="26.817" rx="26.817" ry="26.817" transform="translate(732.202 3768.712) rotate(-25)"/><ellipse class="f" cx="3.949" cy="3.949" rx="3.949" ry="3.949" transform="translate(824.86 3795.446) rotate(-25)"/><ellipse class="f" cx="6.233" cy="6.233" rx="6.233" ry="6.233" transform="translate(803.002 3792.596) rotate(-25)"/><g transform="matrix(-0.819, -0.574, 0.574, -0.819, -817.345, 7309.52)"><g class="ad" transform="matrix(0.74, -0.67, 0.67, 0.74, 276.34, 3877.54)"><rect class="b" width="74.853" height="59.454" rx="6" transform="translate(376.28 205.83) rotate(5)"/></g><text class="c" transform="matrix(0.799, -0.602, 0.602, 0.799, 753.034, 3796.188)"><tspan x="-18.224" y="0">TAXI</tspan></text><g transform="translate(667.47 3715.5) rotate(-38)"><path class="h" d="M39.845,81.17,30.373,79l-1.8-8.819a4.1,4.1,0,0,0-3.654-3.256v-3.4a.613.613,0,0,0-.613-.613H22.65A2.954,2.954,0,0,0,19.7,65.865v1.044H17.614A17.609,17.609,0,0,0,.047,83.253a.613.613,0,0,0,1.223.087A16.385,16.385,0,0,1,17.614,68.135h6.954a2.872,2.872,0,0,1,2.805,2.29l1.878,9.206a.613.613,0,0,0,.464.475l9.857,2.259a1.346,1.346,0,0,1,1.048,1.26H39.31a1.836,1.836,0,1,0,0,3.672h1.312v.731a1.361,1.361,0,0,1-1.069,1.324l-2.152.461c.01-.13.017-.26.017-.392a5.056,5.056,0,1,0-10.033.888H13.061a5.055,5.055,0,1,0-10.03-1.024l-1.3-.476a.774.774,0,0,1-.506-.725V85.748a.613.613,0,1,0-1.226,0v2.335A2,2,0,0,0,1.312,89.96l1.867.685a5.055,5.055,0,0,0,9.5.891H27.77a5.055,5.055,0,0,0,9.351-.408l2.69-.576a2.593,2.593,0,0,0,2.038-2.522V83.684a2.568,2.568,0,0,0-2-2.514ZM20.925,66.909V65.865A1.727,1.727,0,0,1,22.65,64.14h1.044v2.769H20.925ZM8.084,93.251a3.83,3.83,0,1,1,3.83-3.83A3.835,3.835,0,0,1,8.084,93.251Zm24.276,0a3.83,3.83,0,1,1,3.83-3.83A3.835,3.835,0,0,1,32.361,93.251Zm6.949-7.18a.61.61,0,1,1,0-1.22h1.312v1.22H39.31Z"/><path class="h" d="M68.462,354.072a2.709,2.709,0,1,0,2.709,2.709A2.712,2.712,0,0,0,68.462,354.072Zm0,4.193a1.483,1.483,0,1,1,1.483-1.483A1.485,1.485,0,0,1,68.462,358.265Z" transform="translate(-60.378 -267.361)"/><path class="h" d="M365.484,354.072a2.709,2.709,0,1,0,2.709,2.709A2.712,2.712,0,0,0,365.484,354.072Zm0,4.193a1.483,1.483,0,1,1,1.483-1.483A1.485,1.485,0,0,1,365.484,358.265Z" transform="translate(-333.123 -267.361)"/><path class="h" d="M242.457,143.023h3.457a.411.411,0,0,1,.4.329l.218,1.069a.613.613,0,1,0,1.2-.245l-.218-1.068a1.641,1.641,0,0,0-1.6-1.31h-3.457a1.409,1.409,0,0,0-1.407,1.407v7.945a1.409,1.409,0,0,0,1.407,1.407h5.265a1.408,1.408,0,0,0,1.38-1.689l-.877-4.3a.613.613,0,0,0-1.2.245l.877,4.3a.182.182,0,0,1-.178.217h-5.265a.182.182,0,0,1-.181-.181V143.2A.182.182,0,0,1,242.457,143.023Z" transform="translate(-221.347 -72.436)"/><path class="h" d="M47.145,191.207H50.5a1.409,1.409,0,0,0,1.408-1.408v-4.5a1.407,1.407,0,0,0-2.336-1.058,15.135,15.135,0,0,0-3.379,4.309c-.113.215-.222.435-.324.655a1.408,1.408,0,0,0,1.277,2Zm-.165-1.485c.094-.2.194-.4.3-.6a13.912,13.912,0,0,1,3.106-3.962.165.165,0,0,1,.112-.045.189.189,0,0,1,.077.018.176.176,0,0,1,.109.167v4.5a.182.182,0,0,1-.182.182H47.145a.182.182,0,0,1-.165-.259Z" transform="translate(-41.997 -111.086)"/><path class="h" d="M142.13,142.009c-.245.007-.421.015-.537.024a15.149,15.149,0,0,0-4.471,1.024,1.4,1.4,0,0,0-.883,1.306v6.981a1.409,1.409,0,0,0,1.408,1.408h4.525a1.409,1.409,0,0,0,1.408-1.408v-7.928a1.408,1.408,0,0,0-1.449-1.407Zm.223,9.335a.182.182,0,0,1-.182.182h-4.525a.182.182,0,0,1-.182-.182v-6.981a.178.178,0,0,1,.108-.166,13.919,13.919,0,0,1,4.11-.941c.067,0,.205-.013.484-.021h.006a.178.178,0,0,1,.126.051.181.181,0,0,1,.055.13Z" transform="translate(-125.103 -72.63)"/><path class="h" d="M241.663,283.389a.613.613,0,1,0,0,1.226h1.871a.613.613,0,1,0,0-1.226Z" transform="translate(-221.347 -202.455)"/><path class="h" d="M140.855,283.389a.613.613,0,1,0,0,1.226h1.871a.613.613,0,0,0,0-1.226Z" transform="translate(-128.779 -202.455)"/><path class="h" d="M212.261,342.019h-1.206v-1.226h-1.246v1.246h1.226v1.226h1.246v-1.226h1.206v1.226h1.246v-1.226h1.226v-1.246h-1.246v1.226h-1.206v-1.226h-1.246Z" transform="translate(-192.66 -255.167)"/></g></g></g><g transform="translate(36.035 4.939)"><g class="ac" transform="matrix(1, 0, 0, 1, 649.68, 3625.98)"><path class="i" d="M18830.691-10512.02a1.877,1.877,0,0,1-1.084-.4h-.193s-.125-.161-.3-.436a4.516,4.516,0,0,1-1.285-3.549c.156-.662.336-1.422.535-2.261h-.17c.068-.291.139-.59.211-.895a27.4,27.4,0,0,1-7.975-2.8,14.813,14.813,0,0,1-5.615-3.757c-3.553-3.9-4.545-9.471-5.043-14.732-1.367-14.51-.6-29.655,3.348-43.728a60.321,60.321,0,0,1,9.1-19.615,41.456,41.456,0,0,1,7.172-8,28.057,28.057,0,0,1-5.135-2.525c-15.844-9.755-10.443-24.721-6.064-28.43s4.982-8.093,4.379-16.295,4.92-12.362,9.641-13.6c5.732-1.468,10.008-3.039,12.592-7.31,4.041-6.744,8.533-7.983,14.832-7.532a11.53,11.53,0,0,1,6.307,2.214,1.627,1.627,0,0,1,1.221.65l.965,1.61a27.129,27.129,0,0,1,3.941.042,19.9,19.9,0,0,1,15.473,8.962,21.982,21.982,0,0,1,2.859,11,34.777,34.777,0,0,1-.906,6.744,26.4,26.4,0,0,1-.965,3.319,7.594,7.594,0,0,1-1.049,2.3c-.514.561-.623,1.32-1.117.717a.866.866,0,0,1-.156-.268,30.718,30.718,0,0,1-3.182,9.42,19.5,19.5,0,0,1-2.437,3.539c-.01.44-.051.9-.072,1.391,0,.324,0,.643-.006.952,0,.089.01.179.018.269l.027,4.028c.074,2.219.113,4.444.27,6.42a28.975,28.975,0,0,1,11.135,5.737,30.614,30.614,0,0,1,7.637,8.683c5.48,8.662,8.92,18.223,12.619,27.712,3.494,8.952,8.262,16.553,8.115,26.341,1.631.069,3.168.461,3.387,2.669a2.544,2.544,0,0,1-1.062,2.6,2.523,2.523,0,0,1,.73.418,2.3,2.3,0,0,1,.8,1.681,2.465,2.465,0,0,1-1.52,2.731,1.684,1.684,0,0,1,.65,1.083,1.856,1.856,0,0,1-.029.9,1.863,1.863,0,0,1-1.238,1.553,1.626,1.626,0,0,1-.574.095,1.293,1.293,0,0,1,.137.442c.172,1.667-.8,2.7-2.9,3.077-.332.062-.82.181-1.443.337a47.741,47.741,0,0,1-4.711,1.039,20.6,20.6,0,0,1-1.971,1.621c-.07.051-.141.1-.213.149q.059.877.107,1.727a4.141,4.141,0,0,0,.053.665c.229,2.241.979,9.252,1.6,14.613.186,1.6.357,3.059.5,4.218a2.169,2.169,0,0,1-.527,1.71,2.191,2.191,0,0,1-1.635.74Z" transform="translate(-18646.52 10821.75)"/></g></g><g transform="translate(36.035 4.939)"><g transform="translate(-2298.582 1458.168) rotate(-40)"><path class="j" d="M491.262,457.658a.6.6,0,0,1-.6-.566,3.8,3.8,0,0,0-.6-2.066,7.031,7.031,0,0,1-1.06-3.271.606.606,0,1,1,1.205-.139,5.926,5.926,0,0,0,.88,2.8,4.918,4.918,0,0,1,.8,2.6.6.6,0,0,1-.566.639Z" transform="translate(455.025 3364.881)"/><g transform="translate(819.988 3928.719) rotate(-26)"><path class="k" d="M56.069-7.759c9.661-4.817,26.3-9.562,30.261,4.893,2.156,7.86-.721,14.179-5.276,20.3C74.929,25.651,67.235,32.287,59.7,39.146S46.568,53.654,36.325,56.726c-6.871,2.044-14.7,1.522-20.7-2.406S5.917,42.794,7.53,35.8,16.274,23.19,20.968,18.1C22.254,16.7,22.8,11.03,24.391,9.516c5.373-5.127,12.425-5.5,18.8-9.755A118.146,118.146,0,0,1,56.069-7.759Z" transform="translate(32.825 -5.788)"/><path class="k" d="M40.631-.629a8.548,8.548,0,0,1,.209,8.124c-2.039,3.981-6.048,4.351-9.893,5.825a36.392,36.392,0,0,1-12.1,2.525c-.768.013-1.871.251-2.62.236-1.057-.028-2.151.116-3.211.175A53.5,53.5,0,0,0,6.89,16.6a1.283,1.283,0,0,1-.921-.192.813.813,0,0,1-.155-.878,1.7,1.7,0,0,1,.607-.719,10.646,10.646,0,0,1,2.771-1.149,3.988,3.988,0,0,0,2.366-1.745L4.882,12.7a4.477,4.477,0,0,1-1.7-.024,1.343,1.343,0,0,1-.444-2.516,4.3,4.3,0,0,1,1.508-.572L9.384,8.331A.543.543,0,0,0,9.765,8.1a.349.349,0,0,0-.184-.42,1.015,1.015,0,0,0-.493-.091,57.457,57.457,0,0,1-5.86-.38C2.44,7.114,1.5,6.9,1.268,6.122a1.422,1.422,0,0,1,.748-1.551,4.214,4.214,0,0,1,1.8-.427L7.858,3.8a21.827,21.827,0,0,0,3.988-.348,55.784,55.784,0,0,0,5.282-2.241C18.2.775,13.8.321,11.72.07s-2.6-1.849.93-2.287,6.462-1.17,7.441-1.135,3.4.189,5.076.439l1.672.256c2.411.627,4.531-1.258,6.9-1.448A7.446,7.446,0,0,1,39.946-1.53,7.9,7.9,0,0,1,40.631-.629Z" transform="translate(33.291 19.94)"/><path class="k" d="M33.565-2.879,33.543-3a.6.6,0,0,0-.324-.33.6.6,0,0,0-.462,0,10.569,10.569,0,0,1-4.471,1.082,10.345,10.345,0,0,1-2.038-.424c-.244-.067-.489-.134-.738-.194-3.949-.992-7.651-.3-11.549.421l-1.637.289A2.29,2.29,0,0,0,10.8-1.41,1.766,1.766,0,0,0,11.211.934a3.8,3.8,0,0,0,1.88.7,27,27,0,0,0,4.009.29,12.127,12.127,0,0,1-1.586.928,9.126,9.126,0,0,1-3.308.981l-.282-.005a46.8,46.8,0,0,0-7.769.348,4.488,4.488,0,0,0-1.5.442A2.024,2.024,0,0,0,1.578,6.15,2.055,2.055,0,0,0,2.858,8.1a6.333,6.333,0,0,0,2.061.413c.154.009.3.026.448.043.542.057,1.083.1,1.623.148l1.374.125c.174.018.337.039.5.047-1.167.322-2.336.626-3.476.858a5.2,5.2,0,0,0-2.26.851A2.193,2.193,0,0,0,2.4,13.254c.571,1.055,1.872,1.144,2.8,1.116a40.9,40.9,0,0,0,5.658-.631c-1.2.468-2.339.859-3.271,1.189a3.254,3.254,0,0,0-1.323.686,1.566,1.566,0,0,0-.381,1.829c.445.857,1.537.842,1.947.843A82.6,82.6,0,0,0,19.458,17c1.965-.3,4-.619,6.01-.852a13.945,13.945,0,0,0,4.62-1.139,5.616,5.616,0,0,0,3.16-3.8.6.6,0,0,0-1.184-.226,4.4,4.4,0,0,1-2.539,2.95,12.876,12.876,0,0,1-4.219,1.019c-2.038.237-4.081.554-6.058.86A81.552,81.552,0,0,1,7.774,17.041c-.66.006-.828-.117-.866-.19a.433.433,0,0,1,.15-.4,2.234,2.234,0,0,1,.863-.415,41.857,41.857,0,0,0,7.565-3.169.6.6,0,0,0-.41-1.114l-2.373.418a51.5,51.5,0,0,1-7.584.982c-.955.028-1.51-.131-1.7-.483a1.014,1.014,0,0,1,.41-1.143,4.148,4.148,0,0,1,1.756-.622c1.471-.3,2.935-.7,4.364-1.1s2.847-.783,4.283-1.073a.6.6,0,1,0-.168-1.194,25.932,25.932,0,0,1-5.62.08c-.461-.047-.927-.087-1.387-.129s-1.069-.093-1.6-.152c-.156-.015-.31-.025-.478-.038a5.611,5.611,0,0,1-1.671-.317.886.886,0,0,1-.567-.75.838.838,0,0,1,.46-.583,3.407,3.407,0,0,1,1.1-.3,44.866,44.866,0,0,1,7.539-.3l.282.005a9.279,9.279,0,0,0,3.85-1.1,12.407,12.407,0,0,0,1.764-1.027,4.512,4.512,0,0,0,.457-.392,6.774,6.774,0,0,1,.659-.563A.6.6,0,0,0,18.738.775h0c-.511-.02-1-.026-1.462-.036A26.563,26.563,0,0,1,13.219.457a2.76,2.76,0,0,1-1.3-.443c-.229-.186-.342-.551-.22-.7a1.385,1.385,0,0,1,.764-.282l1.649-.291C17.9-1.959,21.478-2.626,25.166-1.7c.243.061.481.123.719.191a11.482,11.482,0,0,0,2.271.462,11.54,11.54,0,0,0,5.007-1.164A.6.6,0,0,0,33.565-2.879Z" transform="translate(32.191 19.212)"/><path class="k" d="M5.011,21.109a7.4,7.4,0,0,1-1.962-3.838c-.446-2.528-.938-4.349.655-6.313C5.044,9.3,9.293,7.715,11.143,6.728,18.512,2.792,25.7-1.492,32.867-5.8L42.888,10.025c-.011-.065-2.4,1.036-2.553,1.062L29.45,15.662,17.488,20.677a50.273,50.273,0,0,1-5.809,1.991c-2.179.586-3.924.607-5.8-.812A7.732,7.732,0,0,1,5.011,21.109Z" transform="translate(40.3 21.499)"/><path class="l" d="M29.447,13.925,14.367,20.3c-2.072.879-4.306,1.775-6.492,1.346-3.439-.666-5.577-4.565-5.137-8.038S4.7,9.209,7.6,7.249a95.5,95.5,0,0,1,9.344-5.777,73.371,73.371,0,0,0,9.235-6.088Z" transform="translate(36.944 21.579)"/><path class="k" d="M28.89,44.413C26.884,38.208,22.957,32,17.035,28.878c-3.2-1.681-5.609-2.773-9.056-3.065-3.2-.267-4.762-1.051-3.072-4.169C9.224,13.69,20.376,7.2,27.741,2.2,36.547-3.786,46.327-8.691,57.013-9.982a21.033,21.033,0,0,1,10.076.8c3.177,1.226,5.949,3.9,6.522,7.255C74.459,2.884,70.784,7.2,67.4,10.718L47.37,31.537C45.429,33.538,31.086,51.214,28.89,44.413Z" transform="translate(37.986 -2.694)"/><path class="k" d="M8.208,25.475l-.536-.162C7.3,25.2,4.653,23.459,4.6,23.486A21.392,21.392,0,0,1,9.876,21.3c1.489-.4,3.4-.96,4.889-.477,3.51,1.137,7.026,2.34,10.747,2.387,2.017.024,4.757-.429,4.985-2.953.176-1.952-1.345-4.155-2.44-5.614A29.219,29.219,0,0,0,17.981,5.858c-.332.059-1.333-.621-1.663-.759a16.438,16.438,0,0,0-1.858-.615,9.213,9.213,0,0,0-3.924-.33A26.6,26.6,0,0,0,7.11,5.542c-1.539.535-2.63,1.565-4.169,2.1a1.439,1.439,0,0,1-1.4-.022,1.053,1.053,0,0,1-.275-1c1.628-7.628,9.7-10.054,16.06-7.867C23.918,1.018,29.928,6.2,33.75,12.125c3.6,5.562,4.251,13.321-2.627,16.326-4.3,1.891-9.23,1.016-13.627-.191-2.282-.625-4.529-1.4-6.785-2.119C9.884,25.889,9.031,25.7,8.208,25.475Z" transform="translate(36.406 23.003)"/></g></g><path class="m" d="M332.824,363.3s-2.024-4.946-8.995-5.422c-6.3-.452-10.79.789-14.833,7.531-2.585,4.272-6.856,5.844-12.591,7.308-4.717,1.235-10.242,5.392-9.639,13.6s0,12.585-4.38,16.3-9.778,18.676,6.067,28.43c14.272,8.88,29.894,2.139,34.5-10.115,4.494-11.8-1.235-17.978-5.061-26.075-3.368-7.079-.9-15.284,1.012-17.3,2.247-2.584,3.488-2.024,3.488-2.024Z" transform="translate(538.967 3401.967)"/><path class="f" d="M384,574.59H304.217c-1.591,0-3.229-2.843-2.862-4.386.241-1.006.53-2.229.855-3.615.042-.174.072-.355.109-.536,1.536-7.832,2.3-15.832,3.326-23.725a82.446,82.446,0,0,0,.849-15.845q-.536-9.452-1.681-18.863c-.861-7.007-1.982-14.086-1.163-21.086.994-8.543,5.229-15.833,12.754-20.146,7.868-4.507,17.417-5.838,26.358-5.838h1.548c7.44,0,17.809,2.976,22.821,8.916,5.422,6.416,10.091,15.779,13.953,24.388.891,1.988,1.741,3.934,2.542,5.8a28.282,28.282,0,0,1,2.3,8.766,19.786,19.786,0,0,1-1.952,10.627,15.057,15.057,0,0,0-1.41,4.584,25.9,25.9,0,0,0-.169,5.8c.2,3.241.4,6.217.6,8.977.386,5.422.759,10.061,1.006,14.242a4.069,4.069,0,0,0,.054.669c.223,2.241.976,9.248,1.6,14.61.187,1.6.356,3.06.5,4.217A2.181,2.181,0,0,1,384,574.59Z" transform="translate(529.639 3361.115)"/><path class="g" d="M388.419,530.36h-76.2c-.85-5.38-1.729-10.844-2.32-14.61h73.675c.892,1.988,1.741,3.934,2.542,5.8A28.277,28.277,0,0,1,388.419,530.36Z" transform="translate(526.222 3339.173)"/><path class="g" d="M316.115,567.3a15.707,15.707,0,0,0-.187-1.747l70.488-.265a25.9,25.9,0,0,0-.169,5.8c.2,3.241.4,6.217.6,8.977l-73.5.121C314.886,573.447,316.031,568.206,316.115,567.3Z" transform="translate(524.851 3319.478)"/><path class="g" d="M385.007,629.17H302c.922-3.91,2.151-9.152,3.416-14.61h77.995C383.633,616.8,384.386,623.808,385.007,629.17Z" transform="translate(529.361 3299.889)"/><path class="n" d="M304.48,516.172c.482,5.832.928,11.67,1.2,17.513.2,3.994-.9,10.386.91,13.977,3.247,6.446,13.8,9.423,20.315,8.657,7.573-.886,19.369-1.3,22.4-8.3,6.326-14.58-10.374-41.642-15.26-55.2-2.211-6.145-4.217-16.736-10.435-18.737-16.062-5.169-20.369,23.628-19.779,33.274Q304.125,511.743,304.48,516.172Z" transform="translate(528.652 3355.979)"/><path class="o" d="M349.932,426.94a1.351,1.351,0,0,0-.042.223,24.263,24.263,0,0,0-.078,3.042c-.126,7.229.657,14.188-2.1,20.978-1.38,3.41-2.6,7.3-1.121,10.67,1.271,2.892,7.229,5.392,14.748,5.392,9.639,0,18.074,1.157,17.2-7.723-.3-3.012-3.651-4.952-5.157-7.338s-1.4-7.735-1.6-12.857c-.072-1.928.108-9.41-.1-11.332-.313-2.862-.687.259-2.856-2.006a13.575,13.575,0,0,0-6.495-3.494,13.389,13.389,0,0,0-7.464-.066C352.92,423.067,350.384,424.784,349.932,426.94Z" transform="translate(511.901 3376.471)"/><path class="p" d="M357.932,454.451l11.411-.934c1.759-.145,3.82-.476,4.633-2.042a5.223,5.223,0,0,0,.313-2.862l-.066-9.284c-.187-2.41.843-4.217-1.6-5.838-1.06-.705-3.115.144-4.386.162a33.955,33.955,0,0,1-6.9-.6,24.952,24.952,0,0,1-3.368-.813,12.433,12.433,0,0,1-2.307-1.326c-.747-.47-1.41-1.717-1.964-1.012-.175.283-1.054-.271-1.06.054-.994,2.862.12,17.236-.6,24.96Z" transform="translate(509.468 3373.382)"/><path class="q" d="M340.849,374.721l-2.073-2.5s-.729-2.681,6.555-7.434c6.681-4.338,9.814-3.41,10.242-2.573l1.807,3.012S346.253,368.359,340.849,374.721Z" transform="translate(514.751 3400.49)"/><path class="o" d="M376.662,387.439c1.133,8.151.6,16.869-3.253,23.966-2.193,4.067-5.8,7.459-10.055,8.043-3.4.47-6.844-.9-9.7-3.012-6.025-4.41-9.85-12.212-9.935-20.182-.145-12.82,10.706-24.363,23.05-20.616C373.023,377.547,375.728,380.758,376.662,387.439Z" transform="translate(512.778 3395.157)"/><path class="r" d="M338.7,372.783c-6.193,6.1-9.862,14.616-8.175,23.382a6.487,6.487,0,0,0,1.319,3.145,2.783,2.783,0,0,0,3.109.855c1.807-.837,1.536-3.44,2.307-5.265.6-1.362,1.807-2.326,2.753-3.464,3.012-3.548,3.259-8.579,3.392-13.218,0,.91,8.977,2.066,12.459,2.066,5.229,0,12.411-3.2,12.935-2.488.6.838.645,4.006.813,8.007.211,5.1.723,4.886,1.458,11.031.06.548-.084,1.163.271,1.585.494.6.6-.157,1.114-.717a7.542,7.542,0,0,0,1.048-2.307,25.486,25.486,0,0,0,.964-3.32,34.844,34.844,0,0,0,.91-6.742,22.043,22.043,0,0,0-2.862-11.007,19.882,19.882,0,0,0-15.471-8.958C351.176,364.921,345.784,365.813,338.7,372.783Z" transform="translate(518.184 3398.992)"/><circle class="s" cx="1.572" cy="1.572" r="1.572" transform="translate(866.495 3792.03)"/><path class="s" d="M361.184,412.532a.585.585,0,0,1-.452-.964c.09-.1.958-1.042,3.223-.952a.6.6,0,0,1-.048,1.2,3.106,3.106,0,0,0-2.284.549A.6.6,0,0,1,361.184,412.532Z" transform="translate(506.066 3380.968)"/><circle class="s" cx="1.572" cy="1.572" r="1.572" transform="translate(880.057 3791.667)"/><path class="s" d="M383.622,411.951a.6.6,0,0,1-.572-.633.559.559,0,0,1,.12-.331c.09-.108.952-1.054,3.223-.952a.6.6,0,1,1-.048,1.2,3.059,3.059,0,0,0-2.283.548A.6.6,0,0,1,383.622,411.951Z" transform="translate(497.143 3381.201)"/><path class="t" d="M374.569,418.923a.753.753,0,0,1-.277-1.452c.223-.09.94-.41.885-.892-.036-.313-.289-1.386-.524-2.41-.355-1.512-.747-3.223-.831-3.982a.753.753,0,1,1,1.494-.163c.072.669.476,2.41.8,3.807s.512,2.205.554,2.579a2.428,2.428,0,0,1-1.808,2.47A.751.751,0,0,1,374.569,418.923Z" transform="translate(500.815 3381.488)"/><path class="b" d="M375.769,429c-.344,4.512-7.41,8.706-11.9.337Z" transform="translate(504.767 3373.658)"/><path class="j" d="M369.706,434.389c-1.807,0-4.663-.825-7.007-5.193a.777.777,0,0,1,0-.735.747.747,0,0,1,.633-.374l11.9-.337a.747.747,0,0,1,.771.807,6.627,6.627,0,0,1-5.127,5.711A5.673,5.673,0,0,1,369.706,434.389Zm-5.043-4.82c1.675,2.548,3.741,3.7,5.922,3.235a5.205,5.205,0,0,0,3.778-3.512Z" transform="translate(505.269 3374.153)"/><path class="u" d="M357.5,405.3a.753.753,0,0,1-.572-1.241,6.537,6.537,0,0,1,5.7-2.476.746.746,0,0,1-.259,1.47,5.067,5.067,0,0,0-4.32,1.97.771.771,0,0,1-.548.277Z" transform="translate(507.597 3384.566)"/><path class="u" d="M387.032,405.317a.771.771,0,0,1-.6-.259,5.054,5.054,0,0,0-4.319-1.97.747.747,0,0,1-.856-.6.759.759,0,0,1,.6-.862,6.537,6.537,0,0,1,5.7,2.476.753.753,0,0,1-.078,1.06A.766.766,0,0,1,387.032,405.317Z" transform="translate(497.86 3384.549)"/><ellipse class="o" cx="3.042" cy="6.404" rx="3.042" ry="6.404" transform="translate(852.168 3790.438) rotate(-4.27)"/><ellipse class="v" cx="1.38" cy="2.807" rx="1.38" ry="2.807" transform="translate(854.268 3793.89) rotate(-4.27)"/><path class="t" d="M340.288,421.134c-2.115,0-3.958-2.862-4.217-6.627a10.616,10.616,0,0,1,.657-4.771,3.334,3.334,0,0,1,2.729-2.41c1.3-.1,2.53.849,3.392,2.6a.754.754,0,1,1-1.356.663c-.554-1.133-1.277-1.807-1.928-1.765-.536.042-1.06.6-1.452,1.512a9.146,9.146,0,0,0-.536,4.079c.229,3.1,1.657,5.314,2.8,5.235.633-.048,1.259-.825,1.639-2.03a.756.756,0,0,1,1.44.458c-.6,1.855-1.669,2.976-2.97,3.079Z" transform="translate(515.835 3382.275)"/><circle class="b" cx="2.651" cy="2.651" r="2.651" transform="translate(858.467 3824.763)"/><circle class="b" cx="2.651" cy="2.651" r="2.651" transform="translate(861.887 3830.33)"/><circle class="b" cx="2.651" cy="2.651" r="2.651" transform="translate(867.942 3833.51)"/><circle class="b" cx="2.651" cy="2.651" r="2.651" transform="translate(874.509 3833.785)"/><circle class="b" cx="2.651" cy="2.651" r="2.651" transform="translate(880.765 3831.135)"/><circle class="b" cx="2.651" cy="2.651" r="2.651" transform="translate(884.848 3825.779)"/><path class="o" d="M418.81,603.788c10.6,1.5,17.893-1.168,20.05-1.554,2.006-.349,2.585-1.253,2.452-2.489-.09-.9-1.928-1.042-3.259-.789C436.842,599.312,418.816,602.764,418.81,603.788Z" transform="translate(482.924 3306.136)"/><path class="o" d="M441.883,580.437c-.114,2.169,3.615,2.229,5.549,2.025s3.253-.681,3.054-2.705c-.229-2.344-2.072-2.2-4.217-2.2-1.512,0-8.766.162-9.64,1.584Z" transform="translate(475.84 3314.602)"/><path class="o" d="M444.73,588.505c-.048,1.711,3.386,2.067,5.422,1.964,2.133-.223,4.217-.338,4.037-2.735-.169-2.211-2.693-1.928-4.711-1.717C447.441,586.12,444.778,586.8,444.73,588.505Z" transform="translate(472.621 3311.294)"/><path class="o" d="M445.146,594.912c.042,1.47,2.247,1.922,4.717,1.663s3.862-.5,3.615-2.066c-.2-1.344-2.6-1.386-4.157-1.109-1.446.265-4.217.151-4.181,1.512Z" transform="translate(472.457 3308.356)"/><path class="w" d="M313.8,587.847c-1.723.807-2.537,2.115-3.681,4.988-3.319,8.338-8.472,17.977-8.954,26.938-.075,1.457-1.277,4.183-1.254,6.711a6.376,6.376,0,0,0,1.254,3.323h16.455s30.521-9.464,45.9-14.929c9.814-3.488,23.689-14.718,11.013-24.292-3.35-2.53-6.163-1.169-9.79-.53-3.9.693-6.2.12-10.152-.771a130.817,130.817,0,0,0-24.81-3.133,56.661,56.661,0,0,0-12.368.681A15.566,15.566,0,0,0,313.8,587.847Z" transform="translate(531.41 3305.493)"/><path class="x" d="M445.372,582.727c-1.326,0-3.054-.193-3.982-1.066a1.983,1.983,0,0,1-.6-1.145l-5.627-1.38.4-.639c1.06-1.693,8.013-1.838,10.115-1.838h.337c1.964,0,4.175,0,4.44,2.687.283,2.9-2.3,3.169-3.536,3.3C446.595,582.679,446.034,582.727,445.372,582.727Zm-7.964-4.157,4.452,1.09v.452a.947.947,0,0,0,.3.765c.777.735,2.9.88,4.657.693,2.079-.223,2.705-.735,2.573-2.115-.163-1.657-1.205-1.723-3.356-1.711H445.7A35.748,35.748,0,0,0,437.407,578.57Z" transform="translate(476.428 3314.956)"/><path class="x" d="M449.2,590.678c-1.205,0-3.717-.139-4.82-1.2a1.736,1.736,0,0,1-.555-1.314c.054-2.03,2.753-2.892,5.26-3.013,1.608-.168,3.41-.355,4.482.536a2.325,2.325,0,0,1,.8,1.681c.2,2.832-2.277,3.085-4.271,3.3h-.253Zm1.9-4.6a17.708,17.708,0,0,0-1.885.132h-.078c-2.012.1-4.217.76-4.217,1.964h0a.663.663,0,0,0,.223.506c.729.705,2.879.988,4.627.9h.229c2.41-.253,3.416-.518,3.3-2.133a1.267,1.267,0,0,0-.416-.934A2.824,2.824,0,0,0,451.107,586.075Z" transform="translate(472.979 3311.64)"/><path class="x" d="M448.22,596.869a5.2,5.2,0,0,1-3.307-.885,1.867,1.867,0,0,1-.663-1.367h0c-.03-1.548,1.94-1.753,3.53-1.916.4-.042.789-.084,1.1-.139,1.343-.241,3.115-.253,4.085.44a1.669,1.669,0,0,1,.7,1.121,1.874,1.874,0,0,1-.313,1.494c-.6.795-1.9.988-3.783,1.2A12.511,12.511,0,0,1,448.22,596.869Zm-2.886-2.3a.785.785,0,0,0,.289.6c.6.524,2.066.735,3.831.548,1.458-.157,2.693-.319,3.012-.771a.772.772,0,0,0,.1-.669.6.6,0,0,0-.265-.4,5.24,5.24,0,0,0-3.259-.253c-.343.06-.747.1-1.205.151C446.87,593.875,445.3,594.037,445.334,594.574Z" transform="translate(472.813 3308.693)"/><path class="x" d="M424.834,604.411a46.408,46.408,0,0,1-6.464-.458l-.47-.066v-.5c0-.795.735-1.368,16.387-4.645,1.663-.343,2.976-.6,3.241-.7a4.854,4.854,0,0,1,3.428.374,1.2,1.2,0,0,1,.53.88c.175,1.669-.8,2.7-2.9,3.079-.337.06-.825.181-1.446.337A47.863,47.863,0,0,1,424.834,604.411ZM420.37,603.1a45.866,45.866,0,0,0,16.514-1.416c.639-.163,1.145-.289,1.524-.355,1.9-.337,2.091-1.114,2.006-1.9,0,0,0-.06-.1-.126a4.019,4.019,0,0,0-2.524-.187c-.247.072-1.3.3-3.278.7C431.256,600.513,423.641,602.1,420.37,603.1Z" transform="translate(483.287 3306.511)"/><path class="y" d="M408.525,583.208a7.55,7.55,0,0,0-.3,2.072A8.188,8.188,0,0,0,411.6,591.8c2.187,1.6,5.386.4,7.886.44a43.482,43.482,0,0,0,10.055-.807,31.353,31.353,0,0,0,3.211-.9c.687-.253,1.669-.651,2.482-.885s1.59-.524.7-1.506c-.928-.132-1.054-.066-1.59-.12-.344-.036-.669-.036-.843-.338s.271-.922.711-.909c.585-.052,2.685,1.38,3.864.909a1.768,1.768,0,0,0,.854-2.792c-.788-1.06-5.736-1.07-4.007-1.449,1.151-.254,2.549.747,3.651,0s1.8-2.11.758-2.987-4.9.818-4.915-.52c0-1.022,3.041-.065,4.513-1.294.421-.331-.141-2.482-.355-3.45-.44-1.988-10.79.207-12.815,1.015-1.2.47-.545-3.068-.545-3.068s.78-4.675,0-7.194-.792-4.3-2.574-5a7.533,7.533,0,0,0-4.168,0s.2,8.742-1.363,10.076c-2.41,1.892-1.5,5.742-4.333,7.085A8.2,8.2,0,0,0,408.525,583.208Z" transform="translate(487.133 3317.587)"/><path class="o" d="M308.7,587.7c3.693.1,11.838-1.549,21.176-2.513a103.515,103.515,0,0,1,10.712-.626h.783l11.447-.187,15.845-.283c4.615-.078,10.88-1.4,12.959,4.145a6.916,6.916,0,0,1-1.729,7.314c-1.639,1.494-3.874,2.127-6.025,2.669-2.573.6-5.121,1.042-7.663,1.7q-13.857,3.56-27.8,6.8c-9.2,2.151-11.929,2.476-15.062,2.669-5.621.356-12.525.741-14.3-3.265C305.815,598.8,305.507,587.684,308.7,587.7Z" transform="translate(527.588 3312.079)"/><path class="z" d="M343.211,605.416a10.142,10.142,0,0,0,2.133,1.332c6.663,3.073,16.869-2.524,23.43-4.181,3.494-.885,7.332-1.1,10.7-2.41a8.1,8.1,0,0,0,3.934-2.91,6.754,6.754,0,0,0,.6-6.091c-1.488-3.9-5.03-5.212-8.826-5.32-4.681-.132-9.308-1.356-14.007-1.2-4.886.181-12.579.982-16.869,3.554a10.483,10.483,0,0,0-1.109,17.2Z" transform="translate(514.563 3311.794)"/><g transform="translate(896.337 3921.27) rotate(170)"><path class="aa" d="M.948,66.3A43.935,43.935,0,0,0,.087,78.145c.44,4.82,2.747,9.778,7.007,12.115C13.9,93.99,20.95,87.543,25.637,83.091A60.283,60.283,0,0,0,38,65.355c6.338-13.17,9.717-27.954,10.892-42.479.422-5.272.41-10.929-2.41-15.387C43.735,3.181,38.686.723,33.608.138,24.776-.88,14.413,3.8,10.714,12.187c-2.181,4.952-2.121,11.1-2.831,16.375Q6.485,38.919,4.69,49.215C3.756,54.643,2.027,60.493.948,66.3Z" transform="translate(30.742 5.782)"/><path class="ab" d="M.358,33.21c.133,1.729,2.241,4.127,3.97,4.266,9.163.735,44.491,2.067,53.221,1.1,12.4-1.368,23.255-13.4,15.772-25.743C70.093,7.5,64.327,4.093,58.315,2.436S45.994.677,39.759.629c-7.88-.084-23.3-.771-31.123-.6C2.611.135,3.768,1.382,1.485,7.816c-1.3,3.651-1.253,7.965-1.4,11.8A118.438,118.438,0,0,0,.358,33.21Z" transform="translate(3.74 1.068)"/><path class="q" d="M12.432,39.015c1.765-1.072,1.1-3.115.693-4.53C9.655,22.351,10.86,11.061,11.035,8.072c.139-2.494,1.319-6.458-1.5-7.6A8.917,8.917,0,0,0,6.595.017C4.914-.049,2.98.017,1.841,1.283A5.77,5.77,0,0,0,.757,4.415,89.68,89.68,0,0,0,.42,24.706c.3,3.133,1.126,13.923,2.9,14.857C5.233,40.5,11.336,39.683,12.432,39.015Z" transform="translate(0 0)"/></g></g></g></svg>